<?xml version="1.0" standalone="no"?>
<!DOCTYPE svg PUBLIC "-//W3C//DTD SVG 1.1//EN" "http://www.w3.org/Graphics/SVG/1.1/DTD/svg11.dtd" >
<svg xmlns="http://www.w3.org/2000/svg" xmlns:xlink="http://www.w3.org/1999/xlink" version="1.1">
<metadata>
Created by FontForge 20170731 at Tue Sep 29 22:08:25 2020
 By Aleksey,,,
(c) 1993, 1994, 2001, 2002 Adobe Systems Incorporated. All rights reserved.
</metadata>
<defs>
<font id="ITCAvantGardeStd-XLtObl" horiz-adv-x="1136" >
  <font-face 
    font-family="ITC Avant Garde Std XLt"
    font-weight="275"
    font-style="italic"
    font-stretch="normal"
    units-per-em="2048"
    panose-1="2 11 3 2 2 2 2 2 2 4"
    ascent="1516"
    descent="-532"
    x-height="1085"
    cap-height="1516"
    bbox="-281 -596 2568 1937"
    underline-thickness="102"
    underline-position="-307"
    slope="-10.5"
    unicode-range="U+0020-FB02"
  />
<missing-glyph horiz-adv-x="1288" 
d="M264 0v1434h1024v-1434h-1024zM776 809l348 522h-696zM838 717l348 -522v1044zM428 102h696l-348 523zM367 1239v-1044l348 522z" />
    <glyph glyph-name="f_i" unicode="fi" horiz-adv-x="804" 
d="M778 1032h-338l-190 -1032h-57l190 1032h-178l10 53h178l21 109q61 336 405 348l-10 -55q-92 -7 -138 -23q-160 -60 -202 -286l-18 -93h395l-201 -1085h-57zM891 1329h-57l34 187h58z" />
    <glyph glyph-name="f_l" unicode="fl" horiz-adv-x="804" 
d="M778 1032h-338l-190 -1032h-57l190 1032h-178l10 53h178l21 109q61 336 405 348l-10 -55q-92 -7 -138 -23q-160 -60 -202 -286l-18 -93h337l80 431h58l-281 -1516h-57z" />
    <glyph glyph-name=".notdef" horiz-adv-x="1288" 
d="M264 0v1434h1024v-1434h-1024zM776 809l348 522h-696zM838 717l348 -522v1044zM428 102h696l-348 523zM367 1239v-1044l348 522z" />
    <glyph glyph-name=".null" horiz-adv-x="0" 
 />
    <glyph glyph-name="nonmarkingreturn" horiz-adv-x="682" 
 />
    <glyph glyph-name="space" unicode=" " horiz-adv-x="567" 
 />
    <glyph glyph-name="exclam" unicode="!" horiz-adv-x="530" 
d="M578 1516l-218 -1176h-61l217 1176h62zM328 166l-31 -166h-61l30 166h62z" />
    <glyph glyph-name="quotedbl" unicode="&#x22;" horiz-adv-x="681" 
d="M422 909h-62l113 607h62zM657 909h-61l113 607h61z" />
    <glyph glyph-name="numbersign" unicode="#" 
d="M842 555l-160 -492h-49l158 492h-293l-158 -492h-51l160 492h-310l8 47h316l92 281h-309l8 47h317l148 452h49l-147 -452h292l148 452h49l-147 -452h309l-8 -47h-318l-92 -281h311l-8 -47h-315zM805 602l94 281h-293l-94 -281h293z" />
    <glyph glyph-name="dollar" unicode="$" 
d="M913 1659l-30 -164q66 -8 116.5 -32.5t80.5 -57t48 -74t22.5 -83t0.5 -85.5h-61q5 75 -18 131.5t-63 86.5t-81.5 44.5t-81.5 14.5q-111 0 -214.5 -82.5t-127.5 -212.5q-6 -31 -7 -57.5t5 -49t12.5 -40.5t22 -34.5t28 -28.5t36 -24t39 -19.5t44.5 -17.5t46.5 -15t49.5 -15
q118 -36 176 -79q136 -103 99 -304q-27 -145 -151 -259t-283 -124l-37 -195h-62l37 195q-153 14 -238 120.5t-65 266.5h61q-8 -84 14 -149t65 -103t96 -57t112 -19q138 0 251 95.5t138 230.5q6 45 7 81t-11.5 66t-26.5 52.5t-39.5 41.5t-50 33t-57.5 26.5t-63 22t-66 20.5
q-3 1 -4 1q-21 6 -39.5 12.5t-41.5 17t-41 21.5t-38.5 27.5t-34 34.5t-27.5 42t-18 51t-6.5 60.5t6.5 71.5q25 138 129.5 234.5t249.5 115.5l31 164h61z" />
    <glyph glyph-name="percent" unicode="%" horiz-adv-x="1472" 
d="M268 1208l2 2q26 143 138.5 237.5t257.5 94.5t221.5 -94.5t48.5 -239.5q-26 -145 -138 -239.5t-257 -94.5t-222 94.5t-51 239.5zM326 1208v-2q-22 -122 40.5 -201t184.5 -79q123 0 214.5 79.5t113.5 202.5q23 124 -39.5 203.5t-184.5 79.5t-214 -79.5t-115 -203.5z
M817 307v2q26 143 138.5 237.5t256.5 94.5q145 0 222 -94.5t51 -239.5q-28 -145 -139.5 -239.5t-255.5 -94.5q-145 0 -223 95t-50 239zM874 307v-2q-23 -122 39.5 -201t184.5 -79t214 79t115 203q23 123 -39.5 203t-185.5 80q-122 0 -213.5 -79.5t-114.5 -203.5zM1516 1516
l-1217 -1516h-66l1217 1516h66z" />
    <glyph glyph-name="ampersand" unicode="&#x26;" horiz-adv-x="1476" 
d="M1432 956h63l-379 -534l320 -404l-52 -41l-307 388q-73 -107 -130.5 -174.5t-123.5 -120t-138.5 -75t-162.5 -22.5q-91 0 -163 37t-114 97t-58 136t-1 154q14 76 53.5 144t88.5 117t114 92t121 70t117 50q-11 16 -26.5 36t-26.5 34.5t-25 34.5t-23 35t-20.5 36t-16 38
t-10 41.5t-4 45.5t3.5 50q25 130 135.5 225.5t245.5 95.5q140 0 220 -98.5t55 -231.5q-11 -59 -39.5 -108t-63 -82.5t-88 -65t-99.5 -52t-111 -47.5q-9 -3 -13 -5l307 -387zM903 1481h-2q-118 0 -203 -79t-102 -173q-4 -23 -4.5 -45.5t4 -43.5t10 -39.5t16 -38t20 -35
t24 -34.5t25 -32.5t26 -32.5t24.5 -31q85 34 131.5 55t98 50.5t78 57.5t47.5 66.5t30 87.5q19 107 -43 187t-180 80zM1040 408l-327 419q-124 -50 -212.5 -104.5t-139 -111t-76 -107t-37.5 -109.5q-8 -56 -3 -109t29 -99.5t59.5 -81t89 -54.5t116.5 -20q79 0 145.5 23.5
t127 75t112 115.5t116.5 163z" />
    <glyph glyph-name="quotesingle" unicode="'" horiz-adv-x="454" 
d="M426 909h-61l112 607h62z" />
    <glyph glyph-name="parenleft" unicode="(" horiz-adv-x="870" 
d="M1092 1542l-15 -72q-165 -92 -309.5 -236.5t-252.5 -339t-146 -400.5q-40 -215 -3.5 -404t127.5 -336t222 -239l-15 -76q-246 182 -352.5 455t-44.5 600q59 322 276.5 607t512.5 441z" />
    <glyph glyph-name="parenright" unicode=")" horiz-adv-x="870" 
d="M-39 -561l14 69q123 69 237 170.5t209.5 226.5t165 276t97.5 306q40 214 3 403t-127.5 336.5t-221.5 239.5l14 76q246 -184 352 -456t46 -599q-59 -322 -276.5 -608t-512.5 -440z" />
    <glyph glyph-name="asterisk" unicode="*" horiz-adv-x="1173" 
d="M897 1516l-47 -252l242 127l18 -52l-238 -125l195 -129l-37 -49l-199 125l-47 -252h-59l47 254l-240 -127l-22 51l244 127l-197 123l41 54l193 -127l47 252h59z" />
    <glyph glyph-name="plus" unicode="+" horiz-adv-x="1228" 
d="M834 1026l-91 -485h484l-10 -58h-484l-90 -483h-57l90 483h-483l10 58h483l90 485h58z" />
    <glyph glyph-name="comma" unicode="," horiz-adv-x="567" 
d="M350 168l-186 -315h-66l187 315h65z" />
    <glyph glyph-name="hyphen" unicode="-" horiz-adv-x="544" 
d="M111 596h544l-10 -59h-545z" />
    <glyph glyph-name="period" unicode="." horiz-adv-x="567" 
d="M346 166l-31 -166h-61l31 166h61z" />
    <glyph glyph-name="slash" unicode="/" horiz-adv-x="1060" 
d="M98 -205l1039 1721h67l-1038 -1721h-68z" />
    <glyph glyph-name="zero" unicode="0" 
d="M164 455l108 587q17 90 52 165.5t78 125.5t96 89t102 61t99.5 36t85.5 18.5t63 4.5q100 0 183.5 -34.5t138.5 -96.5t77.5 -152.5t3.5 -197.5l-112 -606q-20 -111 -74.5 -199t-119.5 -139.5t-140.5 -85.5t-133.5 -46t-104 -12q-47 0 -96 10t-102 32.5t-95 59.5t-75 90.5
t-41 125t6 164.5zM336 1049l-111 -594q-18 -99 2.5 -181.5t71 -135t121.5 -81t153 -28.5q49 0 104.5 12t120 43.5t119 77.5t99 122.5t61.5 170.5l113 606q11 50 7.5 101t-15.5 98.5t-42 89t-70 72t-99.5 48t-132.5 17.5q-113 0 -215.5 -48t-182 -149.5t-104.5 -240.5z" />
    <glyph glyph-name="one" unicode="1" 
d="M563 0l271 1460h-336l10 56h397l-280 -1516h-62z" />
    <glyph glyph-name="two" unicode="2" 
d="M117 0l10 55q109 93 326 279.5t325 279.5q15 13 65.5 55.5t72 62t64.5 59.5t66 68.5t52 68t46 79t27 80.5q35 175 -54 287.5t-255 112.5q-75 0 -147.5 -27t-135.5 -79.5t-111.5 -137t-70.5 -190.5h-61q51 242 221 374q72 57 157.5 86t166.5 29q190 0 290.5 -132.5
t59.5 -332.5q-18 -73 -61.5 -142.5t-94.5 -122.5t-141 -136q-60 -52 -321.5 -276t-403.5 -345h833l-10 -55h-915z" />
    <glyph glyph-name="three" unicode="3" 
d="M479 1198h-61q27 110 98 190.5t154.5 117t169.5 36.5q69 0 127.5 -23t100 -66t59 -111t1.5 -152q-43 -213 -272 -322q58 -22 102 -54.5t70.5 -70t43 -77.5t21.5 -81t4 -75.5t-7 -65.5q-38 -211 -192 -341t-361 -130q-103 0 -191.5 45t-138.5 127q-78 126 -45 295h61
q-16 -103 7 -184.5t74 -129.5t115 -72.5t134 -24.5q179 0 310 116.5t163 286.5q10 43 5.5 89.5t-15.5 92t-40.5 86.5t-69 72t-100.5 49.5t-136 18.5h-82l10 55h80q87 0 157 26t109.5 60.5t68.5 80.5t39 75t15 55q23 129 -41 212t-190 83q-130 0 -227.5 -83.5t-129.5 -205.5z
" />
    <glyph glyph-name="four" unicode="4" 
d="M801 0l55 295h-793l11 53l985 1168h84l-215 -1166h153l-10 -55h-153l-56 -295h-61zM145 350h721l201 1092z" />
    <glyph glyph-name="five" unicode="5" 
d="M569 1516h680l-10 -56h-631l-217 -571q51 33 85 52.5t110 43t153 23.5q86 0 159.5 -27.5t124.5 -76t86 -114t42.5 -140.5t-4.5 -156q-27 -145 -120 -265.5t-222 -188t-262 -67.5q-60 0 -120.5 17t-118 54.5t-99.5 91.5t-64.5 133.5t-15.5 174.5h61q-5 -79 13 -146.5
t53 -116.5t83.5 -83.5t104.5 -51.5t115 -17q179 0 336 135t192 323q24 128 -18.5 236t-133 168.5t-206.5 60.5q-203 0 -379 -176l-49 15z" />
    <glyph glyph-name="six" unicode="6" 
d="M936 1516h65l-405 -474q-2 -3 -41 -48.5t-59 -69.5q127 77 264 77q98 0 181 -37.5t138 -103t77 -161.5t1 -207q-18 -102 -73 -196.5t-133 -166t-180 -114t-208 -42.5q-240 0 -350 168q-45 70 -60 161t1 167q22 118 73 204.5t127 174.5zM217 473v-2q-22 -117 10.5 -216.5
t122 -162.5t221.5 -63q191 0 341 134t184 322q20 112 -2.5 202.5t-75.5 145.5t-122 84t-144 29q-56 0 -117.5 -15.5t-128.5 -52t-124 -89t-102 -135t-63 -181.5z" />
    <glyph glyph-name="seven" unicode="7" 
d="M459 1516h805l-11 -56l-946 -1460h-63l944 1460h-739z" />
    <glyph glyph-name="eight" unicode="8" 
d="M422 1186v2q28 142 155.5 248t276.5 106q151 0 238 -103.5t59 -252.5q-19 -105 -97.5 -195.5t-183.5 -132.5q129 -43 195.5 -160.5t42.5 -269.5q-40 -191 -197.5 -323t-347.5 -132t-299 132t-78 323q31 151 140 268t258 162q-90 42 -135.5 132.5t-26.5 195.5zM483 1184
v-2q-23 -125 49 -212t199 -87t231.5 87.5t127.5 213.5q25 127 -46.5 215t-199.5 88q-127 0 -231.5 -87.5t-129.5 -215.5zM248 428v-2q-31 -166 63.5 -281.5t261.5 -115.5t305 116t169 283t-64 283t-262 116t-304.5 -116t-168.5 -283z" />
    <glyph glyph-name="nine" unicode="9" 
d="M481 0h-65l405 473q74 87 103 119q-51 -29 -117 -53q-80 -25 -148 -25q-98 0 -181.5 37.5t-138.5 103.5t-77.5 162t-1.5 207q19 102 74 196.5t133.5 165.5t180.5 113.5t208 42.5q238 0 348 -168q91 -142 60 -327q-22 -118 -73.5 -206t-127.5 -173zM1200 1042l2 2
q10 70 5 134.5t-33 121t-71 98t-109 65.5t-146 24q-191 0 -341.5 -134.5t-184.5 -322.5q-17 -93 -4.5 -167t45.5 -129.5t82.5 -92t106 -54.5t116.5 -18q56 0 117 15.5t128 52t123.5 89t101 135t62.5 181.5z" />
    <glyph glyph-name="colon" unicode=":" horiz-adv-x="567" 
d="M516 1085l-31 -165h-61l31 165h61zM346 166l-31 -166h-61l31 166h61z" />
    <glyph glyph-name="semicolon" unicode=";" horiz-adv-x="567" 
d="M514 1085l-31 -165h-61l31 165h61zM350 168l-186 -315h-66l187 315h65z" />
    <glyph glyph-name="less" unicode="&#x3c;" horiz-adv-x="1228" 
d="M203 547l1114 481l-12 -63l-1039 -451l873 -451l-13 -63l-933 481z" />
    <glyph glyph-name="equal" unicode="=" horiz-adv-x="1228" 
d="M240 739h1024l-11 -57h-1024zM166 342h1024l-10 -57h-1024z" />
    <glyph glyph-name="greater" unicode="&#x3e;" horiz-adv-x="1228" 
d="M115 63l1040 451l-874 451l12 63l934 -481l-10 -66l-1115 -481z" />
    <glyph glyph-name="question" unicode="?" horiz-adv-x="1097" 
d="M623 340h-62q10 45 16 68t19 64.5t30.5 72t44.5 70t66 79t90 80.5q18 16 60.5 52t60.5 52t49.5 48.5t47 56.5t32.5 59.5t25 73.5q28 150 -58 256.5t-245 106.5q-58 0 -118.5 -17t-121.5 -51t-112.5 -95t-79.5 -140q-14 -46 -17 -62h-61q2 20 14 55q27 82 74.5 148
t101 107t115 68.5t114.5 38.5t101 11q85 0 157.5 -31.5t122 -87t70.5 -137t4 -174.5q-11 -57 -39 -109.5t-76.5 -103.5t-85 -83.5t-100.5 -85.5q-11 -9 -16 -13q-65 -54 -109 -108t-66.5 -106.5t-31 -83.5t-16.5 -79zM588 166l-31 -166h-59l30 166h60z" />
    <glyph glyph-name="at" unicode="@" horiz-adv-x="1630" 
d="M1552 383h52q-64 -106 -160.5 -188.5t-200 -129t-203 -69.5t-188.5 -23q-160 0 -292 61t-215.5 164.5t-117.5 247t-4 302.5q39 216 176.5 398.5t338.5 289t419 106.5q101 0 195.5 -26t175.5 -78t136.5 -129t77.5 -178.5t-1 -227.5q-22 -115 -76.5 -213.5t-121 -163
t-141.5 -110.5t-138.5 -66t-110.5 -20q-15 0 -30.5 1.5t-39 10.5t-39.5 24t-24.5 45.5t-1.5 71.5q-25 -27 -45.5 -45.5t-58 -45t-85 -40.5t-100.5 -14q-20 0 -40 4t-45 15t-43.5 30t-33.5 48.5t-17 71t7 97.5q25 140 111 274t203 218t227 84q93 0 134 -42.5t54 -127.5
l74 137h57l-301 -557q-1 -2 -10.5 -20t-20 -42.5t-14.5 -42.5q-24 -102 94 -102q46 0 104 20.5t123 63.5t122.5 102.5t103.5 146t65 185.5q23 120 2 214.5t-71.5 165t-125.5 116.5t-160.5 69t-176.5 23q-146 0 -289.5 -54.5t-261.5 -149.5t-203.5 -235t-115.5 -302
q-30 -160 4 -297.5t116 -229t200.5 -143t256.5 -51.5q115 0 237 35.5t247.5 118.5t209.5 202zM614 604l-2 -2q-11 -51 -5 -88t17.5 -60.5t32.5 -37.5t41.5 -19.5t42.5 -5.5q215 0 355 273q3 6 24.5 41t36 61t34 62t32 66.5t16.5 51.5q7 49 -5.5 86t-38 56.5t-51.5 28.5
t-52 9q-63 0 -138.5 -41.5t-143.5 -110.5t-122.5 -167.5t-73.5 -202.5z" />
    <glyph glyph-name="A" unicode="A" horiz-adv-x="1406" 
d="M406 528l-326 -528h-66l930 1516h80l369 -1516h-66l-129 528h-792zM1182 584l-209 874l-531 -874h740z" />
    <glyph glyph-name="B" unicode="B" horiz-adv-x="1105" 
d="M158 0l280 1516h322q171 0 256 -56q86 -51 111 -138.5t8 -186.5q-14 -74 -44.5 -132.5t-73.5 -96.5t-78 -60t-81 -43q64 -20 111.5 -52.5t72.5 -72t39.5 -78.5t16.5 -80.5t1 -67t-5 -49.5q-53 -267 -310 -368q-107 -35 -247 -35h-379zM489 1460l-118 -639h274
q144 0 223 39q172 89 205 283q19 97 -12.5 170.5t-89.5 101.5q-67 43 -221 45h-261zM360 766l-131 -711h320q128 0 223 33q212 84 260 315q20 113 -19 198.5t-126 127.5q-53 25 -101.5 31t-150.5 6h-275z" />
    <glyph glyph-name="C" unicode="C" horiz-adv-x="1609" 
d="M1524 330h69q-71 -92 -176.5 -170t-253 -132.5t-297.5 -54.5q-161 0 -295 59.5t-221 162t-122 249.5t-3 314q41 223 180.5 403.5t338 280.5t413.5 100q116 -1 217 -33t173 -86t123 -115t83 -130h-72q-17 31 -40 63.5t-70.5 78.5t-103.5 81t-140.5 60t-179.5 26
q-149 0 -292.5 -55.5t-258.5 -151t-197.5 -232t-111.5 -290.5t3 -290.5t112 -232t203 -151t272 -55.5q100 0 198.5 26.5t166 61t133 83t94.5 75.5t55 55z" />
    <glyph glyph-name="D" unicode="D" horiz-adv-x="1435" 
d="M158 0l280 1516h428q362 0 525 -201q164 -200 100 -557q-67 -357 -307 -557.5t-598 -200.5h-428zM489 1460l-260 -1405h367q329 0 550 185.5t281 513.5q62 332 -88 520q-151 186 -483 186h-367z" />
    <glyph glyph-name="E" unicode="E" horiz-adv-x="1120" 
d="M158 0l280 1516h832l-10 -56h-771l-122 -669h770l-11 -56h-770l-127 -680h770l-10 -55h-831z" />
    <glyph glyph-name="F" unicode="F" horiz-adv-x="976" 
d="M158 0l280 1516h744l-11 -56h-682l-122 -669h682l-11 -56h-682l-137 -735h-61z" />
    <glyph glyph-name="G" unicode="G" horiz-adv-x="1746" 
d="M1778 1180h-74q-71 121 -178 194q-156 113 -379 113q-149 0 -292.5 -55.5t-258.5 -151t-197.5 -232t-111.5 -290.5t3 -290.5t112 -232t203 -151t272 -55.5q275 0 520 172q111 77 193 177.5t122 207.5h-903l10 55h977q-34 -116 -106 -223q-134 -198 -356.5 -321.5
t-467.5 -123.5q-161 0 -295 59.5t-221 162t-122 249.5t-3 314q41 223 180.5 403.5t338 280.5t413.5 100q211 0 380.5 -97.5t240.5 -264.5z" />
    <glyph glyph-name="H" unicode="H" horiz-adv-x="1286" 
d="M219 0h-61l280 1516h62l-133 -725h847l134 725h61l-281 -1516h-61l137 735h-848z" />
    <glyph glyph-name="I" unicode="I" horiz-adv-x="378" 
d="M158 0l280 1516h62l-281 -1516h-61z" />
    <glyph glyph-name="J" unicode="J" horiz-adv-x="927" 
d="M1053 1516l-201 -1082q-25 -150 -82 -250q-60 -86 -129 -133q-119 -78 -256 -78q-79 0 -145.5 29.5t-113 91t-56.5 146.5q-2 8 -2.5 26t-1.5 23h67q0 -4 1 -11.5t1 -11.5q7 -60 31 -106t53.5 -70t66.5 -38.5t63 -18.5t50 -4q110 3 194.5 55t123.5 123q49 85 74 227
l200 1082h62z" />
    <glyph glyph-name="K" unicode="K" horiz-adv-x="1097" 
d="M186 0l281 1516h61l-141 -760l848 760h74l-840 -758l629 -758h-82l-629 752l-139 -752h-62z" />
    <glyph glyph-name="L" unicode="L" horiz-adv-x="866" 
d="M158 0l280 1516h62l-271 -1461h641l-10 -55h-702z" />
    <glyph glyph-name="M" unicode="M" horiz-adv-x="1910" 
d="M219 0h-61l280 1516h99l438 -1418l960 1418h97l-281 -1516h-61l270 1454l-987 -1454h-35l-449 1454z" />
    <glyph glyph-name="N" unicode="N" horiz-adv-x="1511" 
d="M530 1516l777 -1434l266 1434h61l-280 -1516h-78l-787 1454l-270 -1454h-61l280 1516h92z" />
    <glyph glyph-name="O" unicode="O" horiz-adv-x="1742" 
d="M225 758v2q41 222 180.5 402t338 280t413.5 100q161 0 294.5 -59t220.5 -161.5t122 -249.5t4 -314q-42 -223 -181.5 -403.5t-337.5 -281t-413 -100.5q-161 0 -295 59.5t-221 162t-122 249.5t-3 314zM287 758l-2 -2q-28 -154 4.5 -289.5t112.5 -231t203.5 -151
t271.5 -55.5q149 0 292.5 55.5t258.5 151t197.5 232t111.5 290.5t-3 290.5t-112 232t-203 151t-272 55.5t-292.5 -55.5t-258.5 -151t-197.5 -232t-111.5 -290.5z" />
    <glyph glyph-name="P" unicode="P" horiz-adv-x="1046" 
d="M418 1516h352q141 0 221 -18.5t142 -72.5q59 -50 84.5 -144t5.5 -196q-19 -102 -79.5 -196t-137.5 -144q-81 -53 -168.5 -71.5t-227.5 -18.5h-291l-120 -655h-62zM469 1460l-139 -749h293q128 0 207.5 18.5t152.5 65.5q63 40 113 121t65 167q17 89 -2.5 171t-66.5 122
q-57 47 -129 65.5t-201 18.5h-293z" />
    <glyph glyph-name="Q" unicode="Q" horiz-adv-x="1806" 
d="M1819 37l-11 -64q-56 6 -133 23q-63 15 -115.5 37t-79 38t-83.5 54q-241 -152 -494 -152q-102 0 -192 21.5t-161 61t-129 95.5t-95 123.5t-60 146t-24 163t14 174.5q41 223 180.5 403.5t338 280.5t413.5 100q161 0 294.5 -59t220.5 -161.5t122 -249.5t4 -314
q-17 -94 -54 -182t-74 -146t-90.5 -118t-82.5 -86t-72 -62q79 -53 157.5 -81t205.5 -46zM1178 1487h-2q-148 0 -291.5 -55.5t-258.5 -151t-197.5 -232t-111.5 -290.5q-27 -139 -4 -254q194 61 363 61q246 0 430 -110q45 -27 93.5 -67t213.5 -187q143 106 233 249.5
t121 307.5q29 154 -3 290.5t-111.5 232t-202.5 151t-272 55.5zM915 29h3q125 0 241.5 40.5t198.5 94.5q-16 12 -69.5 59t-98.5 87t-47 42q-210 158 -486 158q-68 0 -135 -11.5t-100.5 -22t-95.5 -32.5q23 -77 60 -140t79 -105.5t93.5 -74.5t98 -49.5t97.5 -28.5t87.5 -14
t73.5 -3z" />
    <glyph glyph-name="R" unicode="R" horiz-adv-x="1134" 
d="M137 0l281 1516h346q170 0 254.5 -15t136.5 -49q86 -46 127.5 -159.5t17.5 -243.5q-11 -76 -50 -158.5t-103 -149.5q-94 -100 -192 -132.5t-248 -37.5l301 -571h-78l-328 627h43q60 0 97.5 2t100 10t114.5 29t92 55q153 130 190 324q19 102 -11 199.5t-104 152.5
q-56 40 -134.5 50.5t-235.5 10.5h-285l-270 -1460h-62z" />
    <glyph glyph-name="S" unicode="S" horiz-adv-x="1060" 
d="M164 383h61q-5 -83 14.5 -148t52.5 -102.5t78.5 -62t85.5 -33t79 -8.5q96 0 190.5 44t165.5 128t90 188q18 96 -3.5 165.5t-83 110.5t-103 58t-117.5 38q-3 1 -5.5 1.5t-4.5 1.5q-139 36 -205 79q-159 101 -121 304q20 121 95 213t176.5 137t213.5 45q146 0 240 -88.5
t86 -263.5h-62q0 297 -278 297q-148 0 -264.5 -91.5t-143.5 -238.5q-7 -36 -7.5 -67.5t6 -57.5t16 -48t28 -41t35.5 -34t43.5 -28.5t48.5 -23.5t55 -20.5t57 -17.5t60 -16q4 -1 15 -4q19 -5 30.5 -8.5t38 -12.5t42.5 -17.5t44 -23.5t42.5 -31t38 -40t30.5 -49.5t20.5 -60.5
t8 -73t-8.5 -86q-23 -121 -104 -219.5t-191 -151.5t-223 -53q-56 0 -110.5 14.5t-105 47.5t-86 79.5t-53 116t-7.5 152.5z" />
    <glyph glyph-name="T" unicode="T" horiz-adv-x="907" 
d="M422 0l270 1460h-411l10 56h885l-11 -56h-411l-271 -1460h-61z" />
    <glyph glyph-name="U" unicode="U" horiz-adv-x="1239" 
d="M436 1516h62l-183 -984q-13 -71 -17.5 -104.5t-5.5 -83.5t11.5 -90.5t38.5 -85.5q36 -64 115.5 -101.5t171.5 -37.5q87 0 177.5 37.5t151.5 101.5q80 84 109 157.5t53 206.5l183 984h61l-182 -984q-9 -51 -17.5 -90t-29 -96.5t-47.5 -102t-72 -93t-103 -84.5
q-144 -93 -299 -93q-153 0 -264 93q-45 36 -72 84.5t-37 93t-9 102.5t6.5 95.5t15.5 90.5z" />
    <glyph glyph-name="V" unicode="V" horiz-adv-x="1363" 
d="M659 0l-364 1516h70l335 -1414l863 1414h67l-928 -1516h-43z" />
    <glyph glyph-name="W" unicode="W" horiz-adv-x="1818" 
d="M457 0l-152 1516h66l145 -1432l651 1432h43l131 -1432l670 1432h64l-715 -1516h-80l-119 1354l-622 -1354h-82z" />
    <glyph glyph-name="X" unicode="X" 
d="M16 0l660 770l-361 746h74l330 -689l588 689h71l-635 -746l377 -770h-71l-351 717l-614 -717h-68z" />
    <glyph glyph-name="Y" unicode="Y" horiz-adv-x="1134" 
d="M537 0l96 522l-322 994h68l299 -924l637 924h69l-690 -994l-96 -522h-61z" />
    <glyph glyph-name="Z" unicode="Z" horiz-adv-x="1021" 
d="M1241 1479l-1118 -1424h897l-10 -55h-969l6 37l1118 1423h-882l10 56h954z" />
    <glyph glyph-name="bracketleft" unicode="[" horiz-adv-x="870" 
d="M668 -315l-11 -62h-442l350 1893h443l-11 -62h-381l-329 -1769h381z" />
    <glyph glyph-name="backslash" unicode="\" horiz-adv-x="1060" 
d="M817 -205l-399 1721h67l400 -1721h-68z" />
    <glyph glyph-name="bracketright" unicode="]" horiz-adv-x="870" 
d="M74 -377l10 62h381l330 1769h-381l10 62h442l-350 -1893h-442z" />
    <glyph glyph-name="asciicircum" unicode="^" horiz-adv-x="1228" 
d="M371 768l491 748h66l213 -748h-66l-192 680l-447 -680h-65z" />
    <glyph glyph-name="underscore" unicode="_" horiz-adv-x="1024" 
d="M977 -256h-1024l18 102h1024z" />
    <glyph glyph-name="grave" unicode="`" 
d="M608 1538l434 -283l-36 -47l-435 283z" />
    <glyph glyph-name="a" unicode="a" horiz-adv-x="1380" 
d="M1421 1085l-200 -1085h-58l51 281q-100 -147 -246 -227.5t-317 -80.5q-129 0 -229.5 48t-158 127.5t-78.5 182t-1 212.5q21 112 80.5 215t147 181.5t205 125.5t245.5 47q184 0 304.5 -94t144.5 -219l53 286h57zM242 543v-2q-7 -53 -8 -105.5t12 -103t34.5 -96t58 -84
t82.5 -66.5t109 -43.5t136 -15.5q169 0 313.5 93t226.5 245q51 91 66 190q19 103 -2 188q-30 143 -142 229.5t-276 86.5q-141 0 -270 -64.5t-220.5 -183.5t-119.5 -268z" />
    <glyph glyph-name="b" unicode="b" horiz-adv-x="1380" 
d="M160 0l280 1516h58l-80 -431l-53 -286q90 137 235 223.5t332 89.5q128 0 227.5 -47t157.5 -125.5t79.5 -181.5t0.5 -215q-20 -110 -78.5 -212.5t-145 -182t-205 -127.5t-247.5 -48q-171 0 -288 80.5t-165 227.5l-51 -281h-57zM1339 543v2q21 111 -1.5 207.5t-79.5 163.5
t-144 105t-192 38q-144 0 -274 -66.5t-220 -185t-117 -264.5q-25 -140 16.5 -257.5t145.5 -188t250 -70.5q102 0 194 30t161 80.5t124 117.5t89 140t48 148z" />
    <glyph glyph-name="c" unicode="c" horiz-adv-x="1267" 
d="M1194 342h63q-88 -167 -250.5 -268t-344.5 -101q-94 0 -173.5 23t-134 63.5t-95.5 95t-59.5 117.5t-24.5 132t9 137q29 159 127 290t243.5 206t307.5 75q84 0 161.5 -23.5t141.5 -69.5t108.5 -119.5t57.5 -166.5h-63q-14 86 -57.5 152t-103.5 102.5t-124 54.5t-129 17
q-113 -1 -203 -35t-190 -111q-79 -61 -139 -161t-80 -209q-21 -112 2.5 -209.5t81 -164t144 -104.5t189.5 -38q177 1 322.5 93t212.5 222z" />
    <glyph glyph-name="d" unicode="d" horiz-adv-x="1386" 
d="M1501 1516l-280 -1516h-58l51 281q-100 -147 -246 -227.5t-317 -80.5q-129 0 -229.5 48t-158 127.5t-78.5 182t-1 212.5q21 112 80.5 215t147 181.5t205 125.5t245.5 47q184 0 304.5 -94t144.5 -219l53 286l80 431h57zM242 543v-2q-7 -53 -8 -105.5t12 -103t34.5 -96
t58 -84t82.5 -66.5t109 -43.5t136 -15.5q106 0 208 40t185 111q85 72 140.5 168t70.5 201q43 215 -80 364q-56 70 -143.5 109t-194.5 39q-141 0 -270 -64.5t-220.5 -183.5t-119.5 -268z" />
    <glyph glyph-name="e" unicode="e" horiz-adv-x="1267" 
d="M1305 537h-1082q-19 -106 -1 -189t59.5 -144t102 -100.5t126 -58.5t131.5 -18q153 0 290.5 75t225.5 211h64q-100 -165 -267 -258q-152 -82 -323 -82q-85 0 -157 19t-122.5 51.5t-90.5 77t-61 95.5t-34.5 106.5t-11 111t9.5 107.5q29 160 129 291.5t245.5 205.5t305.5 74
q109 0 202.5 -37.5t157.5 -107.5q75 -80 102.5 -195t-1.5 -235zM233 590h1022q18 128 -34.5 238.5t-156.5 173t-230 57.5q-133 0 -258.5 -59.5t-217.5 -167.5t-125 -242z" />
    <glyph glyph-name="f" unicode="f" horiz-adv-x="538" 
d="M193 0l190 1032h-178l10 53h178l21 109q61 336 405 348l-10 -55q-92 -7 -138 -23q-160 -60 -202 -286l-18 -93h282l-10 -53h-283l-190 -1032h-57z" />
    <glyph glyph-name="g" unicode="g" horiz-adv-x="1382" 
d="M1425 1085l-178 -964q-57 -299 -299 -463q-92 -61 -190 -91t-170 -30q-169 0 -301 89t-172 245h65q46 -110 111 -168q61 -57 140.5 -85t158.5 -28q95 0 192.5 37.5t179.5 104t143.5 166t82.5 213.5l33 176q-101 -151 -248 -232.5t-318 -81.5q-132 0 -233.5 47.5
t-159 127.5t-79 182t-1.5 213q28 151 121 279.5t242 209t321 80.5q184 0 304.5 -94t144.5 -219l53 286h57zM240 543v-2q-7 -53 -8 -105.5t12.5 -103t35 -96t59 -84t84 -66.5t110 -43.5t137.5 -15.5q109 0 210.5 39.5t182.5 111.5q172 149 211 369q16 66 3.5 158.5
t-54.5 166.5q-110 187 -367 187q-144 0 -274.5 -64.5t-222 -183.5t-119.5 -268z" />
    <glyph glyph-name="h" unicode="h" horiz-adv-x="1310" 
d="M160 0l280 1516h58l-80 -435l-41 -215q74 120 211.5 184.5t275.5 61.5q251 0 350 -147q96 -137 48 -392l-107 -573h-57l106 573q43 229 -37 353q-90 133 -313 133q-205 -3 -344 -117q-140 -117 -176 -317l-117 -625h-57z" />
    <glyph glyph-name="i" unicode="i" horiz-adv-x="376" 
d="M406 1329l34 187h58l-35 -187h-57zM160 0l200 1085h58l-201 -1085h-57z" />
    <glyph glyph-name="j" unicode="j" horiz-adv-x="448" 
d="M440 1327l35 189h57l-34 -189h-58zM453 1085l-199 -1073q-9 -49 -14.5 -75t-19.5 -75.5t-28.5 -79.5t-40.5 -70t-56.5 -65t-75.5 -47t-99 -32q-4 -1 -14 -2t-15 -2l11 61q4 1 11.5 2t10.5 2q55 11 97 35.5t69.5 56t48.5 80t33.5 96t24.5 115.5l198 1073h58z" />
    <glyph glyph-name="k" unicode="k" horiz-adv-x="956" 
d="M160 0l280 1516h58l-168 -906l671 475h78l-667 -477l512 -608h-78l-516 606l-113 -606h-57z" />
    <glyph glyph-name="l" unicode="l" horiz-adv-x="374" 
d="M160 0l280 1516h58l-281 -1516h-57z" />
    <glyph glyph-name="m" unicode="m" horiz-adv-x="1943" 
d="M160 0l200 1085h58l-37 -202q41 59 91 103.5t93.5 67.5t90.5 37t76 17.5t56 3.5q100 0 176.5 -34t118.5 -99q11 -15 23.5 -46.5t19.5 -56.5l7 -24q43 75 102 127q67 63 157 98t183 35q189 0 276 -108q103 -123 52 -396l-113 -608h-57l112 608q48 247 -45 359
q-70 92 -235 92q-79 0 -162 -31.5t-141 -93.5q-65 -67 -93.5 -131.5t-52.5 -194.5l-112 -608h-58l113 608q24 131 19 197t-38 125q-70 123 -262 129q-77 3 -156 -31t-130 -88q-122 -115 -160 -322l-115 -618h-57z" />
    <glyph glyph-name="n" unicode="n" horiz-adv-x="1312" 
d="M160 0l200 1085h58q-9 -53 -45 -235q78 134 214 199.5t290 62.5q238 -6 335 -143t52 -385l-109 -584h-57l108 584q41 226 -47 352t-305 123q-202 -3 -342.5 -114.5t-177.5 -319.5l-117 -625h-57z" />
    <glyph glyph-name="o" unicode="o" horiz-adv-x="1312" 
d="M184 543v2q29 159 128 289t244 204t306 74t277.5 -74t166.5 -204.5t21 -290.5q-29 -161 -127.5 -291.5t-243 -204.5t-305.5 -74t-278 74t-167.5 204.5t-21.5 291.5zM242 543v-2q-27 -144 17.5 -262t150 -185t249.5 -67q145 0 275 67t219.5 185.5t116.5 263.5
q41 221 -78.5 368.5t-339.5 147.5q-145 0 -275 -67t-219 -185.5t-116 -263.5z" />
    <glyph glyph-name="p" unicode="p" horiz-adv-x="1386" 
d="M80 -436l280 1521h58l-51 -280q100 147 247 227t318 80q104 0 190.5 -31t143 -85t94 -126.5t44.5 -155t-7 -171.5q-21 -112 -80.5 -215t-146.5 -182t-204 -126t-245 -47q-94 0 -176 27.5t-137.5 73t-91 100.5t-46.5 113l-53 -287l-80 -436h-57zM1339 543v2q7 53 8 105.5
t-12 103t-34.5 96t-58 84t-82.5 66.5t-109 43.5t-136 15.5q-212 0 -393 -150q-81 -72 -136 -166.5t-75 -201.5q-20 -108 1 -202.5t79 -164.5q56 -70 143.5 -108.5t194.5 -38.5q141 0 270 64.5t220.5 183.5t119.5 268z" />
    <glyph glyph-name="q" unicode="q" horiz-adv-x="1380" 
d="M1421 1085l-280 -1521h-58l80 436l51 276q-71 -118 -225.5 -210.5t-337.5 -92.5q-128 0 -228 47t-158 126t-80 182t-1 215q21 110 80 212.5t145.5 182t205 127t247.5 47.5q169 0 286 -78.5t167 -218.5l49 270h57zM242 543v-2q-21 -111 1.5 -207.5t79.5 -163.5t144 -105
t192 -38q219 0 396 147q83 70 139 165t76 202q46 214 -76 366q-56 72 -143 112t-193 40q-102 0 -194 -30t-161 -80.5t-124 -117.5t-89 -140t-48 -148z" />
    <glyph glyph-name="r" unicode="r" horiz-adv-x="618" 
d="M160 0l200 1085h58l-37 -206q34 51 73 91t80 64t75.5 39.5t77 23.5t64.5 10.5t56 4.5l-10 -55h-17q-174 0 -293 -121.5t-159 -341.5l-111 -594h-57z" />
    <glyph glyph-name="s" unicode="s" horiz-adv-x="872" 
d="M872 829h-57q22 115 -34 173.5t-152 56.5q-108 0 -187.5 -65.5t-93.5 -162.5q-9 -64 12 -107t64 -68t121 -48h1l1 -1h1h1h1l1 -1h2q118 -34 166 -66q108 -74 86 -241q-17 -134 -127.5 -230t-249.5 -96q-141 0 -225 92t-49 236h57q-24 -127 39.5 -200.5t185.5 -73.5
q119 0 206.5 77.5t102.5 186.5q18 110 -33 170t-180 90q-26 8 -45.5 14.5t-42 15t-39 16.5t-34 19t-29.5 23t-23.5 26.5t-18 32t-10.5 37.5t-3.5 44t4.5 52q25 131 123.5 206t224.5 75q123 -2 190.5 -75.5t42.5 -207.5z" />
    <glyph glyph-name="t" unicode="t" horiz-adv-x="606" 
d="M254 0l190 1032h-239l10 53h240l80 431h57l-80 -431h279l-11 -53h-278l-191 -1032h-57z" />
    <glyph glyph-name="u" unicode="u" horiz-adv-x="1312" 
d="M1354 1085l-201 -1085h-57q38 204 45 236q-78 -134 -214 -200t-288 -63q-239 6 -336.5 143.5t-52.5 385.5l108 583h58l-109 -583q-41 -226 47 -352t305 -123q202 3 343 114.5t180 319.5l114 624h58z" />
    <glyph glyph-name="v" unicode="v" horiz-adv-x="985" 
d="M1176 1085l-648 -1085h-73l-246 1085h63l232 -1019l608 1019h64z" />
    <glyph glyph-name="w" unicode="w" horiz-adv-x="1552" 
d="M420 0l-199 1085h64l182 -1007l461 860h45l143 -860l553 1007h64l-600 -1085h-66l-137 836l-445 -836h-65z" />
    <glyph glyph-name="x" unicode="x" horiz-adv-x="833" 
d="M20 0l463 545l-262 540h74l233 -485l416 485h70l-461 -540l260 -545h-70l-235 489l-414 -489h-74z" />
    <glyph glyph-name="y" unicode="y" horiz-adv-x="985" 
d="M180 -436l273 438l-230 1083h64l215 -1005l614 1005h68l-938 -1521h-66z" />
    <glyph glyph-name="z" unicode="z" horiz-adv-x="833" 
d="M25 0l8 49l856 983h-637l10 53h711l-10 -55l-854 -977h708l-10 -53h-782z" />
    <glyph glyph-name="braceleft" unicode="{" horiz-adv-x="870" 
d="M991 1542l-10 -53h-111q-80 0 -112 -45t-60 -191l-69 -379q-22 -116 -84.5 -229.5t-153.5 -159.5q70 -33 95.5 -137.5t0.5 -236.5l-69 -375q-15 -80 -18.5 -125t6.5 -72t31.5 -35t62.5 -8h110l-8 -53h-135q-94 0 -121 63t0 195l70 375q17 95 17.5 167.5t-27 126.5
t-87.5 87l13 57q77 19 142.5 126.5t94.5 266.5l72 383q26 135 73.5 193.5t141.5 58.5h135z" />
    <glyph glyph-name="bar" unicode="|" horiz-adv-x="768" 
d="M496 1790h63v-2386h-63v2386z" />
    <glyph glyph-name="braceright" unicode="}" horiz-adv-x="870" 
d="M442 1489l11 53h135q94 0 121 -61t0 -191l-72 -383q-29 -160 -3 -267t97 -126l-12 -57q-104 -48 -156 -138.5t-80 -242.5l-69 -375q-26 -137 -73.5 -197.5t-141.5 -60.5h-136l9 53h110q55 0 83.5 17.5t48.5 67t40 155.5l70 375q25 133 89 237t146 137q-38 24 -62.5 69
t-33.5 100t-8.5 111t10.5 109l70 379q21 93 19.5 145.5t-23.5 71.5t-78 19h-111z" />
    <glyph glyph-name="asciitilde" unicode="~" horiz-adv-x="1228" 
d="M1143 594l31 -39q-49 -67 -111 -106t-119 -39q-36 0 -78 12t-67 24t-74 37q-5 2 -14 7q-46 23 -71 34.5t-62.5 23t-67.5 11.5q-62 3 -119.5 -23.5t-116.5 -103.5l-32 37q55 75 129.5 114t148.5 33q15 0 31.5 -2t28 -4t30.5 -9t26.5 -9t30 -12.5t26 -12t29.5 -13.5l26 -13
q7 -3 30.5 -15t31.5 -16t28 -13t30.5 -12.5t26 -8.5t29 -7t26.5 -2q37 0 75.5 21.5t61.5 44.5t56 61z" />
    <glyph glyph-name="uni00A0" unicode="&#xa0;" horiz-adv-x="567" 
 />
    <glyph glyph-name="exclamdown" unicode="&#xa1;" horiz-adv-x="530" 
d="M406 922l30 165h62l-31 -165h-61zM156 -428l219 1176h61l-219 -1176h-61z" />
    <glyph glyph-name="cent" unicode="&#xa2;" 
d="M643 80h-61l41 221q-70 4 -128 26.5t-97 56.5t-68.5 78.5t-41.5 93.5t-16 100.5t7 99.5q11 58 36.5 116.5t70 116.5t101.5 104.5t136.5 78.5t169.5 40l34 195h62l-35 -197q40 -5 72 -12t72.5 -25t71.5 -43.5t60 -68.5t46 -100h-68q-69 192 -299 192q-178 0 -307 -114.5
t-160 -276.5q-9 -61 -6 -119t27.5 -109.5t62.5 -90t99 -61t137 -22.5q70 0 133 18.5t108.5 48t76 58.5t50.5 58h70q-51 -72 -114 -123.5t-123.5 -74.5t-101.5 -32.5t-77 -11.5z" />
    <glyph glyph-name="sterling" unicode="&#xa3;" 
d="M977 805l-10 -55h-500q23 -20 43.5 -44.5t44.5 -63t37 -80t20 -97t-6 -113.5q-25 -152 -147 -297h188q129 0 197 21.5t129 70.5q132 119 157 261q9 54 5 102h63q3 -49 -6 -100q-18 -99 -70.5 -176.5t-107.5 -124.5q-88 -66 -162.5 -87.5t-224.5 -21.5h-553l10 55h303
q3 3 18.5 21t27.5 32t30.5 42t32.5 55t27.5 65.5t21.5 79.5q22 119 -19 211.5t-145 188.5h-229l10 55h176q-63 104 -37 252q37 206 201.5 345.5t376.5 139.5q164 0 278.5 -99.5t126.5 -275.5h-63q-14 141 -110.5 230.5t-242.5 89.5q-188 -3 -326.5 -120.5t-179.5 -309.5
q-24 -140 56 -252h559z" />
    <glyph glyph-name="currency" unicode="&#xa4;" 
d="M1047 215l-125 156q-150 -105 -306 -105q-154 0 -264 105l-188 -156l-33 43l188 158q-91 127 -61 286q26 160 162 283l-129 158l51 43l129 -158q148 111 307 111q163 0 266 -109l185 156l37 -43l-185 -158q87 -124 58 -283q-29 -160 -168 -286l127 -158zM319 702l-2 -2
q-27 -152 67 -262t245 -110q153 0 286 110t162 264q29 156 -64 265.5t-247 109.5q-152 0 -285 -109t-162 -266z" />
    <glyph glyph-name="yen" unicode="&#xa5;" 
d="M1198 838l-10 -54h-420l-37 -53l-31 -168h447l-10 -53h-447l-94 -510h-61l94 510h-439l11 53h438l31 168l-19 53h-409l10 54h379l-285 678h66l301 -717l575 717h66l-543 -678h387z" />
    <glyph glyph-name="brokenbar" unicode="&#xa6;" horiz-adv-x="770" 
d="M496 1612h63v-836h-63v836zM496 418h63v-834h-63v834z" />
    <glyph glyph-name="section" unicode="&#xa7;" horiz-adv-x="1173" 
d="M1198 1200h-57q8 83 -8.5 140.5t-56.5 87t-87.5 41.5t-111.5 12q-138 0 -237 -77t-124 -202q-4 -24 -4.5 -46t3 -40.5t8.5 -34t14.5 -30t17.5 -25.5t21.5 -22t23 -18.5t25 -16.5t24.5 -14t25 -13l280 -145q224 -114 187 -316q-18 -97 -87 -181t-167 -136
q126 -101 94 -260q-28 -156 -161 -258.5t-312 -102.5q-223 0 -315 121t-35 338h57q-45 -191 27.5 -294t273.5 -103q157 0 267 80t141 219q11 88 -23.5 147.5t-140.5 112.5l-365 184q-55 33 -74 50q-107 94 -75 266q16 90 84 175t180 138q-75 90 -53 219q30 159 152 252.5
t280 93.5q169 0 253.5 -90t55.5 -252zM1081 477v2q4 24 4.5 46t-3.5 40.5t-9 35t-15 31t-18.5 25.5t-23 22.5t-24.5 19t-26.5 17t-25.5 14.5t-25 13l-368 195q-95 -41 -160 -113t-86 -168q-13 -83 17 -146t96 -99l422 -213q44 17 93.5 54.5t94 98.5t57.5 125z" />
    <glyph glyph-name="dieresis" unicode="&#xa8;" 
d="M702 1483l-43 -238h-59l43 238h59zM1042 1483l-43 -238h-59l43 238h59z" />
    <glyph glyph-name="copyright" unicode="&#xa9;" horiz-adv-x="1638" 
d="M1104 1538h2q163 0 297 -61.5t217.5 -166t117 -248.5t3.5 -304q-31 -163 -119.5 -308.5t-212.5 -249t-279 -163.5t-315 -60q-162 0 -295.5 59.5t-219 162t-119.5 248.5t-3 311q29 159 114.5 302.5t207.5 248.5t280 167t324 62zM1094 1485h-2q-154 0 -300.5 -58.5
t-259 -157t-191 -231.5t-105.5 -280q-28 -151 3 -285.5t109 -231.5t202 -153.5t275 -56.5q199 0 382 95t310.5 262t165.5 370q27 147 -2.5 280.5t-106 232t-201.5 156.5t-279 58zM1401 924h-58q-1 67 -27 117.5t-68.5 79.5t-92 43t-104.5 14q-165 0 -296 -113t-167 -307
q-13 -77 -9.5 -137.5t25 -107t51.5 -79.5t70 -54t82 -30.5t86 -9.5q18 0 39.5 2t57 10t69 21t72.5 38.5t72 59t63 86t49 115.5h57q-30 -119 -108 -208t-177.5 -133t-205.5 -44q-82 0 -153 28.5t-124.5 83t-75 147.5t-0.5 210q40 211 187 343t346 132q155 0 251 -86.5
t89 -220.5z" />
    <glyph glyph-name="ordfeminine" unicode="&#xaa;" horiz-adv-x="899" 
d="M1077 1526l-127 -682h-57l33 170q-62 -91 -153 -139t-195 -48q-108 0 -185 51t-108 133t-13 175q28 148 155.5 252t283.5 104q102 0 173.5 -49.5t102.5 -140.5l33 174h57zM330 1178l-2 -2q-9 -50 3 -101.5t42.5 -95t87 -71t129.5 -27.5q93 0 174.5 44.5t134.5 118.5
q46 73 57 140q11 65 -4 125q-24 81 -92 130.5t-160 49.5q-80 0 -156.5 -35.5t-136 -108t-77.5 -167.5z" />
    <glyph glyph-name="guillemotleft" unicode="&#xab;" horiz-adv-x="718" 
d="M199 565l307 398h72l-308 -398l162 -391h-72zM426 565l307 398h72l-307 -398l161 -391h-71z" />
    <glyph glyph-name="logicalnot" unicode="&#xac;" horiz-adv-x="1228" 
d="M240 739h1024l-84 -454h-58l74 397h-967z" />
    <glyph glyph-name="uni00AD" unicode="&#xad;" horiz-adv-x="544" 
d="M111 596h544l-10 -59h-545z" />
    <glyph glyph-name="registered" unicode="&#xae;" horiz-adv-x="1638" 
d="M1104 1538h2q163 0 297 -61.5t217.5 -166t117 -248.5t3.5 -304q-31 -163 -119.5 -308.5t-212.5 -249t-279 -163.5t-315 -60q-162 0 -295.5 59.5t-219 162t-119.5 248.5t-3 311q29 159 114.5 302.5t207.5 248.5t280 167t324 62zM1094 1485h-2q-154 0 -300.5 -58.5
t-259 -157t-191 -231.5t-105.5 -280q-28 -151 3 -285.5t109 -231.5t202 -153.5t275 -56.5q199 0 382 95t310.5 262t165.5 370q27 147 -2.5 280.5t-106 232t-201.5 156.5t-279 58zM705 1206h378q226 0 266 -133q15 -47 3 -110q-30 -162 -217 -224q58 -16 87 -47t32.5 -71
t-1.5 -89q-20 -183 -18 -205q1 -14 6 -28h-59q-7 17 -5 48t19 157q8 48 4.5 86t-22.5 65t-72 41.5t-145 14.5h-291l-76 -412h-57zM1063 1153h-311l-72 -389h287q4 0 36.5 3t52.5 6t55.5 11t60.5 21.5t52 34t44.5 52t25.5 71.5q10 54 -5.5 92.5t-40 57t-66.5 28.5t-64.5 11
t-54.5 1z" />
    <glyph glyph-name="macron" unicode="&#xaf;" 
d="M1188 1382l-10 -61h-729l10 61h729z" />
    <glyph glyph-name="degree" unicode="&#xb0;" horiz-adv-x="819" 
d="M918 1159v-2q-23 -122 -124.5 -206.5t-224.5 -84.5t-191.5 85t-45.5 208t123 208t223 85t193 -85t47 -208zM389 1159v-2q-19 -97 37 -165t156 -68q99 0 179 68t99 167q19 98 -36.5 167t-155.5 69q-99 0 -179.5 -68.5t-99.5 -167.5z" />
    <glyph glyph-name="plusminus" unicode="&#xb1;" horiz-adv-x="1228" 
d="M702 633l76 403h58l-76 -403h487l-10 -58h-487l-74 -403h-58l74 403h-487l10 58h487zM98 0l11 57h1032l-11 -57h-1032z" />
    <glyph glyph-name="twosuperior" unicode="&#xb2;" horiz-adv-x="718" 
d="M750 657l-9 -51h-555l9 47q61 54 215 188.5t237 207.5q73 67 108 115t44 98q9 38 3.5 77t-21 70.5t-54.5 51.5t-96 20q-96 0 -166 -67.5t-92 -184.5h-58q22 123 97 201q49 51 110.5 76.5t122.5 25.5q118 0 176 -72.5t35 -197.5q-11 -63 -54 -120.5t-122 -129.5
q-195 -169 -406 -355h476z" />
    <glyph glyph-name="threesuperior" unicode="&#xb3;" horiz-adv-x="718" 
d="M231 881h58q-11 -64 2.5 -113t43.5 -75t64.5 -39t71.5 -13q105 0 178 64t92 165q3 29 2.5 60t-15 61.5t-36.5 54.5t-61 39t-90 15h-56l9 51h55q60 0 105 20.5t67.5 52t31.5 52.5t13 39q12 69 -22 117t-107 49q-72 1 -126.5 -45t-72.5 -121h-57q17 74 64.5 125.5t99 71.5
t102.5 20q87 0 140.5 -60.5t35.5 -154.5q-8 -42 -27 -76.5t-43.5 -56.5t-43 -34.5t-37.5 -21.5q71 -32 107.5 -101t19.5 -153q-23 -124 -118 -204t-220 -80q-68 0 -124.5 30t-86.5 87q-38 75 -19 174z" />
    <glyph glyph-name="acute" unicode="&#xb4;" 
d="M561 1255l537 283l20 -47l-540 -283z" />
    <glyph glyph-name="mu" unicode="&#xb5;" horiz-adv-x="1148" 
d="M90 -371l270 1456h58l-113 -614q-13 -74 -18.5 -118.5t2 -107t35.5 -104.5q76 -114 249 -114q174 0 295 133q131 138 183 409l94 516h57l-201 -1085h-57l45 244q-151 -271 -424 -271q-65 0 -118 13.5t-84.5 32t-57.5 47t-36.5 47.5t-22.5 45l-35 -189l-64 -340h-57z" />
    <glyph glyph-name="paragraph" unicode="&#xb6;" horiz-adv-x="1148" 
d="M442 -258l179 960q-98 0 -176 24t-134 72t-78.5 127t-3.5 181q25 137 109.5 231.5t197.5 136.5t248 42h504l-10 -58h-131l-318 -1716h-61l317 1712h-264l-317 -1712h-62z" />
    <glyph glyph-name="periodcentered" unicode="&#xb7;" horiz-adv-x="567" 
d="M428 606l-31 -166h-61l31 166h61z" />
    <glyph glyph-name="cedilla" unicode="&#xb8;" 
d="M594 0l-72 -117q18 6 29 6q68 0 99.5 -44t21.5 -101q-12 -61 -60 -108.5t-118 -47.5q-12 0 -24.5 1.5t-33 8.5t-35.5 19.5t-26 38t-10 59.5h55q6 -71 84 -71q37 0 69.5 26t42.5 74q6 40 -16.5 66t-60.5 26q-54 0 -93 -51l-45 10l134 205h59z" />
    <glyph glyph-name="onesuperior" unicode="&#xb9;" horiz-adv-x="718" 
d="M684 1516l-168 -910h-57l159 858h-194l8 52h252z" />
    <glyph glyph-name="ordmasculine" unicode="&#xba;" horiz-adv-x="899" 
d="M309 1178v2q28 154 149 257t275 105q158 0 240.5 -105t54.5 -251q-19 -104 -87 -188t-158.5 -127.5t-182.5 -43.5q-146 0 -232.5 103t-58.5 248zM367 1180v-2q-23 -119 48 -208t195 -89q123 0 229 87t132 218q22 125 -47 214t-197 89q-124 0 -229.5 -86t-130.5 -223z" />
    <glyph glyph-name="guillemotright" unicode="&#xbb;" horiz-adv-x="718" 
d="M569 961l160 -398l-305 -391h-72l305 391l-159 398h71zM342 961l160 -398l-305 -391h-72l305 391l-160 398h72z" />
    <glyph glyph-name="onequarter" unicode="&#xbc;" horiz-adv-x="1433" 
d="M1309 1516l-957 -1516h-59l954 1516h62zM1427 909l-127 -684h86l-8 -51h-86l-32 -174h-58l33 174h-467l8 43l584 692h67zM623 1516l-168 -910h-58l160 858h-195l9 52h252zM1356 834l-510 -609h397z" />
    <glyph glyph-name="onehalf" unicode="&#xbd;" horiz-adv-x="1536" 
d="M623 1516l-168 -910h-58l160 858h-195l9 52h252zM1309 1516l-957 -1516h-59l954 1516h62zM1458 51l-10 -51h-555l8 47q84 73 237.5 207t215.5 188q72 66 107 114.5t44 98.5q10 38 4.5 77t-21 70.5t-55 51.5t-96.5 20q-96 0 -165.5 -66.5t-92.5 -184.5h-57q19 108 82 184
q50 60 116 89.5t132 29.5q118 0 176.5 -73t34.5 -198q-11 -62 -54 -119t-123 -130q-199 -172 -403 -355h475z" />
    <glyph glyph-name="threequarters" unicode="&#xbe;" horiz-adv-x="1652" 
d="M1649 909l-127 -684h86l-9 -51h-86l-32 -174h-58l33 174h-467l8 43l584 692h68zM1530 1516l-957 -1516h-59l954 1516h62zM1577 834l-510 -609h397zM246 881h57q-11 -64 2.5 -113t43.5 -75t64.5 -39t71.5 -13q105 0 178.5 64t92.5 165q3 29 2 60t-15.5 61.5t-36.5 54.5
t-61 39t-90 15h-55l8 51h55q60 0 105 20.5t67.5 52t31.5 52.5t13 39q12 69 -22 117t-107 49q-72 1 -126 -45t-72 -121h-58q17 74 65 125.5t99.5 71.5t102.5 20q87 0 140.5 -60.5t35.5 -154.5q-25 -130 -152 -189q71 -32 107.5 -101t19.5 -153q-23 -124 -118 -204t-220 -80
q-71 0 -128.5 32t-84.5 93q-33 71 -16 166z" />
    <glyph glyph-name="questiondown" unicode="&#xbf;" horiz-adv-x="1097" 
d="M711 920l30 165h60l-31 -165h-59zM676 745h61q-10 -47 -15.5 -68t-19 -64t-30.5 -72.5t-44 -69.5t-66.5 -79.5t-90.5 -80.5q-18 -15 -60.5 -51.5t-60.5 -52.5t-49.5 -48t-46.5 -56t-32 -59t-25 -73q-27 -150 59.5 -256t245.5 -106q58 0 118.5 17t121 51t111.5 95t79 140
q12 29 18 61h62q-2 -9 -7.5 -27.5t-7.5 -27.5q-27 -82 -74.5 -148t-100.5 -107t-114.5 -68.5t-114.5 -38.5t-101 -11q-85 0 -158 31.5t-122.5 87t-70.5 137t-4 174.5q6 34 21.5 68.5t30 60.5t45 61t47 53t57.5 54t55 47.5t60 49.5q53 44 92.5 90.5t61 81t37 78t20.5 66
t12 60.5z" />
    <glyph glyph-name="Agrave" unicode="&#xc0;" horiz-adv-x="1406" 
d="M406 528l-326 -528h-66l930 1516h80l369 -1516h-66l-129 528h-792zM1182 584l-209 874l-531 -874h740zM805 1927l434 -282l-35 -48l-436 283z" />
    <glyph glyph-name="Aacute" unicode="&#xc1;" horiz-adv-x="1406" 
d="M406 528l-326 -528h-66l930 1516h80l369 -1516h-66l-129 528h-792zM1182 584l-209 874l-531 -874h740zM778 1645l537 282l20 -47l-538 -283z" />
    <glyph glyph-name="Acircumflex" unicode="&#xc2;" horiz-adv-x="1406" 
d="M406 528l-326 -528h-66l930 1516h80l369 -1516h-66l-129 528h-792zM1182 584l-209 874l-531 -874h740zM1079 1874l328 -240h-92l-273 195l-344 -195h-92l416 240h57z" />
    <glyph glyph-name="Atilde" unicode="&#xc3;" horiz-adv-x="1406" 
d="M406 528l-326 -528h-66l930 1516h80l369 -1516h-66l-129 528h-792zM1182 584l-209 874l-531 -874h740zM1370 1802l33 -41q-85 -82 -209 -82q-88 0 -188 41q-86 35 -156 35q-98 0 -166 -65l-33 41q84 81 209 81q91 0 189 -40q86 -35 155 -35q98 0 166 65z" />
    <glyph glyph-name="Adieresis" unicode="&#xc4;" horiz-adv-x="1406" 
d="M406 528l-326 -528h-66l930 1516h80l369 -1516h-66l-129 528h-792zM1182 584l-209 874l-531 -874h740zM909 1872l-43 -238h-59l43 238h59zM1249 1872l-43 -238h-59l43 238h59z" />
    <glyph glyph-name="Aring" unicode="&#xc5;" horiz-adv-x="1406" 
d="M406 528l-326 -528h-66l930 1516h80l369 -1516h-66l-129 528h-792zM1182 584l-209 874l-531 -874h740zM1061 1929h2q76 0 120.5 -54.5t30.5 -131.5q-15 -77 -80 -132t-143 -55q-77 0 -121.5 55.5t-29.5 131.5q13 77 79 131.5t142 54.5zM1051 1876h-2q-53 0 -98 -38.5
t-54 -92.5q-9 -53 21 -91t83 -38q55 0 101 38t55 91q9 55 -21 93t-85 38z" />
    <glyph glyph-name="AE" unicode="&#xc6;" horiz-adv-x="1933" 
d="M-16 0l1329 1516h749l-10 -56h-647l-123 -669h647l-10 -56h-647l-127 -680h647l-10 -55h-709l101 541h-646l-475 -541h-69zM584 596h600l164 883z" />
    <glyph glyph-name="Ccedilla" unicode="&#xc7;" horiz-adv-x="1609" 
d="M856 -27l-59 -90q30 6 32 6q68 0 99.5 -44t21.5 -101q-12 -61 -60 -108.5t-118 -47.5q-12 0 -24.5 1.5t-33 8.5t-35.5 19.5t-26 38t-10 59.5h55q6 -71 84 -71q37 0 70 26t43 74q6 40 -17 66t-61 26q-53 0 -92 -51l-45 10l119 182q-147 12 -268 74.5t-198 165.5
t-108.5 241t0.5 300q41 223 180.5 403.5t338 280.5t413.5 100q116 -1 217 -33t173 -86t123 -115t83 -130h-72q-17 31 -40 63.5t-70.5 78.5t-103.5 81t-140.5 60t-179.5 26q-149 0 -292.5 -55.5t-258.5 -151t-197.5 -232t-111.5 -290.5t3 -290.5t112 -232t203 -151t272 -55.5
q100 0 198.5 26.5t166 61t133 83t94.5 75.5t55 55h69q-53 -68 -127.5 -129.5t-167.5 -113.5t-208.5 -83t-233.5 -31z" />
    <glyph glyph-name="Egrave" unicode="&#xc8;" horiz-adv-x="1120" 
d="M158 0l280 1516h832l-10 -56h-771l-122 -669h770l-11 -56h-770l-127 -680h770l-10 -55h-831zM674 1937l434 -282l-37 -47l-434 282z" />
    <glyph glyph-name="Eacute" unicode="&#xc9;" horiz-adv-x="1120" 
d="M158 0l280 1516h832l-10 -56h-771l-122 -669h770l-11 -56h-770l-127 -680h770l-10 -55h-831zM627 1655l536 282l21 -47l-541 -282z" />
    <glyph glyph-name="Ecircumflex" unicode="&#xca;" horiz-adv-x="1120" 
d="M158 0l280 1516h832l-10 -56h-771l-122 -669h770l-11 -56h-770l-127 -680h770l-10 -55h-831zM938 1884l328 -239h-92l-275 194l-342 -194h-92l416 239h57z" />
    <glyph glyph-name="Edieresis" unicode="&#xcb;" horiz-adv-x="1120" 
d="M158 0l280 1516h832l-10 -56h-771l-122 -669h770l-11 -56h-770l-127 -680h770l-10 -55h-831zM768 1882l-43 -237h-59l43 237h59zM1108 1882l-43 -237h-59l43 237h59z" />
    <glyph glyph-name="Igrave" unicode="&#xcc;" horiz-adv-x="378" 
d="M158 0l280 1516h62l-281 -1516h-61zM260 1927l434 -282l-35 -48l-436 283z" />
    <glyph glyph-name="Iacute" unicode="&#xcd;" horiz-adv-x="378" 
d="M158 0l280 1516h62l-281 -1516h-61zM295 1645l536 282l21 -47l-539 -283z" />
    <glyph glyph-name="Icircumflex" unicode="&#xce;" horiz-adv-x="378" 
d="M158 0l280 1516h62l-281 -1516h-61zM563 1864l328 -240h-92l-273 195l-344 -195h-92l416 240h57z" />
    <glyph glyph-name="Idieresis" unicode="&#xcf;" horiz-adv-x="378" 
d="M158 0l280 1516h62l-281 -1516h-61zM395 1872l-43 -238h-59l43 238h59zM735 1872l-43 -238h-59l43 238h59z" />
    <glyph glyph-name="Eth" unicode="&#xd0;" horiz-adv-x="1435" 
d="M305 791l133 725h428q362 0 525 -201q164 -200 100 -557q-67 -357 -307 -557.5t-598 -200.5h-428l137 735h-158l10 56h158zM489 1460l-122 -669h514l-11 -56h-514l-127 -680h367q329 0 550 185.5t281 513.5q62 332 -88 520q-151 186 -483 186h-367z" />
    <glyph glyph-name="Ntilde" unicode="&#xd1;" horiz-adv-x="1511" 
d="M530 1516l777 -1434l266 1434h61l-280 -1516h-78l-787 1454l-270 -1454h-61l280 1516h92zM1421 1792l33 -41q-85 -82 -209 -82q-88 0 -188 41q-86 35 -156 35q-97 0 -166 -66l-33 41q85 82 209 82q89 0 189 -41q89 -35 155 -35q97 0 166 66z" />
    <glyph glyph-name="Ograve" unicode="&#xd2;" horiz-adv-x="1742" 
d="M225 758v2q41 222 180.5 402t338 280t413.5 100q161 0 294.5 -59t220.5 -161.5t122 -249.5t4 -314q-42 -223 -181.5 -403.5t-337.5 -281t-413 -100.5q-161 0 -295 59.5t-221 162t-122 249.5t-3 314zM287 758l-2 -2q-28 -154 4.5 -289.5t112.5 -231t203.5 -151
t271.5 -55.5q149 0 292.5 55.5t258.5 151t197.5 232t111.5 290.5t-3 290.5t-112 232t-203 151t-272 55.5t-292.5 -55.5t-258.5 -151t-197.5 -232t-111.5 -290.5zM985 1937l434 -282l-37 -47l-434 282z" />
    <glyph glyph-name="Oacute" unicode="&#xd3;" horiz-adv-x="1742" 
d="M225 758v2q41 222 180.5 402t338 280t413.5 100q161 0 294.5 -59t220.5 -161.5t122 -249.5t4 -314q-42 -223 -181.5 -403.5t-337.5 -281t-413 -100.5q-161 0 -295 59.5t-221 162t-122 249.5t-3 314zM287 758l-2 -2q-28 -154 4.5 -289.5t112.5 -231t203.5 -151
t271.5 -55.5q149 0 292.5 55.5t258.5 151t197.5 232t111.5 290.5t-3 290.5t-112 232t-203 151t-272 55.5t-292.5 -55.5t-258.5 -151t-197.5 -232t-111.5 -290.5zM938 1655l537 282l20 -47l-541 -282z" />
    <glyph glyph-name="Ocircumflex" unicode="&#xd4;" horiz-adv-x="1742" 
d="M225 758v2q41 222 180.5 402t338 280t413.5 100q161 0 294.5 -59t220.5 -161.5t122 -249.5t4 -314q-42 -223 -181.5 -403.5t-337.5 -281t-413 -100.5q-161 0 -295 59.5t-221 162t-122 249.5t-3 314zM287 758l-2 -2q-28 -154 4.5 -289.5t112.5 -231t203.5 -151
t271.5 -55.5q149 0 292.5 55.5t258.5 151t197.5 232t111.5 290.5t-3 290.5t-112 232t-203 151t-272 55.5t-292.5 -55.5t-258.5 -151t-197.5 -232t-111.5 -290.5zM1247 1874l328 -240h-92l-273 195l-344 -195h-92l416 240h57z" />
    <glyph glyph-name="Otilde" unicode="&#xd5;" horiz-adv-x="1742" 
d="M225 758v2q41 222 180.5 402t338 280t413.5 100q161 0 294.5 -59t220.5 -161.5t122 -249.5t4 -314q-42 -223 -181.5 -403.5t-337.5 -281t-413 -100.5q-161 0 -295 59.5t-221 162t-122 249.5t-3 314zM287 758l-2 -2q-28 -154 4.5 -289.5t112.5 -231t203.5 -151
t271.5 -55.5q149 0 292.5 55.5t258.5 151t197.5 232t111.5 290.5t-3 290.5t-112 232t-203 151t-272 55.5t-292.5 -55.5t-258.5 -151t-197.5 -232t-111.5 -290.5zM1536 1792l33 -41q-85 -82 -209 -82q-89 0 -189 41q-86 35 -155 35q-97 0 -166 -66l-33 41q85 82 209 82
q88 0 188 -41q89 -35 156 -35q97 0 166 66z" />
    <glyph glyph-name="Odieresis" unicode="&#xd6;" horiz-adv-x="1742" 
d="M225 758v2q41 222 180.5 402t338 280t413.5 100q161 0 294.5 -59t220.5 -161.5t122 -249.5t4 -314q-42 -223 -181.5 -403.5t-337.5 -281t-413 -100.5q-161 0 -295 59.5t-221 162t-122 249.5t-3 314zM287 758l-2 -2q-28 -154 4.5 -289.5t112.5 -231t203.5 -151
t271.5 -55.5q149 0 292.5 55.5t258.5 151t197.5 232t111.5 290.5t-3 290.5t-112 232t-203 151t-272 55.5t-292.5 -55.5t-258.5 -151t-197.5 -232t-111.5 -290.5zM1079 1882l-43 -237h-59l43 237h59zM1419 1882l-43 -237h-59l43 237h59z" />
    <glyph glyph-name="multiply" unicode="&#xd7;" horiz-adv-x="1228" 
d="M143 0l-32 43l557 471l-385 463l49 45l385 -467l557 467l33 -45l-553 -463l381 -471l-50 -43l-383 473z" />
    <glyph glyph-name="Oslash" unicode="&#xd8;" horiz-adv-x="1742" 
d="M1581 1409l188 209h76l-223 -246q116 -110 163.5 -268t12.5 -346q-42 -223 -181.5 -403.5t-337.5 -281t-413 -100.5q-241 0 -407 125l-185 -200h-75l215 233q-123 107 -174 270t-15 357q41 223 180.5 403.5t338 280.5t413.5 100q248 0 424 -133zM457 178l1077 1182
q-158 127 -387 127q-149 0 -292.5 -55.5t-258.5 -151t-197.5 -232t-111.5 -290.5q-33 -179 13 -330t157 -250zM1581 1327l-1079 -1182q153 -116 375 -116q149 0 292.5 55.5t258.5 151t197.5 232t111.5 290.5q31 173 -11.5 320.5t-144.5 248.5z" />
    <glyph glyph-name="Ugrave" unicode="&#xd9;" horiz-adv-x="1239" 
d="M436 1516h62l-183 -984q-13 -71 -17.5 -104.5t-5.5 -83.5t11.5 -90.5t38.5 -85.5q36 -64 115.5 -101.5t171.5 -37.5q87 0 177.5 37.5t151.5 101.5q80 84 109 157.5t53 206.5l183 984h61l-182 -984q-9 -51 -17.5 -90t-29 -96.5t-47.5 -102t-72 -93t-103 -84.5
q-144 -93 -299 -93q-153 0 -264 93q-45 36 -72 84.5t-37 93t-9 102.5t6.5 95.5t15.5 90.5zM668 1907l432 -283l-35 -47l-436 283z" />
    <glyph glyph-name="Uacute" unicode="&#xda;" horiz-adv-x="1239" 
d="M436 1516h62l-183 -984q-13 -71 -17.5 -104.5t-5.5 -83.5t11.5 -90.5t38.5 -85.5q36 -64 115.5 -101.5t171.5 -37.5q87 0 177.5 37.5t151.5 101.5q80 84 109 157.5t53 206.5l183 984h61l-182 -984q-9 -51 -17.5 -90t-29 -96.5t-47.5 -102t-72 -93t-103 -84.5
q-144 -93 -299 -93q-153 0 -264 93q-45 36 -72 84.5t-37 93t-9 102.5t6.5 95.5t15.5 90.5zM680 1624l539 283l18 -47l-539 -283z" />
    <glyph glyph-name="Ucircumflex" unicode="&#xdb;" horiz-adv-x="1239" 
d="M436 1516h62l-183 -984q-13 -71 -17.5 -104.5t-5.5 -83.5t11.5 -90.5t38.5 -85.5q36 -64 115.5 -101.5t171.5 -37.5q87 0 177.5 37.5t151.5 101.5q80 84 109 157.5t53 206.5l183 984h61l-182 -984q-9 -51 -17.5 -90t-29 -96.5t-47.5 -102t-72 -93t-103 -84.5
q-144 -93 -299 -93q-153 0 -264 93q-45 36 -72 84.5t-37 93t-9 102.5t6.5 95.5t15.5 90.5zM991 1853l328 -239h-92l-273 194l-344 -194h-92l416 239h57z" />
    <glyph glyph-name="Udieresis" unicode="&#xdc;" horiz-adv-x="1239" 
d="M436 1516h62l-183 -984q-13 -71 -17.5 -104.5t-5.5 -83.5t11.5 -90.5t38.5 -85.5q36 -64 115.5 -101.5t171.5 -37.5q87 0 177.5 37.5t151.5 101.5q80 84 109 157.5t53 206.5l183 984h61l-182 -984q-9 -51 -17.5 -90t-29 -96.5t-47.5 -102t-72 -93t-103 -84.5
q-144 -93 -299 -93q-153 0 -264 93q-45 36 -72 84.5t-37 93t-9 102.5t6.5 95.5t15.5 90.5zM823 1851l-45 -237h-59l45 237h59zM1163 1851l-45 -237h-59l45 237h59z" />
    <glyph glyph-name="Yacute" unicode="&#xdd;" horiz-adv-x="1134" 
d="M537 0l96 522l-322 994h68l299 -924l637 924h69l-690 -994l-96 -522h-61zM690 1624l539 283l18 -47l-538 -283z" />
    <glyph glyph-name="Thorn" unicode="&#xde;" horiz-adv-x="1046" 
d="M137 0l281 1516h61l-59 -320h291q151 0 225 -18t137 -72q59 -50 84.5 -144t5.5 -196q-19 -101 -79 -195.5t-136 -144.5q-85 -54 -165.5 -72t-231.5 -18h-291l-61 -336h-62zM410 1141l-140 -750h293q132 0 209.5 18t151.5 66q62 42 112.5 123t65.5 166q17 88 -3 169.5
t-67 123.5q-58 48 -128 66t-202 18h-292z" />
    <glyph glyph-name="germandbls" unicode="&#xdf;" horiz-adv-x="1144" 
d="M156 0l180 969q32 175 65 261.5t91 149.5q63 76 156.5 119t185.5 43q185 0 272 -111t53 -292q-23 -119 -97.5 -215.5t-197.5 -153.5q81 -11 140.5 -50t88 -92.5t39.5 -119t-4 -129.5q-33 -180 -180 -293t-336 -113q-55 1 -103.5 12.5t-94.5 39.5t-77.5 70.5t-47.5 110.5
t-8 154l-68 -360h-57zM393 969l-108 -578h53q-12 -84 2 -150t44 -104.5t73.5 -64t85 -35t84.5 -10.5q164 0 289 96t153 246q33 175 -76 282q-49 40 -108.5 59.5t-186.5 20.5h-57l10 53h56q84 0 167.5 45t146 127.5t81.5 182.5q30 165 -46.5 257.5t-230.5 92.5
q-77 0 -156 -35.5t-128 -93.5q-62 -72 -90.5 -152.5t-57.5 -238.5z" />
    <glyph glyph-name="agrave" unicode="&#xe0;" horiz-adv-x="1380" 
d="M1421 1085l-200 -1085h-58l51 281q-100 -147 -246 -227.5t-317 -80.5q-129 0 -229.5 48t-158 127.5t-78.5 182t-1 212.5q21 112 80.5 215t147 181.5t205 125.5t245.5 47q184 0 304.5 -94t144.5 -219l53 286h57zM242 543v-2q-7 -53 -8 -105.5t12 -103t34.5 -96t58 -84
t82.5 -66.5t109 -43.5t136 -15.5q169 0 313.5 93t226.5 245q51 91 66 190q19 103 -2 188q-30 143 -142 229.5t-276 86.5q-141 0 -270 -64.5t-220.5 -183.5t-119.5 -268zM731 1538l434 -283l-37 -47l-434 283z" />
    <glyph glyph-name="aacute" unicode="&#xe1;" horiz-adv-x="1380" 
d="M1421 1085l-200 -1085h-58l51 281q-100 -147 -246 -227.5t-317 -80.5q-129 0 -229.5 48t-158 127.5t-78.5 182t-1 212.5q21 112 80.5 215t147 181.5t205 125.5t245.5 47q184 0 304.5 -94t144.5 -219l53 286h57zM242 543v-2q-7 -53 -8 -105.5t12 -103t34.5 -96t58 -84
t82.5 -66.5t109 -43.5t136 -15.5q169 0 313.5 93t226.5 245q51 91 66 190q19 103 -2 188q-30 143 -142 229.5t-276 86.5q-141 0 -270 -64.5t-220.5 -183.5t-119.5 -268zM674 1255l536 283l21 -47l-541 -283z" />
    <glyph glyph-name="acircumflex" unicode="&#xe2;" horiz-adv-x="1380" 
d="M1421 1085l-200 -1085h-58l51 281q-100 -147 -246 -227.5t-317 -80.5q-129 0 -229.5 48t-158 127.5t-78.5 182t-1 212.5q21 112 80.5 215t147 181.5t205 125.5t245.5 47q184 0 304.5 -94t144.5 -219l53 286h57zM242 543v-2q-7 -53 -8 -105.5t12 -103t34.5 -96t58 -84
t82.5 -66.5t109 -43.5t136 -15.5q169 0 313.5 93t226.5 245q51 91 66 190q19 103 -2 188q-30 143 -142 229.5t-276 86.5q-141 0 -270 -64.5t-220.5 -183.5t-119.5 -268zM993 1485l330 -240h-92l-275 195l-342 -195h-92l414 240h57z" />
    <glyph glyph-name="atilde" unicode="&#xe3;" horiz-adv-x="1380" 
d="M1421 1085l-200 -1085h-58l51 281q-100 -147 -246 -227.5t-317 -80.5q-129 0 -229.5 48t-158 127.5t-78.5 182t-1 212.5q21 112 80.5 215t147 181.5t205 125.5t245.5 47q184 0 304.5 -94t144.5 -219l53 286h57zM242 543v-2q-7 -53 -8 -105.5t12 -103t34.5 -96t58 -84
t82.5 -66.5t109 -43.5t136 -15.5q169 0 313.5 93t226.5 245q51 91 66 190q19 103 -2 188q-30 143 -142 229.5t-276 86.5q-141 0 -270 -64.5t-220.5 -183.5t-119.5 -268zM1284 1403l33 -41q-85 -82 -209 -82q-88 0 -188 41q-89 35 -156 35q-46 0 -90.5 -17.5t-75.5 -48.5
l-35 41q88 82 211 82q89 0 189 -41q86 -35 155 -35q97 0 166 66z" />
    <glyph glyph-name="adieresis" unicode="&#xe4;" horiz-adv-x="1380" 
d="M1421 1085l-200 -1085h-58l51 281q-100 -147 -246 -227.5t-317 -80.5q-129 0 -229.5 48t-158 127.5t-78.5 182t-1 212.5q21 112 80.5 215t147 181.5t205 125.5t245.5 47q184 0 304.5 -94t144.5 -219l53 286h57zM242 543v-2q-7 -53 -8 -105.5t12 -103t34.5 -96t58 -84
t82.5 -66.5t109 -43.5t136 -15.5q169 0 313.5 93t226.5 245q51 91 66 190q19 103 -2 188q-30 143 -142 229.5t-276 86.5q-141 0 -270 -64.5t-220.5 -183.5t-119.5 -268zM805 1483l-43 -238h-60l43 238h60zM1145 1483l-43 -238h-60l43 238h60z" />
    <glyph glyph-name="aring" unicode="&#xe5;" horiz-adv-x="1380" 
d="M1421 1085l-200 -1085h-58l51 281q-100 -147 -246 -227.5t-317 -80.5q-129 0 -229.5 48t-158 127.5t-78.5 182t-1 212.5q21 112 80.5 215t147 181.5t205 125.5t245.5 47q184 0 304.5 -94t144.5 -219l53 286h57zM242 543v-2q-7 -53 -8 -105.5t12 -103t34.5 -96t58 -84
t82.5 -66.5t109 -43.5t136 -15.5q169 0 313.5 93t226.5 245q51 91 66 190q19 103 -2 188q-30 143 -142 229.5t-276 86.5q-141 0 -270 -64.5t-220.5 -183.5t-119.5 -268zM958 1561h3q77 0 121.5 -55.5t29.5 -131.5q-13 -76 -79 -131t-144 -55q-76 0 -121 54.5t-31 131.5
q15 77 80 132t141 55zM948 1507h-2q-52 0 -96 -38.5t-53 -92.5q-11 -53 19.5 -91t84.5 -38q55 0 100 38t56 91q9 54 -22.5 92.5t-86.5 38.5z" />
    <glyph glyph-name="ae" unicode="&#xe6;" horiz-adv-x="2363" 
d="M2380 537h-1061q-8 -87 2.5 -160.5t34.5 -124.5t60 -91.5t75.5 -65t84 -40.5t82.5 -22t73 -6q80 0 157.5 25t141.5 68t114.5 91t91.5 102h68q-91 -144 -247.5 -242t-327.5 -98q-184 0 -300.5 94t-148.5 265l-61 -332h-58l62 332q-67 -150 -231.5 -254.5t-340.5 -104.5
q-85 0 -157 19t-122.5 52t-90.5 77.5t-61 96t-34.5 107t-11 110t9.5 106.5q29 160 128 291.5t243 205.5t303 74q187 0 294.5 -88t150.5 -256l59 317h57l-57 -315q206 342 555 342q253 0 383 -176q119 -162 80 -399zM242 543v-2q-41 -220 79 -367t341 -147q136 0 266.5 72
t220.5 191t115 253q20 101 -1.5 194.5t-78.5 165.5q-126 156 -330 156q-221 0 -396 -147.5t-216 -368.5zM1329 590h995q6 227 -105.5 348t-307.5 121q-220 0 -395 -168q-55 -51 -94 -108.5t-54.5 -93t-38.5 -99.5z" />
    <glyph glyph-name="ccedilla" unicode="&#xe7;" horiz-adv-x="1267" 
d="M647 -27l-59 -90q30 6 33 6q68 0 99 -44t21 -101q-12 -61 -60 -108.5t-118 -47.5q-12 0 -24.5 1.5t-33 8.5t-35.5 19.5t-26 38t-10 59.5h55q6 -71 84 -71q37 0 70 26t43 74q6 40 -17 66t-61 26q-53 0 -92 -51l-45 10l119 185q-217 19 -333 174.5t-73 388.5
q46 242 239.5 405.5t438.5 163.5q84 0 161.5 -23.5t141.5 -69.5t108.5 -119.5t57.5 -166.5h-63q-14 86 -57.5 152t-103.5 102.5t-124 54.5t-129 17q-113 -1 -203 -35t-190 -111q-79 -61 -139 -161t-80 -209q-21 -112 2.5 -209.5t81 -164t144 -104.5t189.5 -38
q177 1 322.5 93t212.5 222h63q-88 -167 -251.5 -266.5t-358.5 -102.5z" />
    <glyph glyph-name="egrave" unicode="&#xe8;" horiz-adv-x="1267" 
d="M1305 537h-1082q-19 -106 -1 -189t59.5 -144t102 -100.5t126 -58.5t131.5 -18q153 0 290.5 75t225.5 211h64q-100 -165 -267 -258q-152 -82 -323 -82q-85 0 -157 19t-122.5 51.5t-90.5 77t-61 95.5t-34.5 106.5t-11 111t9.5 107.5q29 160 129 291.5t245.5 205.5t305.5 74
q109 0 202.5 -37.5t157.5 -107.5q75 -80 102.5 -195t-1.5 -235zM233 590h1022q18 128 -34.5 238.5t-156.5 173t-230 57.5q-133 0 -258.5 -59.5t-217.5 -167.5t-125 -242zM674 1538l434 -283l-37 -47l-434 283z" />
    <glyph glyph-name="eacute" unicode="&#xe9;" horiz-adv-x="1267" 
d="M1305 537h-1082q-19 -106 -1 -189t59.5 -144t102 -100.5t126 -58.5t131.5 -18q153 0 290.5 75t225.5 211h64q-100 -165 -267 -258q-152 -82 -323 -82q-85 0 -157 19t-122.5 51.5t-90.5 77t-61 95.5t-34.5 106.5t-11 111t9.5 107.5q29 160 129 291.5t245.5 205.5t305.5 74
q109 0 202.5 -37.5t157.5 -107.5q75 -80 102.5 -195t-1.5 -235zM233 590h1022q18 128 -34.5 238.5t-156.5 173t-230 57.5q-133 0 -258.5 -59.5t-217.5 -167.5t-125 -242zM616 1255l537 283l21 -47l-541 -283z" />
    <glyph glyph-name="ecircumflex" unicode="&#xea;" horiz-adv-x="1267" 
d="M1305 537h-1082q-19 -106 -1 -189t59.5 -144t102 -100.5t126 -58.5t131.5 -18q153 0 290.5 75t225.5 211h64q-100 -165 -267 -258q-152 -82 -323 -82q-85 0 -157 19t-122.5 51.5t-90.5 77t-61 95.5t-34.5 106.5t-11 111t9.5 107.5q29 160 129 291.5t245.5 205.5t305.5 74
q109 0 202.5 -37.5t157.5 -107.5q75 -80 102.5 -195t-1.5 -235zM233 590h1022q18 128 -34.5 238.5t-156.5 173t-230 57.5q-133 0 -258.5 -59.5t-217.5 -167.5t-125 -242zM936 1485l330 -240h-92l-275 195l-342 -195h-92l414 240h57z" />
    <glyph glyph-name="edieresis" unicode="&#xeb;" horiz-adv-x="1267" 
d="M1305 537h-1082q-19 -106 -1 -189t59.5 -144t102 -100.5t126 -58.5t131.5 -18q153 0 290.5 75t225.5 211h64q-100 -165 -267 -258q-152 -82 -323 -82q-85 0 -157 19t-122.5 51.5t-90.5 77t-61 95.5t-34.5 106.5t-11 111t9.5 107.5q29 160 129 291.5t245.5 205.5t305.5 74
q109 0 202.5 -37.5t157.5 -107.5q75 -80 102.5 -195t-1.5 -235zM233 590h1022q18 128 -34.5 238.5t-156.5 173t-230 57.5q-133 0 -258.5 -59.5t-217.5 -167.5t-125 -242zM758 1483l-43 -238h-60l43 238h60zM1098 1483l-43 -238h-60l43 238h60z" />
    <glyph glyph-name="igrave" unicode="&#xec;" horiz-adv-x="376" 
d="M160 0l200 1085h58l-201 -1085h-57zM186 1538l435 -283l-37 -47l-434 283z" />
    <glyph glyph-name="iacute" unicode="&#xed;" horiz-adv-x="376" 
d="M160 0l200 1085h58l-201 -1085h-57zM221 1255l537 283l20 -47l-540 -283z" />
    <glyph glyph-name="icircumflex" unicode="&#xee;" horiz-adv-x="376" 
d="M160 0l200 1085h58l-201 -1085h-57zM492 1485l329 -240h-92l-274 195l-342 -195h-93l414 240h58z" />
    <glyph glyph-name="idieresis" unicode="&#xef;" horiz-adv-x="376" 
d="M160 0l200 1085h58l-201 -1085h-57zM324 1483l-43 -238h-60l43 238h60zM664 1483l-43 -238h-60l43 238h60z" />
    <glyph glyph-name="eth" unicode="&#xf0;" horiz-adv-x="1312" 
d="M885 1305l-490 -168l11 61l417 143q-153 83 -321 144l76 31q176 -63 321 -150l436 150l-10 -62l-364 -125q260 -167 348 -395q62 -177 20 -389q-25 -133 -95 -243t-165.5 -180t-203 -108.5t-214.5 -40.5q-110 0 -204.5 37t-162 106.5t-96 179.5t-4.5 245
q52 255 241.5 410.5t438.5 160.5q117 0 217.5 -48t153.5 -132q-21 68 -82 143q-108 140 -268 230zM242 543v-2q-28 -144 16.5 -262t150 -185t250.5 -67q223 0 398 148.5t215 369.5q26 140 -23 259t-153.5 187t-239.5 68q-147 -1 -278.5 -68.5t-220.5 -185t-115 -262.5z" />
    <glyph glyph-name="ntilde" unicode="&#xf1;" horiz-adv-x="1312" 
d="M160 0l200 1085h58q-9 -53 -45 -235q78 134 214 199.5t290 62.5q238 -6 335 -143t52 -385l-109 -584h-57l108 584q41 226 -47 352t-305 123q-202 -3 -342.5 -114.5t-177.5 -319.5l-117 -625h-57zM1249 1403l33 -41q-85 -82 -209 -82q-88 0 -188 41q-89 35 -156 35
q-46 0 -90.5 -17.5t-75.5 -48.5l-35 41q88 82 211 82q89 0 189 -41q86 -35 155 -35q97 0 166 66z" />
    <glyph glyph-name="ograve" unicode="&#xf2;" horiz-adv-x="1312" 
d="M184 543v2q29 159 128 289t244 204t306 74t277.5 -74t166.5 -204.5t21 -290.5q-29 -161 -127.5 -291.5t-243 -204.5t-305.5 -74t-278 74t-167.5 204.5t-21.5 291.5zM242 543v-2q-27 -144 17.5 -262t150 -185t249.5 -67q145 0 275 67t219.5 185.5t116.5 263.5
q41 221 -78.5 368.5t-339.5 147.5q-145 0 -275 -67t-219 -185.5t-116 -263.5zM696 1538l434 -283l-36 -47l-435 283z" />
    <glyph glyph-name="oacute" unicode="&#xf3;" horiz-adv-x="1312" 
d="M184 543v2q29 159 128 289t244 204t306 74t277.5 -74t166.5 -204.5t21 -290.5q-29 -161 -127.5 -291.5t-243 -204.5t-305.5 -74t-278 74t-167.5 204.5t-21.5 291.5zM242 543v-2q-27 -144 17.5 -262t150 -185t249.5 -67q145 0 275 67t219.5 185.5t116.5 263.5
q41 221 -78.5 368.5t-339.5 147.5q-145 0 -275 -67t-219 -185.5t-116 -263.5zM639 1255l537 283l20 -47l-541 -283z" />
    <glyph glyph-name="ocircumflex" unicode="&#xf4;" horiz-adv-x="1312" 
d="M184 543v2q29 159 128 289t244 204t306 74t277.5 -74t166.5 -204.5t21 -290.5q-29 -161 -127.5 -291.5t-243 -204.5t-305.5 -74t-278 74t-167.5 204.5t-21.5 291.5zM242 543v-2q-27 -144 17.5 -262t150 -185t249.5 -67q145 0 275 67t219.5 185.5t116.5 263.5
q41 221 -78.5 368.5t-339.5 147.5q-145 0 -275 -67t-219 -185.5t-116 -263.5zM958 1485l330 -240h-92l-274 195l-342 -195h-93l414 240h57z" />
    <glyph glyph-name="otilde" unicode="&#xf5;" horiz-adv-x="1312" 
d="M184 543v2q29 159 128 289t244 204t306 74t277.5 -74t166.5 -204.5t21 -290.5q-29 -161 -127.5 -291.5t-243 -204.5t-305.5 -74t-278 74t-167.5 204.5t-21.5 291.5zM242 543v-2q-27 -144 17.5 -262t150 -185t249.5 -67q145 0 275 67t219.5 185.5t116.5 263.5
q41 221 -78.5 368.5t-339.5 147.5q-145 0 -275 -67t-219 -185.5t-116 -263.5zM1249 1403l33 -41q-85 -82 -209 -82q-88 0 -188 41q-89 35 -156 35q-46 0 -90.5 -17.5t-75.5 -48.5l-35 41q88 82 211 82q89 0 189 -41q86 -35 155 -35q97 0 166 66z" />
    <glyph glyph-name="odieresis" unicode="&#xf6;" horiz-adv-x="1312" 
d="M184 543v2q29 159 128 289t244 204t306 74t277.5 -74t166.5 -204.5t21 -290.5q-29 -161 -127.5 -291.5t-243 -204.5t-305.5 -74t-278 74t-167.5 204.5t-21.5 291.5zM242 543v-2q-27 -144 17.5 -262t150 -185t249.5 -67q145 0 275 67t219.5 185.5t116.5 263.5
q41 221 -78.5 368.5t-339.5 147.5q-145 0 -275 -67t-219 -185.5t-116 -263.5zM791 1483l-43 -238h-60l43 238h60zM1130 1483l-43 -238h-59l43 238h59z" />
    <glyph glyph-name="divide" unicode="&#xf7;" horiz-adv-x="1228" 
d="M836 1024l-31 -166h-62l31 166h62zM193 483l10 58h1024l-10 -58h-1024zM676 166l-31 -166h-61l30 166h62z" />
    <glyph glyph-name="oslash" unicode="&#xf8;" horiz-adv-x="1312" 
d="M1280 1157h70l-150 -166q85 -81 119 -196.5t8 -251.5q-29 -161 -127.5 -291.5t-243 -204.5t-305.5 -74q-174 0 -297 90l-123 -135h-69l153 168q-86 76 -121.5 193t-9.5 254q29 160 128 290.5t244 204.5t306 74q178 0 295 -90zM354 139l762 838q-108 82 -264 82
q-145 0 -275 -67t-219 -185.5t-116 -263.5q-23 -123 7 -228.5t105 -175.5zM1159 946l-766 -840q112 -79 266 -79q145 0 275 67t219.5 185.5t116.5 263.5q23 123 -6.5 227t-104.5 176z" />
    <glyph glyph-name="ugrave" unicode="&#xf9;" horiz-adv-x="1312" 
d="M1354 1085l-201 -1085h-57q38 204 45 236q-78 -134 -214 -200t-288 -63q-239 6 -336.5 143.5t-52.5 385.5l108 583h58l-109 -583q-41 -226 47 -352t305 -123q202 3 343 114.5t180 319.5l114 624h58zM635 1538l434 -283l-37 -47l-434 283z" />
    <glyph glyph-name="uacute" unicode="&#xfa;" horiz-adv-x="1312" 
d="M1354 1085l-201 -1085h-57q38 204 45 236q-78 -134 -214 -200t-288 -63q-239 6 -336.5 143.5t-52.5 385.5l108 583h58l-109 -583q-41 -226 47 -352t305 -123q202 3 343 114.5t180 319.5l114 624h58zM649 1255l537 283l20 -47l-540 -283z" />
    <glyph glyph-name="ucircumflex" unicode="&#xfb;" horiz-adv-x="1312" 
d="M1354 1085l-201 -1085h-57q38 204 45 236q-78 -134 -214 -200t-288 -63q-239 6 -336.5 143.5t-52.5 385.5l108 583h58l-109 -583q-41 -226 47 -352t305 -123q202 3 343 114.5t180 319.5l114 624h58zM958 1485l330 -240h-92l-274 195l-342 -195h-93l414 240h57z" />
    <glyph glyph-name="udieresis" unicode="&#xfc;" horiz-adv-x="1312" 
d="M1354 1085l-201 -1085h-57q38 204 45 236q-78 -134 -214 -200t-288 -63q-239 6 -336.5 143.5t-52.5 385.5l108 583h58l-109 -583q-41 -226 47 -352t305 -123q202 3 343 114.5t180 319.5l114 624h58zM791 1483l-43 -238h-60l43 238h60zM1130 1483l-43 -238h-59l43 238h59z
" />
    <glyph glyph-name="yacute" unicode="&#xfd;" horiz-adv-x="985" 
d="M180 -436l273 438l-230 1083h64l215 -1005l614 1005h68l-938 -1521h-66zM547 1255l536 283l21 -47l-541 -283z" />
    <glyph glyph-name="thorn" unicode="&#xfe;" horiz-adv-x="1394" 
d="M80 -436l360 1952h58l-103 -555l-30 -168q63 96 147 163.5t166.5 99t146 44t117.5 12.5q161 0 278 -74t167.5 -204.5t21.5 -290.5q-29 -161 -128 -291.5t-244 -204.5t-306 -74q-171 0 -293 87.5t-168 226.5l-26 -140l-107 -583h-57zM1352 543v2q27 145 -17.5 262.5
t-150 184.5t-250.5 67q-100 0 -201 -37.5t-186 -106.5q-188 -150 -230 -378q-19 -95 3 -187.5t79 -163.5q57 -74 145 -116.5t197 -42.5q221 0 395.5 147.5t215.5 368.5z" />
    <glyph glyph-name="ydieresis" unicode="&#xff;" horiz-adv-x="985" 
d="M180 -436l273 438l-230 1083h64l215 -1005l614 1005h68l-938 -1521h-66zM627 1483l-43 -238h-60l43 238h60zM967 1483l-43 -238h-60l43 238h60z" />
    <glyph glyph-name="dotlessi" unicode="&#x131;" horiz-adv-x="376" 
d="M160 0l200 1085h58l-201 -1085h-57z" />
    <glyph glyph-name="Lslash" unicode="&#x141;" horiz-adv-x="866" 
d="M106 573l13 72l188 123l139 748h62l-129 -703l364 236l-14 -72l-364 -242l-127 -680h641l-11 -55h-702l129 696z" />
    <glyph glyph-name="lslash" unicode="&#x142;" horiz-adv-x="448" 
d="M340 782l-184 -118l12 61l182 119l125 672h57l-118 -639l225 145l-10 -59l-226 -148l-151 -815h-57z" />
    <glyph glyph-name="OE" unicode="&#x152;" horiz-adv-x="2412" 
d="M1913 1460l-123 -669h645l-10 -56h-645l-127 -680h645l-10 -55h-707l43 236l43 233q-107 -218 -330.5 -357t-476.5 -139q-162 0 -295 58t-218.5 160t-119.5 249.5t-2 317.5q31 170 119 317t211 249t276 160t312 58q258 0 431.5 -137.5t201.5 -357.5l43 235l43 234h706
l-10 -56h-645zM287 758l-2 -2q-29 -157 2 -293t109.5 -231t200 -149t269.5 -54q151 0 295.5 57.5t258 155.5t194 233t108.5 285q33 203 -28 368.5t-206.5 262t-350.5 96.5q-198 0 -378.5 -92t-307 -259.5t-164.5 -377.5z" />
    <glyph glyph-name="oe" unicode="&#x153;" horiz-adv-x="2367" 
d="M2386 539h-1061q-18 -125 9.5 -225t88 -161.5t140.5 -93.5t172 -32q94 0 187 30.5t179 97.5t137 162h64q-24 -38 -39.5 -60.5t-47 -61t-73 -72.5t-92.5 -64q-162 -86 -324 -86q-197 0 -317 108t-147 284q-63 -107 -141.5 -186.5t-160 -122.5t-158 -63t-151.5 -20
q-96 0 -173 23t-127.5 60t-87 87.5t-55 103t-26.5 108.5t-6.5 101.5t8.5 84.5q29 161 128 292t244 205t306 74q189 0 311 -107.5t150 -289.5q20 43 50.5 89t85 101.5t119 98t156.5 71.5t193 29q239 0 373 -170q61 -79 83.5 -181.5t2.5 -213.5zM242 543v-2
q-27 -144 17.5 -262t150 -185t249.5 -67q143 0 275.5 74.5t218.5 191.5t111 246q17 94 -2.5 186t-69.5 166.5t-139 121t-201 46.5q-145 0 -275 -67t-219 -185.5t-116 -263.5zM1337 592h992q7 53 -1.5 112.5t-38.5 121.5t-77 112t-124 81.5t-173 31.5q-192 0 -355 -129
t-223 -330z" />
    <glyph glyph-name="Scaron" unicode="&#x160;" horiz-adv-x="1060" 
d="M164 383h61q-5 -83 14.5 -148t52.5 -102.5t78.5 -62t85.5 -33t79 -8.5q96 0 190.5 44t165.5 128t90 188q18 96 -3.5 165.5t-83 110.5t-103 58t-117.5 38q-3 1 -5.5 1.5t-4.5 1.5q-139 36 -205 79q-159 101 -121 304q20 121 95 213t176.5 137t213.5 45q146 0 240 -88.5
t86 -263.5h-62q0 297 -278 297q-148 0 -264.5 -91.5t-143.5 -238.5q-7 -36 -7.5 -67.5t6 -57.5t16 -48t28 -41t35.5 -34t43.5 -28.5t48.5 -23.5t55 -20.5t57 -17.5t60 -16q4 -1 15 -4q19 -5 30.5 -8.5t38 -12.5t42.5 -17.5t44 -23.5t42.5 -31t38 -40t30.5 -49.5t20.5 -60.5
t8 -73t-8.5 -86q-23 -121 -104 -219.5t-191 -151.5t-223 -53q-56 0 -110.5 14.5t-105 47.5t-86 79.5t-53 116t-7.5 152.5zM475 1853h92l273 -194l344 194h92l-414 -235h-61z" />
    <glyph glyph-name="scaron" unicode="&#x161;" horiz-adv-x="872" 
d="M872 829h-57q22 115 -34 173.5t-152 56.5q-108 0 -187.5 -65.5t-93.5 -162.5q-9 -64 12 -107t64 -68t121 -48h1l1 -1h1h1h1l1 -1h2q118 -34 166 -66q108 -74 86 -241q-17 -134 -127.5 -230t-249.5 -96q-141 0 -225 92t-49 236h57q-24 -127 39.5 -200.5t185.5 -73.5
q119 0 206.5 77.5t102.5 186.5q18 110 -33 170t-180 90q-26 8 -45.5 14.5t-42 15t-39 16.5t-34 19t-29.5 23t-23.5 26.5t-18 32t-10.5 37.5t-3.5 44t4.5 52q25 131 123.5 206t224.5 75q123 -2 190.5 -75.5t42.5 -207.5zM309 1475h92l275 -195l342 195h92l-412 -236h-61z" />
    <glyph glyph-name="Ydieresis" unicode="&#x178;" horiz-adv-x="1134" 
d="M537 0l96 522l-322 994h68l299 -924l637 924h69l-690 -994l-96 -522h-61zM772 1851l-45 -237h-59l45 237h59zM1112 1851l-45 -237h-59l45 237h59z" />
    <glyph glyph-name="Zcaron" unicode="&#x17d;" horiz-adv-x="1021" 
d="M1241 1479l-1118 -1424h897l-10 -55h-969l6 37l1118 1423h-882l10 56h954zM434 1853h92l273 -194l344 194h92l-414 -235h-61z" />
    <glyph glyph-name="zcaron" unicode="&#x17e;" horiz-adv-x="833" 
d="M25 0l8 49l856 983h-637l10 53h711l-10 -55l-854 -977h708l-10 -53h-782zM279 1475h92l274 -195l342 195h92l-411 -236h-62z" />
    <glyph glyph-name="florin" unicode="&#x192;" 
d="M889 1028h289l-11 -55h-297l-381 -1020q-22 -59 -34.5 -89.5t-40 -81t-58.5 -85.5q-114 -131 -313 -131q-69 0 -121 16l23 58q7 -2 23 -6.5t25.5 -6.5t26 -4t33.5 -2q52 0 97 11.5t76.5 27.5t61 45.5t46.5 52t36.5 62t28 60t23.5 61.5l385 1032h-295l10 55h303
q4 10 23 63.5t26 70.5t25.5 62.5t33 68.5t36.5 58t46.5 60.5t53.5 48.5q119 82 242 82q29 0 53 -6l-23 -53q-28 4 -47 4q-121 -9 -198 -74q-23 -19 -43.5 -42t-39 -54.5t-31 -53.5t-29.5 -63.5t-23 -57.5t-22.5 -62t-18.5 -52z" />
    <glyph glyph-name="circumflex" unicode="&#x2c6;" 
d="M870 1485l330 -240h-92l-274 195l-342 -195h-93l414 240h57z" />
    <glyph glyph-name="caron" unicode="&#x2c7;" 
d="M440 1475h92l275 -195l342 195h92l-412 -236h-61z" />
    <glyph glyph-name="uni02C9" unicode="&#x2c9;" 
d="M1188 1382l-10 -61h-729l10 61h729z" />
    <glyph glyph-name="breve" unicode="&#x2d8;" 
d="M442 1436h78q66 -109 293 -109q233 0 336 109h78q-135 -168 -424 -168q-299 0 -361 168z" />
    <glyph glyph-name="dotaccent" unicode="&#x2d9;" 
d="M874 1483l-43 -238h-63l43 238h63z" />
    <glyph glyph-name="ring" unicode="&#x2da;" 
d="M856 1561h2q77 0 122 -55.5t30 -131.5q-13 -76 -79.5 -131t-144.5 -55q-76 0 -120.5 54.5t-30.5 131.5q15 77 80 132t141 55zM846 1507h-2q-53 0 -97 -38.5t-53 -92.5q-11 -53 20 -91t85 -38q55 0 99.5 38t55.5 91q9 54 -22 92.5t-86 38.5z" />
    <glyph glyph-name="ogonek" unicode="&#x2db;" 
d="M584 0h59q-66 -43 -92.5 -61t-59.5 -46.5t-46 -53t-19 -56.5q-12 -64 24.5 -104.5t98.5 -40.5q45 0 121 26l-13 -59q-56 -27 -118 -27q-97 0 -145.5 55t-31.5 144q7 39 27.5 73.5t42.5 56.5t55 42.5t51.5 29.5t45.5 21z" />
    <glyph glyph-name="tilde" unicode="&#x2dc;" 
d="M1161 1403l33 -41q-85 -82 -209 -82q-88 0 -188 41q-89 35 -156 35q-46 0 -90.5 -17.5t-75.5 -48.5l-35 41q88 82 211 82q89 0 189 -41q86 -35 155 -35q97 0 166 66z" />
    <glyph glyph-name="hungarumlaut" unicode="&#x2dd;" 
d="M465 1251l448 287l25 -41l-449 -289zM754 1251l448 287l25 -41l-449 -289z" />
    <glyph glyph-name="uni03A9" unicode="&#x3a9;" horiz-adv-x="1497" 
d="M465 61v7q-111 122 -160.5 310t-7.5 419q31 170 105.5 311t174.5 233.5t219.5 143.5t243.5 51q169 0 287 -94.5t162.5 -262.5t5.5 -378q-23 -124 -70 -240.5t-108 -208.5t-127 -163t-135 -121v-7h331l-12 -61h-454l8 45q170 108 311 308.5t186 439.5q16 74 13.5 153
t-15 155t-46 144.5t-79 120t-115.5 81.5t-155 30q-160 0 -300.5 -93t-234 -248t-128.5 -343q-42 -229 26.5 -437t192.5 -311l-9 -45h-452l12 61h330z" />
    <glyph glyph-name="uni03BC" unicode="&#x3bc;" horiz-adv-x="1148" 
d="M90 -371l270 1456h58l-113 -614q-13 -74 -18.5 -118.5t2 -107t35.5 -104.5q76 -114 249 -114q174 0 295 133q131 138 183 409l94 516h57l-201 -1085h-57l45 244q-151 -271 -424 -271q-65 0 -118 13.5t-84.5 32t-57.5 47t-36.5 47.5t-22.5 45l-35 -189l-64 -340h-57z" />
    <glyph glyph-name="pi" unicode="&#x3c0;" horiz-adv-x="1122" 
d="M1253 1055h-180l-137 -742q-40 -221 -25 -313h-67q-23 62 22 297l140 758h-443q-61 -266 -170 -594.5t-190 -460.5h-70q90 153 194.5 467t166.5 588q-180 0 -254 -31l-11 45q92 47 269 47h780z" />
    <glyph glyph-name="uni2010" unicode="&#x2010;" horiz-adv-x="544" 
d="M111 596h544l-10 -59h-545z" />
    <glyph glyph-name="endash" unicode="&#x2013;" horiz-adv-x="1024" 
d="M182 596h881l-10 -59h-881z" />
    <glyph glyph-name="emdash" unicode="&#x2014;" horiz-adv-x="2048" 
d="M182 596h1905l-10 -59h-1905z" />
    <glyph glyph-name="quoteleft" unicode="&#x2018;" horiz-adv-x="567" 
d="M532 1516l74 -316h-67l-74 316h67z" />
    <glyph glyph-name="quoteright" unicode="&#x2019;" horiz-adv-x="567" 
d="M408 1200l188 316h68l-189 -316h-67z" />
    <glyph glyph-name="quotesinglbase" unicode="&#x201a;" horiz-adv-x="567" 
d="M158 -147l188 315h68l-189 -315h-67z" />
    <glyph glyph-name="quotedblleft" unicode="&#x201c;" horiz-adv-x="757" 
d="M537 1516l73 -316h-67l-74 316h68zM719 1516l74 -316h-68l-74 316h68z" />
    <glyph glyph-name="quotedblright" unicode="&#x201d;" horiz-adv-x="757" 
d="M412 1200l188 316h68l-189 -316h-67zM594 1200l188 316h68l-188 -316h-68z" />
    <glyph glyph-name="quotedblbase" unicode="&#x201e;" horiz-adv-x="757" 
d="M162 -147l188 315h68l-189 -315h-67zM344 -147l188 315h68l-188 -315h-68z" />
    <glyph glyph-name="dagger" unicode="&#x2020;" horiz-adv-x="1173" 
d="M897 1516l-82 -439h389l-10 -61h-389l-227 -1221h-62l227 1221h-385l11 61h385l82 439h61z" />
    <glyph glyph-name="daggerdbl" unicode="&#x2021;" horiz-adv-x="1173" 
d="M901 1516l-70 -379h386l-13 -62h-385l-155 -839h385l-11 -62h-385l-71 -379h-62l72 379h-389l10 62h389l156 839h-389l12 62h389l70 379h61z" />
    <glyph glyph-name="bullet" unicode="&#x2022;" horiz-adv-x="768" 
d="M559 938h2q73 0 115.5 -51t28.5 -123t-75 -123t-136 -51q-76 0 -119 51t-29 123t75.5 123t137.5 51z" />
    <glyph glyph-name="ellipsis" unicode="&#x2026;" horiz-adv-x="2048" 
d="M311 0l31 168h61l-30 -168h-62zM993 0l31 168h61l-30 -168h-62zM1675 0l31 168h61l-30 -168h-62z" />
    <glyph glyph-name="perthousand" unicode="&#x2030;" horiz-adv-x="2230" 
d="M264 1208l2 2q26 143 138.5 237.5t257.5 94.5t221.5 -94.5t48.5 -239.5q-26 -145 -138 -239.5t-257 -94.5t-222 94.5t-51 239.5zM322 1208v-2q-22 -122 40.5 -201t184.5 -79q123 0 214 79t113 203q23 124 -39 203.5t-184 79.5t-214 -79.5t-115 -203.5zM813 307v2
q26 143 138.5 237.5t256.5 94.5q145 0 222 -94.5t51 -239.5q-28 -145 -139.5 -239.5t-256.5 -94.5t-222.5 94.5t-49.5 239.5zM870 307v-2q-23 -122 39.5 -201t184.5 -79t214 79t115 203q23 123 -39.5 203t-185.5 80q-122 0 -213.5 -79.5t-114.5 -203.5zM1581 307v2
q26 143 138.5 237.5t256.5 94.5q145 0 222 -94.5t51 -239.5q-28 -145 -139.5 -239.5t-256.5 -94.5t-222.5 94.5t-49.5 239.5zM1638 307v-2q-23 -122 39.5 -201t184.5 -79t214 79t115 203q23 123 -39.5 203t-185.5 80q-122 0 -213.5 -79.5t-114.5 -203.5zM1511 1516
l-1216 -1516h-66l1217 1516h65z" />
    <glyph glyph-name="guilsinglleft" unicode="&#x2039;" horiz-adv-x="507" 
d="M207 563l307 398h72l-307 -398l161 -391h-71z" />
    <glyph glyph-name="guilsinglright" unicode="&#x203a;" horiz-adv-x="507" 
d="M350 961l160 -398l-305 -391h-72l305 391l-159 398h71z" />
    <glyph glyph-name="fraction" unicode="&#x2044;" horiz-adv-x="176" 
d="M-281 0l955 1516h61l-956 -1516h-60z" />
    <glyph glyph-name="Euro" unicode="&#x20ac;" 
d="M1024 662l-18 -54h-600q-17 -134 -17 -192q0 -184 47 -266q70 -121 262 -121q168 0 275 90q76 63 125 192h61q-55 -154 -158 -237q-122 -101 -315 -101q-212 0 -305 144q-34 53 -45.5 119.5t-11.5 162.5q0 77 16 209h-168l18 54h156q2 16 7 41.5t7 35.5q2 11 29 144h-190
l18 53h184q68 283 193 432q76 91 169 132.5t216 41.5q186 0 272 -106q62 -76 62 -189q0 -33 -2 -49h-60v27q0 113 -55 176q-73 86 -229 86q-198 0 -326 -158q-108 -131 -176 -393h653l-18 -53h-647q-6 -26 -15 -72.5t-10 -50.5q-3 -17 -8.5 -51t-7.5 -47h612z" />
    <glyph glyph-name="afii61289" unicode="&#x2113;" horiz-adv-x="956" 
d="M897 254l43 -31q-171 -237 -393 -237q-83 0 -139 35t-80 95t-29 140t14 170l6 33q-117 -87 -147 -111l-27 51q120 86 189 148l117 627q18 97 45 175.5t57.5 131t64 90t69 58t67 29.5t63.5 9q111 0 153.5 -88t16.5 -229q-38 -205 -190 -409t-404 -421l-10 -57
q-19 -117 -14.5 -198t33.5 -130.5t69.5 -71.5t93.5 -22q98 0 185.5 63.5t146.5 149.5zM518 1196l-108 -590q104 95 181.5 176.5t150 174.5t118.5 188.5t64 191.5q49 269 -127 269q-80 0 -160.5 -102t-118.5 -308z" />
    <glyph glyph-name="trademark" unicode="&#x2122;" horiz-adv-x="2027" 
d="M825 606l168 910h76l274 -824l580 824h74l-168 -910h-55l153 830l-584 -830h-32l-277 828l-153 -828h-56zM385 606l160 860h-254l8 50h565l-8 -50h-256l-160 -860h-55z" />
    <glyph glyph-name="Omega" unicode="&#x2126;" horiz-adv-x="1497" 
d="M465 61v7q-111 122 -160.5 310t-7.5 419q31 170 105.5 311t174.5 233.5t219.5 143.5t243.5 51q169 0 287 -94.5t162.5 -262.5t5.5 -378q-23 -124 -70 -240.5t-108 -208.5t-127 -163t-135 -121v-7h331l-12 -61h-454l8 45q170 108 311 308.5t186 439.5q16 74 13.5 153
t-15 155t-46 144.5t-79 120t-115.5 81.5t-155 30q-160 0 -300.5 -93t-234 -248t-128.5 -343q-42 -229 26.5 -437t192.5 -311l-9 -45h-452l12 61h330z" />
    <glyph glyph-name="estimated" unicode="&#x212e;" horiz-adv-x="2172" 
d="M2099 735h-1409q-12 0 -12 -8v-428q0 -28 18 -49q106 -109 244 -170.5t291 -61.5q164 0 310 70t251 191h125q-120 -140 -302 -222t-388 -82q-176 0 -337.5 62t-278 167t-186 250t-69.5 304t69.5 304t186 249.5t278 166.5t337.5 62q178 0 339.5 -62t278 -166.5
t185.5 -249.5t69 -304v-23zM1780 791v430q0 30 -21 51q-106 104 -242 163.5t-286 59.5q-152 0 -289.5 -61t-243.5 -168q-20 -20 -20 -54v-421q0 -4 3.5 -8.5t8.5 -4.5h1082q8 0 8 13z" />
    <glyph glyph-name="partialdiff" unicode="&#x2202;" horiz-adv-x="1079" 
d="M489 1524l-28 47q160 115 338 115q93 0 168.5 -47t128.5 -146t63.5 -252.5t-26.5 -366.5q-35 -190 -96.5 -350.5t-145 -281.5t-193 -189.5t-233.5 -68.5q-91 0 -156.5 38.5t-96.5 105t-40.5 154.5t10.5 187q22 120 78.5 224t130.5 173t160 108.5t170 39.5
q72 0 132.5 -24.5t98 -62.5t60 -73.5t32.5 -67.5h3q7 29 22 109q42 234 12 396.5t-108 248.5t-187 86q-157 0 -297 -102zM477 41h2q111 0 217.5 85.5t187.5 229t130 324.5q-7 46 -29.5 92.5t-59 88t-93.5 67.5t-123 26q-71 0 -145.5 -37t-136.5 -100t-108.5 -152t-64.5 -186
q-35 -197 25.5 -317.5t197.5 -120.5z" />
    <glyph glyph-name="uni2206" unicode="&#x2206;" horiz-adv-x="1314" 
d="M74 0l12 68l825 1488h72l272 -1488l-12 -68h-1169zM150 59h1028l-172 992q-7 43 -39 194t-37 211h-10q-21 -51 -102.5 -194t-100.5 -179z" />
    <glyph glyph-name="product" unicode="&#x220f;" horiz-adv-x="1675" 
d="M1618 1448h-236v-1657h-63v1657h-682v-1657h-66v1657h-235v63h1282v-63z" />
    <glyph glyph-name="summation" unicode="&#x2211;" horiz-adv-x="1411" 
d="M1360 -209h-1034v51l602 803l-572 817v49h971v-63h-868v-8l551 -789l-586 -784v-8h936v-68z" />
    <glyph glyph-name="minus" unicode="&#x2212;" horiz-adv-x="1228" 
d="M193 483l10 58h1024l-10 -58h-1024z" />
    <glyph glyph-name="uni2215" unicode="&#x2215;" horiz-adv-x="176" 
d="M-281 0l955 1516h61l-956 -1516h-60z" />
    <glyph glyph-name="uni2219" unicode="&#x2219;" horiz-adv-x="567" 
d="M428 606l-31 -166h-61l31 166h61z" />
    <glyph glyph-name="radical" unicode="&#x221a;" horiz-adv-x="1433" 
d="M1419 1784l-454 -2126h-78l-352 1053l-154 -58l-23 54l226 84l305 -893q14 -50 33 -138h2q2 19 11 64t11 61l412 1899h61z" />
    <glyph glyph-name="infinity" unicode="&#x221e;" horiz-adv-x="1783" 
d="M1677 633v-2q0 -134 -90.5 -220.5t-214.5 -86.5q-41 0 -81.5 13.5t-71 30.5t-77 57t-74.5 67.5t-87 87.5q-35 -38 -43 -46.5t-41 -43.5t-47 -45.5t-45.5 -36.5t-52.5 -36t-51.5 -24t-60 -19t-60.5 -5q-124 0 -211.5 88.5t-87.5 212.5q0 131 88.5 220t222.5 89
q46 0 93 -17t81.5 -38t81.5 -64t70.5 -68t70.5 -77q109 120 154 159q121 105 246 105q133 0 210.5 -84t77.5 -217zM590 383h2q42 0 82.5 15t81 46t66.5 55t68 68t56 58q-96 108 -133 143q-121 109 -240 109q-102 0 -162.5 -75.5t-60.5 -178.5q2 -102 68 -171t172 -69z
M1380 877h-2q-52 0 -109.5 -30.5t-93 -63t-86.5 -86t-65 -66.5q45 -47 61 -63t52 -51.5t52.5 -48t46 -34.5t49 -29.5t45 -14.5t50.5 -7q104 0 167 73t63 171q0 119 -65 184.5t-165 65.5z" />
    <glyph glyph-name="integral" unicode="&#x222b;" horiz-adv-x="962" 
d="M938 1796l-27 -49q-11 9 -33.5 17t-41.5 8q-66 0 -107 -52q-45 -51 -63.5 -142.5t-18.5 -260.5q0 -165 13.5 -567t13.5 -564q0 -303 -103 -440q-27 -33 -68 -53.5t-87 -20.5q-30 0 -64 11.5t-51 23.5l23 53q58 -26 96 -26q63 0 102 55q82 104 82 404q0 163 -12 567
t-12 563q0 173 22.5 274.5t77.5 159.5q69 72 156 72q27 0 56.5 -10t45.5 -23z" />
    <glyph glyph-name="approxequal" unicode="&#x2248;" horiz-adv-x="1347" 
d="M1200 887l41 -33q-43 -85 -103 -135.5t-153 -50.5q-16 0 -32 2t-28 4t-30.5 9t-27 10t-31 14t-29.5 15t-35.5 19t-36.5 19q-130 71 -207 71q-68 0 -119 -42.5t-96 -118.5l-45 30q47 92 118 140.5t157 48.5q36 0 75 -11.5t61 -22t60.5 -32.5t46.5 -26q9 -5 34 -18
t34.5 -17.5t30.5 -14t35 -13t33.5 -6.5t39.5 -3q65 0 113.5 38.5t93.5 123.5zM1200 559l41 -33q-42 -85 -102.5 -134.5t-153.5 -49.5q-41 0 -84 13.5t-70 27t-96 51.5q-104 54 -149 65q-30 7 -56 7q-70 0 -121 -43.5t-96 -118.5l-45 29q96 190 275 190q36 0 74 -11
t61.5 -22.5t60 -32t47.5 -26.5q3 -2 22.5 -12.5t23.5 -12.5l21 -10.5t23 -10.5t20.5 -8.5t23.5 -8t22.5 -4.5t26 -4t26.5 -1q65 0 112.5 37.5t92.5 122.5z" />
    <glyph glyph-name="notequal" unicode="&#x2260;" horiz-adv-x="1382" 
d="M1018 1057l-103 -221h357v-60h-385l-152 -321h537v-60h-565l-117 -252l-49 27l104 225h-334v60h363l151 321h-514v60h541l117 247z" />
    <glyph glyph-name="lessequal" unicode="&#x2264;" horiz-adv-x="1409" 
d="M1294 217l-944 477v60l944 477v-78l-868 -424v-6l868 -430v-76zM1298 61h-962v64h962v-64z" />
    <glyph glyph-name="greaterequal" unicode="&#x2265;" horiz-adv-x="1409" 
d="M350 1231l944 -477v-60l-944 -477v76l867 428v4l-867 428v78zM1298 61h-960v64h960v-64z" />
    <glyph glyph-name="lozenge" unicode="&#x25ca;" horiz-adv-x="1435" 
d="M1315 756l-426 -840h-58l-425 840l425 839h58zM1245 754l-346 676q-15 29 -39 98h-4q-26 -70 -41 -98l-340 -672l346 -678q29 -62 39 -96h4q36 89 39 96z" />
    <glyph glyph-name="fi" unicode="&#xfb01;" horiz-adv-x="804" 
d="M778 1032h-338l-190 -1032h-57l190 1032h-178l10 53h178l21 109q61 336 405 348l-10 -55q-92 -7 -138 -23q-160 -60 -202 -286l-18 -93h395l-201 -1085h-57zM891 1329h-57l34 187h58z" />
    <glyph glyph-name="fl" unicode="&#xfb02;" horiz-adv-x="804" 
d="M778 1032h-338l-190 -1032h-57l190 1032h-178l10 53h178l21 109q61 336 405 348l-10 -55q-92 -7 -138 -23q-160 -60 -202 -286l-18 -93h337l80 431h58l-281 -1516h-57z" />
    <glyph glyph-name="a.superior" horiz-adv-x="899" 
d="M1077 1526l-127 -682h-57l33 170q-62 -91 -153 -139t-195 -48q-108 0 -185 51t-108 133t-13 175q28 148 155.5 252t283.5 104q102 0 173.5 -49.5t102.5 -140.5l33 174h57zM330 1178l-2 -2q-9 -50 3 -101.5t42.5 -95t87 -71t129.5 -27.5q93 0 174.5 44.5t134.5 118.5
q46 73 57 140q11 65 -4 125q-24 81 -92 130.5t-160 49.5q-80 0 -156.5 -35.5t-136 -108t-77.5 -167.5z" />
    <glyph glyph-name="o.superior" horiz-adv-x="899" 
d="M309 1178v2q28 154 149 257t275 105q158 0 240.5 -105t54.5 -251q-19 -104 -87 -188t-158.5 -127.5t-182.5 -43.5q-146 0 -232.5 103t-58.5 248zM367 1180v-2q-23 -119 48 -208t195 -89q123 0 229 87t132 218q22 125 -47 214t-197 89q-124 0 -229.5 -86t-130.5 -223z" />
    <glyph glyph-name="one.superior" horiz-adv-x="718" 
d="M684 1516l-168 -910h-57l159 858h-194l8 52h252z" />
    <glyph glyph-name="two.superior" horiz-adv-x="718" 
d="M750 657l-9 -51h-555l9 47q61 54 215 188.5t237 207.5q73 67 108 115t44 98q9 38 3.5 77t-21 70.5t-54.5 51.5t-96 20q-96 0 -166 -67.5t-92 -184.5h-58q22 123 97 201q49 51 110.5 76.5t122.5 25.5q118 0 176 -72.5t35 -197.5q-11 -63 -54 -120.5t-122 -129.5
q-195 -169 -406 -355h476z" />
    <glyph glyph-name="three.superior" horiz-adv-x="718" 
d="M231 881h58q-11 -64 2.5 -113t43.5 -75t64.5 -39t71.5 -13q105 0 178 64t92 165q3 29 2.5 60t-15 61.5t-36.5 54.5t-61 39t-90 15h-56l9 51h55q60 0 105 20.5t67.5 52t31.5 52.5t13 39q12 69 -22 117t-107 49q-72 1 -126.5 -45t-72.5 -121h-57q17 74 64.5 125.5t99 71.5
t102.5 20q87 0 140.5 -60.5t35.5 -154.5q-8 -42 -27 -76.5t-43.5 -56.5t-43 -34.5t-37.5 -21.5q71 -32 107.5 -101t19.5 -153q-23 -124 -118 -204t-220 -80q-68 0 -124.5 30t-86.5 87q-38 75 -19 174z" />
    </font>
</defs>
</svg>
