<?xml version="1.0" standalone="no"?>
<!DOCTYPE svg PUBLIC "-//W3C//DTD SVG 1.1//EN" "http://www.w3.org/Graphics/SVG/1.1/DTD/svg11.dtd" >
<svg xmlns="http://www.w3.org/2000/svg" xmlns:xlink="http://www.w3.org/1999/xlink" version="1.1">
<metadata>
Created by FontForge 20170731 at Tue Sep 29 22:08:23 2020
 By Aleksey,,,
(c) 1993, 1994, 2001, 2002 Adobe Systems Incorporated. All rights reserved.
</metadata>
<defs>
<font id="ITCAvantGardeStd-DemiCn" horiz-adv-x="1110" >
  <font-face 
    font-family="ITC Avant Garde Std Bk Cn"
    font-weight="600"
    font-stretch="condensed"
    units-per-em="2048"
    panose-1="2 11 6 6 2 2 2 2 2 4"
    ascent="1516"
    descent="-532"
    x-height="1145"
    cap-height="1516"
    bbox="-332 -512 2050 2021"
    underline-thickness="102"
    underline-position="-307"
    unicode-range="U+0020-FB02"
  />
<missing-glyph horiz-adv-x="1024" 
d="M0 0v1434h1024v-1434h-1024zM512 809l348 522h-696zM573 717l349 -522v1044zM164 102h696l-348 523zM102 1239v-1044l349 522z" />
    <glyph glyph-name="f_i" unicode="fi" horiz-adv-x="1038" 
d="M670 936h-285v-936h-221v936h-113v209h113v61q0 336 389 336v-192q-34 -1 -60 -7t-52.5 -22t-41 -50.5t-14.5 -86.5v-39h508v-1145h-223v936zM893 1296h-223v220h223v-220z" />
    <glyph glyph-name="f_l" unicode="fl" horiz-adv-x="1038" 
d="M670 936h-285v-936h-221v936h-113v209h113v61q0 336 389 336v-192q-34 -1 -60 -7t-52.5 -22t-41 -50.5t-14.5 -86.5v-39h285v371h223v-1516h-223v936z" />
    <glyph glyph-name=".notdef" horiz-adv-x="1024" 
d="M0 0v1434h1024v-1434h-1024zM512 809l348 522h-696zM573 717l349 -522v1044zM164 102h696l-348 523zM102 1239v-1044l349 522z" />
    <glyph glyph-name=".null" horiz-adv-x="0" 
 />
    <glyph glyph-name="nonmarkingreturn" horiz-adv-x="682" 
 />
    <glyph glyph-name="space" unicode=" " horiz-adv-x="540" 
 />
    <glyph glyph-name="exclam" unicode="!" horiz-adv-x="546" 
d="M395 1516v-1115h-243v1115h243zM395 276v-276h-243v276h243z" />
    <glyph glyph-name="quotedbl" unicode="&#x22;" horiz-adv-x="634" 
d="M246 926h-207v590h207v-590zM596 926h-207v590h207v-590z" />
    <glyph glyph-name="numbersign" unicode="#" 
d="M801 459l-47 -359h-174l47 359h-215l-50 -359h-172l50 359h-201v164h223l37 264h-203v162h223l48 350h174l-47 -350h217l47 350h170l-45 -350h188v-162h-211l-37 -264h191v-164h-213zM653 623l35 264h-217l-35 -264h217z" />
    <glyph glyph-name="dollar" unicode="$" 
d="M657 1628v-151q98 -18 167.5 -75.5t103 -135t37.5 -170.5h-242q-10 78 -62.5 125t-115.5 47q-67 0 -114.5 -46.5t-47.5 -123.5q0 -28 8 -52t27 -44t36 -34t51 -30.5t55 -26t65 -27t65 -26.5q50 -21 88 -42t83 -57.5t74 -79t49 -106.5t20 -141q0 -107 -40.5 -197.5
t-121 -148.5t-185.5 -63v-173h-194v173q-162 9 -259.5 132t-97.5 294h250q4 -102 63 -160t150 -58q78 0 130.5 57.5t52.5 143.5q0 27 -5 50t-17 43t-23.5 35t-34.5 30.5t-38 25.5t-46 23.5t-47 20t-52.5 20.5t-52.5 20q-49 20 -86 39t-79.5 52.5t-69.5 72.5t-45.5 98
t-18.5 130q0 158 87.5 264t238.5 121v151h194z" />
    <glyph glyph-name="percent" unicode="%" horiz-adv-x="1736" 
d="M80 1167v2q0 171 98 271t254 100q158 0 256 -100.5t98 -272.5q0 -171 -98 -271.5t-256 -100.5q-156 0 -254 100.5t-98 271.5zM254 1167v-2q0 -93 50.5 -148.5t127.5 -55.5q78 0 129 55.5t51 150.5q0 96 -51 152.5t-129 56.5q-77 0 -127.5 -56.5t-50.5 -152.5zM948 348v2
q0 169 99.5 270t255.5 101t255 -101t99 -272q0 -172 -98.5 -272.5t-255.5 -100.5t-256 100.5t-99 272.5zM1124 348v-2q0 -95 50.5 -151t128.5 -56t128 56.5t50 152.5q0 95 -50 151t-128 56t-128.5 -56t-50.5 -151zM1366 1534l-797 -1552h-192l797 1552h192z" />
    <glyph glyph-name="ampersand" unicode="&#x26;" horiz-adv-x="1343" 
d="M1018 883h248l-242 -459l227 -281l-172 -149l-176 225q-86 -117 -179 -182.5t-210 -65.5q-132 0 -234 62t-155 162t-53 219q0 116 42.5 212t105.5 155.5t145 99.5q-140 151 -142 301q0 83 30 152.5t80 114.5t114.5 70t134.5 25q148 0 245 -105t97 -243
q0 -121 -67.5 -217.5t-162.5 -149.5l180 -225zM580 1341h-2q-59 0 -95.5 -39.5t-36.5 -97.5q0 -51 31.5 -101t89.5 -108q133 90 133 201q0 57 -34 101t-86 44zM756 399l-238 299q-93 -48 -140.5 -116t-47.5 -142q0 -94 56.5 -159.5t148.5 -65.5q122 0 221 184z" />
    <glyph glyph-name="quotesingle" unicode="'" horiz-adv-x="454" 
d="M332 926h-209v590h209v-590z" />
    <glyph glyph-name="parenleft" unicode="(" horiz-adv-x="751" 
d="M680 1526v-232q-168 -117 -265.5 -319.5t-97.5 -442.5t96.5 -440t266.5 -323v-232q-115 58 -216 154t-180 222t-125 286.5t-46 332.5q0 138 30 270t83.5 242.5t125 205t155 164t173.5 112.5z" />
    <glyph glyph-name="parenright" unicode=")" horiz-adv-x="751" 
d="M72 -463v232q167 117 264.5 319.5t97.5 441.5q0 240 -96.5 440.5t-265.5 323.5v232q91 -46 174.5 -116t155.5 -164t125 -203.5t83.5 -241.5t30.5 -271q0 -171 -46.5 -332.5t-126 -288t-181 -222.5t-215.5 -150z" />
    <glyph glyph-name="asterisk" unicode="*" horiz-adv-x="843" 
d="M512 1516l-49 -299l235 190l88 -158l-276 -102l276 -103l-92 -163l-235 194l53 -297h-182l51 301l-229 -198l-95 166l277 104l-277 98l88 158l238 -188l-53 297h182z" />
    <glyph glyph-name="plus" unicode="+" horiz-adv-x="1179" 
d="M690 1034v-416h404v-202h-404v-416h-203v416h-401v202h401v416h203z" />
    <glyph glyph-name="comma" unicode="," horiz-adv-x="552" 
d="M406 270l-175 -465h-180l144 465h211z" />
    <glyph glyph-name="hyphen" unicode="-" horiz-adv-x="626" 
d="M72 688h481v-217h-481v217z" />
    <glyph glyph-name="period" unicode="." horiz-adv-x="552" 
d="M387 270v-270h-221v270h221z" />
    <glyph glyph-name="slash" unicode="/" horiz-adv-x="569" 
d="M-92 -68l530 1602h224l-531 -1602h-223z" />
    <glyph glyph-name="zero" unicode="0" 
d="M92 483v549q0 235 128.5 371.5t334.5 136.5q207 0 336 -136.5t129 -371.5v-549q0 -235 -129 -371.5t-336 -136.5q-206 0 -334.5 136.5t-128.5 371.5zM328 1018v-520q0 -148 66 -221.5t161 -73.5q96 0 162.5 73.5t66.5 221.5v520q0 148 -66.5 221.5t-162.5 73.5
q-95 0 -161 -73.5t-66 -221.5z" />
    <glyph glyph-name="one" unicode="1" 
d="M467 0v1294h-234v222h469v-1516h-235z" />
    <glyph glyph-name="two" unicode="2" 
d="M98 0v244q149 154 408 436q131 136 179 217.5t48 175.5q0 104 -54.5 161.5t-135.5 57.5q-86 0 -143 -60t-60 -202h-250q3 255 135 387q120 123 322 123q195 0 318.5 -132t123.5 -339q0 -205 -141 -383q-104 -130 -422 -455h569v-231h-897z" />
    <glyph glyph-name="three" unicode="3" 
d="M373 1112h-254q3 206 121.5 317t314.5 111q188 0 302 -107t114 -282q0 -235 -203 -309q59 -18 104.5 -49.5t75.5 -70t49 -86.5t27 -96.5t8 -101.5q0 -202 -125 -332.5t-344 -130.5q-141 0 -248.5 56t-169.5 159q-68 115 -71 273h256q0 -122 63 -190t168 -68
q98 0 155.5 66.5t57.5 179.5q0 124 -72.5 193t-197.5 69h-84v221h69q111 0 168.5 50t57.5 142q0 82 -45 133.5t-131 51.5q-82 0 -123 -55t-43 -144z" />
    <glyph glyph-name="four" unicode="4" 
d="M633 0v301h-559v221l551 994h243v-994h142v-221h-142v-301h-235zM295 522h338v639z" />
    <glyph glyph-name="five" unicode="5" 
d="M197 1516h755v-209h-532l-33 -359q76 109 238 109q178 0 290.5 -139t112.5 -377q0 -266 -122 -416t-353 -150q-207 0 -322.5 122t-130.5 349h250q5 -101 61.5 -171t143.5 -70q217 0 217 317q0 148 -56.5 226.5t-150.5 78.5q-58 0 -106 -36t-78 -107l-240 4z" />
    <glyph glyph-name="six" unicode="6" 
d="M623 1516h272l-326 -469q-8 -12 -35.5 -49.5t-37.5 -55.5q51 35 116 35q177 0 297.5 -136.5t120.5 -346.5q0 -144 -56 -261.5t-164.5 -187.5t-252.5 -70q-205 0 -328 123q-149 142 -149 406q0 130 43.5 237.5t132.5 239.5zM342 467v-2q0 -126 60 -201.5t155 -75.5
q98 0 154.5 78t56.5 211q0 132 -56 209.5t-155 77.5q-98 0 -156.5 -79.5t-58.5 -217.5z" />
    <glyph glyph-name="seven" unicode="7" 
d="M121 1516h870v-205l-481 -1311h-264l481 1294h-606v222z" />
    <glyph glyph-name="eight" unicode="8" 
d="M129 1137v2q0 174 120 287.5t306 113.5t307 -113t121 -290q0 -95 -47 -174.5t-125 -124.5q105 -39 167 -145t62 -238q-1 -222 -137 -351t-348 -129q-138 0 -246.5 56t-173 166t-65.5 258q1 141 65 239t164 148q-82 40 -126 120t-44 175zM383 1104v-2q0 -82 50 -136.5
t124 -54.5q71 0 121.5 55.5t50.5 137.5q0 89 -51 148t-125 59q-71 0 -120.5 -59.5t-49.5 -147.5zM330 455v-2q0 -104 64.5 -176t160.5 -72t160.5 72.5t64.5 177.5q0 95 -65 165t-160 70t-160 -70t-65 -165z" />
    <glyph glyph-name="nine" unicode="9" 
d="M487 0h-272l328 469q11 17 36.5 52t36.5 52q-52 -34 -118 -34q-176 0 -297 137t-121 346q0 144 56 261t165 187t254 70q209 0 326 -123q149 -142 149 -405q0 -131 -43.5 -239.5t-132.5 -237.5zM766 1049v2q0 125 -60.5 200.5t-154.5 75.5q-98 0 -154.5 -78t-56.5 -211
q0 -132 56 -209t155 -77q98 0 156.5 79.5t58.5 217.5z" />
    <glyph glyph-name="colon" unicode=":" horiz-adv-x="552" 
d="M387 1024v-270h-221v270h221zM387 270v-270h-221v270h221z" />
    <glyph glyph-name="semicolon" unicode=";" horiz-adv-x="552" 
d="M395 1024v-270h-223v270h223zM406 270l-175 -465h-180l144 465h211z" />
    <glyph glyph-name="less" unicode="&#x3c;" horiz-adv-x="1179" 
d="M86 618l1008 431v-224l-742 -309l742 -307v-223l-1008 430v202z" />
    <glyph glyph-name="equal" unicode="=" horiz-adv-x="1179" 
d="M86 838h1008v-203h-1008v203zM86 399h1008v-202h-1008v202z" />
    <glyph glyph-name="greater" unicode="&#x3e;" horiz-adv-x="1179" 
d="M86 209l739 307l-739 309v224l1008 -431v-202l-1008 -430v223z" />
    <glyph glyph-name="question" unicode="?" horiz-adv-x="1005" 
d="M594 393h-244q0 23 -1 75t-1 76t4.5 68t13.5 72.5t27 64.5t45 68q28 35 74 79.5t77.5 74t56 71t24.5 84.5q0 83 -49 133t-132 50q-71 0 -120.5 -46.5t-53.5 -138.5q-2 -18 -2 -53h-250v68q7 197 127.5 299t309.5 102q116 0 213.5 -52.5t156 -150t58.5 -221.5
q0 -61 -15 -113t-46.5 -97.5t-57 -74t-68.5 -69.5q-29 -26 -49 -46.5t-36.5 -40t-26 -35t-17.5 -34t-10.5 -35.5t-5.5 -39.5t-2 -46.5t0 -56v-36zM594 276v-276h-244v276h244z" />
    <glyph glyph-name="at" unicode="@" horiz-adv-x="1603" 
d="M1264 315h172q-99 -165 -255 -252.5t-337 -87.5q-163 0 -304 58.5t-240 161t-155.5 247t-56.5 312.5q0 171 56.5 317.5t156 249.5t238.5 161t299 58q128 0 249 -44.5t216.5 -124t154 -201.5t58.5 -265q0 -95 -21 -178.5t-55 -143t-78.5 -108t-91 -79t-93 -51.5
t-83.5 -29.5t-64 -8.5q-47 0 -82 28t-43 89q-41 -53 -90.5 -84t-128.5 -31q-49 0 -97 22.5t-88.5 64.5t-65.5 110t-25 151q0 129 49.5 244t141 187.5t204.5 72.5q154 0 233 -131l23 107h156l-111 -512q-12 -72 -12 -82q-1 -29 12.5 -41.5t30.5 -12.5q38 0 77 22t74 64
t57.5 115t22.5 164q0 128 -41.5 229.5t-115 166t-169.5 98.5t-208 34q-161 0 -290.5 -79.5t-203.5 -223.5t-74 -325q0 -285 159.5 -453t428.5 -168q131 0 238.5 45.5t171.5 136.5zM600 684v-2q0 -85 39.5 -131.5t105.5 -46.5q81 0 135.5 51.5t77.5 124.5q1 2 10 33.5t13 52
t4 37.5q0 85 -47.5 131.5t-110.5 46.5q-90 0 -158.5 -90.5t-68.5 -206.5z" />
    <glyph glyph-name="A" unicode="A" horiz-adv-x="1091" 
d="M350 350l-94 -350h-254l420 1516h235l433 -1516h-254l-97 350h-389zM674 580l-131 585l-131 -585h262z" />
    <glyph glyph-name="B" unicode="B" horiz-adv-x="1093" 
d="M133 0v1516h402q200 0 305 -97q112 -95 112 -284q0 -136 -63.5 -214t-171.5 -100q299 -73 299 -387q0 -207 -133 -325q-112 -109 -299 -109h-451zM383 1294v-393h109q93 0 141 39q61 53 61 162q0 105 -61 153q-48 39 -154 39h-96zM383 680v-459h143q107 0 160 47
q74 53 74 176q3 124 -74 185q-54 51 -166 51h-137z" />
    <glyph glyph-name="C" unicode="C" horiz-adv-x="1206" 
d="M877 551h253q-1 -119 -34.5 -223t-97 -184t-163.5 -126.5t-225 -46.5q-252 0 -395 201t-143 586q0 381 141 583.5t397 202.5q127 0 228 -47.5t164.5 -130.5t96.5 -190.5t31 -231.5h-253q-5 183 -65.5 273t-182.5 90q-145 0 -223 -138.5t-78 -416.5q0 -277 82 -410
t219 -133q232 0 248 342z" />
    <glyph glyph-name="D" unicode="D" horiz-adv-x="1228" 
d="M131 0v1516h401q325 0 482 -222q141 -201 141 -536q0 -357 -163.5 -557.5t-450.5 -200.5h-410zM381 1284v-1053h156q85 0 150 31.5t104.5 82t64.5 121.5t34 141.5t9 150.5q0 259 -84 389q-87 137 -287 137h-147z" />
    <glyph glyph-name="E" unicode="E" horiz-adv-x="1003" 
d="M143 0v1516h727v-232h-477v-383h477v-229h-477v-441h477v-231h-727z" />
    <glyph glyph-name="F" unicode="F" horiz-adv-x="892" 
d="M125 0v1516h682v-232h-432v-379h432v-231h-432v-674h-250z" />
    <glyph glyph-name="G" unicode="G" horiz-adv-x="1251" 
d="M1157 993h-256q0 108 -45 187q-73 133 -217 133q-150 0 -230.5 -137t-80.5 -418q0 -289 79.5 -422t231.5 -133q149 0 217 121q56 99 53 251h-323v232h579v-268q-2 -112 -36 -212.5t-98 -181t-165.5 -127.5t-226.5 -47q-143 0 -252 55.5t-177.5 159.5t-103 247.5
t-34.5 324.5q0 237 64 412.5t193 274.5t310 99q233 0 369.5 -150.5t148.5 -400.5z" />
    <glyph glyph-name="H" unicode="H" horiz-adv-x="1202" 
d="M383 0h-250v1516h250v-615h436v615h250v-1516h-250v672h-436v-672z" />
    <glyph glyph-name="I" unicode="I" horiz-adv-x="516" 
d="M133 0v1516h250v-1516h-250z" />
    <glyph glyph-name="J" unicode="J" horiz-adv-x="966" 
d="M825 1516v-1117q0 -123 -34 -206q-51 -112 -154 -166q-95 -56 -219 -56q-177 0 -289 99.5t-119 283.5q0 12 -1 38t-1 38h250q0 -4 1 -14t1 -15q8 -115 48.5 -156.5t111.5 -41.5q87 0 127 71q28 52 28 170v1072h250z" />
    <glyph glyph-name="K" unicode="K" horiz-adv-x="1064" 
d="M133 0v1516h250v-705l391 705h275l-435 -742l467 -774h-288l-410 711v-711h-250z" />
    <glyph glyph-name="L" unicode="L" horiz-adv-x="872" 
d="M143 0v1516h250v-1285h432v-231h-682z" />
    <glyph glyph-name="M" unicode="M" horiz-adv-x="1538" 
d="M360 0h-223v1516h371l266 -1098l256 1098h371v-1516h-223v1251l-308 -1251h-194l-316 1251v-1251z" />
    <glyph glyph-name="N" unicode="N" horiz-adv-x="1239" 
d="M403 1516l476 -1035v1035h221v-1516h-236l-504 1096v-1096h-223v1516h266z" />
    <glyph glyph-name="O" unicode="O" horiz-adv-x="1253" 
d="M72 758v2q0 140 22 259.5t66.5 216.5t110 165.5t155.5 105.5t199 37q181 0 307.5 -100.5t187 -275t60.5 -410.5q0 -169 -33.5 -310t-100 -248.5t-174 -168t-247.5 -60.5q-180 0 -306 100.5t-186.5 275.5t-60.5 411zM328 758v-2q0 -553 297 -553q299 0 299 555t-299 555
q-297 0 -297 -555z" />
    <glyph glyph-name="P" unicode="P" horiz-adv-x="1085" 
d="M143 1516h375q234 0 365 -119q67 -59 105 -153t38 -206q0 -230 -143 -360q-131 -119 -365 -119h-125v-559h-250v1516zM393 1284v-493h123q71 0 115 12.5t76 44.5q61 58 61 188q0 136 -63 193q-58 55 -189 55h-123z" />
    <glyph glyph-name="Q" unicode="Q" horiz-adv-x="1255" 
d="M1186 209v-232q-60 -6 -64 -6q-132 0 -215 86q-121 -86 -282 -86q-180 0 -306 100.5t-186.5 275.5t-60.5 411t60.5 410.5t186.5 275t306 100.5q181 0 307.5 -100.5t187 -275t60.5 -410.5q0 -319 -115 -522q41 -41 121 -27zM625 1313h-2q-144 0 -219.5 -137.5
t-75.5 -417.5q0 -81 16 -180q96 49 193 49q86 0 170 -47q95 -59 167 -154q50 128 50 332q0 555 -299 555zM625 203h2q86 0 141 47q-54 72 -109 112q-75 52 -170 52q-61 0 -108 -35q35 -82 96.5 -129t147.5 -47z" />
    <glyph glyph-name="R" unicode="R" horiz-adv-x="1095" 
d="M133 0v1516h352q294 0 402 -117q135 -138 135 -357q0 -147 -53 -245q-74 -143 -211 -191l293 -606h-281l-334 745q33 0 68 3q122 3 186 65q76 76 76 207q0 150 -88 219q-57 45 -201 45h-94v-1284h-250z" />
    <glyph glyph-name="S" unicode="S" horiz-adv-x="1089" 
d="M72 455h247q14 -262 224 -262q100 0 159.5 60.5t59.5 164.5q0 31 -8.5 58t-20 47t-36 39.5t-41.5 31t-52.5 26.5t-54 22t-60.5 21.5t-59 20.5q-38 15 -66 27.5t-65.5 33.5t-63.5 42t-54 53t-45.5 67t-28.5 82.5t-11 102.5q-1 209 118 331.5t321 122.5q197 0 309.5 -101.5
t142.5 -314.5h-242q-7 91 -56.5 149t-143.5 58q-88 0 -140.5 -58t-52.5 -149q0 -24 5 -45.5t12.5 -38.5t22 -33t27.5 -27.5t35 -24.5t38.5 -21t45 -19t47 -17.5t50.5 -17.5t51 -18q53 -21 91.5 -40t87 -56.5t79.5 -81.5t52.5 -113t21.5 -153q0 -206 -134.5 -329.5
t-342.5 -123.5q-227 0 -347 124.5t-122 359.5z" />
    <glyph glyph-name="T" unicode="T" horiz-adv-x="884" 
d="M317 0v1284h-274v232h799v-232h-275v-1284h-250z" />
    <glyph glyph-name="U" unicode="U" horiz-adv-x="1206" 
d="M127 1516h250v-1061q0 -132 57 -189q51 -59 168 -59q116 0 170 59q55 58 55 189v1061h250v-1096q0 -214 -110 -324q-122 -125 -365 -125q-242 0 -364 125q-111 114 -111 324v1096z" />
    <glyph glyph-name="V" unicode="V" horiz-adv-x="1097" 
d="M436 0l-424 1516h246l295 -1143l295 1143h237l-423 -1516h-226z" />
    <glyph glyph-name="W" unicode="W" horiz-adv-x="1667" 
d="M373 0l-365 1516h252l236 -1092l227 1092h229l228 -1092l229 1092h250l-359 -1516h-231l-235 1133l-232 -1133h-229z" />
    <glyph glyph-name="X" unicode="X" horiz-adv-x="1064" 
d="M4 0l393 815l-336 701h256l218 -486l215 486h260l-340 -701l389 -815h-264l-260 588l-267 -588h-264z" />
    <glyph glyph-name="Y" unicode="Y" horiz-adv-x="983" 
d="M367 0v586l-375 930h258l244 -695l239 695h258l-375 -930v-586h-249z" />
    <glyph glyph-name="Z" unicode="Z" horiz-adv-x="1013" 
d="M926 1290l-564 -1059h572v-231h-862v217l561 1067h-533v232h826v-226z" />
    <glyph glyph-name="bracketleft" unicode="[" horiz-adv-x="751" 
d="M639 -242v-176h-494v1934h494v-177h-293v-1581h293z" />
    <glyph glyph-name="backslash" unicode="\" horiz-adv-x="569" 
d="M449 -68l-533 1602h207l532 -1602h-206z" />
    <glyph glyph-name="bracketright" unicode="]" horiz-adv-x="751" 
d="M113 -418v176h293v1581h-293v177h495v-1934h-495z" />
    <glyph glyph-name="asciicircum" unicode="^" horiz-adv-x="1179" 
d="M143 791l340 725h209l342 -725h-211l-235 522l-234 -522h-211z" />
    <glyph glyph-name="underscore" unicode="_" horiz-adv-x="1024" 
d="M1024 -256h-1024v102h1024v-102z" />
    <glyph glyph-name="grave" unicode="`" horiz-adv-x="679" 
d="M86 1626l461 -256l-78 -145l-469 223z" />
    <glyph glyph-name="a" unicode="a" horiz-adv-x="1015" 
d="M891 1145v-1145h-203q0 107 2 150q-78 -175 -252 -175q-166 0 -268 155.5t-102 440.5q0 283 96.5 440.5t273.5 157.5q84 0 151.5 -42.5t100.5 -137.5q-2 51 -2 156h203zM289 571v-2q0 -374 192 -374q50 0 82 19t60 60q29 39 38 101t9 196q0 135 -9 197.5t-38 101.5
q-28 40 -60 59t-82 19q-192 0 -192 -377z" />
    <glyph glyph-name="b" unicode="b" horiz-adv-x="1015" 
d="M125 0v1516h221v-371v-150q25 79 83.5 126.5t148.5 47.5q177 0 273.5 -157t96.5 -439q0 -287 -102 -442.5t-268 -155.5q-180 0 -250 179v-154h-203zM727 571v2q0 375 -190 375q-59 0 -98.5 -30t-59 -87t-26.5 -117.5t-7 -142.5q0 -64 4 -114t16 -101t32.5 -85t55.5 -55
t83 -21q190 0 190 376z" />
    <glyph glyph-name="c" unicode="c" horiz-adv-x="909" 
d="M643 418h229q-3 -89 -27.5 -167.5t-69 -141t-115 -98.5t-158.5 -36q-210 0 -326.5 162t-116.5 434q0 281 119 439.5t322 158.5q118 0 202.5 -62.5t125 -161t42.5 -222.5h-229q-6 123 -48 180.5t-110 57.5q-95 0 -139 -91q-51 -99 -51 -299q0 -389 192 -389
q73 0 112.5 64.5t45.5 171.5z" />
    <glyph glyph-name="d" unicode="d" horiz-adv-x="1015" 
d="M891 1516v-1516h-203q0 117 2 166q-23 -88 -91.5 -139.5t-160.5 -51.5q-166 0 -268 155.5t-102 440.5q0 283 96.5 440.5t273.5 157.5q167 0 234 -165q-2 45 -2 141v371h221zM289 573v-2q0 -374 192 -374q50 0 82 19t60 58q29 41 38 102.5t9 196.5q0 134 -9 196t-38 101
q-28 41 -60 60.5t-82 19.5q-192 0 -192 -377z" />
    <glyph glyph-name="e" unicode="e" horiz-adv-x="1005" 
d="M930 496h-617q0 -85 19 -153t66.5 -114.5t117.5 -46.5q72 0 119.5 45t64.5 129h220q-33 -203 -156 -301q-107 -80 -248 -80q-89 0 -162.5 31.5t-124.5 87t-86 131t-51 162.5t-16 184q0 173 48.5 306t148.5 212.5t241 79.5q214 0 324 -174q60 -97 78 -219.5t14 -279.5z
M313 686h396q-1 53 -11 102.5t-31.5 95.5t-61 73.5t-91.5 27.5q-91 0 -146 -80.5t-55 -218.5z" />
    <glyph glyph-name="f" unicode="f" horiz-adv-x="546" 
d="M150 0v936h-115v209h115v61q0 336 389 336v-192q-34 -1 -60 -7t-52.5 -22t-41 -50.5t-14.5 -86.5v-39h168v-209h-168v-936h-221z" />
    <glyph glyph-name="g" unicode="g" horiz-adv-x="1015" 
d="M891 1145v-1129q0 -202 -103 -311q-106 -115 -307 -115q-67 0 -131 20.5t-120 59.5t-94.5 105t-47.5 149h231q12 -61 48 -90q42 -37 116 -37q93 0 141.5 56t49.5 176v114q-51 -168 -236 -168t-277.5 155t-92.5 441q0 287 92.5 442.5t277.5 155.5q92 0 155 -40t109 -138
q-2 49 -2 154h191zM289 571v-2q0 -374 192 -374q50 0 82 19t60 60q29 39 38 101t9 196q0 135 -9 197.5t-38 101.5q-28 40 -60 59t-82 19q-192 0 -192 -377z" />
    <glyph glyph-name="h" unicode="h" horiz-adv-x="1021" 
d="M125 0v1516h221v-353q0 -86 -2 -133q55 139 244 139q153 0 233 -96q78 -89 78 -270v-803h-221v737q0 105 -35 156q-34 55 -117 55q-87 0 -131 -53q-49 -52 -49 -168v-727h-221z" />
    <glyph glyph-name="i" unicode="i" horiz-adv-x="520" 
d="M150 1296v220h221v-220h-221zM150 0v1145h221v-1145h-221z" />
    <glyph glyph-name="j" unicode="j" horiz-adv-x="516" 
d="M147 1296v220h222v-220h-222zM369 1145v-1188q0 -160 -69 -254.5t-212 -103.5q-23 -2 -70 -2v210h17q62 7 87 51.5t25 131.5v1155h222z" />
    <glyph glyph-name="k" unicode="k" horiz-adv-x="870" 
d="M113 0v1516h221v-850l278 479h250l-332 -514l347 -631h-240l-303 545v-545h-221z" />
    <glyph glyph-name="l" unicode="l" horiz-adv-x="520" 
d="M150 0v1516h221v-1516h-221z" />
    <glyph glyph-name="m" unicode="m" horiz-adv-x="1574" 
d="M133 0v1145h211q0 -101 -2 -154q58 178 254 178q111 0 178 -61q38 -35 57 -96q24 57 82 102q83 55 197 55q173 0 262 -125q72 -96 72 -270v-774h-221v741q0 99 -27 144q-34 63 -123 63q-87 0 -129 -49q-45 -50 -45 -151v-748h-221v739q0 96 -27 146q-29 63 -121 63
q-87 0 -129 -47q-45 -53 -45 -156v-745h-223z" />
    <glyph glyph-name="n" unicode="n" horiz-adv-x="1021" 
d="M125 0v1145h194q0 -92 -2 -141q73 165 273 165q147 0 228 -86.5t81 -267.5v-815h-221v743q0 205 -154 205q-83 0 -130.5 -53t-47.5 -162v-733h-221z" />
    <glyph glyph-name="o" unicode="o" horiz-adv-x="1017" 
d="M68 571v2q0 125 27 231.5t80 189t139 129t196 46.5q88 0 161 -30.5t124 -85t86.5 -129.5t52 -164t16.5 -189q0 -125 -27 -231.5t-79.5 -189t-138 -129t-195.5 -46.5t-196 46.5t-139 129t-80 189t-27 231.5zM301 571v-2q0 -205 53 -296t158 -91q101 0 153 92t52 297
q0 207 -53 298.5t-158 91.5q-101 0 -153 -91.5t-52 -298.5z" />
    <glyph glyph-name="p" unicode="p" horiz-adv-x="1015" 
d="M125 -385v1530h203v-150q69 174 250 174q166 0 268 -155.5t102 -442.5q0 -282 -96.5 -439t-273.5 -157q-80 0 -141 42t-91 114v-131v-385h-221zM727 571v2q0 375 -192 375q-45 0 -76.5 -19.5t-59.5 -58.5q-30 -41 -41.5 -105.5t-11.5 -193.5q0 -127 11.5 -191.5
t41.5 -105.5q54 -79 136 -79q192 0 192 376z" />
    <glyph glyph-name="q" unicode="q" horiz-adv-x="1015" 
d="M891 1145v-1530h-221v385q0 100 2 141q-66 -166 -234 -166q-177 0 -273.5 157t-96.5 439q0 287 102 442.5t268 155.5q90 0 157.5 -46t88.5 -128q-2 47 -2 150h209zM289 571v-2q0 -374 192 -374q50 0 82 19t60 60q29 39 38 101t9 196q0 135 -9 197.5t-38 101.5
q-28 40 -60 59t-82 19q-192 0 -192 -377z" />
    <glyph glyph-name="r" unicode="r" horiz-adv-x="638" 
d="M125 0v1145h203q0 -127 -2 -184q17 63 47 105.5t71 64t83 30t96 8.5v-268q-42 27 -95 27q-78 0 -130 -74.5t-52 -206.5v-647h-221z" />
    <glyph glyph-name="s" unicode="s" horiz-adv-x="876" 
d="M788 821h-221q-3 156 -145 156q-56 0 -89.5 -33t-33.5 -86q0 -20 6 -37.5t14.5 -30t25.5 -25t30.5 -20t39.5 -16.5t41.5 -14t48 -14.5t48.5 -14.5q43 -14 77 -30t70.5 -44t60.5 -63.5t40 -89.5t16 -121q0 -158 -108 -260.5t-273 -102.5q-168 0 -275 96t-120 283h221
q3 -82 52 -130t126 -48q72 0 108 42t36 106q0 19 -3.5 35t-13.5 30t-18 24t-27 21t-30 17.5t-37.5 16t-38.5 14t-44 14.5t-44 14q-57 19 -99 42t-81.5 61.5t-60.5 98t-21 138.5q0 143 97 231t267 88t259.5 -90t98.5 -258z" />
    <glyph glyph-name="t" unicode="t" horiz-adv-x="546" 
d="M164 0v936h-137v209h137v272h221v-272h135v-209h-135v-936h-221z" />
    <glyph glyph-name="u" unicode="u" horiz-adv-x="1021" 
d="M897 1145v-1145h-203q0 99 2 152q-60 -177 -266 -177q-145 0 -226 87t-81 268v815h221v-744q0 -206 154 -206q82 0 130 54.5t48 162.5v733h221z" />
    <glyph glyph-name="v" unicode="v" horiz-adv-x="868" 
d="M860 1145l-311 -1145h-205l-338 1145h225l211 -817l195 817h223z" />
    <glyph glyph-name="w" unicode="w" horiz-adv-x="1329" 
d="M287 0l-283 1145h227l166 -809l176 770h187l182 -770l156 809h227l-281 -1145h-208l-168 772l-166 -772h-215z" />
    <glyph glyph-name="x" unicode="x" horiz-adv-x="931" 
d="M8 0l320 592l-295 553h260l170 -389l176 389h252l-293 -553l326 -592h-262l-199 426l-193 -426h-262z" />
    <glyph glyph-name="y" unicode="y" horiz-adv-x="872" 
d="M184 -385l142 438l-318 1092h232l198 -756l197 756h231l-456 -1530h-226z" />
    <glyph glyph-name="z" unicode="z" horiz-adv-x="872" 
d="M51 0v207l469 729h-430v209h692v-209l-460 -727h469v-209h-740z" />
    <glyph glyph-name="braceleft" unicode="{" horiz-adv-x="751" 
d="M612 1516v-175h-106q-67 0 -94 -34.5t-27 -122.5v-402q-2 -169 -164 -255l-6 -3q168 -34 170 -254v-399q0 -91 27 -124.5t94 -33.5h106v-174h-182q-126 0 -186 72.5t-60 202.5v428q0 84 -32.5 135t-94.5 63v170q57 3 92 59t35 142v430q0 130 60 202.5t186 72.5h182z" />
    <glyph glyph-name="bar" unicode="|" horiz-adv-x="593" 
d="M195 1536h204v-2048h-204v2048z" />
    <glyph glyph-name="braceright" unicode="}" horiz-adv-x="751" 
d="M139 1341v175h183q245 0 245 -277v-426q0 -85 32.5 -137t96.5 -64v-168q-59 -5 -94 -59.5t-35 -142.5v-430q0 -273 -245 -273h-183v174h107q68 0 94.5 33.5t26.5 122.5v401q1 51 17 95t34 69t49 49.5t41 30t31 16.5q-34 7 -61 20.5t-53.5 40.5t-41.5 75.5t-16 115.5v402
q0 91 -27 124t-94 33h-107z" />
    <glyph glyph-name="asciitilde" unicode="~" horiz-adv-x="1179" 
d="M961 682l65 -170q-96 -160 -231 -160q-71 0 -215 62q-7 3 -26.5 11t-27 11t-24.5 9.5t-25.5 9t-22.5 7t-23.5 6.5t-20 3.5t-19.5 1.5q-98 3 -172 -121l-67 170q101 162 241 160q33 0 75.5 -10.5t67 -20t74.5 -30.5q7 -3 23.5 -10t23.5 -10t22 -9.5t23 -9.5t20.5 -7.5
t21 -6.5t19 -4.5t19.5 -3.5t17 -1q51 0 88.5 32.5t73.5 90.5z" />
    <glyph glyph-name="uni00A0" unicode="&#xa0;" horiz-adv-x="540" 
 />
    <glyph glyph-name="exclamdown" unicode="&#xa1;" horiz-adv-x="546" 
d="M152 868v277h243v-277h-243zM152 -383v1126h243v-1126h-243z" />
    <glyph glyph-name="cent" unicode="&#xa2;" 
d="M662 -25h-195v203q-80 3 -143.5 44.5t-101 101.5t-61.5 137.5t-33 146t-9 135.5q0 277 86 421t262 169v201h195v-201q83 -7 144 -46t95.5 -101.5t52 -132.5t21.5 -154h-236q-12 106 -51 165.5t-121 59.5q-101 0 -149.5 -86t-48.5 -282q0 -194 51 -281.5t153 -87.5
q76 0 120 63.5t50 159.5h234q-2 -88 -21.5 -161.5t-56.5 -133t-97.5 -95.5t-139.5 -42v-203z" />
    <glyph glyph-name="sterling" unicode="&#xa3;" 
d="M743 893v-221h-260q92 -111 92 -223q0 -107 -55 -205h66q115 0 172 51q53 50 53 151q0 34 -4 84h246q8 -74 8 -124q0 -188 -117 -302q-116 -104 -293 -104h-577v244h198q52 77 52 202q0 40 -14.5 82.5t-31 71t-45.5 72.5h-204v221h106q-45 88 -45 213q0 194 124 314
t331 120q193 0 315.5 -120t132.5 -320h-252q-12 85 -73.5 138.5t-137.5 53.5q-87 -1 -140.5 -59.5t-55.5 -149.5q0 -102 57 -190h352z" />
    <glyph glyph-name="currency" unicode="&#xa4;" 
d="M971 184l-176 176q-36 -30 -100.5 -48.5t-139.5 -18.5q-74 0 -139.5 19t-100.5 48l-176 -176l-141 142l176 176q-31 35 -51.5 101t-20.5 140q0 73 20.5 139.5t49.5 102.5l-176 178l143 140l176 -177q34 31 100 50.5t140 19.5q76 0 141.5 -19t98.5 -49l176 175l145 -140
l-178 -178q31 -34 50.5 -99.5t19.5 -142.5q0 -76 -20 -141.5t-52 -99.5l178 -176zM313 743v-2q0 -98 72 -169.5t170 -71.5q99 0 171.5 71.5t72.5 171.5q0 101 -71.5 173.5t-172.5 72.5q-100 0 -171 -72.5t-71 -173.5z" />
    <glyph glyph-name="yen" unicode="&#xa5;" 
d="M1042 985v-221h-337l-31 -66v-65h368v-221h-368v-412h-236v412h-368v221h368v65l-30 66h-338v221h235l-254 531h262l244 -609l240 609h262l-252 -531h235z" />
    <glyph glyph-name="brokenbar" unicode="&#xa6;" horiz-adv-x="593" 
d="M195 1382h204v-716h-204v716zM195 358h204v-716h-204v716z" />
    <glyph glyph-name="section" unicode="&#xa7;" horiz-adv-x="1024" 
d="M819 1247h-160q-17 142 -129 142q-60 0 -90 -29.5t-30 -83.5q0 -85 108 -174l252 -230q145 -134 145 -262q0 -85 -53.5 -160t-138.5 -102q96 -106 96 -242q0 -119 -83.5 -199.5t-221.5 -80.5q-129 0 -215.5 78t-99.5 241h157q5 -75 44.5 -120t105.5 -45q56 0 88.5 35.5
t32.5 93.5q3 89 -164 239l-230 217q-124 107 -124 250q0 95 56 160.5t150 87.5q-96 106 -96 207q0 123 80 198.5t236 75.5q265 0 284 -297zM725 586v2q0 69 -129 184l-209 193q-41 -19 -66.5 -54t-25.5 -77q0 -80 100 -160l242 -221q88 47 88 133z" />
    <glyph glyph-name="dieresis" unicode="&#xa8;" horiz-adv-x="555" 
d="M201 1524v-232h-209v232h209zM565 1524v-232h-211v232h211z" />
    <glyph glyph-name="copyright" unicode="&#xa9;" horiz-adv-x="1638" 
d="M823 1542h2q160 0 305 -63t248.5 -169t164.5 -250.5t61 -301.5q0 -160 -62.5 -306t-167.5 -250.5t-249.5 -166.5t-303.5 -62q-160 0 -305 62t-250 166.5t-167 250t-62 306.5q0 157 60.5 301t163.5 250.5t250 169.5t312 63zM823 1411h-2q-134 0 -253.5 -52.5t-204 -140.5
t-134 -208t-49.5 -252q0 -178 86 -328.5t233.5 -238t321.5 -87.5q130 0 248 51t204 138t136.5 208.5t50.5 256.5q0 174 -83 324t-230 239.5t-324 89.5zM1210 885h-153q-14 83 -73.5 120t-139.5 37q-108 0 -174 -75t-66 -215q0 -144 68 -217.5t172 -73.5q36 0 69 8t66.5 26.5
t55.5 56t26 89.5h160q-18 -160 -124.5 -249t-252.5 -89q-185 0 -305.5 125t-120.5 324q0 195 118 322.5t308 127.5q145 0 245.5 -84t120.5 -233z" />
    <glyph glyph-name="ordfeminine" unicode="&#xaa;" horiz-adv-x="614" 
d="M565 1530v-688h-149q0 65 2 92q-49 -107 -164 -107q-108 0 -175 93.5t-67 263.5q0 171 63.5 265.5t178.5 94.5q124 0 164 -112q-2 35 -2 98h149zM174 1184v-2q0 -97 29.5 -152t83.5 -55q50 0 77.5 35t30.5 96q4 54 4 82q0 26 -4 80q-5 60 -32.5 93.5t-77.5 33.5
q-52 0 -81.5 -55t-29.5 -156z" />
    <glyph glyph-name="guillemotleft" unicode="&#xab;" horiz-adv-x="862" 
d="M59 578l209 378h199l-209 -378l209 -377h-199zM397 578l209 378h197l-209 -378l209 -377h-197z" />
    <glyph glyph-name="logicalnot" unicode="&#xac;" horiz-adv-x="1179" 
d="M86 838h1008v-641h-203v438h-805v203z" />
    <glyph glyph-name="uni00AD" unicode="&#xad;" horiz-adv-x="626" 
d="M72 688h481v-217h-481v217z" />
    <glyph glyph-name="registered" unicode="&#xae;" horiz-adv-x="1638" 
d="M823 1542h2q160 0 305 -63t248.5 -169t164.5 -250.5t61 -301.5q0 -160 -62.5 -306t-167.5 -250.5t-249.5 -166.5t-303.5 -62q-160 0 -305 62t-250 166.5t-167 250t-62 306.5q0 157 60.5 301t163.5 250.5t250 169.5t312 63zM823 1411h-2q-134 0 -253.5 -52.5t-204 -140.5
t-134 -208t-49.5 -252q0 -178 86 -328.5t233.5 -238t321.5 -87.5q130 0 248 51t204 138t136.5 208.5t50.5 256.5q0 174 -83 324t-230 239.5t-324 89.5zM485 1202h371q57 0 109 -11.5t101 -37.5t78.5 -76t29.5 -119q0 -148 -150 -215q62 -21 94.5 -67.5t38.5 -134.5
q8 -124 11.5 -156t15.5 -63h-174q-16 28 -27 208q-3 27 -6.5 42t-15 38t-29.5 35t-52 21.5t-81 9.5h-135v-354h-179v880zM827 1077h-163v-280h147q79 3 115 21q68 36 69 128q0 131 -168 131z" />
    <glyph glyph-name="macron" unicode="&#xaf;" horiz-adv-x="679" 
d="M688 1477v-148h-696v148h696z" />
    <glyph glyph-name="degree" unicode="&#xb0;" horiz-adv-x="819" 
d="M711 1219v-2q0 -126 -87.5 -212.5t-213.5 -86.5t-213.5 87t-87.5 214q0 126 87.5 213.5t213.5 87.5t213.5 -87.5t87.5 -213.5zM219 1219v-2q0 -83 54 -139t137 -56t136.5 56.5t53.5 140.5q0 83 -54 139.5t-136 56.5t-136.5 -56.5t-54.5 -139.5z" />
    <glyph glyph-name="plusminus" unicode="&#xb1;" horiz-adv-x="1179" 
d="M487 758v278h203v-278h404v-203h-404v-279h-203v279h-401v203h401zM86 0v203h1008v-203h-1008z" />
    <glyph glyph-name="twosuperior" unicode="&#xb2;" horiz-adv-x="690" 
d="M637 788v-165h-594v155q235 219 315 301q56 56 73.5 89.5t17.5 78.5q0 55 -28 89t-81 34q-50 0 -83.5 -37t-33.5 -110h-178q0 109 41 180q78 129 258 129q134 0 214.5 -79.5t80.5 -209.5q0 -71 -25.5 -124t-81.5 -111q-36 -37 -123.5 -115.5t-115.5 -104.5h344z" />
    <glyph glyph-name="threesuperior" unicode="&#xb3;" horiz-adv-x="690" 
d="M37 901h174q1 -70 38.5 -106.5t96.5 -36.5q62 0 94.5 36t32.5 95q0 68 -39.5 108.5t-114.5 40.5h-69v138h61q64 0 91.5 29.5t27.5 74.5q0 43 -23.5 71.5t-70.5 28.5q-49 0 -74.5 -29t-25.5 -79h-177q1 125 80 192.5t205 67.5q120 0 195 -64t75 -168q0 -71 -30.5 -113
t-89.5 -69q74 -12 118.5 -74.5t44.5 -158.5q0 -119 -84.5 -199t-218.5 -80q-189 0 -268 121q-49 70 -49 174z" />
    <glyph glyph-name="acute" unicode="&#xb4;" horiz-adv-x="679" 
d="M133 1370l461 256l86 -178l-469 -223z" />
    <glyph glyph-name="mu" unicode="&#xb5;" horiz-adv-x="1024" 
d="M125 -369v1514h221v-737q0 -109 35 -164q36 -49 108 -49q90 0 138 55q51 60 51 184v711h221v-1145h-203q0 109 2 164q-20 -79 -88 -134t-168 -55q-74 0 -96 45v-120v-269h-221z" />
    <glyph glyph-name="paragraph" unicode="&#xb6;" horiz-adv-x="1210" 
d="M506 -162v922q-215 0 -334 94t-119 283t120.5 284t336.5 95h649v-154h-94v-1524h-207v1524h-145v-1524h-207z" />
    <glyph glyph-name="periodcentered" unicode="&#xb7;" horiz-adv-x="552" 
d="M406 664v-289h-259v289h259z" />
    <glyph glyph-name="cedilla" unicode="&#xb8;" horiz-adv-x="520" 
d="M317 0l-79 -131q45 10 59 10q74 0 124 -41t50 -110q0 -85 -67 -138t-154 -53q-137 0 -217 72l45 78q22 -20 68 -33.5t81 -13.5q41 0 69 23.5t30 57.5q-1 32 -27.5 55t-60.5 23q-33 0 -91 -24l-45 30l117 195h98z" />
    <glyph glyph-name="onesuperior" unicode="&#xb9;" horiz-adv-x="641" 
d="M432 1516v-893h-178v741h-145v152h323z" />
    <glyph glyph-name="ordmasculine" unicode="&#xba;" horiz-adv-x="614" 
d="M18 1184v2q0 102 30.5 181t97.5 128t163 49q141 0 214 -101t73 -259q0 -157 -73 -258t-214 -101q-142 0 -216.5 101t-74.5 258zM184 1184v-2q0 -219 125 -219q121 0 121 221q0 121 -31 172t-96 51q-61 0 -90 -51t-29 -172z" />
    <glyph glyph-name="guillemotright" unicode="&#xbb;" horiz-adv-x="862" 
d="M594 956l209 -378l-209 -377h-197l209 377l-209 378h197zM256 956l209 -378l-209 -377h-197l209 377l-209 378h197z" />
    <glyph glyph-name="onequarter" unicode="&#xbc;" horiz-adv-x="1615" 
d="M1448 893v-569h88v-154h-88v-170h-170v170h-367v145l361 578h176zM1278 655l-197 -331h197v331zM469 1516v-893h-178v741h-146v152h324zM1266 1534l-734 -1552h-190l731 1552h193z" />
    <glyph glyph-name="onehalf" unicode="&#xbd;" horiz-adv-x="1640" 
d="M469 1516v-893h-178v741h-146v152h324zM1223 1534l-734 -1552h-192l733 1552h193zM1554 168v-168h-593v156q208 191 317 303q55 55 71.5 88t16.5 78q0 56 -27 90.5t-79 34.5q-51 0 -85 -37.5t-34 -112.5h-178q0 109 41 180q78 129 258 129q135 0 214.5 -78.5t79.5 -209.5
q0 -70 -25 -124.5t-81 -109.5q-36 -39 -131.5 -123t-108.5 -96h344z" />
    <glyph glyph-name="threequarters" unicode="&#xbe;" horiz-adv-x="1667" 
d="M1497 893v-569h88v-154h-88v-170h-170v170h-366v145l362 578h174zM1327 655l-197 -331h197v331zM66 901h176q0 -69 37 -106t96 -37q64 0 96.5 35.5t32.5 95.5q0 68 -39.5 108.5t-114.5 40.5h-69v138h61q117 0 117 104q0 43 -23.5 71.5t-68.5 28.5q-50 0 -75.5 -28.5
t-25.5 -79.5h-176q1 125 80 192.5t205 67.5q120 0 194 -64t74 -168q0 -70 -30.5 -112.5t-88.5 -69.5q74 -12 119 -74.5t45 -158.5q0 -119 -84.5 -199t-218.5 -80q-189 0 -268 121q-51 68 -51 174zM1346 1534l-734 -1552h-192l733 1552h193z" />
    <glyph glyph-name="questiondown" unicode="&#xbf;" horiz-adv-x="1005" 
d="M414 868v277h243v-277h-243zM414 752h243q0 -25 0.5 -75.5t0 -76t-5 -68.5t-13.5 -72t-27 -64.5t-45 -67.5q-28 -35 -74 -79.5t-77 -74t-55.5 -71.5t-24.5 -85q0 -83 48.5 -132.5t131.5 -49.5q71 0 120.5 45.5t55.5 138.5v54h250v-70q-7 -196 -127 -297.5t-309 -101.5
q-179 0 -303.5 118t-124.5 306q0 61 15 113.5t46 97t57.5 74t69.5 69.5q29 27 49 46.5t36.5 41.5t26.5 34.5t17.5 36t11 35t5.5 42t2 46.5v60v27z" />
    <glyph glyph-name="Agrave" unicode="&#xc0;" horiz-adv-x="1091" 
d="M350 350l-94 -350h-254l420 1516h235l433 -1516h-254l-97 350h-389zM674 580l-131 585l-131 -585h262zM289 1964l461 -256l-78 -145l-469 223z" />
    <glyph glyph-name="Aacute" unicode="&#xc1;" horiz-adv-x="1091" 
d="M350 350l-94 -350h-254l420 1516h235l433 -1516h-254l-97 350h-389zM674 580l-131 585l-131 -585h262zM342 1708l459 256l86 -178l-467 -223z" />
    <glyph glyph-name="Acircumflex" unicode="&#xc2;" horiz-adv-x="1091" 
d="M350 350l-94 -350h-254l420 1516h235l433 -1516h-254l-97 350h-389zM674 580l-131 585l-131 -585h262zM651 1896l254 -282h-200l-160 172l-160 -172h-199l252 282h213z" />
    <glyph glyph-name="Atilde" unicode="&#xc3;" horiz-adv-x="1091" 
d="M350 350l-94 -350h-254l420 1516h235l433 -1516h-254l-97 350h-389zM674 580l-131 585l-131 -585h262zM848 1858l86 -138q-36 -36 -89 -60t-112 -24q-103 0 -186 27q-97 29 -156 29q-86 0 -147 -58l-88 138q33 36 88.5 62t109.5 26q102 0 191 -29q91 -27 157 -27
q83 0 146 54z" />
    <glyph glyph-name="Adieresis" unicode="&#xc4;" horiz-adv-x="1091" 
d="M350 350l-94 -350h-254l420 1516h235l433 -1516h-254l-97 350h-389zM674 580l-131 585l-131 -585h262zM469 1862v-232h-211v232h211zM831 1862v-232h-208v232h208z" />
    <glyph glyph-name="Aring" unicode="&#xc5;" horiz-adv-x="1091" 
d="M350 350l-94 -350h-254l420 1516h235l433 -1516h-254l-97 350h-389zM674 580l-131 585l-131 -585h262zM545 2021h2q92 0 156.5 -65t64.5 -156t-65 -156t-158 -65t-157 65t-64 156t64.5 156t156.5 65zM545 1911h-2q-45 0 -76 -32t-31 -79q0 -46 31.5 -77t77.5 -31
q47 0 77.5 31t30.5 77q0 48 -30.5 79.5t-77.5 31.5z" />
    <glyph glyph-name="AE" unicode="&#xc6;" horiz-adv-x="1765" 
d="M-23 0l740 1516h893v-232h-533v-383h533v-229h-533v-441h533v-231h-783v346h-407l-158 -346h-285zM518 578h309v706z" />
    <glyph glyph-name="Ccedilla" unicode="&#xc7;" horiz-adv-x="1202" 
d="M668 -25l-50 -104q27 10 62 10q57 0 100 -40.5t43 -112.5q0 -87 -61 -139t-152 -52q-132 0 -200 76l45 78q42 -51 123 -51q43 0 71.5 22t28.5 57q0 33 -20 56.5t-48 23.5q-41 0 -59 -24l-70 30l84 168q-228 12 -362.5 213.5t-134.5 571.5q0 380 141.5 583t396.5 203
q127 0 228 -47.5t164.5 -130.5t97 -190.5t32.5 -231.5h-256q-5 183 -65 273t-182 90q-145 0 -223 -138.5t-78 -416.5q0 -277 82.5 -410t220.5 -133q229 0 245 342h256q0 -151 -50.5 -274t-156 -205.5t-253.5 -96.5z" />
    <glyph glyph-name="Egrave" unicode="&#xc8;" horiz-adv-x="1003" 
d="M143 0v1516h727v-232h-477v-383h477v-229h-477v-441h477v-231h-727zM248 1966l461 -254l-78 -147l-469 223z" />
    <glyph glyph-name="Eacute" unicode="&#xc9;" horiz-adv-x="1003" 
d="M143 0v1516h727v-232h-477v-383h477v-229h-477v-441h477v-231h-727zM297 1712l459 254l86 -178l-469 -223z" />
    <glyph glyph-name="Ecircumflex" unicode="&#xca;" horiz-adv-x="1003" 
d="M143 0v1516h727v-232h-477v-383h477v-229h-477v-441h477v-231h-727zM608 1898l252 -282h-198l-160 172l-160 -172h-199l252 282h213z" />
    <glyph glyph-name="Edieresis" unicode="&#xcb;" horiz-adv-x="1003" 
d="M143 0v1516h727v-232h-477v-383h477v-229h-477v-441h477v-231h-727zM424 1864v-232h-209v232h209zM788 1864v-232h-208v232h208z" />
    <glyph glyph-name="Igrave" unicode="&#xcc;" horiz-adv-x="516" 
d="M133 0v1516h250v-1516h-250zM2 1964l461 -256l-78 -145l-469 223z" />
    <glyph glyph-name="Iacute" unicode="&#xcd;" horiz-adv-x="516" 
d="M133 0v1516h250v-1516h-250zM53 1708l461 256l86 -178l-469 -223z" />
    <glyph glyph-name="Icircumflex" unicode="&#xce;" horiz-adv-x="516" 
d="M133 0v1516h250v-1516h-250zM365 1896l251 -282h-198l-160 172l-160 -172h-200l254 282h213z" />
    <glyph glyph-name="Idieresis" unicode="&#xcf;" horiz-adv-x="516" 
d="M133 0v1516h250v-1516h-250zM180 1864v-232h-209v232h209zM545 1864v-232h-209v232h209z" />
    <glyph glyph-name="Eth" unicode="&#xd0;" horiz-adv-x="1228" 
d="M131 889v627h401q325 0 482 -222q141 -201 141 -536q0 -357 -163.5 -557.5t-450.5 -200.5h-410v657h-137v232h137zM381 1284v-395h274v-232h-274v-426h156q362 0 362 527q0 259 -84 389q-87 137 -287 137h-147z" />
    <glyph glyph-name="Ntilde" unicode="&#xd1;" horiz-adv-x="1239" 
d="M403 1516l476 -1035v1035h221v-1516h-236l-504 1096v-1096h-223v1516h266zM924 1851l86 -139q-36 -36 -89 -60t-112 -24q-93 0 -186 27q-82 28 -158 28q-84 0 -148 -57l-86 137q33 36 88 62t111 26q98 0 191 -26q85 -29 157 -29q85 0 146 55z" />
    <glyph glyph-name="Ograve" unicode="&#xd2;" horiz-adv-x="1253" 
d="M72 758v2q0 140 22 259.5t66.5 216.5t110 165.5t155.5 105.5t199 37q181 0 307.5 -100.5t187 -275t60.5 -410.5q0 -169 -33.5 -310t-100 -248.5t-174 -168t-247.5 -60.5q-180 0 -306 100.5t-186.5 275.5t-60.5 411zM328 758v-2q0 -553 297 -553q299 0 299 555t-299 555
q-297 0 -297 -555zM375 1964l459 -256l-78 -145l-467 223z" />
    <glyph glyph-name="Oacute" unicode="&#xd3;" horiz-adv-x="1253" 
d="M72 758v2q0 140 22 259.5t66.5 216.5t110 165.5t155.5 105.5t199 37q181 0 307.5 -100.5t187 -275t60.5 -410.5q0 -169 -33.5 -310t-100 -248.5t-174 -168t-247.5 -60.5q-180 0 -306 100.5t-186.5 275.5t-60.5 411zM328 758v-2q0 -553 297 -553q299 0 299 555t-299 555
q-297 0 -297 -555zM422 1708l459 256l86 -178l-467 -223z" />
    <glyph glyph-name="Ocircumflex" unicode="&#xd4;" horiz-adv-x="1253" 
d="M72 758v2q0 140 22 259.5t66.5 216.5t110 165.5t155.5 105.5t199 37q181 0 307.5 -100.5t187 -275t60.5 -410.5q0 -169 -33.5 -310t-100 -248.5t-174 -168t-247.5 -60.5q-180 0 -306 100.5t-186.5 275.5t-60.5 411zM328 758v-2q0 -553 297 -553q299 0 299 555t-299 555
q-297 0 -297 -555zM733 1896l254 -282h-201l-159 172l-160 -172h-199l252 282h213z" />
    <glyph glyph-name="Otilde" unicode="&#xd5;" horiz-adv-x="1253" 
d="M72 758v2q0 140 22 259.5t66.5 216.5t110 165.5t155.5 105.5t199 37q181 0 307.5 -100.5t187 -275t60.5 -410.5q0 -169 -33.5 -310t-100 -248.5t-174 -168t-247.5 -60.5q-180 0 -306 100.5t-186.5 275.5t-60.5 411zM328 758v-2q0 -553 297 -553q299 0 299 555t-299 555
q-297 0 -297 -555zM930 1862l86 -140q-36 -36 -89 -60t-112 -24q-93 0 -186 27q-85 29 -156 29q-86 0 -147 -58l-88 138q33 36 87.5 62t110.5 26q95 0 191 -27q85 -29 157 -29q84 0 146 56z" />
    <glyph glyph-name="Odieresis" unicode="&#xd6;" horiz-adv-x="1253" 
d="M72 758v2q0 140 22 259.5t66.5 216.5t110 165.5t155.5 105.5t199 37q181 0 307.5 -100.5t187 -275t60.5 -410.5q0 -169 -33.5 -310t-100 -248.5t-174 -168t-247.5 -60.5q-180 0 -306 100.5t-186.5 275.5t-60.5 411zM328 758v-2q0 -553 297 -553q299 0 299 555t-299 555
q-297 0 -297 -555zM551 1864v-232h-211v232h211zM913 1864v-232h-208v232h208z" />
    <glyph glyph-name="multiply" unicode="&#xd7;" horiz-adv-x="1179" 
d="M229 0l-143 147l360 371l-360 367l143 147l361 -373l358 373l146 -147l-361 -367l361 -371l-146 -147l-358 375z" />
    <glyph glyph-name="Oslash" unicode="&#xd8;" horiz-adv-x="1253" 
d="M999 1376l144 191h198l-251 -332q90 -187 90 -477q0 -169 -33.5 -310t-100 -248.5t-174 -168t-247.5 -60.5q-224 0 -363 158l-137 -180h-199l240 323q-94 192 -94 486q0 236 60.5 410.5t186.5 275t306 100.5q235 0 374 -168zM352 514l494 655q-69 144 -221 144
q-297 0 -297 -555q0 -142 24 -244zM899 987l-487 -655q67 -129 213 -129q299 0 299 555q0 149 -25 229z" />
    <glyph glyph-name="Ugrave" unicode="&#xd9;" horiz-adv-x="1206" 
d="M127 1516h250v-1061q0 -132 57 -189q51 -59 168 -59q116 0 170 59q55 58 55 189v1061h250v-1096q0 -214 -110 -324q-122 -125 -365 -125q-242 0 -364 125q-111 114 -111 324v1096zM332 1964l461 -256l-78 -145l-469 223z" />
    <glyph glyph-name="Uacute" unicode="&#xda;" horiz-adv-x="1206" 
d="M127 1516h250v-1061q0 -132 57 -189q51 -59 168 -59q116 0 170 59q55 58 55 189v1061h250v-1096q0 -214 -110 -324q-122 -125 -365 -125q-242 0 -364 125q-111 114 -111 324v1096zM399 1708l461 256l86 -178l-469 -223z" />
    <glyph glyph-name="Ucircumflex" unicode="&#xdb;" horiz-adv-x="1206" 
d="M127 1516h250v-1061q0 -132 57 -189q51 -59 168 -59q116 0 170 59q55 58 55 189v1061h250v-1096q0 -214 -110 -324q-122 -125 -365 -125q-242 0 -364 125q-111 114 -111 324v1096zM711 1901l252 -283h-199l-160 174l-162 -174h-198l254 283h213z" />
    <glyph glyph-name="Udieresis" unicode="&#xdc;" horiz-adv-x="1206" 
d="M127 1516h250v-1061q0 -132 57 -189q51 -59 168 -59q116 0 170 59q55 58 55 189v1061h250v-1096q0 -214 -110 -324q-122 -125 -365 -125q-242 0 -364 125q-111 114 -111 324v1096zM526 1864v-232h-209v232h209zM891 1864v-232h-211v232h211z" />
    <glyph glyph-name="Yacute" unicode="&#xdd;" horiz-adv-x="983" 
d="M367 0v586l-375 930h258l244 -695l239 695h258l-375 -930v-586h-249zM301 1708l459 256l86 -178l-467 -223z" />
    <glyph glyph-name="Thorn" unicode="&#xde;" horiz-adv-x="1093" 
d="M143 0v1516h250v-269h125q233 0 365 -117q67 -60 105 -151t38 -203t-38 -203t-105 -151q-132 -117 -365 -117h-125v-305h-250zM393 1016v-479h123q131 0 191 55q61 58 61 184q0 128 -63 185q-58 55 -189 55h-123z" />
    <glyph glyph-name="germandbls" unicode="&#xdf;" horiz-adv-x="1097" 
d="M127 0v1087q0 129 25 208.5t79 131.5q109 115 328 115q180 0 282.5 -105t102.5 -272q0 -296 -223 -366q149 -24 225 -125t76 -252q0 -207 -105 -327t-299 -120q-108 0 -186.5 46t-107.5 149l2 -170h-199zM350 1065v-639h84q1 -113 50.5 -178.5t123.5 -65.5q77 0 128.5 63
t51.5 163q0 134 -65 196q-71 60 -160 62q-45 4 -94 4v204q7 0 45 3q197 9 197 253q0 92 -49.5 147.5t-137.5 55.5q-87 0 -133 -59q-24 -30 -32.5 -75.5t-8.5 -133.5z" />
    <glyph glyph-name="agrave" unicode="&#xe0;" horiz-adv-x="1015" 
d="M891 1145v-1145h-203q0 107 2 150q-78 -175 -252 -175q-166 0 -268 155.5t-102 440.5q0 283 96.5 440.5t273.5 157.5q84 0 151.5 -42.5t100.5 -137.5q-2 51 -2 156h203zM289 571v-2q0 -374 192 -374q50 0 82 19t60 60q29 39 38 101t9 196q0 135 -9 197.5t-38 101.5
q-28 40 -60 59t-82 19q-192 0 -192 -377zM250 1626l459 -256l-76 -145l-469 223z" />
    <glyph glyph-name="aacute" unicode="&#xe1;" horiz-adv-x="1015" 
d="M891 1145v-1145h-203q0 107 2 150q-78 -175 -252 -175q-166 0 -268 155.5t-102 440.5q0 283 96.5 440.5t273.5 157.5q84 0 151.5 -42.5t100.5 -137.5q-2 51 -2 156h203zM289 571v-2q0 -374 192 -374q50 0 82 19t60 60q29 39 38 101t9 196q0 135 -9 197.5t-38 101.5
q-28 40 -60 59t-82 19q-192 0 -192 -377zM311 1370l461 256l86 -178l-469 -223z" />
    <glyph glyph-name="acircumflex" unicode="&#xe2;" horiz-adv-x="1015" 
d="M891 1145v-1145h-203q0 107 2 150q-78 -175 -252 -175q-166 0 -268 155.5t-102 440.5q0 283 96.5 440.5t273.5 157.5q84 0 151.5 -42.5t100.5 -137.5q-2 51 -2 156h203zM289 571v-2q0 -374 192 -374q50 0 82 19t60 60q29 39 38 101t9 196q0 135 -9 197.5t-38 101.5
q-28 40 -60 59t-82 19q-192 0 -192 -377zM594 1559l252 -283h-199l-160 172l-159 -172h-199l252 283h213z" />
    <glyph glyph-name="atilde" unicode="&#xe3;" horiz-adv-x="1015" 
d="M891 1145v-1145h-203q0 107 2 150q-78 -175 -252 -175q-166 0 -268 155.5t-102 440.5q0 283 96.5 440.5t273.5 157.5q84 0 151.5 -42.5t100.5 -137.5q-2 51 -2 156h203zM289 571v-2q0 -374 192 -374q50 0 82 19t60 60q29 39 38 101t9 196q0 135 -9 197.5t-38 101.5
q-28 40 -60 59t-82 19q-192 0 -192 -377zM811 1524l86 -140q-36 -36 -89 -60t-112 -24q-93 0 -186 27q-85 29 -158 29q-82 0 -147 -58l-86 138q33 36 87.5 62t110.5 26q95 0 191 -27q85 -29 158 -29q83 0 145 56z" />
    <glyph glyph-name="adieresis" unicode="&#xe4;" horiz-adv-x="1015" 
d="M891 1145v-1145h-203q0 107 2 150q-78 -175 -252 -175q-166 0 -268 155.5t-102 440.5q0 283 96.5 440.5t273.5 157.5q84 0 151.5 -42.5t100.5 -137.5q-2 51 -2 156h203zM289 571v-2q0 -374 192 -374q50 0 82 19t60 60q29 39 38 101t9 196q0 135 -9 197.5t-38 101.5
q-28 40 -60 59t-82 19q-192 0 -192 -377zM395 1524v-232h-211v232h211zM760 1524v-232h-211v232h211z" />
    <glyph glyph-name="aring" unicode="&#xe5;" horiz-adv-x="1015" 
d="M891 1145v-1145h-203q0 107 2 150q-78 -175 -252 -175q-166 0 -268 155.5t-102 440.5q0 283 96.5 440.5t273.5 157.5q84 0 151.5 -42.5t100.5 -137.5q-2 51 -2 156h203zM289 571v-2q0 -374 192 -374q50 0 82 19t60 60q29 39 38 101t9 196q0 135 -9 197.5t-38 101.5
q-28 40 -60 59t-82 19q-192 0 -192 -377zM471 1681h2q92 0 156.5 -65t64.5 -156t-65 -157t-158 -66q-92 0 -156.5 66t-64.5 157t64.5 156t156.5 65zM471 1569h-2q-44 0 -75.5 -31.5t-31.5 -77.5t31.5 -77t77.5 -31q47 0 79 31t32 77t-32 77.5t-79 31.5z" />
    <glyph glyph-name="ae" unicode="&#xe6;" horiz-adv-x="1609" 
d="M1554 512h-653q0 -65 10 -120t32.5 -104.5t66 -77.5t104.5 -28q80 0 136 46t73 128h221q-21 -169 -124.5 -275t-266.5 -106q-185 0 -264 168l2 -143h-203l2 143q-69 -168 -256 -168q-179 0 -284 154.5t-105 441.5q0 285 101 441.5t292 156.5q92 0 153.5 -40t98.5 -132
l-2 148h203l-2 -148q45 93 107.5 132.5t158.5 39.5q183 0 291 -149q37 -52 60.5 -113.5t33 -133.5t12 -125.5t2.5 -135.5zM266 571v-2q0 -183 57.5 -278.5t151.5 -95.5q45 0 79 13.5t56 41t36.5 59.5t21.5 78t9.5 87.5t2.5 96.5q0 128 -10.5 193.5t-42.5 107.5
q-54 76 -152 76q-94 0 -151.5 -95.5t-57.5 -281.5zM901 674h432q-3 311 -225 311q-111 0 -164 -100q-43 -82 -43 -211z" />
    <glyph glyph-name="ccedilla" unicode="&#xe7;" horiz-adv-x="899" 
d="M530 -20l-45 -101q27 10 62 10q53 0 98 -42t45 -119q0 -78 -65 -126t-142 -48q-52 0 -107.5 18t-90.5 57l43 76q21 -23 54.5 -37t61.5 -14q42 0 71.5 22t29.5 52q0 27 -20 49t-42 22q-38 0 -59 -24l-74 30l80 177q-122 14 -208.5 92.5t-129.5 205t-43 291.5
q0 282 118.5 440t321.5 158q118 0 204 -62.5t126.5 -161.5t42.5 -222h-231q-6 123 -47.5 180.5t-108.5 57.5q-97 0 -141 -91q-51 -99 -51 -299q0 -389 192 -389q75 0 114 64.5t44 171.5h231q-4 -114 -40.5 -207.5t-112.5 -157.5t-181 -73z" />
    <glyph glyph-name="egrave" unicode="&#xe8;" horiz-adv-x="1005" 
d="M930 496h-617q0 -85 19 -153t66.5 -114.5t117.5 -46.5q72 0 119.5 45t64.5 129h220q-33 -203 -156 -301q-107 -80 -248 -80q-89 0 -162.5 31.5t-124.5 87t-86 131t-51 162.5t-16 184q0 173 48.5 306t148.5 212.5t241 79.5q214 0 324 -174q60 -97 78 -219.5t14 -279.5z
M313 686h396q-1 53 -11 102.5t-31.5 95.5t-61 73.5t-91.5 27.5q-91 0 -146 -80.5t-55 -218.5zM250 1626l461 -256l-78 -145l-469 223z" />
    <glyph glyph-name="eacute" unicode="&#xe9;" horiz-adv-x="1005" 
d="M930 496h-617q0 -85 19 -153t66.5 -114.5t117.5 -46.5q72 0 119.5 45t64.5 129h220q-33 -203 -156 -301q-107 -80 -248 -80q-89 0 -162.5 31.5t-124.5 87t-86 131t-51 162.5t-16 184q0 173 48.5 306t148.5 212.5t241 79.5q214 0 324 -174q60 -97 78 -219.5t14 -279.5z
M313 686h396q-1 53 -11 102.5t-31.5 95.5t-61 73.5t-91.5 27.5q-91 0 -146 -80.5t-55 -218.5zM297 1370l461 256l86 -178l-469 -223z" />
    <glyph glyph-name="ecircumflex" unicode="&#xea;" horiz-adv-x="1005" 
d="M930 496h-617q0 -85 19 -153t66.5 -114.5t117.5 -46.5q72 0 119.5 45t64.5 129h220q-33 -203 -156 -301q-107 -80 -248 -80q-89 0 -162.5 31.5t-124.5 87t-86 131t-51 162.5t-16 184q0 173 48.5 306t148.5 212.5t241 79.5q214 0 324 -174q60 -97 78 -219.5t14 -279.5z
M313 686h396q-1 53 -11 102.5t-31.5 95.5t-61 73.5t-91.5 27.5q-91 0 -146 -80.5t-55 -218.5zM610 1559l252 -283h-198l-160 172l-160 -172h-201l254 283h213z" />
    <glyph glyph-name="edieresis" unicode="&#xeb;" horiz-adv-x="1005" 
d="M930 496h-617q0 -85 19 -153t66.5 -114.5t117.5 -46.5q72 0 119.5 45t64.5 129h220q-33 -203 -156 -301q-107 -80 -248 -80q-89 0 -162.5 31.5t-124.5 87t-86 131t-51 162.5t-16 184q0 173 48.5 306t148.5 212.5t241 79.5q214 0 324 -174q60 -97 78 -219.5t14 -279.5z
M313 686h396q-1 53 -11 102.5t-31.5 95.5t-61 73.5t-91.5 27.5q-91 0 -146 -80.5t-55 -218.5zM426 1524v-232h-209v232h209zM791 1524v-232h-209v232h209z" />
    <glyph glyph-name="igrave" unicode="&#xec;" horiz-adv-x="520" 
d="M150 0v1145h221v-1145h-221zM33 1626l459 -256l-78 -145l-467 223z" />
    <glyph glyph-name="iacute" unicode="&#xed;" horiz-adv-x="520" 
d="M150 0v1145h221v-1145h-221zM29 1370l458 256l86 -178l-469 -223z" />
    <glyph glyph-name="icircumflex" unicode="&#xee;" horiz-adv-x="520" 
d="M150 0v1145h221v-1145h-221zM367 1559l251 -283h-198l-160 172l-160 -172h-200l254 283h213z" />
    <glyph glyph-name="idieresis" unicode="&#xef;" horiz-adv-x="520" 
d="M150 0v1145h221v-1145h-221zM182 1524v-232h-209v232h209zM547 1524v-232h-209v232h209z" />
    <glyph glyph-name="eth" unicode="&#xf0;" horiz-adv-x="1019" 
d="M483 1198l-338 -133v178l226 88q-66 73 -174 131l206 76q101 -68 166 -131l328 131v-178l-213 -84q61 -66 104.5 -128.5t79.5 -150.5q82 -198 82 -401q0 -298 -113.5 -459.5t-342.5 -161.5q-109 0 -191.5 40.5t-133 114t-76 170t-25.5 214.5q0 236 103.5 388.5
t277.5 152.5q114 0 184 -86q-13 46 -55 114q-52 80 -95 115zM289 514v-2q0 -330 205 -330q223 0 223 338q0 326 -215 326q-213 0 -213 -332z" />
    <glyph glyph-name="ntilde" unicode="&#xf1;" horiz-adv-x="1021" 
d="M125 0v1145h194q0 -92 -2 -141q73 165 273 165q147 0 228 -86.5t81 -267.5v-815h-221v743q0 205 -154 205q-83 0 -130.5 -53t-47.5 -162v-733h-221zM813 1524l86 -140q-36 -36 -88.5 -60t-110.5 -24q-92 0 -188 27q-85 29 -156 29q-86 0 -147 -58l-88 138q33 36 88.5 62
t109.5 26q98 0 191 -27q85 -29 158 -29q83 0 145 56z" />
    <glyph glyph-name="ograve" unicode="&#xf2;" horiz-adv-x="1017" 
d="M68 571v2q0 125 27 231.5t80 189t139 129t196 46.5q88 0 161 -30.5t124 -85t86.5 -129.5t52 -164t16.5 -189q0 -125 -27 -231.5t-79.5 -189t-138 -129t-195.5 -46.5t-196 46.5t-139 129t-80 189t-27 231.5zM301 571v-2q0 -205 53 -296t158 -91q101 0 153 92t52 297
q0 207 -53 298.5t-158 91.5q-101 0 -153 -91.5t-52 -298.5zM256 1626l461 -256l-78 -145l-469 223z" />
    <glyph glyph-name="oacute" unicode="&#xf3;" horiz-adv-x="1017" 
d="M68 571v2q0 125 27 231.5t80 189t139 129t196 46.5q88 0 161 -30.5t124 -85t86.5 -129.5t52 -164t16.5 -189q0 -125 -27 -231.5t-79.5 -189t-138 -129t-195.5 -46.5t-196 46.5t-139 129t-80 189t-27 231.5zM301 571v-2q0 -205 53 -296t158 -91q101 0 153 92t52 297
q0 207 -53 298.5t-158 91.5q-101 0 -153 -91.5t-52 -298.5zM303 1370l461 256l86 -178l-469 -223z" />
    <glyph glyph-name="ocircumflex" unicode="&#xf4;" horiz-adv-x="1017" 
d="M68 571v2q0 125 27 231.5t80 189t139 129t196 46.5q88 0 161 -30.5t124 -85t86.5 -129.5t52 -164t16.5 -189q0 -125 -27 -231.5t-79.5 -189t-138 -129t-195.5 -46.5t-196 46.5t-139 129t-80 189t-27 231.5zM301 571v-2q0 -205 53 -296t158 -91q101 0 153 92t52 297
q0 207 -53 298.5t-158 91.5q-101 0 -153 -91.5t-52 -298.5zM616 1559l252 -283h-198l-160 172l-162 -172h-198l253 283h213z" />
    <glyph glyph-name="otilde" unicode="&#xf5;" horiz-adv-x="1017" 
d="M68 571v2q0 125 27 231.5t80 189t139 129t196 46.5q88 0 161 -30.5t124 -85t86.5 -129.5t52 -164t16.5 -189q0 -125 -27 -231.5t-79.5 -189t-138 -129t-195.5 -46.5t-196 46.5t-139 129t-80 189t-27 231.5zM301 571v-2q0 -205 53 -296t158 -91q101 0 153 92t52 297
q0 207 -53 298.5t-158 91.5q-101 0 -153 -91.5t-52 -298.5zM811 1524l86 -140q-36 -36 -88.5 -60t-110.5 -24q-93 0 -186 27q-85 29 -158 29q-82 0 -147 -58l-88 138q35 36 89.5 62t108.5 26q97 0 193 -27q82 -29 156 -29q83 0 145 56z" />
    <glyph glyph-name="odieresis" unicode="&#xf6;" horiz-adv-x="1017" 
d="M68 571v2q0 125 27 231.5t80 189t139 129t196 46.5q88 0 161 -30.5t124 -85t86.5 -129.5t52 -164t16.5 -189q0 -125 -27 -231.5t-79.5 -189t-138 -129t-195.5 -46.5t-196 46.5t-139 129t-80 189t-27 231.5zM301 571v-2q0 -205 53 -296t158 -91q101 0 153 92t52 297
q0 207 -53 298.5t-158 91.5q-101 0 -153 -91.5t-52 -298.5zM432 1524v-232h-209v232h209zM797 1524v-232h-211v232h211z" />
    <glyph glyph-name="divide" unicode="&#xf7;" horiz-adv-x="1179" 
d="M719 1122v-288h-260v288h260zM86 416v202h1008v-202h-1008zM719 201v-289h-260v289h260z" />
    <glyph glyph-name="oslash" unicode="&#xf8;" horiz-adv-x="1017" 
d="M854 1188h182l-170 -238q84 -150 84 -379q0 -125 -27 -231.5t-79.5 -189t-138 -129t-195.5 -46.5q-156 0 -258 99l-88 -117h-182l170 240q-84 147 -84 374q0 126 27 233t80 189.5t139 129t196 46.5q157 0 256 -96zM313 426l328 463q-44 72 -135 72q-100 0 -154.5 -97
t-54.5 -293q0 -70 16 -145zM705 721l-330 -463q46 -76 137 -76q99 0 154 97t55 292q0 75 -16 150z" />
    <glyph glyph-name="ugrave" unicode="&#xf9;" horiz-adv-x="1021" 
d="M897 1145v-1145h-203q0 99 2 152q-60 -177 -266 -177q-145 0 -226 87t-81 268v815h221v-744q0 -206 154 -206q82 0 130 54.5t48 162.5v733h221zM242 1626l460 -256l-77 -145l-469 223z" />
    <glyph glyph-name="uacute" unicode="&#xfa;" horiz-adv-x="1021" 
d="M897 1145v-1145h-203q0 99 2 152q-60 -177 -266 -177q-145 0 -226 87t-81 268v815h221v-744q0 -206 154 -206q82 0 130 54.5t48 162.5v733h221zM315 1370l459 256l86 -178l-467 -223z" />
    <glyph glyph-name="ucircumflex" unicode="&#xfb;" horiz-adv-x="1021" 
d="M897 1145v-1145h-203q0 99 2 152q-60 -177 -266 -177q-145 0 -226 87t-81 268v815h221v-744q0 -206 154 -206q82 0 130 54.5t48 162.5v733h221zM616 1559l254 -283h-198l-160 172l-162 -172h-198l254 283h210z" />
    <glyph glyph-name="udieresis" unicode="&#xfc;" horiz-adv-x="1021" 
d="M897 1145v-1145h-203q0 99 2 152q-60 -177 -266 -177q-145 0 -226 87t-81 268v815h221v-744q0 -206 154 -206q82 0 130 54.5t48 162.5v733h221zM434 1524v-232h-211v232h211zM799 1524v-232h-211v232h211z" />
    <glyph glyph-name="yacute" unicode="&#xfd;" horiz-adv-x="872" 
d="M184 -385l142 438l-318 1092h232l198 -756l197 756h231l-456 -1530h-226zM240 1370l460 256l86 -178l-469 -223z" />
    <glyph glyph-name="thorn" unicode="&#xfe;" horiz-adv-x="1015" 
d="M125 -385v1901h223v-357q0 -24 -1 -66.5t-1 -62.5q20 60 81 99.5t151 39.5q166 0 268 -155.5t102 -442.5q0 -282 -96.5 -439t-273.5 -157q-80 0 -141 41.5t-93 112.5q0 -18 1 -66t1 -81v-367h-221zM727 571v2q0 375 -192 375q-45 0 -76.5 -19.5t-59.5 -58.5
q-30 -41 -41.5 -105.5t-11.5 -193.5q0 -127 11.5 -191.5t41.5 -105.5q54 -79 136 -79q192 0 192 376z" />
    <glyph glyph-name="ydieresis" unicode="&#xff;" horiz-adv-x="872" 
d="M184 -385l142 438l-318 1092h232l198 -756l197 756h231l-456 -1530h-226zM360 1524v-232h-210v232h210zM723 1524v-232h-209v232h209z" />
    <glyph glyph-name="dotlessi" unicode="&#x131;" horiz-adv-x="520" 
d="M150 0v1145h221v-1145h-221z" />
    <glyph glyph-name="Lslash" unicode="&#x141;" horiz-adv-x="872" 
d="M2 412v241l141 99v764h250v-592l277 192v-242l-277 -192v-451h432v-231h-682v510z" />
    <glyph glyph-name="lslash" unicode="&#x142;" horiz-adv-x="520" 
d="M150 682l-158 -129v186l158 127v650h221v-469l157 129v-185l-157 -129v-862h-221v682z" />
    <glyph glyph-name="OE" unicode="&#x152;" horiz-adv-x="1843" 
d="M1194 1284v-383h516v-229h-516v-441h516v-231h-733v98q2 35 2 103q-107 -230 -361 -230q-246 0 -396 206t-150 581t150 580.5t396 205.5q254 0 361 -225q0 67 -2 102v95h733v-232h-516zM328 745v-2q0 -259 87.5 -398.5t223.5 -139.5q70 0 123.5 26.5t95.5 86.5t64 167.5
t22 259.5q0 161 -22 273.5t-64.5 175t-96.5 90t-126 27.5q-134 0 -220.5 -144.5t-86.5 -421.5z" />
    <glyph glyph-name="oe" unicode="&#x153;" horiz-adv-x="1628" 
d="M1571 512h-631q0 -53 4.5 -97t18 -89t35 -75t59.5 -49.5t88 -19.5q75 0 126 45.5t70 128.5h222q-32 -203 -158 -301q-107 -80 -246 -80q-243 0 -338 226q-79 -226 -334 -226q-138 0 -235.5 81.5t-143 214t-45.5 300.5q0 126 27 233t79.5 189.5t136.5 129t192 46.5
q241 0 325 -213q92 213 342 213q208 0 314 -172q32 -51 52 -109.5t28 -128.5t10 -118.5t2 -128.5zM297 571v-2q0 -205 53 -296t158 -91t158 91.5t53 297.5q0 208 -54 299t-163 91q-101 0 -153 -91.5t-52 -298.5zM940 674h410q-4 311 -205 311q-57 0 -98.5 -27.5t-63.5 -74.5
t-32 -98.5t-11 -110.5z" />
    <glyph glyph-name="Scaron" unicode="&#x160;" horiz-adv-x="1089" 
d="M72 455h247q14 -262 224 -262q100 0 159.5 60.5t59.5 164.5q0 31 -8.5 58t-20 47t-36 39.5t-41.5 31t-52.5 26.5t-54 22t-60.5 21.5t-59 20.5q-38 15 -66 27.5t-65.5 33.5t-63.5 42t-54 53t-45.5 67t-28.5 82.5t-11 102.5q-1 209 118 331.5t321 122.5q197 0 309.5 -101.5
t142.5 -314.5h-242q-7 91 -56.5 149t-143.5 58q-88 0 -140.5 -58t-52.5 -149q0 -24 5 -45.5t12.5 -38.5t22 -33t27.5 -27.5t35 -24.5t38.5 -21t45 -19t47 -17.5t50.5 -17.5t51 -18q53 -21 91.5 -40t87 -56.5t79.5 -81.5t52.5 -113t21.5 -153q0 -206 -134.5 -329.5
t-342.5 -123.5q-227 0 -347 124.5t-122 359.5zM188 1890h199l158 -172l157 172h199l-250 -280h-213z" />
    <glyph glyph-name="scaron" unicode="&#x161;" horiz-adv-x="876" 
d="M788 821h-221q-3 156 -145 156q-56 0 -89.5 -33t-33.5 -86q0 -20 6 -37.5t14.5 -30t25.5 -25t30.5 -20t39.5 -16.5t41.5 -14t48 -14.5t48.5 -14.5q43 -14 77 -30t70.5 -44t60.5 -63.5t40 -89.5t16 -121q0 -158 -108 -260.5t-273 -102.5q-168 0 -275 96t-120 283h221
q3 -82 52 -130t126 -48q72 0 108 42t36 106q0 19 -3.5 35t-13.5 30t-18 24t-27 21t-30 17.5t-37.5 16t-38.5 14t-44 14.5t-44 14q-57 19 -99 42t-81.5 61.5t-60.5 98t-21 138.5q0 143 97 231t267 88t259.5 -90t98.5 -258zM82 1552h199l157 -172l158 172h199l-250 -280h-213z
" />
    <glyph glyph-name="Ydieresis" unicode="&#x178;" horiz-adv-x="983" 
d="M367 0v586l-375 930h258l244 -695l239 695h258l-375 -930v-586h-249zM416 1864v-232h-211v232h211zM778 1864v-232h-209v232h209z" />
    <glyph glyph-name="Zcaron" unicode="&#x17d;" horiz-adv-x="1013" 
d="M926 1290l-564 -1059h572v-231h-862v217l561 1067h-533v232h826v-226zM160 1886h198l158 -172l160 172h196l-247 -282h-215z" />
    <glyph glyph-name="zcaron" unicode="&#x17e;" horiz-adv-x="872" 
d="M51 0v207l469 729h-430v209h692v-209l-460 -727h469v-209h-740zM70 1546h198l158 -174l158 174h198l-250 -282h-213z" />
    <glyph glyph-name="florin" unicode="&#x192;" 
d="M707 948h297v-194h-304l-71 -594q-14 -161 -35.5 -256t-71.5 -162q-106 -145 -336 -145q-72 0 -194 28l49 225q75 -22 137 -22q103 0 148 67t57 197l74 662h-287v194h291q27 333 149 467q110 125 303 125q87 0 187 -27l-49 -223q-8 2 -32 8.5t-41 9.5t-34 3
q-111 -3 -162 -68q-61 -77 -75 -295z" />
    <glyph glyph-name="circumflex" unicode="&#x2c6;" horiz-adv-x="679" 
d="M446 1559l252 -283h-198l-160 172l-160 -172h-200l253 283h213z" />
    <glyph glyph-name="caron" unicode="&#x2c7;" horiz-adv-x="679" 
d="M-16 1552h198l158 -172l158 172h198l-250 -280h-213z" />
    <glyph glyph-name="uni02C9" unicode="&#x2c9;" horiz-adv-x="679" 
d="M688 1477v-148h-696v148h696z" />
    <glyph glyph-name="breve" unicode="&#x2d8;" horiz-adv-x="679" 
d="M-8 1548h153q17 -72 66.5 -103.5t132.5 -31.5q85 0 130.5 32t60.5 103h155q-21 -134 -111.5 -206t-248.5 -72q-135 0 -226.5 71t-111.5 207z" />
    <glyph glyph-name="dotaccent" unicode="&#x2d9;" horiz-adv-x="552" 
d="M381 1524v-232h-209v232h209z" />
    <glyph glyph-name="ring" unicode="&#x2da;" horiz-adv-x="555" 
d="M276 1681h3q92 0 156.5 -65t64.5 -156t-65.5 -157t-158.5 -66q-92 0 -156.5 66t-64.5 157t64.5 156t156.5 65zM276 1569h-2q-44 0 -75 -31.5t-31 -77.5t31 -77t77 -31q47 0 79 31t32 77t-32 77.5t-79 31.5z" />
    <glyph glyph-name="ogonek" unicode="&#x2db;" horiz-adv-x="520" 
d="M289 23l145 16q-68 -55 -105.5 -101.5t-37.5 -95.5q0 -46 29 -78t73 -32q42 0 109 24v-131q-72 -47 -168 -47q-97 0 -155 57t-58 142q0 64 39.5 120t128.5 126z" />
    <glyph glyph-name="tilde" unicode="&#x2dc;" horiz-adv-x="679" 
d="M641 1524l88 -140q-36 -36 -89 -60t-112 -24q-93 0 -186 27q-85 29 -158 29q-82 0 -147 -58l-86 138q33 36 88 62t111 26q94 0 190 -27q85 -29 158 -29q84 0 143 56z" />
    <glyph glyph-name="hungarumlaut" unicode="&#x2dd;" horiz-adv-x="679" 
d="M37 1346l307 276l133 -131l-330 -260zM444 1346l310 276l131 -131l-330 -260z" />
    <glyph glyph-name="uni03A9" unicode="&#x3a9;" horiz-adv-x="1409" 
d="M360 186v7q-108 112 -178.5 274.5t-70.5 359.5q0 198 76 359t213.5 253.5t310.5 92.5q136 0 249 -60t184.5 -158.5t110.5 -220.5t39 -251q0 -202 -74 -373t-180 -276v-7h283v-186h-506v135q108 78 181 247.5t73 410.5q0 104 -23 200.5t-67 174.5t-115 124.5t-159 46.5
q-112 0 -197.5 -72.5t-130.5 -198.5t-45 -284q0 -223 74.5 -398.5t179.5 -250.5v-135h-506v186h278z" />
    <glyph glyph-name="uni03BC" unicode="&#x3bc;" horiz-adv-x="1024" 
d="M125 -369v1514h221v-737q0 -109 35 -164q36 -49 108 -49q90 0 138 55q51 60 51 184v711h221v-1145h-203q0 109 2 164q-20 -79 -88 -134t-168 -55q-74 0 -96 45v-120v-269h-221z" />
    <glyph glyph-name="pi" unicode="&#x3c0;" horiz-adv-x="1185" 
d="M1135 934h-148v-625q0 -195 29 -309h-213q-35 65 -35 299v635h-305q-9 -210 -47.5 -493.5t-89.5 -440.5h-213q52 181 90 457t43 477q-134 0 -205 -23l-27 152q88 67 316 67h823z" />
    <glyph glyph-name="uni2010" unicode="&#x2010;" horiz-adv-x="626" 
d="M72 688h481v-217h-481v217z" />
    <glyph glyph-name="endash" unicode="&#x2013;" horiz-adv-x="1024" 
d="M18 688h988v-217h-988v217z" />
    <glyph glyph-name="emdash" unicode="&#x2014;" horiz-adv-x="2048" 
d="M18 688h2012v-217h-2012v217z" />
    <glyph glyph-name="quoteleft" unicode="&#x2018;" horiz-adv-x="481" 
d="M272 1516l162 -465h-203l-196 465h237z" />
    <glyph glyph-name="quoteright" unicode="&#x2019;" horiz-adv-x="481" 
d="M47 1051l164 465h235l-196 -465h-203z" />
    <glyph glyph-name="quotesinglbase" unicode="&#x201a;" horiz-adv-x="481" 
d="M47 -195l164 465h235l-196 -465h-203z" />
    <glyph glyph-name="quotedblleft" unicode="&#x201c;" horiz-adv-x="872" 
d="M301 1516l162 -465h-203l-197 465h238zM633 1516l162 -465h-203l-197 465h238z" />
    <glyph glyph-name="quotedblright" unicode="&#x201d;" horiz-adv-x="872" 
d="M78 1051l162 465h237l-196 -465h-203zM410 1051l161 465h238l-197 -465h-202z" />
    <glyph glyph-name="quotedblbase" unicode="&#x201e;" horiz-adv-x="872" 
d="M78 -195l162 465h237l-196 -465h-203zM410 -195l161 465h238l-197 -465h-202z" />
    <glyph glyph-name="dagger" unicode="&#x2020;" horiz-adv-x="1024" 
d="M621 1516v-373h297v-211h-297v-1137h-220v1137h-295v211h295v373h220z" />
    <glyph glyph-name="daggerdbl" unicode="&#x2021;" horiz-adv-x="1024" 
d="M623 1516v-359h295v-211h-295v-581h295v-211h-295v-359h-220v359h-297v211h297v581h-297v211h297v359h220z" />
    <glyph glyph-name="bullet" unicode="&#x2022;" horiz-adv-x="962" 
d="M481 1069h2q135 0 229 -94t93 -227q2 -134 -93 -229t-231 -95t-230.5 95t-92.5 229q-2 134 92.5 227.5t230.5 93.5z" />
    <glyph glyph-name="ellipsis" unicode="&#x2026;" horiz-adv-x="2048" 
d="M231 0v270h222v-270h-222zM913 0v270h222v-270h-222zM1595 0v270h222v-270h-222z" />
    <glyph glyph-name="perthousand" unicode="&#x2030;" horiz-adv-x="2095" 
d="M45 1180v2q0 172 88 265t225 93t225.5 -93.5t88.5 -266.5q0 -174 -88.5 -268.5t-225.5 -94.5t-225 94t-88 269zM199 1180v-2q0 -101 43 -156t116 -55q74 0 117 55.5t43 157.5q0 101 -43.5 157t-116.5 56t-116 -56t-43 -157zM729 336v2q0 173 88 266.5t225 93.5t225.5 -94
t88.5 -268q0 -173 -88.5 -267t-225.5 -94t-225 94t-88 267zM883 336v-2q0 -100 43 -155.5t116 -55.5t116.5 56t43.5 157q0 102 -43 157.5t-117 55.5q-73 0 -116 -55.5t-43 -157.5zM1423 336v2q0 173 88.5 266.5t225.5 93.5t225 -94t88 -268q0 -173 -88 -267t-225 -94
t-225.5 94t-88.5 267zM1575 336v-2q0 -99 44.5 -155t117.5 -56q72 0 115.5 56t43.5 157q0 102 -43.5 157.5t-115.5 55.5q-74 0 -118 -55.5t-44 -157.5zM1194 1534l-797 -1552h-192l796 1552h193z" />
    <glyph glyph-name="guilsinglleft" unicode="&#x2039;" horiz-adv-x="555" 
d="M74 578l209 378h198l-209 -378l209 -377h-198z" />
    <glyph glyph-name="guilsinglright" unicode="&#x203a;" horiz-adv-x="555" 
d="M270 956l209 -378l-209 -377h-196l209 377l-209 378h196z" />
    <glyph glyph-name="fraction" unicode="&#x2044;" horiz-adv-x="299" 
d="M-332 -18l791 1552h174l-793 -1552h-172z" />
    <glyph glyph-name="Euro" unicode="&#x20ac;" horiz-adv-x="1138" 
d="M838 692l-33 -176h-340q21 -162 76 -232.5t143 -70.5q72 0 112.5 34t69.5 140h232q-64 -412 -426 -412q-109 0 -191.5 37.5t-137 110.5t-86.5 169.5t-46 223.5h-201l33 176h156v49v64h-189l33 176h172q17 116 51 209t89 165.5t137.5 112t187.5 39.5q86 0 155.5 -27
t113 -68.5t75.5 -99t47 -112t23 -115.5h-230q-19 100 -69 142.5t-115 42.5q-171 0 -213 -289h424l-33 -176h-405v-64v-49h385z" />
    <glyph glyph-name="afii61289" unicode="&#x2113;" horiz-adv-x="1009" 
d="M879 356l92 -92q-138 -280 -398 -280q-90 0 -158 30t-109 83.5t-62.5 118.5t-26.5 144v27q-37 -32 -108 -92l-58 123q18 16 54.5 47.5t62 55t47.5 46.5v568q0 137 28 241.5t77 165.5t109 91t130 30q131 0 198.5 -101.5t67.5 -265.5q0 -349 -397 -759v-95
q1 -140 54.5 -210t138.5 -70q78 0 144 56t114 138zM428 1130v-378q260 312 260 551q0 194 -121 194q-58 0 -98.5 -87t-40.5 -280z" />
    <glyph glyph-name="trademark" unicode="&#x2122;" horiz-adv-x="2002" 
d="M840 635v881h270l246 -582l248 582h266v-881h-187v633l-253 -633h-150l-252 631v-631h-188zM289 635v721h-242v160h688v-160h-241v-721h-205z" />
    <glyph glyph-name="Omega" unicode="&#x2126;" horiz-adv-x="1409" 
d="M360 186v7q-108 112 -178.5 274.5t-70.5 359.5q0 198 76 359t213.5 253.5t310.5 92.5q136 0 249 -60t184.5 -158.5t110.5 -220.5t39 -251q0 -202 -74 -373t-180 -276v-7h283v-186h-506v135q108 78 181 247.5t73 410.5q0 104 -23 200.5t-67 174.5t-115 124.5t-159 46.5
q-112 0 -197.5 -72.5t-130.5 -198.5t-45 -284q0 -223 74.5 -398.5t179.5 -250.5v-135h-506v186h278z" />
    <glyph glyph-name="estimated" unicode="&#x212e;" horiz-adv-x="1886" 
d="M1810 735h-1407q-10 0 -10 -8v-426q0 -27 19 -49q104 -109 241.5 -170.5t290.5 -61.5q163 0 308 69.5t251 191.5h125q-119 -141 -300 -222.5t-388 -81.5q-176 0 -336 62t-276 166t-185 249t-69 304t69 304t185 249.5t276 166.5t336 62q178 0 339 -62t277.5 -166.5
t185 -249.5t68.5 -304v-23zM1491 791v430q0 31 -21 49q-104 104 -240 163.5t-286 59.5q-152 0 -289 -61t-241 -168q-21 -21 -21 -54v-419q0 -4 3 -8.5t7 -4.5h1080q8 0 8 13z" />
    <glyph glyph-name="partialdiff" unicode="&#x2202;" horiz-adv-x="1136" 
d="M211 1411l-66 172q154 119 355 119q107 0 202 -50t170.5 -147.5t119.5 -256.5t44 -361q0 -272 -63 -474t-188 -314.5t-298 -112.5q-79 0 -146 28.5t-114 77.5t-80.5 113.5t-49 136.5t-15.5 147q0 127 35.5 234.5t95 178.5t138 111t165.5 40q58 0 111.5 -18.5t90.5 -47
t61.5 -55t37.5 -51.5h2q2 20 2 77q0 152 -44 278.5t-125 201.5t-181 75q-141 0 -260 -102zM508 176h2q78 0 141.5 75.5t99.5 186.5t48 240q-22 70 -87.5 130t-154.5 60q-108 0 -182 -115t-74 -272q0 -133 56.5 -219t150.5 -86z" />
    <glyph glyph-name="uni2206" unicode="&#x2206;" horiz-adv-x="1308" 
d="M59 0v139l471 1403h258l459 -1401v-141h-1188zM283 184h731l-240 697q-14 49 -60 195t-59 200h-8q-9 -47 -53.5 -185t-56.5 -180z" />
    <glyph glyph-name="product" unicode="&#x220f;" horiz-adv-x="1437" 
d="M1380 1303h-204v-1512h-220v1512h-477v-1512h-219v1512h-207v204h1327v-204z" />
    <glyph glyph-name="summation" unicode="&#x2211;" horiz-adv-x="1118" 
d="M1075 -209h-1026v150l504 710l-485 699v157h974v-190h-680v-8l441 -619l-488 -680v-6h760v-213z" />
    <glyph glyph-name="minus" unicode="&#x2212;" horiz-adv-x="1179" 
d="M86 416v202h1008v-202h-1008z" />
    <glyph glyph-name="uni2215" unicode="&#x2215;" horiz-adv-x="299" 
d="M-332 -18l791 1552h174l-793 -1552h-172z" />
    <glyph glyph-name="uni2219" unicode="&#x2219;" horiz-adv-x="552" 
d="M406 664v-289h-259v289h259z" />
    <glyph glyph-name="radical" unicode="&#x221a;" horiz-adv-x="1187" 
d="M1192 1806l-449 -2113h-182l-305 966l-150 -59l-38 131l323 129l221 -713q6 -30 20.5 -94.5t18.5 -87.5l2 -2q16 112 31 191l352 1652h156z" />
    <glyph glyph-name="infinity" unicode="&#x221e;" horiz-adv-x="1607" 
d="M1507 627v-4q0 -156 -97.5 -252.5t-229.5 -96.5q-96 0 -183.5 54.5t-189.5 183.5q-47 -56 -84 -93t-85.5 -73t-102.5 -54t-115 -18q-131 0 -225.5 97t-94.5 243q0 152 95.5 249.5t240.5 97.5q108 0 196 -60.5t181 -175.5q87 97 120 126q122 110 259 110q136 0 225.5 -93
t89.5 -241zM438 401h2q28 0 54 6.5t54 24t45 29t47 42.5t39 41t41 47q10 11 15 17q-84 109 -122 146q-86 82 -185 82q-90 0 -142.5 -63.5t-52.5 -160.5q0 -89 58.5 -150t146.5 -61zM1180 836h-2q-31 0 -63.5 -12t-56 -26t-54.5 -42.5t-45.5 -44t-43.5 -49.5t-36 -41
q105 -125 167.5 -172.5t139.5 -47.5q85 0 136.5 66t51.5 147q0 100 -54 161t-140 61z" />
    <glyph glyph-name="integral" unicode="&#x222b;" horiz-adv-x="792" 
d="M743 1831l-26 -158q-34 19 -72 19q-65 0 -100 -54q-62 -78 -62 -370q0 -171 14.5 -519.5t14.5 -539.5q0 -294 -80 -434q-36 -69 -101.5 -103t-140.5 -34q-85 0 -147 32l31 164q50 -22 88 -22q57 0 90 47q59 81 59 348q0 192 -14 548.5t-14 532.5q0 187 26 296t90 179
q40 46 100 70.5t124 24.5q68 0 120 -27z" />
    <glyph glyph-name="approxequal" unicode="&#x2248;" horiz-adv-x="1122" 
d="M954 946l82 -72q-45 -97 -114 -154.5t-156 -57.5q-56 0 -103 18.5t-126 64.5q-38 24 -61 37t-56 24t-64 11q-32 0 -59.5 -11.5t-52 -36.5t-40 -46t-38.5 -57l-84 71q45 95 122 152t167 57q21 0 40 -2.5t39 -8.5t32.5 -10t32.5 -15t26 -14t27 -16t22 -14q9 -5 33.5 -19
t32.5 -18.5t26.5 -14t29.5 -12.5t27 -6t31 -3q56 0 97 37.5t87 115.5zM954 571l82 -71q-46 -96 -114.5 -153.5t-155.5 -57.5q-56 0 -104 19t-125 65q-41 25 -62.5 37t-54.5 23t-64 11q-33 0 -60.5 -11.5t-51.5 -37t-39 -46.5t-39 -58l-84 71q46 95 122.5 153t166.5 58
q24 0 48.5 -4.5t40.5 -8.5t39.5 -15t32.5 -15.5t32 -18t26 -15.5q8 -5 36 -22t38.5 -22.5t31.5 -15t38 -13t36 -3.5q57 0 97 36.5t87 114.5z" />
    <glyph glyph-name="notequal" unicode="&#x2260;" horiz-adv-x="1122" 
d="M815 1081l-84 -190h289v-135h-338l-125 -289h463v-133h-514l-103 -236l-104 43l84 193h-283v133h334l125 289h-459v135h508l103 231z" />
    <glyph glyph-name="lessequal" unicode="&#x2264;" horiz-adv-x="1122" 
d="M1016 215l-905 469v143l903 469v-159l-768 -377v-4l770 -381v-160zM1022 -2h-920v135h920v-135z" />
    <glyph glyph-name="greaterequal" unicode="&#x2265;" horiz-adv-x="1122" 
d="M115 1296l903 -469v-143l-903 -469v160l770 379v4l-770 379v159zM1020 -2h-916v135h916v-135z" />
    <glyph glyph-name="lozenge" unicode="&#x25ca;" horiz-adv-x="1187" 
d="M1079 754l-401 -852h-180l-392 852l402 852h180zM883 748l-246 538q-23 59 -39 129h-6q-21 -80 -41 -129l-248 -528l250 -545q27 -88 35 -125h8q13 65 35 121z" />
    <glyph glyph-name="fi" unicode="&#xfb01;" horiz-adv-x="1038" 
d="M670 936h-285v-936h-221v936h-113v209h113v61q0 336 389 336v-192q-34 -1 -60 -7t-52.5 -22t-41 -50.5t-14.5 -86.5v-39h508v-1145h-223v936zM893 1296h-223v220h223v-220z" />
    <glyph glyph-name="fl" unicode="&#xfb02;" horiz-adv-x="1038" 
d="M670 936h-285v-936h-221v936h-113v209h113v61q0 336 389 336v-192q-34 -1 -60 -7t-52.5 -22t-41 -50.5t-14.5 -86.5v-39h285v371h223v-1516h-223v936z" />
    <glyph glyph-name="a.superior" horiz-adv-x="614" 
d="M565 1530v-688h-149q0 65 2 92q-49 -107 -164 -107q-108 0 -175 93.5t-67 263.5q0 171 63.5 265.5t178.5 94.5q124 0 164 -112q-2 35 -2 98h149zM174 1184v-2q0 -97 29.5 -152t83.5 -55q50 0 77.5 35t30.5 96q4 54 4 82q0 26 -4 80q-5 60 -32.5 93.5t-77.5 33.5
q-52 0 -81.5 -55t-29.5 -156z" />
    <glyph glyph-name="o.superior" horiz-adv-x="614" 
d="M18 1184v2q0 102 30.5 181t97.5 128t163 49q141 0 214 -101t73 -259q0 -157 -73 -258t-214 -101q-142 0 -216.5 101t-74.5 258zM184 1184v-2q0 -219 125 -219q121 0 121 221q0 121 -31 172t-96 51q-61 0 -90 -51t-29 -172z" />
    <glyph glyph-name="one.superior" horiz-adv-x="641" 
d="M432 1516v-893h-178v741h-145v152h323z" />
    <glyph glyph-name="two.superior" horiz-adv-x="690" 
d="M637 788v-165h-594v155q235 219 315 301q56 56 73.5 89.5t17.5 78.5q0 55 -28 89t-81 34q-50 0 -83.5 -37t-33.5 -110h-178q0 109 41 180q78 129 258 129q134 0 214.5 -79.5t80.5 -209.5q0 -71 -25.5 -124t-81.5 -111q-36 -37 -123.5 -115.5t-115.5 -104.5h344z" />
    <glyph glyph-name="three.superior" horiz-adv-x="690" 
d="M37 901h174q1 -70 38.5 -106.5t96.5 -36.5q62 0 94.5 36t32.5 95q0 68 -39.5 108.5t-114.5 40.5h-69v138h61q64 0 91.5 29.5t27.5 74.5q0 43 -23.5 71.5t-70.5 28.5q-49 0 -74.5 -29t-25.5 -79h-177q1 125 80 192.5t205 67.5q120 0 195 -64t75 -168q0 -71 -30.5 -113
t-89.5 -69q74 -12 118.5 -74.5t44.5 -158.5q0 -119 -84.5 -199t-218.5 -80q-189 0 -268 121q-49 70 -49 174z" />
    </font>
</defs>
</svg>
