<?xml version="1.0" standalone="no"?>
<!DOCTYPE svg PUBLIC "-//W3C//DTD SVG 1.1//EN" "http://www.w3.org/Graphics/SVG/1.1/DTD/svg11.dtd" >
<svg xmlns="http://www.w3.org/2000/svg" xmlns:xlink="http://www.w3.org/1999/xlink" version="1.1">
<metadata>
Created by FontForge 20170731 at Tue Sep 29 22:08:23 2020
 By Aleksey,,,
(c) 1993, 1994, 2001, 2002 Adobe Systems Incorporated. All rights reserved.
</metadata>
<defs>
<font id="ITCAvantGardeStd-BoldObl" horiz-adv-x="1265" >
  <font-face 
    font-family="ITC Avant Garde Std Md"
    font-weight="700"
    font-style="italic"
    font-stretch="normal"
    units-per-em="2048"
    panose-1="2 11 8 2 2 2 2 2 2 4"
    ascent="1516"
    descent="-532"
    x-height="1137"
    cap-height="1516"
    bbox="-242 -588 2572.73 2083"
    underline-thickness="102"
    underline-position="-307"
    slope="-10.5"
    unicode-range="U+0020-FB02"
  />
<missing-glyph horiz-adv-x="1288" 
d="M264 0v1434h1024v-1434h-1024zM776 809l348 522h-696zM838 717l348 -522v1044zM428 102h696l-348 523zM367 1239v-1044l348 522z" />
    <glyph glyph-name="f_i" unicode="fi" horiz-adv-x="1230" 
d="M932 879h-293l-164 -879h-340l164 879h-127l47 258h127l8 49q15 80 44.5 141t73 99t89.5 62.5t109 36t114.5 15.5t120.5 4l-47 -256q-22 0 -33 -0.5t-32 -3t-33.5 -9.5t-27.5 -18.5t-24 -31t-14 -45.5l-8 -43h633l-211 -1137h-340zM1341 1257h-340l48 259h340z" />
    <glyph glyph-name="f_l" unicode="fl" horiz-adv-x="1230" 
d="M932 879h-293l-164 -879h-340l164 879h-127l47 258h127l8 49q15 80 44.5 141t73 99t89.5 62.5t109 36t114.5 15.5t120.5 4l-47 -256q-22 0 -33 -0.5t-32 -3t-33.5 -9.5t-27.5 -18.5t-24 -31t-14 -45.5l-8 -43h293l70 376h340l-281 -1513h-340z" />
    <glyph glyph-name=".notdef" horiz-adv-x="1288" 
d="M264 0v1434h1024v-1434h-1024zM776 809l348 522h-696zM838 717l348 -522v1044zM428 102h696l-348 523zM367 1239v-1044l348 522z" />
    <glyph glyph-name=".null" horiz-adv-x="0" 
 />
    <glyph glyph-name="nonmarkingreturn" horiz-adv-x="682" 
 />
    <glyph glyph-name="space" unicode=" " horiz-adv-x="632" 
 />
    <glyph glyph-name="exclam" unicode="!" horiz-adv-x="681" 
d="M797 1516l-189 -1016h-350l188 1016h351zM582 348l-66 -348h-350l65 348h351z" />
    <glyph glyph-name="quotedbl" unicode="&#x22;" horiz-adv-x="948" 
d="M575 909h-253l112 607h254zM963 909h-254l112 607h254z" />
    <glyph glyph-name="numbersign" unicode="#" 
d="M977 473l-115 -356h-231l114 356h-159l-115 -356h-233l114 356h-202l71 227h205l49 150h-205l72 227h205l106 324h234l-107 -324h160l107 324h233l-106 -324h227l-72 -227h-229l-49 -150h227l-72 -227h-229zM819 700l49 150h-159l-50 -150h160z" />
    <glyph glyph-name="dollar" unicode="$" 
d="M1087 1661l-36 -207q123 -31 183 -132.5t28 -256.5h-318q10 50 -10.5 89.5t-77.5 39.5q-50 0 -86.5 -34t-44.5 -81q-14 -72 50 -119q42 -31 186 -91h1l1 -1q68 -27 116.5 -67.5t71 -82t36 -87t10.5 -84t-7 -72.5q-26 -136 -129 -251.5t-270 -172.5l-39 -207h-277l39 207
q-67 10 -119 40t-82.5 71.5t-49.5 92t-19.5 102.5t6.5 102h350q-12 -60 13 -103t79 -43q51 0 91 36.5t48 84.5q8 42 -8.5 77t-61 63.5t-78.5 44t-97 40.5q-270 96 -217 381q14 73 45 135.5t70.5 107t90 79.5t99 56.5t100.5 35.5l37 207h276z" />
    <glyph glyph-name="percent" unicode="%" horiz-adv-x="1757" 
d="M291 1176l2 2q28 152 156 260t280 108q154 0 241 -108t58 -262q-28 -153 -155.5 -261t-280.5 -108q-151 0 -240 108t-61 261zM518 1176v-2q-9 -56 25 -98t92 -42q56 0 106 41.5t62 102.5q10 60 -24 100.5t-93 40.5t-107.5 -41t-60.5 -102zM1008 340v2q28 152 156 260.5
t282 108.5q152 0 240.5 -108.5t60.5 -262.5q-29 -154 -158.5 -262.5t-279.5 -108.5q-152 0 -241 108t-60 263zM1235 340v-2q-11 -58 23.5 -99.5t93.5 -41.5q58 0 108 42t60 101q10 61 -23.5 102t-91.5 41q-61 0 -110 -42t-60 -101zM1587 1516l-909 -1516h-236l908 1516h237z
" />
    <glyph glyph-name="ampersand" unicode="&#x26;" horiz-adv-x="1552" 
d="M1292 891h359l-332 -461l186 -233l-274 -228l-150 191q-22 -30 -57.5 -59.5t-89 -61t-131 -51t-164.5 -19.5q-247 0 -372.5 125.5t-90.5 315.5q8 47 27 90.5t39.5 76.5t54 67.5t57.5 56.5t64 49.5t59.5 39.5t57.5 35q-114 145 -84 328q31 165 174 278t319 113
q172 0 265 -108.5t63 -264.5q-11 -57 -37 -109t-52.5 -85.5t-67.5 -68.5t-61.5 -49.5t-54.5 -35.5l136 -170zM895 1270h-2q-36 0 -68.5 -26.5t-40.5 -74.5q-6 -33 3.5 -67t21 -52t31.5 -44q29 25 42 36.5t34.5 35t33 47t15.5 49.5q8 41 -10.5 68.5t-59.5 27.5zM899 379
l-194 242q-41 -29 -62.5 -46t-51 -54.5t-36.5 -76.5q-12 -70 33 -109.5t123 -39.5q117 0 188 84z" />
    <glyph glyph-name="quotesingle" unicode="'" horiz-adv-x="495" 
d="M543 909h-254l112 607h254z" />
    <glyph glyph-name="parenleft" unicode="(" horiz-adv-x="968" 
d="M1167 1544l-69 -375q-72 -28 -147 -85.5t-147 -140t-129 -198.5t-81 -245q-21 -128 -9.5 -235.5t51 -193.5t94.5 -145t120 -90l-70 -377q-122 42 -220 110.5t-163 152.5t-108.5 180t-62 199t-18 204t18.5 199q22 118 69.5 238t128.5 243.5t185 228.5t248 193t309 137z
" />
    <glyph glyph-name="parenright" unicode=")" horiz-adv-x="968" 
d="M-12 -541l69 375q56 22 115 62t120.5 101.5t113.5 135.5t93.5 170.5t61.5 200.5q21 128 9.5 235t-51.5 193t-94.5 145t-119.5 90l70 377q122 -42 220 -110t163 -152t108.5 -180.5t62 -199.5t18 -203.5t-18.5 -198.5q-22 -118 -69.5 -238.5t-128.5 -244t-185.5 -228.5
t-248.5 -193t-308 -137z" />
    <glyph glyph-name="asterisk" unicode="*" horiz-adv-x="1372" 
d="M1077 1516l-123 -314l281 211l70 -192l-312 -95l277 -94l-152 -201l-196 218l12 -312h-221l123 316l-275 -222l-78 201l314 98l-279 91l144 192l206 -209l-12 312h221z" />
    <glyph glyph-name="plus" unicode="+" horiz-adv-x="1228" 
d="M971 1036l-66 -354h352l-61 -328h-352l-66 -354h-327l65 354h-352l61 328h353l65 354h328z" />
    <glyph glyph-name="comma" unicode="," horiz-adv-x="643" 
d="M563 348l-301 -512h-280l227 512h354z" />
    <glyph glyph-name="hyphen" unicode="-" horiz-adv-x="575" 
d="M141 758h576l-64 -334h-575z" />
    <glyph glyph-name="period" unicode="." horiz-adv-x="643" 
d="M565 348l-65 -348h-355l66 348h354z" />
    <glyph glyph-name="slash" unicode="/" horiz-adv-x="1214" 
d="M109 -205l862 1721h377l-861 -1721h-378z" />
    <glyph glyph-name="zero" unicode="0" 
d="M168 547l80 422q23 126 80.5 227.5t130 164.5t158.5 106t162.5 60t146.5 17q52 0 107 -11.5t115.5 -38t107.5 -69.5t84.5 -107t46 -150.5t-8.5 -198.5l-80 -422q-22 -122 -76 -221.5t-123 -164t-151.5 -108.5t-161 -63t-153.5 -19q-58 0 -117 13t-120 41.5t-108.5 73
t-83 108.5t-44.5 148.5t8 191.5zM637 979l-82 -442q-10 -34 -7.5 -73.5t12 -73.5t43.5 -56.5t87 -22.5q37 0 68 11t51.5 25t39 40t27.5 41.5t18.5 45t10.5 35.5t6 28l82 442q38 225 -137 225q-44 0 -80.5 -16t-59.5 -39.5t-40 -55.5t-25.5 -59t-13.5 -55z" />
    <glyph glyph-name="one" unicode="1" 
d="M461 0l221 1190h-248l60 326h634l-280 -1516h-387z" />
    <glyph glyph-name="two" unicode="2" 
d="M104 0l56 301q174 125 471 344q68 49 104.5 76.5t83.5 69.5t72 75t47 76.5t31 91.5q16 86 -20.5 128t-110.5 42q-38 0 -69.5 -14.5t-52 -37t-37 -56t-25.5 -63.5t-17 -68h-369q13 55 20.5 81.5t25.5 78.5t45 98t65 90q58 71 132 120t146 71.5t126.5 31t105.5 8.5
q123 0 215.5 -39t143 -104.5t68.5 -149t1 -176.5q-26 -143 -100.5 -254t-241.5 -241q-81 -64 -326 -254h539l-59 -326h-1070z" />
    <glyph glyph-name="three" unicode="3" 
d="M688 1073h-381q53 247 254 371q155 100 352 100q107 0 191.5 -34.5t134 -92.5t68.5 -132.5t4 -154.5q-8 -43 -24.5 -82t-32.5 -66.5t-43 -55t-43 -41.5t-46 -32.5t-37 -22.5t-32 -17q55 -20 96 -48.5t65 -57t38.5 -63.5t19.5 -62t4.5 -58.5t-3 -46t-5.5 -31.5
q-24 -129 -121 -239t-238 -173t-291 -63q-91 0 -174 22.5t-153 71.5t-105 119q-47 94 -34 269h391q1 -17 2.5 -29t10 -35t23 -38t43.5 -27t68 -13q82 0 133.5 47t65.5 123q8 41 -3 71t-31 45.5t-49.5 24.5t-50 11t-42.5 2h-138l54 285h65q190 0 219 151q10 55 -9.5 94
t-72.5 39q-115 0 -143 -131z" />
    <glyph glyph-name="four" unicode="4" 
d="M698 0l50 266h-668l53 283l856 967h361l-174 -947h167l-57 -303h-168l-49 -266h-371zM526 569h303l89 475z" />
    <glyph glyph-name="five" unicode="5" 
d="M518 1516h838l-60 -326h-540l-72 -207q28 14 49.5 22.5t64.5 15.5t99 7q74 0 137.5 -17t107.5 -47t79.5 -70t54.5 -86t31 -95.5t10 -98.5t-8 -94q-13 -72 -47.5 -146t-94.5 -147.5t-136.5 -130.5t-182 -92t-223.5 -35q-119 0 -214.5 34.5t-156.5 94.5t-93 138.5
t-32 169.5h389q21 -40 62.5 -67.5t97.5 -27.5q84 0 155.5 59t86.5 142q15 79 -29.5 139t-140.5 60q-139 0 -224 -131l-299 77z" />
    <glyph glyph-name="six" unicode="6" 
d="M840 1516h448l-344 -375q-12 -14 -37 -41t-37 -41q1 -1 14 0l32.5 2.5t31.5 1.5q68 0 131 -20.5t117.5 -61.5t90.5 -102.5t49.5 -144t-5.5 -185.5q-32 -169 -137.5 -302t-252.5 -204.5t-306 -71.5q-145 0 -259 53t-171 152q-36 52 -54 121.5t-16.5 133t10.5 126.5
q35 187 215 406zM520 522v-2q-19 -97 34 -153t132 -56q88 0 161.5 58t90.5 147q15 80 -31.5 143.5t-144.5 63.5q-90 0 -158 -59.5t-84 -141.5z" />
    <glyph glyph-name="seven" unicode="7" 
d="M414 1516h987l-55 -297l-758 -1219h-426l780 1190h-588z" />
    <glyph glyph-name="eight" unicode="8" 
d="M328 1122v2q14 78 59.5 151.5t117.5 134.5t180 97.5t235 36.5t221 -36.5t143.5 -98t67.5 -135t4 -152.5q-9 -48 -29.5 -92t-39.5 -71t-49.5 -56t-44.5 -40t-40 -29q172 -94 123 -353q-41 -223 -223 -366.5t-426 -143.5t-371 143t-86 367q49 260 250 353q-15 15 -19.5 20
t-21 24t-23 32.5t-17.5 38.5t-14.5 48.5t-3.5 56.5t7 68zM696 1092v-2q-12 -59 22 -98.5t91 -39.5t105.5 40t60.5 100q10 60 -24 99.5t-91 39.5t-105.5 -39.5t-58.5 -99.5zM557 483v-2q-11 -64 24.5 -117t108.5 -53q74 0 131 53.5t68 118.5q11 67 -24.5 120.5t-110.5 53.5
t-130.5 -53.5t-66.5 -120.5z" />
    <glyph glyph-name="nine" unicode="9" 
d="M711 0h-449l344 375q49 52 74 82q0 1 -13 0t-33 -2.5t-32 -1.5q-68 0 -131 20.5t-117.5 61.5t-90.5 102.5t-49.5 144t5.5 185.5q32 169 137.5 302t252 204t306.5 71q145 0 259.5 -53t171.5 -152q36 -52 53.5 -121.5t16 -133t-10.5 -126.5q-36 -191 -215 -405zM1030 995v2
q19 96 -35 151.5t-135 55.5q-85 0 -157 -57t-89 -146q-15 -81 29.5 -143.5t140.5 -62.5q92 0 161 59t85 141z" />
    <glyph glyph-name="colon" unicode=":" horiz-adv-x="643" 
d="M711 1137l-66 -349h-354l65 349h355zM565 348l-65 -348h-355l66 348h354z" />
    <glyph glyph-name="semicolon" unicode=";" horiz-adv-x="643" 
d="M711 1137l-66 -349h-354l65 349h355zM565 348l-321 -512h-260l227 512h354z" />
    <glyph glyph-name="less" unicode="&#x3c;" horiz-adv-x="1228" 
d="M219 676l1122 438l-67 -358l-739 -240l651 -235l-66 -359l-958 438z" />
    <glyph glyph-name="equal" unicode="=" horiz-adv-x="1228" 
d="M274 952h1033l-60 -327h-1032zM174 412h1032l-59 -328h-1032z" />
    <glyph glyph-name="greater" unicode="&#x3e;" horiz-adv-x="1228" 
d="M145 281l742 239l-654 236l68 358l959 -438l-58 -316l-1122 -438z" />
    <glyph glyph-name="question" unicode="?" horiz-adv-x="1212" 
d="M829 481h-356q20 100 83 177t196 184q90 74 131.5 125.5t50.5 99.5q10 59 -13 93t-83 34q-76 0 -113.5 -43t-54.5 -111q-2 -7 -5.5 -21.5t-5.5 -21.5h-374q2 16 6 37q40 221 219 365.5t414 144.5q77 0 143.5 -18t113 -49.5t82.5 -73.5t52.5 -90t23 -100t-5.5 -103
q-8 -45 -24.5 -86.5t-43 -79.5t-49 -66t-61 -62.5t-61 -53t-66.5 -53.5q-111 -88 -148.5 -132.5t-50.5 -95.5zM805 348l-66 -348h-356l66 348h356z" />
    <glyph glyph-name="at" unicode="@" horiz-adv-x="1531" 
d="M1278 229l8 -188q-219 -74 -489 -74q-124 0 -227.5 26.5t-176 72.5t-127 108.5t-85.5 132.5t-46.5 147.5t-15 150.5t13.5 143q29 153 112.5 297t205.5 256t287.5 179.5t344.5 67.5q158 0 284.5 -52.5t203.5 -143t107.5 -213.5t4.5 -262q-27 -145 -106.5 -273t-186 -203
t-210.5 -75q-149 0 -172 147q-67 -83 -130.5 -115t-142.5 -32q-132 0 -204.5 103.5t-43.5 258.5q15 80 60 161.5t108 148t147 108t171 41.5q79 0 125.5 -35t54.5 -86l39 96h213l-160 -446q-4 -11 -17 -49t-16 -49q-14 -60 45 -60q60 0 133.5 106.5t100.5 249.5
q26 141 -21.5 253t-155.5 173.5t-257 61.5q-132 0 -256 -52.5t-217 -139t-157.5 -198t-86.5 -229.5q-7 -40 -9.5 -84t4 -103t23.5 -113t54 -108t90 -93t137.5 -63.5t191.5 -24.5q226 0 447 75zM709 696v-2q-17 -89 21 -132.5t99 -43.5q57 0 108 37.5t85 101.5q34 66 45 131
q5 39 2 76t-30.5 63.5t-75.5 26.5q-86 0 -160.5 -78.5t-93.5 -179.5z" />
    <glyph glyph-name="A" unicode="A" horiz-adv-x="1552" 
d="M549 219l-111 -219h-420l881 1516h334l301 -1516h-424l-31 219h-530zM1036 526l-73 529l-261 -529h334z" />
    <glyph glyph-name="B" unicode="B" horiz-adv-x="1325" 
d="M137 0l281 1516h557q236 0 348 -103q117 -102 80 -295q-16 -92 -75 -173t-157 -132q227 -86 185 -352q-18 -95 -71 -185t-130 -145q-117 -84 -217.5 -107.5t-302.5 -23.5h-498zM741 1176l-43 -236h138q67 0 104 14q69 28 82 107q13 76 -41 100q-33 15 -102 15h-138z
M639 616l-51 -276h182q74 0 117 18q84 32 102 127q16 87 -53 115q-35 16 -115 16h-182z" />
    <glyph glyph-name="C" unicode="C" horiz-adv-x="1703" 
d="M1339 567h406q-76 -177 -212.5 -312.5t-309.5 -209.5t-355 -74q-100 0 -189.5 22t-160.5 62.5t-129.5 97t-96.5 125t-62 147t-25.5 163t12.5 172.5q27 146 108.5 286t201.5 251t285 179t345 68q136 0 250.5 -40t188.5 -104t125.5 -145t73 -160.5t20.5 -154.5h-406
q-10 47 -31 90t-57 84t-95.5 65.5t-133.5 24.5q-94 0 -180 -38.5t-147.5 -102t-103.5 -141.5t-57 -160q-22 -116 7.5 -218t112.5 -167.5t204 -65.5q68 0 132.5 22.5t107 51.5t82 70t57 64.5t32.5 47.5z" />
    <glyph glyph-name="D" unicode="D" horiz-adv-x="1519" 
d="M137 0l281 1516h502q51 0 81 -0.5t89.5 -6t100 -15.5t96 -31t96.5 -50t83 -75t72 -105q104 -190 51 -471q-24 -128 -69.5 -238.5t-122 -208t-178 -166.5t-242.5 -109t-309 -40h-531zM741 1176l-153 -836h166q104 0 185 34t132.5 94.5t82 131t46.5 156.5q31 167 -20 280
q-68 140 -271 140h-168z" />
    <glyph glyph-name="E" unicode="E" horiz-adv-x="1081" 
d="M137 0l281 1516h858l-64 -340h-471l-43 -236h457l-63 -340h-457l-47 -260h471l-64 -340h-858z" />
    <glyph glyph-name="F" unicode="F" horiz-adv-x="1036" 
d="M137 0l281 1516h827l-63 -340h-441l-47 -258h424l-63 -340h-424l-107 -578h-387z" />
    <glyph glyph-name="G" unicode="G" horiz-adv-x="1748" 
d="M1827 1008h-434q-18 55 -62 102q-91 94 -235 94q-74 0 -150.5 -27.5t-147.5 -79.5t-124.5 -139t-73.5 -194q-21 -114 0 -204t73 -143t118.5 -80.5t140.5 -27.5q139 0 250 68q102 60 157 176h-452l57 309h899q-11 -96 -48.5 -214.5t-100.5 -219.5q-75 -120 -180.5 -212
t-217.5 -144t-219.5 -77.5t-206.5 -25.5q-169 0 -307 63.5t-224 170.5t-121 253.5t-5 307.5q41 222 184 401.5t347 279t425 99.5q133 0 251 -42.5t203.5 -115.5t139 -171t64.5 -207z" />
    <glyph glyph-name="H" unicode="H" horiz-adv-x="1544" 
d="M524 0h-387l281 1516h387l-105 -570h496l104 570h388l-281 -1516h-387l113 606h-496z" />
    <glyph glyph-name="I" unicode="I" horiz-adv-x="661" 
d="M137 0l281 1516h387l-281 -1516h-387z" />
    <glyph glyph-name="J" unicode="J" horiz-adv-x="1183" 
d="M1325 1516l-170 -916q-46 -250 -115 -360q-35 -52 -90.5 -102t-111.5 -79q-152 -88 -322 -88q-12 0 -24.5 0.5t-44 4t-59.5 10t-66 21t-69 33.5t-63 50t-53 69.5t-34 93t-11 118.5q0 65 10 116h412q-1 -7 -2 -22t-2 -23q-9 -131 88 -131q79 0 115 70q18 33 39 123
l186 1012h387z" />
    <glyph glyph-name="K" unicode="K" horiz-adv-x="1447" 
d="M178 0l281 1516h387l-127 -682l559 682h405l-639 -754l410 -762h-471l-297 655l-121 -655h-387z" />
    <glyph glyph-name="L" unicode="L" horiz-adv-x="997" 
d="M147 0l281 1516h387l-217 -1176h449l-64 -340h-836z" />
    <glyph glyph-name="M" unicode="M" horiz-adv-x="1873" 
d="M494 0h-357l281 1516h518l104 -977l457 977h520l-280 -1516h-357l224 1135l-539 -1135h-256l-117 1135z" />
    <glyph glyph-name="N" unicode="N" horiz-adv-x="1554" 
d="M752 1516l411 -924l162 924h371l-281 -1516h-336l-409 913l-162 -913h-371l281 1516h334z" />
    <glyph glyph-name="O" unicode="O" horiz-adv-x="1742" 
d="M209 739v2q27 145 93.5 273.5t160 224t206.5 165t238 105t250 35.5q171 0 309.5 -63.5t223 -171t118 -251t4.5 -300.5q-30 -157 -116.5 -301t-211 -251t-287.5 -171t-335 -64q-100 0 -190 22t-160.5 62t-129.5 95.5t-96.5 122.5t-62 143.5t-26 157.5t11.5 165zM600 762
v-2q-22 -117 8.5 -218.5t115.5 -166t210 -64.5q98 0 186 41.5t149 108t100.5 143t53.5 152.5q11 49 8 101.5t-14 102t-39 94t-65 78t-93 53t-124 19.5q-97 0 -184.5 -39t-150 -102.5t-104.5 -141.5t-57 -159z" />
    <glyph glyph-name="P" unicode="P" horiz-adv-x="1302" 
d="M418 1516h495q197 0 293 -27t154 -84q74 -72 100 -177.5t4 -223.5q-22 -116 -86 -226.5t-147 -171.5q-97 -70 -197.5 -100.5t-269.5 -30.5h-152l-88 -475h-387zM741 1176l-65 -361h141q99 0 154 23q100 42 121 159q20 115 -68 156q-49 23 -156 23h-127z" />
    <glyph glyph-name="Q" unicode="Q" horiz-adv-x="1773" 
d="M1802 281l-55 -308q-62 -4 -98 -4q-138 0 -218.5 37t-115.5 82q-215 -119 -449 -119q-103 0 -194.5 23t-162 64.5t-129 98.5t-95.5 125.5t-61 146t-25 159t12 164.5q28 149 111 291.5t204.5 254.5t286.5 180t342 68q103 0 195 -22.5t163.5 -63t131.5 -97t98 -124.5
t63 -144.5t26.5 -158t-11.5 -164.5q-13 -72 -36 -138t-42 -107t-49.5 -87t-42.5 -61t-37 -45q27 -30 70.5 -40.5t117.5 -10.5zM1094 1204h-2q-135 0 -252.5 -77.5t-188.5 -215.5q-2 -5 -12 -26.5t-14 -34.5q2 0 22 6.5t28 8.5t28.5 7.5t35 8t35.5 6t41 5t41 1.5
q89 0 160.5 -22.5t142.5 -79.5q109 -88 197 -213q57 77 78 192q18 98 -1 180.5t-66.5 137.5t-118 85.5t-154.5 30.5zM926 309h2q99 0 159 31q-48 79 -104 135q-90 90 -227 90q-86 0 -146 -22q26 -111 119.5 -172.5t196.5 -61.5z" />
    <glyph glyph-name="R" unicode="R" horiz-adv-x="1337" 
d="M137 0l281 1516h495q330 0 449 -109q80 -72 106 -179t2 -235q-30 -155 -127 -274q-88 -107 -227 -162l211 -557h-399l-260 731h63q171 0 242 41q41 24 75 74.5t46 111.5q10 58 -6.5 104.5t-51.5 72.5q-59 41 -151 41h-144l-217 -1176h-387z" />
    <glyph glyph-name="S" unicode="S" horiz-adv-x="1173" 
d="M143 502h385q-12 -52 -5 -89t19 -60t33.5 -36t39 -17.5t34.5 -4.5q66 0 115 44.5t59 100.5q10 55 -35.5 88.5t-210.5 108.5q-9 4 -14 6q-133 58 -199 123q-125 125 -92 311q21 110 85 201t151.5 147.5t186.5 87.5t196 31q67 0 130.5 -13.5t125.5 -47.5t104.5 -86
t61 -135.5t0.5 -188.5h-383q-1 16 0.5 35t-5 39t-17 36.5t-34 27t-57.5 10.5q-53 0 -98.5 -33.5t-54.5 -85.5q-10 -50 33 -82t241 -129q126 -62 192.5 -130t81 -141.5t-1.5 -162.5q-14 -76 -42.5 -144t-79 -131.5t-118 -109.5t-165 -73.5t-213.5 -27.5q-97 0 -175 18.5
t-132 53t-90 82.5t-52 107.5t-16 127t16 142.5z" />
    <glyph glyph-name="T" unicode="T" horiz-adv-x="1021" 
d="M319 0l218 1176h-299l63 340h983l-63 -340h-297l-217 -1176h-388z" />
    <glyph glyph-name="U" unicode="U" horiz-adv-x="1429" 
d="M414 1516h387l-170 -916q-20 -125 -6 -182q25 -107 149 -107q128 0 187 99q37 60 59 190l170 916h387l-170 -916q-33 -180 -89 -283t-149 -182q-192 -164 -454 -164q-48 0 -97.5 7t-108 23t-112 50t-88.5 82q-73 100 -85.5 201.5t20.5 265.5z" />
    <glyph glyph-name="V" unicode="V" horiz-adv-x="1478" 
d="M539 0l-226 1516h398l110 -1063l506 1063h399l-788 -1516h-399z" />
    <glyph glyph-name="W" unicode="W" horiz-adv-x="2009" 
d="M424 0l-111 1516h394l24 -986l406 986h297l41 -990l389 990h391l-682 -1516h-340l-49 981l-410 -981h-350z" />
    <glyph glyph-name="X" unicode="X" horiz-adv-x="1554" 
d="M23 0l679 807l-337 709h438l180 -433l332 433h436l-596 -717l377 -799h-438l-228 537l-411 -537h-432z" />
    <glyph glyph-name="Y" unicode="Y" horiz-adv-x="1325" 
d="M471 0l102 551l-274 965h420l112 -609l340 609h416l-626 -965l-103 -551h-387z" />
    <glyph glyph-name="Z" unicode="Z" horiz-adv-x="1021" 
d="M1212 1202l-643 -862h484l-64 -340h-956l47 254l692 922h-522l63 340h957z" />
    <glyph glyph-name="bracketleft" unicode="[" horiz-adv-x="968" 
d="M791 -164l-52 -274h-626l362 1954h627l-51 -275h-299l-260 -1405h299z" />
    <glyph glyph-name="backslash" unicode="\" horiz-adv-x="1214" 
d="M649 -205l-221 1721h377l223 -1721h-379z" />
    <glyph glyph-name="bracketright" unicode="]" horiz-adv-x="968" 
d="M66 -438l51 274h299l260 1405h-299l51 275h627l-363 -1954h-626z" />
    <glyph glyph-name="asciicircum" unicode="^" horiz-adv-x="1228" 
d="M229 768l496 748h340l217 -748h-369l-73 457l-244 -457h-367z" />
    <glyph glyph-name="underscore" unicode="_" horiz-adv-x="1024" 
d="M977 -256h-1024l18 102h1024z" />
    <glyph glyph-name="grave" unicode="`" horiz-adv-x="1136" 
d="M649 1718l449 -262l-131 -199l-465 222z" />
    <glyph glyph-name="a" unicode="a" horiz-adv-x="1441" 
d="M1528 1137l-211 -1137h-340l22 123q-59 -79 -159 -120.5t-207 -41.5q-106 0 -192 32t-142 88t-92 133t-41.5 166.5t10.5 188.5q25 136 92.5 251.5t160.5 192.5t204 120t225 43q126 0 201 -47.5t106 -112.5l23 121h340zM514 565v-2q-6 -26 -3.5 -57t9 -62.5t25.5 -61.5
t44 -52.5t65 -36.5t89 -14q160 0 263 127q50 61 73 145q19 79 -2 149q-47 158 -227 158q-70 0 -130.5 -27.5t-101.5 -71t-67.5 -93.5t-36.5 -101z" />
    <glyph glyph-name="b" unicode="b" horiz-adv-x="1419" 
d="M123 0l280 1516h340l-71 -383l-15 -86q143 129 353 129q74 0 145.5 -21t138 -66.5t110 -116t61.5 -169.5t-7 -228q-22 -119 -73 -220.5t-119 -173t-151 -122t-170 -74.5t-175 -24q-113 0 -192.5 46.5t-106.5 113.5l-22 -121h-326zM1118 569v2q21 114 -41.5 200.5
t-183.5 86.5q-128 0 -222 -87t-114 -200q-24 -122 36.5 -207t184.5 -85q126 0 221.5 86.5t118.5 203.5z" />
    <glyph glyph-name="c" unicode="c" horiz-adv-x="1335" 
d="M1006 432h346q-85 -201 -272 -335t-410 -134q-169 0 -294 81t-179 220.5t-23 306.5q30 165 134 304t257 220t320 81q225 0 367 -134t147 -344h-344q-47 160 -215 160q-117 6 -213 -80q-90 -87 -111 -209q-24 -126 35.5 -207t179.5 -81q169 0 275 151z" />
    <glyph glyph-name="d" unicode="d" horiz-adv-x="1429" 
d="M1587 1516l-280 -1516h-324l23 123q-140 -160 -373 -160q-168 0 -284 80.5t-160 218.5t-13 309q21 112 70 210t115.5 169.5t147 123t167.5 77t174 25.5q70 0 126.5 -14.5t94.5 -41.5t53 -41.5t35 -38.5l23 123l65 353h340zM516 573v-2q-24 -129 41.5 -209.5t187.5 -80.5
q126 0 228 86q104 88 119 211q23 119 -48 200q-64 80 -186 80q-137 0 -229 -87.5t-113 -197.5z" />
    <glyph glyph-name="e" unicode="e" horiz-adv-x="1323" 
d="M1331 451h-846q-6 -89 59 -145t167 -56q133 0 225 106h348q-115 -187 -285 -290q-161 -103 -342 -103q-120 0 -222 47t-169 127t-94.5 192t-5.5 236q22 118 87.5 229t158.5 195.5t214.5 135.5t247.5 51q128 0 230 -47.5t168 -133.5q162 -217 59 -544zM537 709h507
q1 18 -5 39.5t-21.5 47t-39.5 46t-64.5 34t-90.5 13.5q-62 0 -115.5 -20t-87.5 -50.5t-54.5 -58.5t-28.5 -51z" />
    <glyph glyph-name="f" unicode="f" horiz-adv-x="643" 
d="M135 0l164 879h-127l47 258h127l8 49q15 80 44.5 141t73 99t89.5 62.5t109 36t114.5 15.5t120.5 4l-47 -256q-22 0 -33 -0.5t-32 -3t-33.5 -9.5t-27.5 -18.5t-24 -31t-14 -45.5l-8 -43h143l-47 -258h-143l-164 -879h-340z" />
    <glyph glyph-name="g" unicode="g" horiz-adv-x="1419" 
d="M1511 1137l-186 -1000q-25 -136 -54.5 -221t-80.5 -154q-92 -115 -259.5 -191.5t-367.5 -76.5q-113 0 -203 26.5t-143.5 67.5t-88.5 95.5t-47.5 106.5t-10.5 104h393q18 -70 90 -99q39 -14 88 -14q51 0 101 16t97 47.5t82 86.5t48 126l12 68q-49 -63 -136.5 -112.5
t-207.5 -49.5q-116 0 -212.5 42.5t-160.5 119t-89.5 190t-0.5 246.5q26 141 95.5 259t164 194t204.5 118t222 42q100 0 178.5 -36.5t112.5 -107.5l20 107h340zM516 573v-2q-25 -130 40.5 -210t176.5 -80q123 0 213 77t117 197q25 134 -33 213q-53 88 -188 88
q-111 0 -207 -80.5t-119 -202.5z" />
    <glyph glyph-name="h" unicode="h" horiz-adv-x="1294" 
d="M123 0l280 1516h340l-63 -340l-27 -144q116 144 324 144q239 0 309 -162q56 -128 6 -379l-116 -635h-340l114 618q20 108 -4 166q-33 72 -135 72q-120 0 -182 -92q-31 -46 -49 -133l-117 -631h-340z" />
    <glyph glyph-name="i" unicode="i" horiz-adv-x="585" 
d="M356 1257l47 259h340l-47 -259h-340zM123 0l211 1137h340l-211 -1137h-340z" />
    <glyph glyph-name="j" unicode="j" horiz-adv-x="657" 
d="M412 1257l47 259h340l-47 -259h-340zM729 1137l-207 -1112q-13 -72 -28.5 -125t-41 -106.5t-61.5 -89.5t-87 -65t-122.5 -43t-163.5 -14h-84l50 258h45q42 0 71 14t44.5 43t22 52t13.5 63l209 1125h340z" />
    <glyph glyph-name="k" unicode="k" horiz-adv-x="1210" 
d="M135 0l281 1516h340l-146 -791l396 412h403l-520 -500l297 -637h-385l-226 547l-100 -547h-340z" />
    <glyph glyph-name="l" unicode="l" horiz-adv-x="585" 
d="M123 0l280 1516h340l-280 -1516h-340z" />
    <glyph glyph-name="m" unicode="m" horiz-adv-x="1984" 
d="M123 0l211 1137h317l-22 -121q29 41 84 80q111 80 262 80q158 0 242 -109q35 -49 49 -94q51 62 100 98q134 105 297 105q190 0 279 -115q63 -83 70 -168t-30 -272l-114 -621h-340l112 604q19 110 7 160q-17 92 -136 92t-180 -94q-35 -50 -51 -141l-115 -621h-340l115 618
q17 87 6 142q-22 96 -133 96q-122 0 -186 -100q-36 -56 -52 -152l-112 -604h-340z" />
    <glyph glyph-name="n" unicode="n" horiz-adv-x="1294" 
d="M123 0l211 1137h317l-22 -121q23 25 35.5 38.5t46.5 40.5t66.5 41.5t84 27t109.5 12.5q79 0 140.5 -18t99 -47t62.5 -70t35 -82t12 -89t-2 -84.5t-11 -74.5l-131 -711h-340l114 621q10 64 9 116.5t-36.5 85.5t-107.5 33q-49 0 -87 -14t-62.5 -35.5t-42.5 -54.5
t-27.5 -63.5t-17.5 -70.5l-115 -618h-340z" />
    <glyph glyph-name="o" unicode="o" horiz-adv-x="1363" 
d="M176 569v2q16 85 54.5 169t103 162.5t146 139t190.5 96.5t229 36q86 0 160.5 -19t129 -52.5t98 -79t68.5 -99t41 -113.5t15 -121t-10 -121q-16 -85 -55.5 -169.5t-104 -163.5t-146 -139t-190.5 -96t-229 -36q-86 0 -160.5 19t-129 52t-98 79t-68.5 99.5t-40.5 113
t-14 120.5t10.5 121zM516 569l-2 -2q-21 -121 44 -202.5t177 -81.5t207.5 82t118.5 204t-43 204.5t-178 82.5t-206.5 -82t-117.5 -205z" />
    <glyph glyph-name="p" unicode="p" horiz-adv-x="1427" 
d="M53 -379l281 1516h319l-22 -125q168 164 389 164q84 0 153.5 -20.5t118.5 -56t85.5 -84t57 -104t30 -116.5t8 -120.5t-12.5 -117.5q-22 -122 -83.5 -231.5t-148.5 -190t-199.5 -127.5t-231.5 -47q-58 0 -108.5 11t-81.5 25.5t-59.5 37t-40.5 35.5t-26 32l-18 -102
l-70 -379h-340zM1122 567l2 2q13 69 -6 133.5t-78 110t-147 45.5q-122 0 -221 -86q-95 -82 -119 -207q-22 -124 45 -203q67 -83 186 -83q127 0 221.5 87t116.5 201z" />
    <glyph glyph-name="q" unicode="q" horiz-adv-x="1429" 
d="M1518 1137l-281 -1516h-340l70 379l22 117q-28 -28 -53 -48t-72 -47.5t-111.5 -43t-140.5 -15.5q-158 0 -269.5 78t-156.5 211t-16 295q27 144 95 263.5t160.5 199t204 123t228.5 43.5q63 0 115.5 -14t83 -31t57 -44.5t35.5 -41t20 -33.5l23 125h326zM514 561v-2
q-12 -63 6 -124.5t77 -107.5t151 -46q117 0 217 84q97 81 118 200q28 122 -41 207q-70 86 -190 86q-130 0 -223 -88.5t-115 -208.5z" />
    <glyph glyph-name="r" unicode="r" horiz-adv-x="743" 
d="M121 0l211 1137h319l-24 -127q19 26 32 41.5t43 42.5t60 42t79 27.5t105 12.5l-63 -342h-13q-132 0 -203 -52.5t-94 -171.5l-112 -610h-340z" />
    <glyph glyph-name="s" unicode="s" horiz-adv-x="1021" 
d="M1092 817h-334q3 9 0.5 24t-7.5 28.5t-26.5 23.5t-56.5 10q-49 0 -77.5 -24t-33.5 -52q-7 -35 35.5 -61.5t118.5 -50.5q36 -10 55.5 -16t53 -17.5t52.5 -20.5t46.5 -23.5t43 -29t35 -33.5t28 -41.5t16 -49t7 -58.5t-7.5 -68q-22 -121 -102.5 -213t-193.5 -138t-240 -46
q-56 0 -109.5 10t-109 37t-95.5 68t-62 108.5t-15 153.5h338q-2 -29 8 -50.5t23 -31.5t31.5 -16t27.5 -6.5t18 -0.5q46 0 87 25t48 64q8 43 -23.5 65t-135.5 63q-68 27 -109 44q-114 38 -174.5 113t-40.5 184q21 114 98 203.5t185 135.5t227 46q50 0 99 -8t103.5 -32.5
t93.5 -62.5t61 -104t14 -152z" />
    <glyph glyph-name="t" unicode="t" horiz-adv-x="718" 
d="M190 0l164 879h-168l47 258h168l70 379h340l-70 -379h164l-47 -258h-164l-164 -879h-340z" />
    <glyph glyph-name="u" unicode="u" horiz-adv-x="1298" 
d="M1386 1137l-210 -1137h-318l23 121q-22 -25 -35.5 -39t-47.5 -40t-67 -41t-85.5 -27.5t-110.5 -12.5q-80 0 -141.5 18t-99 47t-62 70t-35 81.5t-12 89t2.5 84.5t11 75l131 711h340l-115 -621q-10 -52 -10.5 -90.5t11 -73t45 -53t89.5 -18.5q61 0 105.5 19.5t71 56t41 74
t24.5 87.5l115 619h339z" />
    <glyph glyph-name="v" unicode="v" horiz-adv-x="1212" 
d="M1389 1137l-621 -1137h-326l-196 1137h352l88 -709l350 709h353z" />
    <glyph glyph-name="w" unicode="w" horiz-adv-x="1740" 
d="M362 0l-137 1137h353l43 -707l317 707h287l61 -707l301 707h350l-559 -1137h-315l-57 735l-328 -735h-316z" />
    <glyph glyph-name="x" unicode="x" horiz-adv-x="1290" 
d="M2 0l545 608l-285 529h408l129 -299l237 299h404l-482 -529l328 -608h-416l-161 352l-297 -352h-410z" />
    <glyph glyph-name="y" unicode="y" horiz-adv-x="1175" 
d="M174 -379l260 436l-221 1080h362l109 -660l340 660h360l-849 -1516h-361z" />
    <glyph glyph-name="z" unicode="z" horiz-adv-x="909" 
d="M31 0l43 233l600 646h-479l47 258h845l-47 -258l-561 -621h445l-47 -258h-846z" />
    <glyph glyph-name="braceleft" unicode="{" horiz-adv-x="1134" 
d="M1270 1516l-47 -259h-113q-39 0 -67 -12t-43 -34.5t-21.5 -41.5t-11.5 -45l-80 -428q-11 -55 -42 -97.5t-67.5 -65t-71.5 -36t-58 -19.5l-23 -5q24 -1 49 -6.5t54 -18.5t49 -33t30.5 -53.5t3.5 -76.5l-82 -435q-4 -20 -5 -35t2 -35t13 -32.5t31 -21.5t53 -9h113l-47 -258
h-262q-62 0 -113.5 17t-90 50t-54 89t-2.5 127l79 434q6 32 -6 56t-32.5 37t-49 20.5t-49 9.5t-39.5 2l66 352q25 0 53.5 5t66.5 17.5t67 42.5t38 73l82 442q25 139 129.5 211t235.5 72h262z" />
    <glyph glyph-name="bar" unicode="|" horiz-adv-x="1001" 
d="M504 1765h278v-2353h-278v2353z" />
    <glyph glyph-name="braceright" unicode="}" horiz-adv-x="1134" 
d="M379 1257l47 259h262q62 0 113.5 -17t90 -50t55 -89t3.5 -127l-82 -442q-9 -43 8.5 -73t51 -42.5t60.5 -17.5t52 -5l-65 -352q-25 0 -53.5 -4t-66.5 -15.5t-66 -39t-35 -66.5l-80 -434q-18 -94 -76.5 -160t-132.5 -94.5t-158 -28.5h-262l47 258h113q39 0 67 12t43 34.5
t21.5 41.5t11.5 45l82 435q8 42 37.5 77t65.5 56t71 35t60 21l24 7q-14 1 -23.5 2t-26 3.5t-28 6.5t-27.5 10t-26.5 14.5t-22 20t-18 27t-11.5 34.5t-4.5 43.5t5.5 53.5l80 428q4 20 5 35t-2 35t-13 32.5t-31 21.5t-53 9h-113z" />
    <glyph glyph-name="asciitilde" unicode="~" horiz-adv-x="1228" 
d="M1161 772l15 -323q-42 -45 -65 -67.5t-63 -54t-81 -45.5t-86 -14q-85 0 -197 68q-111 72 -221 72q-61 0 -109 -39t-94 -103l-14 320q60 82 130 132t163 50q81 0 217 -66q13 -6 41 -20t43 -20.5t37 -15.5t39.5 -13t33.5 -4q38 0 79 24t65.5 48t66.5 71z" />
    <glyph glyph-name="uni00A0" unicode="&#xa0;" horiz-adv-x="632" 
 />
    <glyph glyph-name="exclamdown" unicode="&#xa1;" horiz-adv-x="681" 
d="M311 788l66 349h350l-65 -349h-351zM96 -379l189 1016h350l-189 -1016h-350z" />
    <glyph glyph-name="cent" unicode="&#xa2;" 
d="M786 63h-280l39 216q-67 24 -119 60.5t-82.5 78.5t-50.5 87t-26.5 92.5t-6 87.5t7.5 79q10 55 33 111.5t62 115.5t89.5 109.5t121.5 93t153 66.5l39 215h268l-37 -207q84 -24 147.5 -73t96.5 -107.5t47.5 -116.5t9.5 -111h-352q-15 38 -50.5 60t-80.5 22q-70 0 -132 -50
t-77 -124q-12 -71 30 -121.5t116 -50.5q84 0 149 70h361q-46 -128 -162 -240.5t-275 -146.5z" />
    <glyph glyph-name="sterling" unicode="&#xa3;" 
d="M1004 854l-50 -272h-157q25 -38 36.5 -70t4.5 -72q-6 -31 -24.5 -58t-35 -41.5t-47.5 -37.5h84q66 0 109 21q70 36 86 118q5 25 0 74h329q9 -72 -2 -131q-11 -54 -45.5 -119t-93.5 -121q-149 -145 -381 -145h-727l55 303h101q42 0 72.5 4t61 14.5t49 34t24.5 58.5
q5 25 -1 53.5t-13 43.5t-23 43l-17 28h-262l49 272h99q-42 85 -21 193q16 90 70 178t135 160t194.5 116.5t237.5 44.5q224 0 350 -137.5t92 -368.5h-356q12 166 -143 166q-73 0 -128.5 -52.5t-66.5 -117.5q-4 -41 -5.5 -65t7.5 -50t15.5 -38t17.5 -29h320z" />
    <glyph glyph-name="currency" unicode="&#xa4;" 
d="M1114 78l-137 170q-152 -90 -315 -90q-158 0 -281 90l-201 -168l-135 164l207 174q-56 124 -29 278q30 161 142 293l-150 176l201 168l145 -180q145 82 301 82q153 0 266 -80l211 176l134 -166l-205 -174q61 -135 32 -295q-26 -147 -129 -278l140 -172zM541 698v-2
q-17 -91 35.5 -157t144.5 -66q91 0 168 66t94 159t-34 159.5t-144 66.5t-170 -67t-94 -159z" />
    <glyph glyph-name="yen" unicode="&#xa5;" 
d="M1423 1071l-53 -283h-348l-72 -100l-10 -61h401l-53 -285h-403l-64 -342h-381l64 342h-402l54 285h401l10 55l-35 106h-344l54 283h202l-161 445h409l133 -486l318 486h403l-321 -445h198z" />
    <glyph glyph-name="brokenbar" unicode="&#xa6;" horiz-adv-x="1001" 
d="M504 1589h278v-823h-278v823zM504 412h278v-822h-278v822z" />
    <glyph glyph-name="section" unicode="&#xa7;" horiz-adv-x="1372" 
d="M1405 1122h-334q-11 119 -158 119q-23 0 -45 -4t-48 -14.5t-45 -33.5t-25 -56q-5 -31 12.5 -56.5t36.5 -37t51 -27.5l340 -168q19 -9 32.5 -16.5t33.5 -19.5t34 -24t31 -29t28.5 -35t22 -41.5t15 -49t4 -58t-6.5 -67.5q-9 -46 -28.5 -88.5t-39 -71.5t-54 -63t-55 -52
t-60.5 -49q14 -25 21.5 -39.5t19 -45t15.5 -57t3.5 -66t-8.5 -81.5q-15 -84 -61 -162t-118.5 -142t-180.5 -103t-234 -39q-34 0 -72.5 4.5t-91 18t-99.5 34.5t-92.5 59t-76.5 86.5t-46 121t-5 159.5h336q-4 -174 198 -174q95 0 147 42t62 91q5 29 -5 53.5t-37 45.5t-47.5 33
t-59.5 32l-322 162q-22 11 -33 17t-34.5 20t-36.5 25.5t-33 30.5t-30.5 37.5t-22.5 45t-16.5 54.5t-4 63.5t7.5 75.5q3 18 7.5 35.5t21.5 55.5t42 72.5t73 80t110 85.5q-42 96 -20 228q19 104 77.5 184.5t139 127t169 70t179.5 23.5q113 0 200.5 -36t137 -95.5t70 -134.5
t8.5 -156zM1071 446l2 3q7 40 -21.5 70.5t-93.5 62.5l-348 170q-90 -40 -100 -113q-5 -28 1 -50.5t22.5 -38t29 -23.5t31.5 -17l379 -191q86 49 98 127z" />
    <glyph glyph-name="dieresis" unicode="&#xa8;" horiz-adv-x="1136" 
d="M793 1628l-58 -309h-325l57 309h326zM1270 1628l-58 -309h-325l57 309h326z" />
    <glyph glyph-name="copyright" unicode="&#xa9;" horiz-adv-x="1638" 
d="M1112 1544h2q212 0 371 -107t228.5 -288t31.5 -391q-40 -213 -179.5 -394.5t-339 -287t-411.5 -105.5q-159 0 -292.5 62.5t-219 168.5t-120.5 251.5t-5 304.5q29 157 116.5 301.5t211 251t282.5 170t324 63.5zM1079 1386h-2q-170 0 -327.5 -85.5t-264 -229.5t-137.5 -313
q-24 -129 3.5 -245.5t94.5 -200.5t171.5 -133.5t228.5 -49.5t246 49t220 133t168.5 200.5t94.5 246.5q23 126 -3.5 241.5t-92 200.5t-170 135.5t-230.5 50.5zM1384 893h-215q-11 139 -147 139q-61 0 -110.5 -25t-80 -67t-49 -86t-28.5 -92q-22 -114 19.5 -190t150.5 -76
q18 0 35 3.5t51.5 18t67.5 54.5t57 102h217q-46 -170 -173 -268.5t-298 -98.5q-197 0 -290 128.5t-56 328.5q14 72 44 139t77 125t105.5 101t134.5 67.5t159 24.5q88 0 156.5 -29t107 -76.5t55.5 -105t10 -117.5z" />
    <glyph glyph-name="ordfeminine" unicode="&#xaa;" horiz-adv-x="788" 
d="M981 1524l-109 -586h-202l10 59q-57 -79 -168 -79q-123 0 -188.5 90.5t-40.5 222.5q28 144 129.5 228.5t220.5 84.5q100 0 135 -80l10 60h203zM485 1231v-2q-5 -24 1.5 -50t31 -47.5t64.5 -21.5q74 0 123 68q17 31 20 53q6 36 2 57q-5 27 -31 45.5t-69 18.5
q-57 0 -95 -37.5t-47 -83.5z" />
    <glyph glyph-name="guillemotleft" unicode="&#xab;" horiz-adv-x="864" 
d="M158 582l268 372h238l-269 -372l131 -373h-237zM530 582l269 372h237l-268 -372l131 -373h-237z" />
    <glyph glyph-name="logicalnot" unicode="&#xac;" horiz-adv-x="1228" 
d="M262 911h1041l-127 -690h-328l67 363h-712z" />
    <glyph glyph-name="uni00AD" unicode="&#xad;" horiz-adv-x="575" 
d="M141 758h576l-64 -334h-575z" />
    <glyph glyph-name="registered" unicode="&#xae;" horiz-adv-x="1638" 
d="M1112 1544h2q212 0 371 -107.5t229 -288.5t31 -390q-40 -213 -179.5 -394.5t-339 -287t-411.5 -105.5q-159 0 -292.5 62.5t-219 168.5t-120.5 251.5t-5 304.5q29 156 116.5 300.5t211 251t282.5 170.5t324 64zM1079 1386h-2q-170 0 -327 -85t-264 -229t-138 -314
q-32 -171 24 -316t182 -229t292 -84q124 0 246 49t220 133t168.5 200.5t94.5 246.5q23 125 -3.5 240.5t-91.5 200.5t-169.5 136t-231.5 51zM709 1202h368q65 0 118.5 -14t93.5 -42.5t57 -77t6 -112.5q-28 -147 -183 -211q52 -24 75.5 -67.5t12.5 -134.5
q-14 -118 -15.5 -146.5t3.5 -66.5h-211q-4 6 -3 41.5t3.5 63.5t6 63.5t3.5 40.5q-1 15 0 32t-6.5 34t-20 30.5t-40 22t-66.5 8.5h-86l-61 -336h-217zM1014 1053h-117l-45 -246h104q20 0 33.5 1t39 8t43 19.5t34.5 39.5t24 65q6 32 -0.5 54.5t-18 33.5t-32 17t-33.5 7t-32 1z
" />
    <glyph glyph-name="macron" unicode="&#xaf;" horiz-adv-x="1136" 
d="M1233 1606l-47 -258h-735l47 258h735z" />
    <glyph glyph-name="degree" unicode="&#xb0;" horiz-adv-x="819" 
d="M918 1165v-2q-22 -121 -123 -206t-224 -85t-192 85t-47 208q23 123 124 208t224 85t192 -85t46 -208zM504 1165v-2q-9 -50 20 -86.5t78 -36.5t91.5 37t51.5 88q9 50 -19 87.5t-77 37.5t-92.5 -37.5t-52.5 -87.5z" />
    <glyph glyph-name="plusminus" unicode="&#xb1;" horiz-adv-x="1228" 
d="M610 860l52 279h327l-51 -279h352l-61 -328h-352l-50 -266h-327l49 266h-352l61 328h352zM68 -168l59 328h1032l-59 -328h-1032z" />
    <glyph glyph-name="twosuperior" unicode="&#xb2;" horiz-adv-x="833" 
d="M924 823l-41 -217h-699l37 199q31 22 144.5 102.5t173.5 124.5q83 59 122 103.5t48 93.5q15 86 -62 86q-35 0 -61.5 -25t-38 -53.5t-17.5 -60.5h-251q9 42 17 69t29.5 69.5t53.5 78.5q124 141 323 141q171 0 246.5 -70t50.5 -204q-17 -92 -57 -153t-125 -124
q-60 -44 -213 -160h320z" />
    <glyph glyph-name="threesuperior" unicode="&#xb3;" horiz-adv-x="833" 
d="M209 887h264q1 -16 3.5 -26t10.5 -24t26.5 -21t47.5 -7q47 0 77 23.5t38 64.5q5 31 -15 54.5t-71 23.5h-113l35 184h49q123 0 139 86q9 68 -53 68q-23 0 -40 -7t-25 -17t-13.5 -21.5t-8.5 -21.5q-1 -3 -1 -5h-258q14 71 50 125.5t79 85t95.5 50t93 26t77.5 6.5
q140 0 212.5 -75t52.5 -177q-3 -18 -10 -37t-23 -47t-46.5 -55.5t-72.5 -48.5q74 -26 108.5 -85t20.5 -132q-22 -119 -146 -204t-274 -85q-93 0 -171 33t-111 94q-24 41 -28 94.5t1 77.5z" />
    <glyph glyph-name="acute" unicode="&#xb4;" horiz-adv-x="1136" 
d="M582 1473l540 264l64 -242l-545 -223z" />
    <glyph glyph-name="mu" unicode="&#xb5;" horiz-adv-x="1298" 
d="M35 -389l282 1526h340l-104 -562q-22 -129 4 -202q33 -92 141 -92q110 0 179 92q58 77 79 202l105 562h340l-211 -1137h-324l27 141q-104 -161 -246 -161q-76 0 -120.5 32.5t-63.5 77.5l-19 -98l-69 -381h-340z" />
    <glyph glyph-name="paragraph" unicode="&#xb6;" horiz-adv-x="1435" 
d="M381 -211l174 938q-195 0 -296.5 99.5t-65.5 287.5q75 402 593 402h738l-45 -242h-101l-274 -1485h-262l274 1485h-198l-275 -1485h-262z" />
    <glyph glyph-name="periodcentered" unicode="&#xb7;" horiz-adv-x="643" 
d="M629 692l-66 -348h-354l65 348h355z" />
    <glyph glyph-name="cedilla" unicode="&#xb8;" horiz-adv-x="1136" 
d="M637 0l-80 -109q24 7 45 7q67 0 111.5 -48t27.5 -139q-15 -84 -87 -148.5t-181 -64.5q-16 0 -34.5 2.5t-48.5 13.5t-52.5 30t-38.5 57.5t-14 89.5h155q3 -15 5 -21t8 -17t17 -15.5t28 -4.5q35 0 58.5 21.5t29.5 56.5q6 31 -11 50.5t-47 19.5t-61 -31l-119 72l119 178h170
z" />
    <glyph glyph-name="onesuperior" unicode="&#xb9;" horiz-adv-x="833" 
d="M834 1516l-168 -910h-252l129 692h-160l39 218h412z" />
    <glyph glyph-name="ordmasculine" unicode="&#xba;" horiz-adv-x="788" 
d="M303 1231l2 2q10 55 40 109t76 100t114 74t145 28t135 -28.5t85.5 -73.5t39.5 -101t-2 -110q-8 -44 -28.5 -88t-53.5 -85t-75.5 -72t-99 -49.5t-118.5 -18.5q-77 0 -135 28.5t-86 73.5t-40 101t1 110zM506 1231v-2q-9 -50 18.5 -84.5t73.5 -34.5q47 0 87.5 35t49.5 86
q10 51 -17.5 86t-74.5 35q-46 0 -86.5 -34.5t-50.5 -86.5z" />
    <glyph glyph-name="guillemotright" unicode="&#xbb;" horiz-adv-x="864" 
d="M791 954l133 -372l-271 -373h-237l270 373l-133 372h238zM418 954l133 -372l-270 -373h-238l270 373l-133 372h238z" />
    <glyph glyph-name="onequarter" unicode="&#xbc;" horiz-adv-x="1843" 
d="M1581 1516l-917 -1516h-279l915 1516h281zM1804 909l-102 -559h106l-36 -192h-107l-29 -158h-252l29 158h-428l33 176l545 575h241zM791 1516l-168 -910h-252l129 692h-160l39 218h412zM1497 590l-205 -240h162z" />
    <glyph glyph-name="onehalf" unicode="&#xbd;" horiz-adv-x="1884" 
d="M791 1516l-168 -910h-252l129 692h-160l39 218h412zM1581 1516l-917 -1516h-279l915 1516h281zM1827 217l-41 -217h-699l37 199q53 38 160 113.5t160 113.5q82 60 120.5 104t47.5 93q18 86 -62 86q-27 0 -48.5 -14t-34.5 -36.5t-20.5 -44.5t-10.5 -45h-252q25 134 98 217
q124 142 324 142q171 0 246.5 -70.5t50.5 -204.5q-17 -92 -57.5 -152.5t-125.5 -123.5q-60 -44 -213 -160h320z" />
    <glyph glyph-name="threequarters" unicode="&#xbe;" horiz-adv-x="2048" 
d="M1720 598l-217 -248h172zM1812 1516l-917 -1516h-279l916 1516h280zM2025 909l-102 -559h107l-37 -192h-107l-28 -158h-252l28 158h-428l33 176l545 575h241zM248 887h264q1 -16 3.5 -26t10.5 -24t26.5 -21t47.5 -7q47 0 77 23.5t38 64.5q5 31 -15 54.5t-71 23.5h-113
l35 184h49q123 0 139 86q9 68 -53 68q-23 0 -40 -7t-25 -17t-13.5 -21.5t-8.5 -21.5q-1 -3 -1 -5h-258q14 71 50 125.5t79 85t95.5 50t93 26t77.5 6.5q140 0 212 -75t52 -177q-3 -18 -10 -37t-22.5 -47t-46 -55.5t-72.5 -48.5q74 -26 108.5 -85t20.5 -132
q-22 -119 -146 -204t-274 -85q-94 0 -172.5 33t-110.5 94q-24 41 -27.5 94.5t1.5 77.5z" />
    <glyph glyph-name="questiondown" unicode="&#xbf;" horiz-adv-x="1212" 
d="M618 788l66 349h356l-65 -349h-357zM594 653h356q-20 -100 -82.5 -176t-195.5 -184q-91 -74 -132.5 -125.5t-50.5 -99.5q-11 -58 12.5 -92.5t84.5 -34.5q76 0 113.5 42.5t54.5 110.5q4 13 8 43h375q0 -17 -4 -37q-27 -146 -117.5 -262.5t-226 -182t-289.5 -65.5
q-77 0 -143.5 18t-113 49.5t-83 74t-53 90.5t-24 100t4.5 103q10 54 34 105t50 87t70 79t72.5 66.5t80.5 63.5q110 87 147 131.5t52 95.5z" />
    <glyph glyph-name="Agrave" unicode="&#xc0;" horiz-adv-x="1552" 
d="M549 219l-111 -219h-420l881 1516h334l301 -1516h-424l-31 219h-530zM1036 526l-73 529l-261 -529h334zM913 2015l449 -262l-131 -199l-465 222z" />
    <glyph glyph-name="Aacute" unicode="&#xc1;" horiz-adv-x="1552" 
d="M549 219l-111 -219h-420l881 1516h334l301 -1516h-424l-31 219h-530zM1036 526l-73 529l-261 -529h334zM846 1769l540 265l64 -242l-545 -223z" />
    <glyph glyph-name="Acircumflex" unicode="&#xc2;" horiz-adv-x="1552" 
d="M549 219l-111 -219h-420l881 1516h334l301 -1516h-424l-31 219h-530zM1036 526l-73 529l-261 -529h334zM1253 1948l265 -340h-328l-92 116l-137 -116h-332l403 340h221z" />
    <glyph glyph-name="Atilde" unicode="&#xc3;" horiz-adv-x="1552" 
d="M549 219l-111 -219h-420l881 1516h334l301 -1516h-424l-31 219h-530zM1036 526l-73 529l-261 -529h334zM1442 1952l69 -226q-133 -75 -245 -75q-24 0 -160 26q-121 27 -158 27q-80 0 -166 -49l-69 231q137 72 237 72q52 0 162 -25q98 -26 162 -26q100 0 168 45z" />
    <glyph glyph-name="Adieresis" unicode="&#xc4;" horiz-adv-x="1552" 
d="M549 219l-111 -219h-420l881 1516h334l301 -1516h-424l-31 219h-530zM1036 526l-73 529l-261 -529h334zM1057 1925l-58 -309h-325l57 309h326zM1534 1925l-57 -309h-326l57 309h326z" />
    <glyph glyph-name="Aring" unicode="&#xc5;" horiz-adv-x="1552" 
d="M549 219l-111 -219h-420l881 1516h334l301 -1516h-424l-31 219h-530zM1036 526l-73 529l-261 -529h334zM1161 2083h2q106 0 167.5 -76t41.5 -182t-109 -182t-196 -76t-169 76t-42 182t109 182t196 76zM1130 1917h-2q-37 0 -66.5 -27t-37.5 -65q-6 -37 15.5 -62.5
t58.5 -25.5t68.5 26t37.5 64q8 37 -14 63.5t-60 26.5z" />
    <glyph glyph-name="AE" unicode="&#xc6;" horiz-adv-x="1996" 
d="M-20 0l1333 1516h862l-64 -340h-466l-43 -236h452l-63 -340h-453l-47 -260h467l-64 -340h-841l47 254h-441l-210 -254h-469zM872 553h283l76 412z" />
    <glyph glyph-name="Ccedilla" unicode="&#xc7;" horiz-adv-x="1703" 
d="M905 -27l-61 -82q24 7 45 7q63 0 109.5 -49t29.5 -138q-15 -84 -87 -148.5t-181 -64.5q-16 0 -34.5 2.5t-49 13.5t-53 30t-38.5 57.5t-14 89.5h156q8 -38 22 -48q13 -10 35 -10q35 0 58.5 21.5t29.5 56.5q6 32 -10.5 51t-46.5 19t-61 -31l-119 72l106 160
q-96 14 -179.5 52t-146 93t-109.5 126t-71 152.5t-30.5 171.5t12.5 183q27 146 108.5 286t201.5 251t285 179t345 68q136 0 250.5 -40t188.5 -104t125.5 -145t73 -160.5t20.5 -154.5h-406q-10 47 -31 90t-57 84t-95.5 65.5t-133.5 24.5q-94 0 -180 -38.5t-147.5 -102
t-103.5 -141.5t-57 -160q-22 -116 7.5 -218t112.5 -167.5t204 -65.5q68 0 132.5 22.5t107 51.5t82 70t57 64.5t32.5 47.5h406q-112 -259 -343 -421t-497 -173z" />
    <glyph glyph-name="Egrave" unicode="&#xc8;" horiz-adv-x="1081" 
d="M137 0l281 1516h858l-64 -340h-471l-43 -236h457l-63 -340h-457l-47 -260h471l-64 -340h-858zM686 2056l447 -262l-132 -199l-464 222z" />
    <glyph glyph-name="Eacute" unicode="&#xc9;" horiz-adv-x="1081" 
d="M137 0l281 1516h858l-64 -340h-471l-43 -236h457l-63 -340h-457l-47 -260h471l-64 -340h-858zM618 1810l541 265l64 -242l-545 -223z" />
    <glyph glyph-name="Ecircumflex" unicode="&#xca;" horiz-adv-x="1081" 
d="M137 0l281 1516h858l-64 -340h-471l-43 -236h457l-63 -340h-457l-47 -260h471l-64 -340h-858zM1026 1989l264 -340h-327l-93 116l-137 -116h-332l404 340h221z" />
    <glyph glyph-name="Edieresis" unicode="&#xcb;" horiz-adv-x="1081" 
d="M137 0l281 1516h858l-64 -340h-471l-43 -236h457l-63 -340h-457l-47 -260h471l-64 -340h-858zM829 1966l-57 -309h-326l58 309h325zM1307 1966l-58 -309h-325l57 309h326z" />
    <glyph glyph-name="Igrave" unicode="&#xcc;" horiz-adv-x="661" 
d="M137 0l281 1516h387l-281 -1516h-387zM424 2056l446 -262l-131 -199l-465 222z" />
    <glyph glyph-name="Iacute" unicode="&#xcd;" horiz-adv-x="661" 
d="M137 0l281 1516h387l-281 -1516h-387zM459 1810l540 265l64 -242l-545 -223z" />
    <glyph glyph-name="Icircumflex" unicode="&#xce;" horiz-adv-x="661" 
d="M137 0l281 1516h387l-281 -1516h-387zM815 1989l264 -340h-327l-93 116l-137 -116h-332l404 340h221z" />
    <glyph glyph-name="Idieresis" unicode="&#xcf;" horiz-adv-x="661" 
d="M137 0l281 1516h387l-281 -1516h-387zM618 1966l-57 -309h-325l57 309h325zM1096 1966l-58 -309h-325l57 309h326z" />
    <glyph glyph-name="Eth" unicode="&#xd0;" horiz-adv-x="1519" 
d="M313 946l105 570h510q51 0 80.5 -0.5t87 -6t97 -15.5t94 -31t95 -50t83 -75t73.5 -105q104 -190 51 -471q-29 -158 -100 -294t-179.5 -241.5t-263 -166t-337.5 -60.5h-572l113 606h-137l63 340h137zM741 1176l-41 -230h222l-64 -340h-221l-49 -266h166q104 0 185 34
t132.5 94.5t82 131t46.5 156.5q31 167 -20 280q-68 140 -271 140h-168z" />
    <glyph glyph-name="Ntilde" unicode="&#xd1;" horiz-adv-x="1554" 
d="M752 1516l411 -924l162 924h371l-281 -1516h-336l-409 913l-162 -913h-371l281 1516h334zM1442 1952l69 -226q-133 -75 -245 -75q-24 0 -160 26q-121 27 -158 27q-80 0 -166 -49l-69 231q137 72 237 72q52 0 162 -25q98 -26 162 -26q100 0 168 45z" />
    <glyph glyph-name="Ograve" unicode="&#xd2;" horiz-adv-x="1742" 
d="M209 739v2q27 145 93.5 273.5t160 224t206.5 165t238 105t250 35.5q171 0 309.5 -63.5t223 -171t118 -251t4.5 -300.5q-30 -157 -116.5 -301t-211 -251t-287.5 -171t-335 -64q-100 0 -190 22t-160.5 62t-129.5 95.5t-96.5 122.5t-62 143.5t-26 157.5t11.5 165zM600 762
v-2q-22 -117 8.5 -218.5t115.5 -166t210 -64.5q98 0 186 41.5t149 108t100.5 143t53.5 152.5q11 49 8 101.5t-14 102t-39 94t-65 78t-93 53t-124 19.5q-97 0 -184.5 -39t-150 -102.5t-104.5 -141.5t-57 -159zM1016 2056l446 -262l-131 -199l-465 222z" />
    <glyph glyph-name="Oacute" unicode="&#xd3;" horiz-adv-x="1742" 
d="M209 739v2q27 145 93.5 273.5t160 224t206.5 165t238 105t250 35.5q171 0 309.5 -63.5t223 -171t118 -251t4.5 -300.5q-30 -157 -116.5 -301t-211 -251t-287.5 -171t-335 -64q-100 0 -190 22t-160.5 62t-129.5 95.5t-96.5 122.5t-62 143.5t-26 157.5t11.5 165zM600 762
v-2q-22 -117 8.5 -218.5t115.5 -166t210 -64.5q98 0 186 41.5t149 108t100.5 143t53.5 152.5q11 49 8 101.5t-14 102t-39 94t-65 78t-93 53t-124 19.5q-97 0 -184.5 -39t-150 -102.5t-104.5 -141.5t-57 -159zM948 1810l541 265l63 -242l-544 -223z" />
    <glyph glyph-name="Ocircumflex" unicode="&#xd4;" horiz-adv-x="1742" 
d="M209 739v2q27 145 93.5 273.5t160 224t206.5 165t238 105t250 35.5q171 0 309.5 -63.5t223 -171t118 -251t4.5 -300.5q-30 -157 -116.5 -301t-211 -251t-287.5 -171t-335 -64q-100 0 -190 22t-160.5 62t-129.5 95.5t-96.5 122.5t-62 143.5t-26 157.5t11.5 165zM600 762
v-2q-22 -117 8.5 -218.5t115.5 -166t210 -64.5q98 0 186 41.5t149 108t100.5 143t53.5 152.5q11 49 8 101.5t-14 102t-39 94t-65 78t-93 53t-124 19.5q-97 0 -184.5 -39t-150 -102.5t-104.5 -141.5t-57 -159zM1356 1989l264 -340h-328l-92 116l-137 -116h-332l404 340h221z
" />
    <glyph glyph-name="Otilde" unicode="&#xd5;" horiz-adv-x="1742" 
d="M209 739v2q27 145 93.5 273.5t160 224t206.5 165t238 105t250 35.5q171 0 309.5 -63.5t223 -171t118 -251t4.5 -300.5q-30 -157 -116.5 -301t-211 -251t-287.5 -171t-335 -64q-100 0 -190 22t-160.5 62t-129.5 95.5t-96.5 122.5t-62 143.5t-26 157.5t11.5 165zM600 762
v-2q-22 -117 8.5 -218.5t115.5 -166t210 -64.5q98 0 186 41.5t149 108t100.5 143t53.5 152.5q11 49 8 101.5t-14 102t-39 94t-65 78t-93 53t-124 19.5q-97 0 -184.5 -39t-150 -102.5t-104.5 -141.5t-57 -159zM1536 1952l70 -226q-133 -75 -246 -75q-24 0 -160 26
q-122 27 -158 27q-79 0 -165 -49l-70 231q137 72 237 72q52 0 162 -25q98 -26 162 -26q100 0 168 45z" />
    <glyph glyph-name="Odieresis" unicode="&#xd6;" horiz-adv-x="1742" 
d="M209 739v2q27 145 93.5 273.5t160 224t206.5 165t238 105t250 35.5q171 0 309.5 -63.5t223 -171t118 -251t4.5 -300.5q-30 -157 -116.5 -301t-211 -251t-287.5 -171t-335 -64q-100 0 -190 22t-160.5 62t-129.5 95.5t-96.5 122.5t-62 143.5t-26 157.5t11.5 165zM600 762
v-2q-22 -117 8.5 -218.5t115.5 -166t210 -64.5q98 0 186 41.5t149 108t100.5 143t53.5 152.5q11 49 8 101.5t-14 102t-39 94t-65 78t-93 53t-124 19.5q-97 0 -184.5 -39t-150 -102.5t-104.5 -141.5t-57 -159zM1159 1966l-57 -309h-326l58 309h325zM1636 1966l-57 -309h-326
l58 309h325z" />
    <glyph glyph-name="multiply" unicode="&#xd7;" horiz-adv-x="1228" 
d="M346 0l-188 231l315 267l-217 266l274 231l218 -266l317 268l190 -233l-317 -266l215 -267l-274 -231l-215 264z" />
    <glyph glyph-name="Oslash" unicode="&#xd8;" horiz-adv-x="1742" 
d="M1487 1473l78 83h372l-239 -258q170 -235 114 -540q-29 -156 -116 -300t-211 -251.5t-287.5 -171.5t-335.5 -64q-81 0 -154 14.5t-102 26t-71 31.5l-82 -84h-373l244 260q-169 230 -111 539q30 163 118.5 308.5t214 250.5t285.5 166t328 61q187 0 328 -71zM612 528
l607 656q-45 20 -123 20q-100 0 -189 -40.5t-150.5 -105.5t-102 -141t-54.5 -153q-24 -133 12 -236zM1409 991l-608 -657q58 -23 131 -23q101 0 190 42.5t149 110t99 143t53 149.5q24 124 -14 235z" />
    <glyph glyph-name="Ugrave" unicode="&#xd9;" horiz-adv-x="1429" 
d="M414 1516h387l-170 -916q-20 -125 -6 -182q25 -107 149 -107q128 0 187 99q37 60 59 190l170 916h387l-170 -916q-33 -180 -89 -283t-149 -182q-192 -164 -454 -164q-48 0 -97.5 7t-108 23t-112 50t-88.5 82q-73 100 -85.5 201.5t20.5 265.5zM788 2056l447 -262
l-131 -199l-465 222z" />
    <glyph glyph-name="Uacute" unicode="&#xda;" horiz-adv-x="1429" 
d="M414 1516h387l-170 -916q-20 -125 -6 -182q25 -107 149 -107q128 0 187 99q37 60 59 190l170 916h387l-170 -916q-33 -180 -89 -283t-149 -182q-192 -164 -454 -164q-48 0 -97.5 7t-108 23t-112 50t-88.5 82q-73 100 -85.5 201.5t20.5 265.5zM864 1810l541 265l63 -242
l-544 -223z" />
    <glyph glyph-name="Ucircumflex" unicode="&#xdb;" horiz-adv-x="1429" 
d="M414 1516h387l-170 -916q-20 -125 -6 -182q25 -107 149 -107q128 0 187 99q37 60 59 190l170 916h387l-170 -916q-33 -180 -89 -283t-149 -182q-192 -164 -454 -164q-48 0 -97.5 7t-108 23t-112 50t-88.5 82q-73 100 -85.5 201.5t20.5 265.5zM1200 1989l264 -340h-327
l-93 116l-137 -116h-332l404 340h221z" />
    <glyph glyph-name="Udieresis" unicode="&#xdc;" horiz-adv-x="1429" 
d="M414 1516h387l-170 -916q-20 -125 -6 -182q25 -107 149 -107q128 0 187 99q37 60 59 190l170 916h387l-170 -916q-33 -180 -89 -283t-149 -182q-192 -164 -454 -164q-48 0 -97.5 7t-108 23t-112 50t-88.5 82q-73 100 -85.5 201.5t20.5 265.5zM1004 1966l-58 -309h-325
l57 309h326zM1481 1966l-58 -309h-325l57 309h326z" />
    <glyph glyph-name="Yacute" unicode="&#xdd;" horiz-adv-x="1325" 
d="M471 0l102 551l-274 965h420l112 -609l340 609h416l-626 -965l-103 -551h-387zM811 1810l541 265l63 -242l-545 -223z" />
    <glyph glyph-name="Thorn" unicode="&#xde;" horiz-adv-x="1302" 
d="M137 0l281 1516h387l-37 -199l109 2q197 0 292.5 -27t153.5 -84q74 -72 100 -177.5t4 -223.5q-22 -116 -86 -226t-147 -171q-97 -70 -197.5 -100.5t-269.5 -30.5h-152l-51 -279h-387zM707 979l-68 -361h141q99 0 154 23q100 42 121 160q23 113 -66 155q-49 23 -155 23
h-127z" />
    <glyph glyph-name="germandbls" unicode="&#xdf;" horiz-adv-x="1421" 
d="M119 0l162 874q35 189 80.5 291.5t140.5 190.5q104 96 233.5 147t251.5 51q104 0 189 -36t135.5 -95.5t71.5 -137t6 -159.5q-11 -59 -35 -106.5t-58 -79.5t-53.5 -46.5t-48.5 -31.5q125 -33 198.5 -141t45.5 -254q-17 -93 -71 -183t-134 -161.5t-189.5 -115.5t-226.5 -44
q-58 0 -108 12t-81 26t-62.5 41.5t-45.5 43t-37 45.5l-24 -131h-340zM639 971l-100 -543h190q2 -21 4 -35.5t11.5 -37.5t24 -37.5t42.5 -25.5t66 -11q85 0 146.5 56t74.5 128q13 82 -19 123q-50 67 -227 67h-133l47 256h70q78 0 133 43.5t69 112.5q13 76 -28 123t-121 47
q-127 0 -197 -115q-39 -62 -53 -151z" />
    <glyph glyph-name="agrave" unicode="&#xe0;" horiz-adv-x="1441" 
d="M1528 1137l-211 -1137h-340l22 123q-59 -79 -159 -120.5t-207 -41.5q-106 0 -192 32t-142 88t-92 133t-41.5 166.5t10.5 188.5q25 136 92.5 251.5t160.5 192.5t204 120t225 43q126 0 201 -47.5t106 -112.5l23 121h340zM514 565v-2q-6 -26 -3.5 -57t9 -62.5t25.5 -61.5
t44 -52.5t65 -36.5t89 -14q160 0 263 127q50 61 73 145q19 79 -2 149q-47 158 -227 158q-70 0 -130.5 -27.5t-101.5 -71t-67.5 -93.5t-36.5 -101zM772 1718l449 -262l-131 -199l-465 222z" />
    <glyph glyph-name="aacute" unicode="&#xe1;" horiz-adv-x="1441" 
d="M1528 1137l-211 -1137h-340l22 123q-59 -79 -159 -120.5t-207 -41.5q-106 0 -192 32t-142 88t-92 133t-41.5 166.5t10.5 188.5q25 136 92.5 251.5t160.5 192.5t204 120t225 43q126 0 201 -47.5t106 -112.5l23 121h340zM514 565v-2q-6 -26 -3.5 -57t9 -62.5t25.5 -61.5
t44 -52.5t65 -36.5t89 -14q160 0 263 127q50 61 73 145q19 79 -2 149q-47 158 -227 158q-70 0 -130.5 -27.5t-101.5 -71t-67.5 -93.5t-36.5 -101zM735 1473l541 264l63 -242l-544 -223z" />
    <glyph glyph-name="acircumflex" unicode="&#xe2;" horiz-adv-x="1441" 
d="M1528 1137l-211 -1137h-340l22 123q-59 -79 -159 -120.5t-207 -41.5q-106 0 -192 32t-142 88t-92 133t-41.5 166.5t10.5 188.5q25 136 92.5 251.5t160.5 192.5t204 120t225 43q126 0 201 -47.5t106 -112.5l23 121h340zM514 565v-2q-6 -26 -3.5 -57t9 -62.5t25.5 -61.5
t44 -52.5t65 -36.5t89 -14q160 0 263 127q50 61 73 145q19 79 -2 149q-47 158 -227 158q-70 0 -130.5 -27.5t-101.5 -71t-67.5 -93.5t-36.5 -101zM1112 1651l266 -340h-327l-95 116l-135 -116h-332l402 340h221z" />
    <glyph glyph-name="atilde" unicode="&#xe3;" horiz-adv-x="1441" 
d="M1528 1137l-211 -1137h-340l22 123q-59 -79 -159 -120.5t-207 -41.5q-106 0 -192 32t-142 88t-92 133t-41.5 166.5t10.5 188.5q25 136 92.5 251.5t160.5 192.5t204 120t225 43q126 0 201 -47.5t106 -112.5l23 121h340zM514 565v-2q-6 -26 -3.5 -57t9 -62.5t25.5 -61.5
t44 -52.5t65 -36.5t89 -14q160 0 263 127q50 61 73 145q19 79 -2 149q-47 158 -227 158q-70 0 -130.5 -27.5t-101.5 -71t-67.5 -93.5t-36.5 -101zM1303 1614l71 -225q-135 -76 -246 -76q-24 0 -161 26q-118 27 -156 27q-48 0 -85 -12t-83 -37l-70 231q142 72 240 72
q50 0 160 -25q98 -26 162 -26q100 0 168 45z" />
    <glyph glyph-name="adieresis" unicode="&#xe4;" horiz-adv-x="1441" 
d="M1528 1137l-211 -1137h-340l22 123q-59 -79 -159 -120.5t-207 -41.5q-106 0 -192 32t-142 88t-92 133t-41.5 166.5t10.5 188.5q25 136 92.5 251.5t160.5 192.5t204 120t225 43q126 0 201 -47.5t106 -112.5l23 121h340zM514 565v-2q-6 -26 -3.5 -57t9 -62.5t25.5 -61.5
t44 -52.5t65 -36.5t89 -14q160 0 263 127q50 61 73 145q19 79 -2 149q-47 158 -227 158q-70 0 -130.5 -27.5t-101.5 -71t-67.5 -93.5t-36.5 -101zM915 1628l-57 -309h-326l58 309h325zM1393 1628l-58 -309h-325l57 309h326z" />
    <glyph glyph-name="aring" unicode="&#xe5;" horiz-adv-x="1441" 
d="M1528 1137l-211 -1137h-340l22 123q-59 -79 -159 -120.5t-207 -41.5q-106 0 -192 32t-142 88t-92 133t-41.5 166.5t10.5 188.5q25 136 92.5 251.5t160.5 192.5t204 120t225 43q126 0 201 -47.5t106 -112.5l23 121h340zM514 565v-2q-6 -26 -3.5 -57t9 -62.5t25.5 -61.5
t44 -52.5t65 -36.5t89 -14q160 0 263 127q50 61 73 145q19 79 -2 149q-47 158 -227 158q-70 0 -130.5 -27.5t-101.5 -71t-67.5 -93.5t-36.5 -101zM1004 1745h2q105 0 166 -76t42 -182q-20 -106 -110 -182t-197 -76t-168 76t-41 182q19 106 109 182t197 76zM973 1579h-2
q-38 0 -68.5 -27.5t-36.5 -64.5q-7 -36 15 -62t59 -26t68.5 26t38.5 64q6 37 -15 63.5t-59 26.5z" />
    <glyph glyph-name="ae" unicode="&#xe6;" horiz-adv-x="2234" 
d="M2247 463h-854q-2 -59 18.5 -103t55.5 -66.5t71.5 -33t75.5 -10.5q56 0 106 19.5t74 37.5t59 51h342q-104 -175 -247 -276q-161 -119 -363 -119q-95 0 -169.5 40.5t-110.5 109.5l-21 -113h-309l20 113q-129 -150 -354 -150q-79 0 -147.5 20t-119 54.5t-91.5 81.5
t-64.5 101t-39 113.5t-14.5 118.5t9 115q23 126 87.5 238.5t156 194t210 129t244.5 47.5q99 0 185.5 -42.5t107.5 -107.5l21 111h309l-20 -109q67 72 158.5 110t183.5 38q106 0 200 -42.5t160 -121.5q47 -57 74.5 -133t31.5 -184.5t-36 -231.5zM516 575v-2
q-24 -130 43.5 -211t190.5 -81q118 0 212.5 82.5t116.5 201.5q24 126 -37 209q-65 84 -196 84q-59 0 -112 -21t-89.5 -53t-65 -71.5t-43.5 -74t-20 -63.5zM1442 688h518q-16 199 -217 199q-121 0 -207 -72q-67 -56 -94 -127z" />
    <glyph glyph-name="ccedilla" unicode="&#xe7;" horiz-adv-x="1335" 
d="M709 -33l-56 -76q25 7 45 7q63 0 110 -49t30 -138q-15 -84 -87 -148.5t-182 -64.5q-16 0 -34.5 2.5t-48.5 13.5t-52.5 30t-38.5 57.5t-14 89.5h156q8 -38 22 -48q13 -10 35 -10q35 0 58.5 21.5t29.5 56.5q6 32 -10.5 51t-46.5 19q-31 0 -62 -31l-119 72l103 153
q-204 43 -309 209.5t-64 386.5q30 165 134 304t257 220t320 81q225 0 367 -134t147 -344h-344q-54 152 -217 152q-114 6 -211 -78q-89 -80 -111 -203q-24 -126 35.5 -207t179.5 -81q169 0 275 151h346q-80 -192 -256 -323.5t-387 -141.5z" />
    <glyph glyph-name="egrave" unicode="&#xe8;" horiz-adv-x="1323" 
d="M1331 451h-846q-6 -89 59 -145t167 -56q133 0 225 106h348q-115 -187 -285 -290q-161 -103 -342 -103q-120 0 -222 47t-169 127t-94.5 192t-5.5 236q22 118 87.5 229t158.5 195.5t214.5 135.5t247.5 51q128 0 230 -47.5t168 -133.5q162 -217 59 -544zM537 709h507
q1 18 -5 39.5t-21.5 47t-39.5 46t-64.5 34t-90.5 13.5q-62 0 -115.5 -20t-87.5 -50.5t-54.5 -58.5t-28.5 -51zM743 1718l449 -262l-131 -199l-465 222z" />
    <glyph glyph-name="eacute" unicode="&#xe9;" horiz-adv-x="1323" 
d="M1331 451h-846q-6 -89 59 -145t167 -56q133 0 225 106h348q-115 -187 -285 -290q-161 -103 -342 -103q-120 0 -222 47t-169 127t-94.5 192t-5.5 236q22 118 87.5 229t158.5 195.5t214.5 135.5t247.5 51q128 0 230 -47.5t168 -133.5q162 -217 59 -544zM537 709h507
q1 18 -5 39.5t-21.5 47t-39.5 46t-64.5 34t-90.5 13.5q-62 0 -115.5 -20t-87.5 -50.5t-54.5 -58.5t-28.5 -51zM676 1473l541 264l63 -242l-545 -223z" />
    <glyph glyph-name="ecircumflex" unicode="&#xea;" horiz-adv-x="1323" 
d="M1331 451h-846q-6 -89 59 -145t167 -56q133 0 225 106h348q-115 -187 -285 -290q-161 -103 -342 -103q-120 0 -222 47t-169 127t-94.5 192t-5.5 236q22 118 87.5 229t158.5 195.5t214.5 135.5t247.5 51q128 0 230 -47.5t168 -133.5q162 -217 59 -544zM537 709h507
q1 18 -5 39.5t-21.5 47t-39.5 46t-64.5 34t-90.5 13.5q-62 0 -115.5 -20t-87.5 -50.5t-54.5 -58.5t-28.5 -51zM1083 1651l267 -340h-328l-94 116l-135 -116h-332l401 340h221z" />
    <glyph glyph-name="edieresis" unicode="&#xeb;" horiz-adv-x="1323" 
d="M1331 451h-846q-6 -89 59 -145t167 -56q133 0 225 106h348q-115 -187 -285 -290q-161 -103 -342 -103q-120 0 -222 47t-169 127t-94.5 192t-5.5 236q22 118 87.5 229t158.5 195.5t214.5 135.5t247.5 51q128 0 230 -47.5t168 -133.5q162 -217 59 -544zM537 709h507
q1 18 -5 39.5t-21.5 47t-39.5 46t-64.5 34t-90.5 13.5q-62 0 -115.5 -20t-87.5 -50.5t-54.5 -58.5t-28.5 -51zM887 1628l-58 -309h-325l57 309h326zM1364 1628l-57 -309h-326l57 309h326z" />
    <glyph glyph-name="igrave" unicode="&#xec;" horiz-adv-x="585" 
d="M123 0l211 1137h340l-211 -1137h-340zM332 1718l448 -262l-131 -199l-465 222z" />
    <glyph glyph-name="iacute" unicode="&#xed;" horiz-adv-x="585" 
d="M123 0l211 1137h340l-211 -1137h-340zM346 1473l541 264l63 -242l-544 -223z" />
    <glyph glyph-name="icircumflex" unicode="&#xee;" horiz-adv-x="585" 
d="M123 0l211 1137h340l-211 -1137h-340zM715 1651l266 -340h-328l-94 116l-135 -116h-332l402 340h221z" />
    <glyph glyph-name="idieresis" unicode="&#xef;" horiz-adv-x="585" 
d="M123 0l211 1137h340l-211 -1137h-340zM518 1628l-57 -309h-326l58 309h325zM995 1628l-57 -309h-326l58 309h325z" />
    <glyph glyph-name="eth" unicode="&#xf0;" horiz-adv-x="1363" 
d="M913 1229l-499 -103l39 215l247 41q-39 25 -174 72l365 94q68 -25 178 -90l447 90l-39 -215l-211 -33q84 -97 129 -229q29 -87 33.5 -203t-15.5 -223q-36 -194 -138.5 -348t-259 -243t-339.5 -89q-127 0 -231 43.5t-172.5 121t-95.5 190.5t-3 245q26 140 93 255t156 187
t188.5 111t197.5 39q63 0 123 -23.5t100 -66.5q-11 38 -28 66q-40 64 -91 96zM516 571v-2q-13 -52 -3.5 -103.5t33.5 -92t74.5 -65.5t118.5 -25q69 0 128.5 28t98 72t62.5 92t33 96q5 39 4.5 79t-16 77.5t-39.5 67t-65 47.5t-93 18q-73 0 -134 -26t-101.5 -68.5t-65.5 -92
t-35 -102.5z" />
    <glyph glyph-name="ntilde" unicode="&#xf1;" horiz-adv-x="1294" 
d="M123 0l211 1137h317l-22 -121q23 25 35.5 38.5t46.5 40.5t66.5 41.5t84 27t109.5 12.5q79 0 140.5 -18t99 -47t62.5 -70t35 -82t12 -89t-2 -84.5t-11 -74.5l-131 -711h-340l114 621q10 64 9 116.5t-36.5 85.5t-107.5 33q-49 0 -87 -14t-62.5 -35.5t-42.5 -54.5
t-27.5 -63.5t-17.5 -70.5l-115 -618h-340zM1249 1614l72 -225q-135 -76 -246 -76q-25 0 -162 26q-118 27 -155 27q-48 0 -85 -12t-83 -37l-70 231q142 72 240 72q50 0 160 -25q98 -26 161 -26q100 0 168 45z" />
    <glyph glyph-name="ograve" unicode="&#xf2;" horiz-adv-x="1363" 
d="M176 569v2q16 85 54.5 169t103 162.5t146 139t190.5 96.5t229 36q86 0 160.5 -19t129 -52.5t98 -79t68.5 -99t41 -113.5t15 -121t-10 -121q-16 -85 -55.5 -169.5t-104 -163.5t-146 -139t-190.5 -96t-229 -36q-86 0 -160.5 19t-129 52t-98 79t-68.5 99.5t-40.5 113
t-14 120.5t10.5 121zM516 569l-2 -2q-21 -121 44 -202.5t177 -81.5t207.5 82t118.5 204t-43 204.5t-178 82.5t-206.5 -82t-117.5 -205zM764 1718l448 -262l-131 -199l-465 222z" />
    <glyph glyph-name="oacute" unicode="&#xf3;" horiz-adv-x="1363" 
d="M176 569v2q16 85 54.5 169t103 162.5t146 139t190.5 96.5t229 36q86 0 160.5 -19t129 -52.5t98 -79t68.5 -99t41 -113.5t15 -121t-10 -121q-16 -85 -55.5 -169.5t-104 -163.5t-146 -139t-190.5 -96t-229 -36q-86 0 -160.5 19t-129 52t-98 79t-68.5 99.5t-40.5 113
t-14 120.5t10.5 121zM516 569l-2 -2q-21 -121 44 -202.5t177 -81.5t207.5 82t118.5 204t-43 204.5t-178 82.5t-206.5 -82t-117.5 -205zM696 1473l541 264l63 -242l-544 -223z" />
    <glyph glyph-name="ocircumflex" unicode="&#xf4;" horiz-adv-x="1363" 
d="M176 569v2q16 85 54.5 169t103 162.5t146 139t190.5 96.5t229 36q86 0 160.5 -19t129 -52.5t98 -79t68.5 -99t41 -113.5t15 -121t-10 -121q-16 -85 -55.5 -169.5t-104 -163.5t-146 -139t-190.5 -96t-229 -36q-86 0 -160.5 19t-129 52t-98 79t-68.5 99.5t-40.5 113
t-14 120.5t10.5 121zM516 569l-2 -2q-21 -121 44 -202.5t177 -81.5t207.5 82t118.5 204t-43 204.5t-178 82.5t-206.5 -82t-117.5 -205zM1104 1651l266 -340h-328l-94 116l-135 -116h-332l402 340h221z" />
    <glyph glyph-name="otilde" unicode="&#xf5;" horiz-adv-x="1363" 
d="M176 569v2q16 85 54.5 169t103 162.5t146 139t190.5 96.5t229 36q86 0 160.5 -19t129 -52.5t98 -79t68.5 -99t41 -113.5t15 -121t-10 -121q-16 -85 -55.5 -169.5t-104 -163.5t-146 -139t-190.5 -96t-229 -36q-86 0 -160.5 19t-129 52t-98 79t-68.5 99.5t-40.5 113
t-14 120.5t10.5 121zM516 569l-2 -2q-21 -121 44 -202.5t177 -81.5t207.5 82t118.5 204t-43 204.5t-178 82.5t-206.5 -82t-117.5 -205zM1284 1614l72 -225q-135 -76 -246 -76q-26 0 -162 26q-118 27 -155 27q-48 0 -85 -12t-83 -37l-70 231q142 72 240 72q49 0 159 -25
q98 -26 162 -26q100 0 168 45z" />
    <glyph glyph-name="odieresis" unicode="&#xf6;" horiz-adv-x="1363" 
d="M176 569v2q16 85 54.5 169t103 162.5t146 139t190.5 96.5t229 36q86 0 160.5 -19t129 -52.5t98 -79t68.5 -99t41 -113.5t15 -121t-10 -121q-16 -85 -55.5 -169.5t-104 -163.5t-146 -139t-190.5 -96t-229 -36q-86 0 -160.5 19t-129 52t-98 79t-68.5 99.5t-40.5 113
t-14 120.5t10.5 121zM516 569l-2 -2q-21 -121 44 -202.5t177 -81.5t207.5 82t118.5 204t-43 204.5t-178 82.5t-206.5 -82t-117.5 -205zM907 1628l-57 -309h-326l58 309h325zM1384 1628l-57 -309h-326l58 309h325z" />
    <glyph glyph-name="divide" unicode="&#xf7;" horiz-adv-x="1228" 
d="M987 1153l-59 -328h-322l60 328h321zM164 354l61 328h1032l-61 -328h-1032zM813 211l-61 -328h-322l62 328h321z" />
    <glyph glyph-name="oslash" unicode="&#xf8;" horiz-adv-x="1363" 
d="M1210 1204h336l-217 -235q113 -178 72 -400q-20 -110 -79 -216t-149 -194t-219.5 -142t-275.5 -54q-137 0 -240 47l-73 -78h-336l215 230q-52 75 -71 179t1 224q20 110 78.5 216t148 195t220 143.5t280.5 54.5q132 0 240 -48zM518 442l379 408q-36 6 -55 6
q-116 0 -210 -83t-116 -204q-13 -69 2 -127zM1057 688l-373 -401q36 -6 49 -6q123 0 214 86t114 202q9 54 -4 119z" />
    <glyph glyph-name="ugrave" unicode="&#xf9;" horiz-adv-x="1298" 
d="M1386 1137l-210 -1137h-318l23 121q-22 -25 -35.5 -39t-47.5 -40t-67 -41t-85.5 -27.5t-110.5 -12.5q-80 0 -141.5 18t-99 47t-62 70t-35 81.5t-12 89t2.5 84.5t11 75l131 711h340l-115 -621q-10 -52 -10.5 -90.5t11 -73t45 -53t89.5 -18.5q61 0 105.5 19.5t71 56t41 74
t24.5 87.5l115 619h339zM659 1718l449 -262l-131 -199l-465 222z" />
    <glyph glyph-name="uacute" unicode="&#xfa;" horiz-adv-x="1298" 
d="M1386 1137l-210 -1137h-318l23 121q-22 -25 -35.5 -39t-47.5 -40t-67 -41t-85.5 -27.5t-110.5 -12.5q-80 0 -141.5 18t-99 47t-62 70t-35 81.5t-12 89t2.5 84.5t11 75l131 711h340l-115 -621q-10 -52 -10.5 -90.5t11 -73t45 -53t89.5 -18.5q61 0 105.5 19.5t71 56t41 74
t24.5 87.5l115 619h339zM735 1473l541 264l63 -242l-544 -223z" />
    <glyph glyph-name="ucircumflex" unicode="&#xfb;" horiz-adv-x="1298" 
d="M1386 1137l-210 -1137h-318l23 121q-22 -25 -35.5 -39t-47.5 -40t-67 -41t-85.5 -27.5t-110.5 -12.5q-80 0 -141.5 18t-99 47t-62 70t-35 81.5t-12 89t2.5 84.5t11 75l131 711h340l-115 -621q-10 -52 -10.5 -90.5t11 -73t45 -53t89.5 -18.5q61 0 105.5 19.5t71 56t41 74
t24.5 87.5l115 619h339zM1071 1651l266 -340h-327l-95 116l-135 -116h-331l401 340h221z" />
    <glyph glyph-name="udieresis" unicode="&#xfc;" horiz-adv-x="1298" 
d="M1386 1137l-210 -1137h-318l23 121q-22 -25 -35.5 -39t-47.5 -40t-67 -41t-85.5 -27.5t-110.5 -12.5q-80 0 -141.5 18t-99 47t-62 70t-35 81.5t-12 89t2.5 84.5t11 75l131 711h340l-115 -621q-10 -52 -10.5 -90.5t11 -73t45 -53t89.5 -18.5q61 0 105.5 19.5t71 56t41 74
t24.5 87.5l115 619h339zM874 1628l-57 -309h-325l57 309h325zM1352 1628l-58 -309h-325l57 309h326z" />
    <glyph glyph-name="yacute" unicode="&#xfd;" horiz-adv-x="1175" 
d="M174 -379l260 436l-221 1080h362l109 -660l340 660h360l-849 -1516h-361zM674 1473l540 264l64 -242l-545 -223z" />
    <glyph glyph-name="thorn" unicode="&#xfe;" horiz-adv-x="1423" 
d="M51 -379l350 1895h340l-67 -365l-21 -115q37 30 60 45.5t70.5 41.5t105.5 38.5t127 12.5q84 0 154.5 -20.5t120 -55.5t86 -83.5t57.5 -103.5t30.5 -116t8 -120.5t-12.5 -117.5q-22 -122 -83.5 -231.5t-149 -190t-200.5 -127.5t-232 -47q-60 0 -111.5 12t-81 25t-59.5 38
t-38 34.5t-26 31.5l-26 -143l-62 -338h-340zM1122 567l2 2q13 69 -7 133.5t-79.5 109t-148.5 44.5q-133 0 -230 -94q-90 -84 -110 -195q-19 -116 39 -198q70 -90 194 -90q129 0 223.5 87t116.5 201z" />
    <glyph glyph-name="ydieresis" unicode="&#xff;" horiz-adv-x="1175" 
d="M174 -379l260 436l-221 1080h362l109 -660l340 660h360l-849 -1516h-361zM813 1628l-57 -309h-326l57 309h326zM1290 1628l-57 -309h-326l58 309h325z" />
    <glyph glyph-name="dotlessi" unicode="&#x131;" horiz-adv-x="585" 
d="M123 0l211 1137h340l-211 -1137h-340z" />
    <glyph glyph-name="Lslash" unicode="&#x141;" horiz-adv-x="997" 
d="M74 324l71 385l152 96l131 711h387l-80 -433l252 160l-69 -385l-254 -160l-66 -358h449l-64 -340h-836l78 420z" />
    <glyph glyph-name="lslash" unicode="&#x142;" horiz-adv-x="700" 
d="M262 463l-139 -80l65 352l140 80l129 701h340l-88 -482l147 86l-65 -352l-148 -86l-127 -682h-340z" />
    <glyph glyph-name="OE" unicode="&#x152;" horiz-adv-x="2222" 
d="M1866 1176l-43 -236h454l-63 -340h-455l-47 -260h471l-63 -340h-844l10 51l8 49q-202 -129 -442 -129q-111 0 -210 29t-175 81t-135 124t-90.5 159t-42 186t11.5 204q22 119 77.5 234t142.5 215.5t195.5 176.5t245.5 120t283 44q81 0 146 -12t112.5 -36t70 -39.5
t54.5 -41.5l10 51l8 50h844l-63 -340h-471zM598 754v-2q-7 -38 -7.5 -79t7 -84.5t23 -83.5t42.5 -75.5t62.5 -61.5t86 -41.5t110.5 -15.5q98 0 184.5 39t148.5 104t103 145t57 165q23 121 -7.5 221t-113 159.5t-204.5 59.5q-99 0 -187 -40t-148.5 -105.5t-101 -144
t-55.5 -160.5z" />
    <glyph glyph-name="oe" unicode="&#x153;" horiz-adv-x="2203" 
d="M2216 463h-852q-8 -93 49.5 -153t165.5 -60q56 0 104 17t74 35.5t62 51.5h348q-85 -141 -221 -248q-193 -145 -414 -145q-276 0 -387 205q-26 -27 -45.5 -45t-67 -51.5t-95 -54.5t-120.5 -37.5t-153 -16.5q-163 0 -286.5 78.5t-179 217.5t-24.5 308q22 119 85.5 229
t156.5 195t220.5 136t268.5 51q132 0 239.5 -57t151.5 -138q73 81 201 138t260 57q122 0 223 -47t168 -132q84 -104 103 -247t-35 -287zM514 567v-2q-22 -117 42.5 -201.5t180.5 -84.5q124 0 214.5 91t111.5 199q21 113 -40.5 201t-178.5 88q-67 0 -135 -32.5t-123 -101
t-72 -157.5zM1415 690h512q-3 92 -64 144.5t-155 52.5q-95 0 -177 -53.5t-116 -143.5z" />
    <glyph glyph-name="Scaron" unicode="&#x160;" horiz-adv-x="1173" 
d="M143 502h385q-12 -52 -5 -89t19 -60t33.5 -36t39 -17.5t34.5 -4.5q66 0 115 44.5t59 100.5q10 55 -35.5 88.5t-210.5 108.5q-9 4 -14 6q-133 58 -199 123q-125 125 -92 311q21 110 85 201t151.5 147.5t186.5 87.5t196 31q67 0 130.5 -13.5t125.5 -47.5t104.5 -86
t61 -135.5t0.5 -188.5h-383q-1 16 0.5 35t-5 39t-17 36.5t-34 27t-57.5 10.5q-53 0 -98.5 -33.5t-54.5 -85.5q-10 -50 33 -82t241 -129q126 -62 192.5 -130t81 -141.5t-1.5 -162.5q-14 -76 -42.5 -144t-79 -131.5t-118 -109.5t-165 -73.5t-213.5 -27.5q-97 0 -175 18.5
t-132 53t-90 82.5t-52 107.5t-16 127t16 142.5zM508 1974h330l92 -116l137 116h330l-402 -340h-221z" />
    <glyph glyph-name="scaron" unicode="&#x161;" horiz-adv-x="1021" 
d="M1092 817h-334q3 9 0.5 24t-7.5 28.5t-26.5 23.5t-56.5 10q-49 0 -77.5 -24t-33.5 -52q-7 -35 35.5 -61.5t118.5 -50.5q36 -10 55.5 -16t53 -17.5t52.5 -20.5t46.5 -23.5t43 -29t35 -33.5t28 -41.5t16 -49t7 -58.5t-7.5 -68q-22 -121 -102.5 -213t-193.5 -138t-240 -46
q-56 0 -109.5 10t-109 37t-95.5 68t-62 108.5t-15 153.5h338q-2 -29 8 -50.5t23 -31.5t31.5 -16t27.5 -6.5t18 -0.5q46 0 87 25t48 64q8 43 -23.5 65t-135.5 63q-68 27 -109 44q-114 38 -174.5 113t-40.5 184q21 114 98 203.5t185 135.5t227 46q50 0 99 -8t103.5 -32.5
t93.5 -62.5t61 -104t14 -152zM369 1636h329l95 -116l135 116h329l-401 -340h-221z" />
    <glyph glyph-name="Ydieresis" unicode="&#x178;" horiz-adv-x="1325" 
d="M471 0l102 551l-274 965h420l112 -609l340 609h416l-626 -965l-103 -551h-387zM950 1966l-57 -309h-326l58 309h325zM1427 1966l-57 -309h-326l58 309h325z" />
    <glyph glyph-name="Zcaron" unicode="&#x17d;" horiz-adv-x="1021" 
d="M1212 1202l-643 -862h484l-64 -340h-956l47 254l692 922h-522l63 340h957zM438 1954h330l92 -117l137 117h330l-401 -340h-221z" />
    <glyph glyph-name="zcaron" unicode="&#x17e;" horiz-adv-x="909" 
d="M31 0l43 233l600 646h-479l47 258h845l-47 -258l-561 -621h445l-47 -258h-846zM350 1626h330l94 -117l135 117h330l-401 -340h-222z" />
    <glyph glyph-name="florin" unicode="&#x192;" 
d="M1069 1079h150l-48 -256h-194l-232 -643q-39 -107 -60.5 -160t-64 -123.5t-96.5 -125.5q-95 -96 -216.5 -142.5t-237.5 -46.5q-74 0 -109 12l111 304q32 -4 34 -4q63 0 108 16.5t76.5 51.5t51 73.5t41.5 99.5l246 688h-148l47 256h193q36 112 87 190t126 144
q150 131 366 131q57 0 84 -6l-94 -272q-35 0 -59 -6q-64 -14 -107 -66q-23 -28 -55 -115z" />
    <glyph glyph-name="circumflex" unicode="&#x2c6;" horiz-adv-x="1136" 
d="M989 1651l266 -340h-327l-94 116l-136 -116h-331l401 340h221z" />
    <glyph glyph-name="caron" unicode="&#x2c7;" horiz-adv-x="1136" 
d="M426 1636h330l94 -116l135 116h330l-402 -340h-221z" />
    <glyph glyph-name="uni02C9" unicode="&#x2c9;" horiz-adv-x="1136" 
d="M1233 1606l-47 -258h-735l47 258h735z" />
    <glyph glyph-name="breve" unicode="&#x2d8;" horiz-adv-x="1136" 
d="M444 1614h252q27 -44 66 -58q35 -14 102 -14q38 0 89 16t83 56h252q-20 -79 -72 -141.5t-120.5 -99t-141.5 -55t-145 -18.5q-175 0 -276.5 85.5t-88.5 228.5z" />
    <glyph glyph-name="dotaccent" unicode="&#x2d9;" horiz-adv-x="1136" 
d="M1032 1628l-57 -309h-326l58 309h325z" />
    <glyph glyph-name="ring" unicode="&#x2da;" horiz-adv-x="1136" 
d="M891 1745h2q105 0 166.5 -76t42.5 -182q-20 -106 -110 -182t-197 -76t-168 76t-41 182q19 106 108.5 182t196.5 76zM860 1579h-2q-38 0 -68 -27.5t-36 -64.5q-7 -36 14.5 -62t58.5 -26t68.5 26t38.5 64q6 37 -15 63.5t-59 26.5z" />
    <glyph glyph-name="ogonek" unicode="&#x2db;" horiz-adv-x="1136" 
d="M528 0h172q-129 -63 -143 -139q-6 -39 18.5 -69t63.5 -30q30 0 100 25l-32 -176q-113 -33 -183 -33q-117 0 -170 58t-37 141q9 56 55 106t156 117z" />
    <glyph glyph-name="tilde" unicode="&#x2dc;" horiz-adv-x="1136" 
d="M1169 1614l72 -225q-135 -76 -246 -76q-24 0 -161 26q-118 27 -156 27q-48 0 -85 -12t-83 -37l-70 231q142 72 240 72q50 0 160 -25q98 -26 161 -26q100 0 168 45z" />
    <glyph glyph-name="hungarumlaut" unicode="&#x2dd;" horiz-adv-x="1136" 
d="M428 1434l352 307l158 -195l-375 -278zM920 1434l352 307l158 -195l-375 -278z" />
    <glyph glyph-name="uni03A9" unicode="&#x3a9;" horiz-adv-x="1591" 
d="M414 276l2 7q-33 36 -60.5 77.5t-53 96.5t-38.5 114.5t-16.5 132.5t12.5 150q26 135 98.5 259t178 219t248.5 151.5t298 56.5q83 0 157 -16.5t130.5 -46t104.5 -70.5t80 -89.5t56 -103.5t33 -113t11 -117t-10 -116q-34 -183 -137.5 -333.5t-237.5 -251.5l-2 -7h297
l-52 -276h-630l39 205q273 154 354 590q21 132 5 234t-81 164t-168 62q-154 0 -273 -131.5t-157 -343.5q-41 -215 0.5 -365.5t138.5 -209.5l-39 -205h-630l51 276h291z" />
    <glyph glyph-name="uni03BC" unicode="&#x3bc;" horiz-adv-x="1298" 
d="M35 -389l282 1526h340l-104 -562q-22 -129 4 -202q33 -92 141 -92q110 0 179 92q58 77 79 202l105 562h340l-211 -1137h-324l27 141q-104 -161 -246 -161q-76 0 -120.5 32.5t-63.5 77.5l-19 -98l-69 -381h-340z" />
    <glyph glyph-name="pi" unicode="&#x3c0;" horiz-adv-x="1388" 
d="M1497 856h-145l-97 -524q-38 -195 -34 -332h-338q-26 75 20 317l98 539h-256q-40 -187 -123.5 -443.5t-164.5 -412.5h-340q88 194 171.5 445.5t112.5 410.5q-127 0 -206 -18l4 225q114 82 409 82h971z" />
    <glyph glyph-name="uni2010" unicode="&#x2010;" horiz-adv-x="575" 
d="M141 758h576l-64 -334h-575z" />
    <glyph glyph-name="endash" unicode="&#x2013;" horiz-adv-x="1024" 
d="M213 758h881l-64 -334h-880z" />
    <glyph glyph-name="emdash" unicode="&#x2014;" horiz-adv-x="2048" 
d="M213 758h1905l-64 -334h-1904z" />
    <glyph glyph-name="quoteleft" unicode="&#x2018;" horiz-adv-x="643" 
d="M748 1516l77 -512h-245l-123 512h291z" />
    <glyph glyph-name="quoteright" unicode="&#x2019;" horiz-adv-x="643" 
d="M190 1004l267 512h291l-312 -512h-246z" />
    <glyph glyph-name="quotesinglbase" unicode="&#x201a;" horiz-adv-x="643" 
d="M-35 -209l266 512h291l-311 -512h-246z" />
    <glyph glyph-name="quotedblleft" unicode="&#x201c;" horiz-adv-x="1136" 
d="M823 1516l78 -512h-246l-123 512h291zM1202 1516l78 -512h-246l-123 512h291z" />
    <glyph glyph-name="quotedblright" unicode="&#x201d;" horiz-adv-x="1136" 
d="M229 1004l267 512h290l-311 -512h-246zM608 1004l266 512h291l-311 -512h-246z" />
    <glyph glyph-name="quotedblbase" unicode="&#x201e;" horiz-adv-x="1136" 
d="M4 -209l266 512h291l-311 -512h-246zM383 -209l266 512h291l-311 -512h-246z" />
    <glyph glyph-name="dagger" unicode="&#x2020;" horiz-adv-x="1372" 
d="M1137 1516l-68 -363h315l-53 -287h-315l-252 -1366h-338l252 1366h-318l54 287h317l68 363h338z" />
    <glyph glyph-name="daggerdbl" unicode="&#x2021;" horiz-adv-x="1372" 
d="M1137 1516l-56 -302h316l-54 -286h-315l-123 -668h316l-54 -287h-315l-88 -473h-338l88 473h-317l53 287h317l123 668h-317l53 286h317l56 302h338z" />
    <glyph glyph-name="bullet" unicode="&#x2022;" horiz-adv-x="1513" 
d="M963 1090h2q126 0 199 -94t48 -224q-25 -132 -133.5 -224.5t-236.5 -92.5q-130 0 -204.5 93.5t-49.5 223.5q24 129 132.5 223.5t242.5 94.5z" />
    <glyph glyph-name="ellipsis" unicode="&#x2026;" horiz-adv-x="2048" 
d="M166 0l65 348h355l-66 -348h-354zM848 0l65 348h355l-66 -348h-354zM1530 0l65 348h355l-66 -348h-354z" />
    <glyph glyph-name="perthousand" unicode="&#x2030;" horiz-adv-x="2576" 
d="M291 1176l2 2q28 152 156 260t280 108q154 0 241 -108t58 -262q-28 -153 -155.5 -261t-280.5 -108q-151 0 -240 108t-61 261zM518 1176v-2q-9 -56 25 -98t92 -42q56 0 106 41.5t62 102.5q10 60 -24 100.5t-93 40.5t-107.5 -41t-60.5 -102zM1008 340v2q28 152 156 260.5
t282 108.5q152 0 240.5 -108.5t60.5 -262.5q-29 -154 -158.5 -262.5t-279.5 -108.5q-152 0 -241 108t-60 263zM1235 340v-2q-11 -58 23.5 -99.5t93.5 -41.5q58 0 108 42t60 101q10 61 -23.5 102t-91.5 41q-61 0 -110 -42t-60 -101zM1827 340v2q28 152 156 260.5t282 108.5
q152 0 240.5 -108.5t60.5 -262.5q-29 -154 -158.5 -262.5t-279.5 -108.5q-152 0 -241 108t-60 263zM2054 340v-2q-11 -58 23.5 -99.5t93.5 -41.5q58 0 108 42t60 101q10 61 -23.5 102t-91.5 41q-61 0 -110 -42t-60 -101zM1587 1516l-909 -1516h-236l908 1516h237z" />
    <glyph glyph-name="guilsinglleft" unicode="&#x2039;" horiz-adv-x="454" 
d="M125 582l268 372h238l-269 -372l132 -373h-238z" />
    <glyph glyph-name="guilsinglright" unicode="&#x203a;" horiz-adv-x="454" 
d="M414 954l133 -372l-271 -373h-237l270 373l-133 372h238z" />
    <glyph glyph-name="fraction" unicode="&#x2044;" horiz-adv-x="432" 
d="M-242 0l916 1516h280l-917 -1516h-279z" />
    <glyph glyph-name="Euro" unicode="&#x20ac;" 
d="M1321 434q-88 -269 -272 -383q-128 -80 -301 -80q-113 0 -196 36t-132 103t-72.5 152.5t-23.5 192.5q0 10 1 30.5t1 32.5h-187l70 197h135q1 7 4 21.5t4 21.5q2 14 10 47h-190l70 196h176q41 115 97.5 210t133.5 171.5t178.5 119t219.5 42.5q107 0 186 -36t122.5 -98
t64 -133t20.5 -153v-34h-336q-6 49 -39 81.5t-82 32.5q-61 0 -111.5 -41.5t-93.5 -161.5h416l-70 -196h-401q-4 -13 -8 -47q-1 -7 -4 -21.5t-4 -21.5h389l-70 -197h-338q1 -118 38 -162.5t97 -44.5q104 0 162 123h336z" />
    <glyph glyph-name="afii61289" unicode="&#x2113;" horiz-adv-x="1198" 
d="M1104 446l110 -145q-227 -324 -557 -324q-189 0 -274.5 90t-85.5 240q0 3 1 10.5t1 10.5q-21 -12 -60.5 -38.5t-60.5 -39.5l-51 176q29 21 102 71t111 78l94 510q52 282 198.5 430t340.5 148q86 0 146.5 -32t89.5 -86.5t37.5 -128t-9.5 -156.5q-34 -181 -176.5 -358
t-392.5 -376l-17 -92q-12 -83 27 -131.5t115 -48.5q77 0 159.5 55t151.5 137zM774 1102l-51 -271q120 113 201 232t98 209q28 151 -72 151q-50 0 -97 -72.5t-79 -248.5z" />
    <glyph glyph-name="trademark" unicode="&#x2122;" horiz-adv-x="2027" 
d="M903 606l168 910h326l78 -568l280 568h326l-168 -910h-240l115 617l-293 -617h-172l-68 613l-112 -613h-240zM342 606l129 692h-186l39 218h628l-39 -218h-184l-129 -692h-258z" />
    <glyph glyph-name="Omega" unicode="&#x2126;" horiz-adv-x="1591" 
d="M414 276l2 7q-33 36 -60.5 77.5t-53 96.5t-38.5 114.5t-16.5 132.5t12.5 150q26 135 98.5 259t178 219t248.5 151.5t298 56.5q83 0 157 -16.5t130.5 -46t104.5 -70.5t80 -89.5t56 -103.5t33 -113t11 -117t-10 -116q-34 -183 -137.5 -333.5t-237.5 -251.5l-2 -7h297
l-52 -276h-630l39 205q273 154 354 590q21 132 5 234t-81 164t-168 62q-154 0 -273 -131.5t-157 -343.5q-41 -215 0.5 -365.5t138.5 -209.5l-39 -205h-630l51 276h291z" />
    <glyph glyph-name="estimated" unicode="&#x212e;" horiz-adv-x="2181" 
d="M2107 735h-1415q-12 0 -12 -8v-428q0 -24 18 -49q106 -109 244.5 -171.5t292.5 -62.5q165 0 311.5 69.5t251.5 190.5h125q-120 -139 -301.5 -221t-388.5 -82q-178 0 -339.5 62t-278.5 167t-186 250.5t-69 305.5t69 305.5t186 250.5t278.5 167.5t339.5 62.5t340 -62.5
t279 -167.5t186 -250.5t69 -305.5v-23zM1786 793v430q0 30 -21 51q-106 104 -242.5 163.5t-287.5 59.5t-289 -61.5t-244 -169.5q-22 -22 -22 -54v-419q0 -5 4 -10t8 -5h1084q10 0 10 15z" />
    <glyph glyph-name="partialdiff" unicode="&#x2202;" horiz-adv-x="1323" 
d="M475 1331l-45 254q209 129 459 129q134 0 241 -54t177 -159.5t91.5 -260.5t-14.5 -357q-76 -414 -299.5 -657.5t-525.5 -243.5q-80 0 -147 23t-111 62.5t-77 91.5t-46 110t-17 118.5t9 116.5q47 258 214.5 416.5t381.5 158.5q61 0 113.5 -17t85.5 -44t53.5 -52t30.5 -48
h2q5 18 12 59q10 67 9.5 132t-21.5 123.5t-53.5 103.5t-86 71.5t-120.5 26.5q-158 0 -316 -103zM647 264h2q67 0 135 63.5t114.5 148.5t72.5 173q-2 22 -13.5 48t-33 51.5t-57.5 42t-79 16.5q-98 0 -177 -94t-103 -221q-18 -95 21.5 -161.5t117.5 -66.5z" />
    <glyph glyph-name="uni2206" unicode="&#x2206;" horiz-adv-x="1486" 
d="M51 0l35 188l743 1356h418l221 -1349l-36 -195h-1381zM467 274h639l-102 543q-5 55 -22.5 191.5t-20.5 183.5h-7q-12 -26 -75 -151.5t-93 -192.5z" />
    <glyph glyph-name="product" unicode="&#x220f;" horiz-adv-x="1921" 
d="M1872 1202h-221v-1411h-348v1411h-404v-1411h-348v1411h-221v314h1542v-314z" />
    <glyph glyph-name="summation" unicode="&#x2211;" horiz-adv-x="1540" 
d="M1505 -209h-1173v215l504 647l-488 621v242h1118v-295h-647v-9l412 -503l-463 -592v-8h737v-318z" />
    <glyph glyph-name="minus" unicode="&#x2212;" horiz-adv-x="1228" 
d="M164 354l61 328h1032l-61 -328h-1032z" />
    <glyph glyph-name="uni2215" unicode="&#x2215;" horiz-adv-x="432" 
d="M-242 0l916 1516h280l-917 -1516h-279z" />
    <glyph glyph-name="uni2219" unicode="&#x2219;" horiz-adv-x="643" 
d="M629 692l-66 -348h-354l65 348h355z" />
    <glyph glyph-name="radical" unicode="&#x221a;" horiz-adv-x="1640" 
d="M1675 1825l-510 -2122h-272l-324 920l-163 -68l-54 186l424 174l205 -628q8 -33 25 -103.5t24 -99.5l4 -4q20 131 39 225l363 1520h239z" />
    <glyph glyph-name="infinity" unicode="&#x221e;" horiz-adv-x="1902" 
d="M1800 627v-4q0 -91 -31 -168t-82.5 -126t-117 -76.5t-135.5 -27.5q-103 0 -196.5 51t-190.5 191q-95 -120 -187 -181t-215 -61q-145 0 -251.5 108t-106.5 277q0 175 108 284.5t271 109.5q117 0 208.5 -57t180.5 -175q3 3 27 31t32 35.5t32.5 33t38.5 35.5t40 30t48 28.5
t50.5 19.5t59 15t63.5 4q150 0 252 -104.5t102 -272.5zM668 408h2q41 0 79 15t74 46.5t61.5 59.5t61.5 73q-77 111 -110 144q-77 79 -174 79q-86 0 -138.5 -59t-52.5 -156q0 -84 57 -143t140 -59zM1427 825h-2q-23 0 -46 -6.5t-40.5 -13.5t-40 -25t-34 -27t-34 -34.5
t-29 -32.5t-29.5 -36.5t-25 -31.5q93 -124 153.5 -167t137.5 -43q80 0 128 64t48 138q0 92 -51.5 153.5t-135.5 61.5z" />
    <glyph glyph-name="integral" unicode="&#x222b;" horiz-adv-x="1202" 
d="M1155 1864l-31 -234q-49 17 -80 17q-70 0 -110 -60q-51 -71 -51 -350q0 -174 17.5 -487.5t17.5 -524.5q0 -285 -74 -430q-48 -96 -134.5 -141t-187.5 -45q-112 0 -188 37l39 241q57 -20 94 -20q63 0 96 41q28 39 40.5 111t12.5 204q0 212 -18 536t-18 513
q0 193 33.5 310.5t109.5 197.5q49 53 127 80.5t162 27.5q78 0 143 -24z" />
    <glyph glyph-name="approxequal" unicode="&#x2248;" horiz-adv-x="1396" 
d="M1202 1014l119 -115q-59 -109 -141 -171t-170 -62q-65 0 -116.5 18.5t-127.5 65.5q-57 37 -95.5 54t-86.5 17q-34 0 -63 -11.5t-56.5 -38.5t-42 -45t-43.5 -58l-119 114q53 99 143.5 165.5t192.5 66.5q48 0 95 -13.5t68 -24.5t64 -36q94 -60 124 -71t59 -11
q58 0 101 38.5t95 117.5zM1202 582l119 -113q-60 -109 -141.5 -172.5t-171.5 -63.5q-62 0 -114.5 20t-127.5 66q-48 30 -64.5 39.5t-51 22t-66.5 12.5q-35 0 -64 -11.5t-56.5 -39t-41.5 -45.5t-43 -59l-119 112q52 100 143 167t193 67q17 0 33 -1.5t31.5 -4.5t27.5 -6t27 -9
t23 -9t23.5 -11t20.5 -11t20.5 -12t18.5 -10q15 -8 46.5 -28t47.5 -28.5t41.5 -17t49.5 -8.5q57 0 98 36.5t98 117.5z" />
    <glyph glyph-name="notequal" unicode="&#x2260;" horiz-adv-x="1431" 
d="M1128 1130l-77 -180h278v-194h-350l-121 -283h471v-192h-547l-104 -248l-154 63l80 185h-280v192h354l121 283h-475v194h548l103 240z" />
    <glyph glyph-name="lessequal" unicode="&#x2264;" horiz-adv-x="1470" 
d="M1364 227l-991 484v213l991 483v-223l-799 -365v-4l799 -364v-224zM1372 -49h-1005v199h1005v-199z" />
    <glyph glyph-name="greaterequal" unicode="&#x2265;" horiz-adv-x="1470" 
d="M377 1407l991 -485v-211l-989 -484v224l799 364v4l-801 365v223zM1366 -49h-997v199h997v-199z" />
    <glyph glyph-name="lozenge" unicode="&#x25ca;" horiz-adv-x="1636" 
d="M1536 756l-442 -867h-277l-426 867l438 868h279zM1231 748l-221 469q-29 74 -41 133h-8q-7 -28 -41 -133l-226 -455l226 -477q26 -75 36 -125h11q22 91 37 121z" />
    <glyph glyph-name="fi" unicode="&#xfb01;" horiz-adv-x="1230" 
d="M932 879h-293l-164 -879h-340l164 879h-127l47 258h127l8 49q15 80 44.5 141t73 99t89.5 62.5t109 36t114.5 15.5t120.5 4l-47 -256q-22 0 -33 -0.5t-32 -3t-33.5 -9.5t-27.5 -18.5t-24 -31t-14 -45.5l-8 -43h633l-211 -1137h-340zM1341 1257h-340l48 259h340z" />
    <glyph glyph-name="fl" unicode="&#xfb02;" horiz-adv-x="1230" 
d="M932 879h-293l-164 -879h-340l164 879h-127l47 258h127l8 49q15 80 44.5 141t73 99t89.5 62.5t109 36t114.5 15.5t120.5 4l-47 -256q-22 0 -33 -0.5t-32 -3t-33.5 -9.5t-27.5 -18.5t-24 -31t-14 -45.5l-8 -43h293l70 376h340l-281 -1513h-340z" />
    <glyph glyph-name="a.superior" horiz-adv-x="788" 
d="M981 1524l-109 -586h-202l10 59q-57 -79 -168 -79q-123 0 -188.5 90.5t-40.5 222.5q28 144 129.5 228.5t220.5 84.5q100 0 135 -80l10 60h203zM485 1231v-2q-5 -24 1.5 -50t31 -47.5t64.5 -21.5q74 0 123 68q17 31 20 53q6 36 2 57q-5 27 -31 45.5t-69 18.5
q-57 0 -95 -37.5t-47 -83.5z" />
    <glyph glyph-name="o.superior" horiz-adv-x="788" 
d="M303 1231l2 2q10 55 40 109t76 100t114 74t145 28t135 -28.5t85.5 -73.5t39.5 -101t-2 -110q-8 -44 -28.5 -88t-53.5 -85t-75.5 -72t-99 -49.5t-118.5 -18.5q-77 0 -135 28.5t-86 73.5t-40 101t1 110zM506 1231v-2q-9 -50 18.5 -84.5t73.5 -34.5q47 0 87.5 35t49.5 86
q10 51 -17.5 86t-74.5 35q-46 0 -86.5 -34.5t-50.5 -86.5z" />
    <glyph glyph-name="one.superior" horiz-adv-x="833" 
d="M834 1516l-168 -910h-252l129 692h-160l39 218h412z" />
    <glyph glyph-name="two.superior" horiz-adv-x="833" 
d="M924 823l-41 -217h-699l37 199q31 22 144.5 102.5t173.5 124.5q83 59 122 103.5t48 93.5q15 86 -62 86q-35 0 -61.5 -25t-38 -53.5t-17.5 -60.5h-251q9 42 17 69t29.5 69.5t53.5 78.5q124 141 323 141q171 0 246.5 -70t50.5 -204q-17 -92 -57 -153t-125 -124
q-60 -44 -213 -160h320z" />
    <glyph glyph-name="three.superior" horiz-adv-x="833" 
d="M209 887h264q1 -16 3.5 -26t10.5 -24t26.5 -21t47.5 -7q47 0 77 23.5t38 64.5q5 31 -15 54.5t-71 23.5h-113l35 184h49q123 0 139 86q9 68 -53 68q-23 0 -40 -7t-25 -17t-13.5 -21.5t-8.5 -21.5q-1 -3 -1 -5h-258q14 71 50 125.5t79 85t95.5 50t93 26t77.5 6.5
q140 0 212.5 -75t52.5 -177q-3 -18 -10 -37t-23 -47t-46.5 -55.5t-72.5 -48.5q74 -26 108.5 -85t20.5 -132q-22 -119 -146 -204t-274 -85q-93 0 -171 33t-111 94q-24 41 -28 94.5t1 77.5z" />
    </font>
</defs>
</svg>
