<?xml version="1.0" standalone="no"?>
<!DOCTYPE svg PUBLIC "-//W3C//DTD SVG 1.1//EN" "http://www.w3.org/Graphics/SVG/1.1/DTD/svg11.dtd" >
<svg xmlns="http://www.w3.org/2000/svg" xmlns:xlink="http://www.w3.org/1999/xlink" version="1.1">
<metadata>
Created by FontForge 20170731 at Tue Sep 29 22:08:22 2020
 By Aleksey,,,
(c) 1993, 1994, 2001, 2002 Adobe Systems Incorporated. All rights reserved.
</metadata>
<defs>
<font id="ITCAvantGardeStd-BkObl" horiz-adv-x="1179" >
  <font-face 
    font-family="ITC Avant Garde Std Bk"
    font-weight="300"
    font-style="italic"
    font-stretch="normal"
    units-per-em="2048"
    panose-1="2 11 5 2 2 2 2 2 2 4"
    ascent="1516"
    descent="-532"
    x-height="1102"
    cap-height="1516"
    bbox="-268 -594 2513 1982"
    underline-thickness="102"
    underline-position="-307"
    slope="-10.5"
    unicode-range="U+0020-FB02"
  />
<missing-glyph horiz-adv-x="1288" 
d="M264 0v1434h1024v-1434h-1024zM776 809l348 522h-696zM838 717l348 -522v1044zM428 102h696l-348 523zM367 1239v-1044l348 522z" />
    <glyph glyph-name="f_i" unicode="fi" horiz-adv-x="946" 
d="M829 981h-323l-182 -981h-150l182 981h-161l22 121h162l16 90q13 70 39.5 126t56.5 92t71.5 62t76.5 39.5t79 20.5t70 8.5t60 1.5l-23 -121q-89 -5 -133 -23q-118 -49 -149 -220l-15 -76h476l-205 -1102h-152zM1040 1305h-151l39 211h151z" />
    <glyph glyph-name="f_l" unicode="fl" horiz-adv-x="946" 
d="M829 981h-323l-182 -981h-150l182 981h-161l22 121h162l16 90q13 70 39.5 126t56.5 92t71.5 62t76.5 39.5t79 20.5t70 8.5t60 1.5l-23 -121q-89 -5 -133 -23q-118 -49 -149 -220l-15 -76h324l76 414h151l-280 -1516h-152z" />
    <glyph glyph-name=".notdef" horiz-adv-x="1288" 
d="M264 0v1434h1024v-1434h-1024zM776 809l348 522h-696zM838 717l348 -522v1044zM428 102h696l-348 523zM367 1239v-1044l348 522z" />
    <glyph glyph-name=".null" horiz-adv-x="0" 
 />
    <glyph glyph-name="nonmarkingreturn" horiz-adv-x="682" 
 />
    <glyph glyph-name="space" unicode=" " horiz-adv-x="589" 
 />
    <glyph glyph-name="exclam" unicode="!" horiz-adv-x="581" 
d="M649 1516l-207 -1123h-155l207 1123h155zM410 225l-41 -225h-156l41 225h156z" />
    <glyph glyph-name="quotedbl" unicode="&#x22;" horiz-adv-x="770" 
d="M473 909h-125l113 607h125zM758 909h-125l112 607h125z" />
    <glyph glyph-name="numbersign" unicode="#" 
d="M887 528l-148 -446h-108l145 446h-248l-145 -446h-113l148 446h-275l29 107h279l77 237h-274l31 107h280l133 410h111l-133 -410h248l133 410h110l-133 -410h283l-31 -107h-289l-77 -237h282l-28 -107h-287zM809 635l80 237h-248l-80 -237h248z" />
    <glyph glyph-name="dollar" unicode="$" 
d="M971 1659l-33 -178q98 -15 160 -68.5t82.5 -125.5t7.5 -157h-148q5 57 -10.5 102.5t-45 72t-64 40t-70.5 13.5q-91 0 -171.5 -66t-100.5 -170q-5 -25 -5.5 -47.5t4.5 -41.5t11 -34.5t20.5 -30t25.5 -25t33 -22.5t36.5 -19t43 -17.5t44.5 -16t49 -16.5q312 -114 260 -387
q-26 -140 -144 -255t-280 -140l-37 -199h-133l37 199q-156 17 -233.5 128t-55.5 265h158q-16 -128 52 -198t171 -70q107 0 195.5 76t109.5 182q13 72 -4 123.5t-70 86.5t-94 52t-121 43q-21 7 -39 13.5t-40.5 17.5t-40 22.5t-38 28.5t-33.5 36t-26.5 44t-18 53t-6.5 63t7 74
q28 150 137 248.5t252 122.5l33 178h133z" />
    <glyph glyph-name="percent" unicode="%" horiz-adv-x="1566" 
d="M276 1198l3 2q26 146 143.5 245t263.5 99q148 0 228.5 -99t52.5 -247q-26 -148 -144 -247t-266 -99q-146 0 -226.5 99t-54.5 247zM389 1198v-2q-19 -100 34.5 -166.5t154.5 -66.5t178 66t96 169q20 102 -32.5 169t-153.5 67t-179 -67t-98 -169zM881 317v2q28 147 145 246
t264 99t228 -100t53 -247t-145.5 -246.5t-264.5 -99.5q-148 0 -228 99t-52 247zM993 317v-2q-20 -100 33.5 -166.5t155.5 -66.5q101 0 178.5 66.5t97.5 168.5q19 103 -34 170.5t-154 67.5q-102 0 -180 -68t-97 -170zM1540 1516l-1116 -1516h-121l1114 1516h123z" />
    <glyph glyph-name="ampersand" unicode="&#x26;" horiz-adv-x="1501" 
d="M1384 934h162l-364 -510l276 -346l-125 -103l-254 322q-56 -81 -106.5 -136.5t-113 -101t-137 -67t-163.5 -21.5q-135 0 -229.5 62t-131.5 159t-16 209q53 284 449 455q-75 100 -107 173t-18 169q27 141 148 242.5t270 101.5q150 0 233.5 -101.5t56.5 -242.5
q-8 -43 -25 -81t-36 -66.5t-51 -57t-56.5 -46.5t-65 -40t-65 -33.5t-67.5 -31.5l252 -316zM901 1411h-2q-91 0 -159.5 -62t-82.5 -141q-3 -17 -3 -34.5t2 -32.5t7 -31t10 -28.5t14 -27.5t16 -25.5t18 -25.5t18 -23.5t19 -23t18 -22.5q150 67 214 119.5t83 146.5
q16 86 -32 148.5t-140 62.5zM993 397l-282 363q-176 -75 -259 -161t-104 -187q-21 -120 48.5 -206.5t199.5 -86.5q124 0 211.5 66.5t185.5 211.5z" />
    <glyph glyph-name="quotesingle" unicode="'" horiz-adv-x="468" 
d="M465 909h-125l113 607h125z" />
    <glyph glyph-name="parenleft" unicode="(" horiz-adv-x="903" 
d="M1116 1542l-33 -172q-106 -55 -207 -141.5t-189 -197t-153 -250t-92 -285.5q-37 -199 -1.5 -370.5t119 -300.5t200.5 -204l-33 -176q-280 159 -395.5 442.5t-55.5 610.5q39 210 150.5 411t291.5 370t398 263z" />
    <glyph glyph-name="parenright" unicode=")" horiz-adv-x="903" 
d="M-29 -555l31 172q144 75 273 200t230 303.5t138 373.5q36 198 0.5 369.5t-118 300.5t-197.5 204l32 174q113 -64 200.5 -152t144.5 -189.5t89 -218.5t33.5 -239t-20.5 -251q-38 -210 -149.5 -412t-290.5 -371.5t-396 -263.5z" />
    <glyph glyph-name="asterisk" unicode="*" horiz-adv-x="1239" 
d="M956 1516l-71 -273l256 156l35 -99l-265 -114l224 -119l-74 -98l-199 155l-28 -272h-113l74 274l-252 -157l-41 100l266 117l-223 112l76 101l194 -156l29 273h112z" />
    <glyph glyph-name="plus" unicode="+" horiz-adv-x="1228" 
d="M879 1030l-82 -442h440l-27 -148h-440l-82 -440h-147l82 440h-441l27 148h440l82 442h148z" />
    <glyph glyph-name="comma" unicode="," horiz-adv-x="591" 
d="M422 227l-225 -381h-138l201 381h162z" />
    <glyph glyph-name="hyphen" unicode="-" horiz-adv-x="555" 
d="M121 649h555l-29 -149h-555z" />
    <glyph glyph-name="period" unicode="." horiz-adv-x="591" 
d="M418 225l-41 -225h-160l41 225h160z" />
    <glyph glyph-name="slash" unicode="/" horiz-adv-x="1112" 
d="M102 -205l979 1721h170l-979 -1721h-170z" />
    <glyph glyph-name="zero" unicode="0" 
d="M166 485l98 533q17 90 52 166.5t79 129t97.5 94t105.5 66t105.5 40.5t94.5 22t76 6q74 0 143 -20t127.5 -61t97.5 -102t54 -143.5t-4 -185.5l-100 -545q-18 -96 -58.5 -176t-93.5 -134.5t-113 -95t-123 -63t-116 -33t-98 -10.5q-51 0 -103.5 11t-108.5 35.5t-99.5 63.5
t-77.5 96t-42 133t7 173zM436 1026l-100 -545q-30 -158 49 -258t227 -100q131 0 255.5 96.5t156.5 261.5l102 553q9 38 6.5 79t-10 81t-30.5 76t-54.5 63.5t-81.5 43.5t-112 16q-150 0 -263.5 -101.5t-144.5 -265.5z" />
    <glyph glyph-name="one" unicode="1" 
d="M528 0l254 1370h-305l27 146h475l-281 -1516h-170z" />
    <glyph glyph-name="two" unicode="2" 
d="M113 0l24 137q115 94 324.5 267.5t267.5 220.5q152 123 198 166q147 140 179 278q27 146 -45 235t-207 89q-134 0 -237.5 -99t-139.5 -270h-162q49 232 199 365q84 83 187 118t198 35q137 0 232.5 -62t132 -167.5t10.5 -235.5q-25 -117 -96.5 -213t-214.5 -221
q-493 -415 -592 -498h735l-27 -145h-966z" />
    <glyph glyph-name="three" unicode="3" 
d="M549 1157h-166q18 79 56.5 145t88 109.5t108 73.5t116 43.5t112.5 13.5q166 0 260 -103.5t64 -269.5q-21 -108 -92.5 -189t-175.5 -130q72 -26 122 -69t73 -86.5t33 -94t8.5 -86.5t-7.5 -70q-38 -206 -203.5 -338.5t-380.5 -132.5q-116 0 -215.5 48.5t-150.5 136.5
q-68 121 -41 286h170q-21 -146 59 -233.5t211 -87.5q146 0 251 93.5t132 232.5q15 83 -13 155.5t-102 120t-182 47.5h-100l24 131h76q77 0 140.5 25.5t102 65.5t60.5 80t29 77q21 104 -29.5 173t-152.5 69q-111 0 -186 -69.5t-99 -166.5z" />
    <glyph glyph-name="four" unicode="4" 
d="M766 0l53 285h-749l22 129l944 1102h174l-202 -1094h159l-24 -137h-160l-53 -285h-164zM270 422h582l166 889z" />
    <glyph glyph-name="five" unicode="5" 
d="M553 1516h731l-27 -146h-600l-170 -450q45 27 75 42.5t95.5 33.5t135.5 18q76 0 142 -20.5t113 -56.5t83.5 -85t53.5 -106t23 -119t-8 -125q-18 -102 -75.5 -198.5t-140.5 -170t-192 -118t-223 -44.5q-91 0 -173 30.5t-144.5 87t-97 146t-27.5 197.5h170
q-4 -141 84.5 -225t214.5 -84q147 0 276 110t158 263q29 156 -58.5 266t-238.5 110q-180 0 -327 -161l-134 34z" />
    <glyph glyph-name="six" unicode="6" 
d="M903 1516h193l-385 -441q-16 -19 -46 -54t-44 -52q87 53 200 53q94 0 175 -36t137.5 -100.5t79 -162.5t1.5 -213q-42 -224 -222 -380.5t-404 -156.5q-132 0 -228.5 48t-148.5 133q-49 70 -63 168.5t4 175.5q21 115 73 206.5t131 182.5zM317 489v-2q-28 -154 52.5 -259
t238.5 -105q157 0 280.5 108.5t153.5 264.5q16 88 -1 160.5t-59 118.5t-100.5 71.5t-125.5 25.5q-63 0 -130 -23t-130.5 -68t-112 -121t-66.5 -171z" />
    <glyph glyph-name="seven" unicode="7" 
d="M444 1516h865l-25 -136l-885 -1380h-182l889 1370h-688z" />
    <glyph glyph-name="eight" unicode="8" 
d="M389 1165l2 2q13 72 55.5 140t105.5 120t148 83.5t177 31.5q121 0 207 -52.5t120.5 -138t14.5 -186.5q-19 -107 -91.5 -191t-162.5 -124q116 -45 168.5 -155t29.5 -249q-40 -201 -205 -337t-372 -136q-137 0 -238 62t-145.5 170.5t-22.5 240.5q28 139 121 248t227 156
q-75 40 -116.5 123.5t-22.5 191.5zM553 1153v-2q-19 -103 41 -174.5t164 -71.5q103 0 188.5 72t104.5 176q20 105 -39 177.5t-162 72.5q-105 0 -191 -72.5t-106 -177.5zM348 446v-2q-25 -132 51 -226.5t213 -94.5q135 0 245.5 95t135.5 228q25 134 -49.5 230t-210.5 96
q-138 0 -249 -96t-136 -230z" />
    <glyph glyph-name="nine" unicode="9" 
d="M557 0h-192l385 440q49 58 92 107q-91 -53 -201 -53q-94 0 -175.5 36t-138 100.5t-79.5 162.5t-2 213q27 147 119.5 270t228 194.5t283.5 71.5q131 0 226.5 -47.5t147.5 -132.5q48 -71 63 -168.5t-3 -175.5q-21 -114 -73 -204t-132 -185zM1145 1026v2q28 154 -53.5 259.5
t-239.5 105.5q-156 0 -280 -108.5t-154 -264.5q-16 -87 2 -159.5t60 -119.5t100.5 -72.5t124.5 -25.5q63 0 130 23t131 68t112.5 121t66.5 171z" />
    <glyph glyph-name="colon" unicode=":" horiz-adv-x="591" 
d="M582 1102l-43 -225h-160l43 225h160zM418 225l-41 -225h-160l41 225h160z" />
    <glyph glyph-name="semicolon" unicode=";" horiz-adv-x="591" 
d="M580 1102l-43 -225h-158l43 225h158zM422 227l-232 -381h-131l201 381h162z" />
    <glyph glyph-name="less" unicode="&#x3c;" horiz-adv-x="1228" 
d="M209 590l1116 467l-31 -162l-940 -381l799 -379l-29 -162l-942 467z" />
    <glyph glyph-name="equal" unicode="=" horiz-adv-x="1228" 
d="M250 809h1028l-27 -145h-1028zM168 365h1028l-27 -146h-1028z" />
    <glyph glyph-name="greater" unicode="&#x3e;" horiz-adv-x="1228" 
d="M125 135l942 381l-801 379l31 162l940 -467l-27 -150l-1114 -467z" />
    <glyph glyph-name="question" unicode="?" horiz-adv-x="1136" 
d="M690 387h-160q24 116 81.5 208.5t191.5 201.5q118 100 153 138q71 77 91 165q22 119 -43.5 201.5t-192.5 82.5q-109 0 -205.5 -66t-138.5 -188q-5 -16 -14 -55h-166q9 42 12 49q29 104 90 186.5t138 131.5t159 74.5t162 25.5q126 0 219 -57.5t134 -156t20 -216.5
q-6 -32 -16.5 -62t-29 -59.5t-32.5 -51.5t-43.5 -52t-43.5 -45t-50.5 -46t-47.5 -40t-51 -41q-51 -41 -89 -81.5t-59 -71.5t-36.5 -66t-21 -56.5t-11.5 -52.5zM657 225l-41 -225h-157l41 225h157z" />
    <glyph glyph-name="at" unicode="@" horiz-adv-x="1597" 
d="M1460 332l37 -62q-69 -79 -160.5 -140t-183 -94t-173 -49t-149.5 -16q-102 0 -192.5 22.5t-160 63t-126.5 96.5t-92.5 124t-57.5 145t-22.5 159t13.5 167q29 159 115.5 304.5t210 254t284.5 173t330 64.5q110 0 209 -29t178 -83.5t132.5 -134t72.5 -180.5t-3 -222
q-20 -106 -68 -200t-109.5 -159.5t-131.5 -113.5t-134 -71t-116 -23q-26 0 -50.5 6.5t-50 21.5t-39 47t-9.5 76q-123 -145 -283 -145q-42 0 -81 16t-73 51.5t-46 92.5t1 139q24 129 104.5 253t194.5 203.5t226 79.5q88 0 130.5 -40t55.5 -113l60 123h110l-254 -521
q-1 -3 -18.5 -42t-22.5 -60q-18 -88 78 -88q48 0 111 32t126 88.5t115 148t72 196.5q24 130 -8.5 237.5t-105.5 175t-173 104t-213 36.5q-189 0 -364 -91t-297.5 -252t-159.5 -358q-24 -131 1.5 -252.5t93 -215.5t186 -150.5t270.5 -56.5q158 0 325.5 66t284.5 196zM645 635
v-2q-8 -59 -2 -97.5t28.5 -61t46.5 -31.5t52 -9q56 0 107 23t88.5 61t62 72t43.5 72q2 3 26 45t36.5 66.5t28.5 60.5t20 59q14 83 -28 129.5t-105 46.5q-118 0 -244.5 -131t-159.5 -303z" />
    <glyph glyph-name="A" unicode="A" horiz-adv-x="1456" 
d="M453 426l-254 -426h-183l914 1516h164l346 -1516h-185l-96 426h-706zM1133 565l-162 760l-443 -760h605z" />
    <glyph glyph-name="B" unicode="B" horiz-adv-x="1177" 
d="M152 0l280 1516h399q197 0 287 -72q77 -49 100.5 -133.5t4.5 -182.5q-40 -217 -262 -321q53 -17 93.5 -44.5t64.5 -56.5t39.5 -64.5t21.5 -65t6.5 -62.5t-1.5 -52.5t-5 -39.5q-24 -121 -95 -211.5t-178 -142.5q-72 -40 -146.5 -54t-191.5 -14h-417zM573 1366l-94 -506
h230q115 0 184 31q137 70 164 225q14 79 -11 135t-73 80q-57 32 -180 35h-220zM453 717l-105 -567h275q116 0 188 28q170 68 207 252q17 90 -15 156.5t-100 99.5q-42 20 -84.5 25.5t-122.5 5.5h-243z" />
    <glyph glyph-name="C" unicode="C" horiz-adv-x="1640" 
d="M1462 408h183q-111 -184 -324 -309.5t-453 -125.5q-221 0 -383.5 104.5t-232 284.5t-29.5 396q40 214 174.5 393.5t335.5 285t424 105.5q108 0 202.5 -27.5t161.5 -72t120.5 -103.5t84.5 -118.5t48 -120.5h-183q-12 31 -33 65.5t-61 76.5t-89 74.5t-123 54.5t-157 22
q-174 0 -332 -84.5t-265 -229.5t-140 -319q-25 -132 0.5 -250t92.5 -203t173 -134.5t236 -49.5q90 0 177 25t147 58t116 78t82 71.5t47 52.5z" />
    <glyph glyph-name="D" unicode="D" horiz-adv-x="1464" 
d="M152 0l280 1516h453q404 0 555 -228q143 -201 84 -528q-32 -172 -107.5 -311.5t-189 -239.5t-270.5 -154.5t-345 -54.5h-460zM573 1366l-225 -1216h301q286 0 468.5 162t234.5 442q52 278 -66 442q-127 170 -412 170h-301z" />
    <glyph glyph-name="E" unicode="E" horiz-adv-x="1107" 
d="M152 0l280 1516h840l-27 -150h-672l-98 -526h668l-29 -150h-668l-98 -540h672l-29 -150h-839z" />
    <glyph glyph-name="F" unicode="F" horiz-adv-x="997" 
d="M152 0l280 1516h770l-26 -150h-603l-100 -532h598l-27 -152h-598l-127 -682h-167z" />
    <glyph glyph-name="G" unicode="G" horiz-adv-x="1746" 
d="M1794 1122h-192q-55 99 -142 164q-132 107 -332 107q-166 0 -321.5 -78t-268.5 -224.5t-147 -330.5q-26 -141 2 -262t98.5 -202.5t175 -128t228.5 -46.5q231 0 430 137q190 130 264 317h-753l26 140h950q-33 -160 -122 -293q-135 -209 -362 -330t-462 -121
q-131 0 -245 39t-197 109.5t-139.5 169t-71 217t7.5 254.5q41 223 181.5 403t341 279.5t417.5 99.5q229 0 403 -116.5t230 -303.5z" />
    <glyph glyph-name="H" unicode="H" horiz-adv-x="1372" 
d="M319 0h-167l280 1516h168l-125 -674h731l125 674h170l-280 -1516h-170l129 692h-731z" />
    <glyph glyph-name="I" unicode="I" horiz-adv-x="473" 
d="M152 0l280 1516h168l-281 -1516h-167z" />
    <glyph glyph-name="J" unicode="J" horiz-adv-x="1011" 
d="M1143 1516l-191 -1027q-34 -190 -94 -286q-63 -94 -151 -150q-131 -80 -277 -80q-38 0 -80 8t-90.5 29.5t-86.5 55t-65 90t-30 127.5q-3 34 0 71h182q-2 -10 -2 -30q6 -57 29 -99t55 -63t62.5 -30t60.5 -9q88 1 153.5 42t96.5 99q41 73 61 193l197 1059h170z" />
    <glyph glyph-name="K" unicode="K" horiz-adv-x="1214" 
d="M184 0l281 1516h168l-135 -734l751 734h185l-775 -756l558 -760h-211l-521 719l-133 -719h-168z" />
    <glyph glyph-name="L" unicode="L" horiz-adv-x="909" 
d="M154 0l280 1516h170l-252 -1366h578l-29 -150h-747z" />
    <glyph glyph-name="M" unicode="M" horiz-adv-x="1898" 
d="M309 0h-157l280 1516h238l325 -1272l795 1272h238l-281 -1516h-160l254 1348l-837 -1348h-109l-340 1348z" />
    <glyph glyph-name="N" unicode="N" horiz-adv-x="1525" 
d="M604 1516l656 -1266l231 1266h164l-281 -1516h-164l-663 1276l-232 -1276h-163l280 1516h172z" />
    <glyph glyph-name="O" unicode="O" horiz-adv-x="1742" 
d="M219 752v2q31 171 122.5 319.5t218 250.5t282.5 160t315 58q164 0 299 -60.5t221 -164.5t120.5 -249.5t4.5 -309.5q-41 -219 -178.5 -399t-337.5 -283t-420 -103q-165 0 -301 61.5t-221.5 166t-120 248t-4.5 303.5zM391 760v-2q-34 -176 20.5 -321.5t182 -229.5
t301.5 -84q175 0 334 86.5t265.5 231.5t139.5 317q31 172 -22 317t-180.5 231.5t-303.5 86.5q-175 0 -333.5 -85t-265.5 -230t-138 -318z" />
    <glyph glyph-name="P" unicode="P" horiz-adv-x="1130" 
d="M418 1516h399q159 0 244 -21.5t145 -75.5q65 -59 91 -156.5t6 -203.5q-20 -107 -82 -207t-142 -154q-85 -58 -176.5 -80t-240.5 -22h-244l-111 -596h-170zM561 1366l-117 -621h242q98 0 165 14t128 50q57 33 101 100.5t57 145.5q15 81 -4 148t-64 100q-50 36 -110.5 49.5
t-159.5 13.5h-238z" />
    <glyph glyph-name="Q" unicode="Q" horiz-adv-x="1796" 
d="M1815 117l-27 -144q-70 6 -121 15q-74 9 -133.5 31t-90 41t-73.5 53q-239 -142 -481 -142q-102 0 -192.5 22t-161 62.5t-128.5 96.5t-95 124.5t-60.5 146.5t-24.5 161.5t13 171.5q30 161 118 305.5t211.5 250.5t282.5 168t326 62t303 -61.5t221 -166t119 -248.5t4 -304
q-16 -87 -48 -167.5t-62.5 -132.5t-76.5 -107.5t-68.5 -78t-60.5 -57.5q60 -44 128 -67t178 -35zM1149 1393h-2q-246 0 -451 -164.5t-268 -419.5q-20 -104 -12 -191q180 56 319 56q226 0 387 -109q50 -32 93 -70.5t178 -168.5q215 170 264 436q25 135 -2.5 253.5t-96.5 201
t-175 129.5t-234 47zM918 121h2q98 0 192 30t156 70q-18 22 -95.5 94.5t-80.5 77.5q-175 135 -402 135q-127 0 -270 -51q25 -86 72.5 -152t100.5 -103.5t115.5 -61.5t112 -31.5t97.5 -7.5z" />
    <glyph glyph-name="R" unicode="R" horiz-adv-x="1202" 
d="M137 0l281 1516h395q170 0 264 -19.5t148 -58.5q82 -56 119 -168t12 -240q-26 -168 -146 -297q-79 -86 -163 -120t-205 -46l272 -567h-184l-305 662h49q74 0 120.5 2.5t116 21t113.5 53.5q135 112 166 279q15 87 -9.5 167.5t-84.5 125.5q-47 34 -114 44.5t-183 10.5h-238
l-254 -1366h-170z" />
    <glyph glyph-name="S" unicode="S" horiz-adv-x="1097" 
d="M156 422h170q-7 -72 8 -128t41.5 -88.5t63.5 -53.5t69.5 -28t64.5 -7q121 0 227 83t130 206q13 72 -1.5 124t-67.5 88.5t-88 51.5t-119 44q-17 6 -25 9q-132 43 -197 89q-152 111 -115 312q22 129 105.5 226t194.5 144.5t229 47.5q59 0 112.5 -13t102.5 -42.5t83 -73.5
t50 -111.5t8 -150.5h-168q0 35 -3.5 64t-16.5 65t-36 60.5t-65 41.5t-100 17q-117 0 -211 -72t-115 -188q-5 -34 -6 -61.5t9 -51t23 -42t35 -35.5t46 -31t56.5 -27.5t66 -26t73.5 -27.5q11 -4 17 -6q121 -50 172 -86q160 -114 121 -327q-36 -190 -189.5 -317.5
t-361.5 -127.5q-198 0 -311 119.5t-82 329.5z" />
    <glyph glyph-name="T" unicode="T" horiz-adv-x="946" 
d="M387 0l254 1366h-373l27 150h917l-26 -150h-375l-254 -1366h-170z" />
    <glyph glyph-name="U" unicode="U" horiz-adv-x="1302" 
d="M428 1516h170l-178 -961q-13 -76 -17.5 -111.5t2 -90.5t31.5 -103q30 -58 94 -92.5t146 -34.5t158.5 34t123.5 91q27 29 47 61t31 54t22.5 63.5t15 58.5t13.5 70l179 961h168l-179 -961q-13 -75 -29.5 -132.5t-45 -121t-74.5 -117.5t-109 -96q-157 -115 -348 -115
q-88 0 -173 28t-140 87q-48 46 -74.5 101.5t-30.5 120t0.5 118t18.5 127.5z" />
    <glyph glyph-name="V" unicode="V" horiz-adv-x="1402" 
d="M618 0l-317 1516h178l262 -1297l744 1297h178l-883 -1516h-162z" />
    <glyph glyph-name="W" unicode="W" horiz-adv-x="1882" 
d="M446 0l-139 1516h174l107 -1285l569 1285h127l100 -1285l578 1285h172l-704 -1516h-166l-97 1231l-551 -1231h-170z" />
    <glyph glyph-name="X" unicode="X" horiz-adv-x="1275" 
d="M18 0l666 782l-352 734h194l279 -605l504 605h192l-620 -736l376 -780h-194l-311 657l-545 -657h-189z" />
    <glyph glyph-name="Y" unicode="Y" horiz-adv-x="1198" 
d="M514 0l98 532l-305 984h185l237 -820l539 820h184l-670 -984l-98 -532h-170z" />
    <glyph glyph-name="Z" unicode="Z" horiz-adv-x="1021" 
d="M1231 1386l-959 -1236h760l-28 -150h-965l20 109l977 1257h-764l27 150h956z" />
    <glyph glyph-name="bracketleft" unicode="[" horiz-adv-x="903" 
d="M709 -264l-25 -133h-504l355 1913h503l-24 -132h-355l-305 -1648h355z" />
    <glyph glyph-name="backslash" unicode="\" horiz-adv-x="1112" 
d="M762 -205l-340 1721h170l340 -1721h-170z" />
    <glyph glyph-name="bracketright" unicode="]" horiz-adv-x="903" 
d="M72 -397l24 133h353l305 1648h-353l25 132h502l-355 -1913h-501z" />
    <glyph glyph-name="asciicircum" unicode="^" horiz-adv-x="1228" 
d="M324 768l493 748h156l215 -748h-166l-154 606l-379 -606h-165z" />
    <glyph glyph-name="underscore" unicode="_" horiz-adv-x="1024" 
d="M977 -256h-1024l18 102h1024z" />
    <glyph glyph-name="grave" unicode="`" horiz-adv-x="1136" 
d="M623 1597l438 -276l-68 -96l-444 262z" />
    <glyph glyph-name="a" unicode="a" horiz-adv-x="1400" 
d="M1458 1102l-205 -1102h-151l43 227q-87 -123 -219 -190.5t-281 -67.5q-88 0 -163 22t-129 61.5t-95 94t-61 119t-25.5 137t10.5 148.5q22 120 84 227.5t150.5 185.5t204 123.5t239.5 45.5q85 0 157.5 -23t122 -61.5t81 -84t43.5 -94.5l43 232h151zM332 551v-2
q-11 -50 -6.5 -101.5t17 -100.5t43 -92t71 -75t101.5 -50.5t134 -18.5q142 0 260.5 73.5t186.5 194.5q53 80 69 174q21 90 -2 176q-26 118 -119 191t-235 73q-189 0 -337.5 -128t-182.5 -314z" />
    <glyph glyph-name="b" unicode="b" horiz-adv-x="1392" 
d="M147 0l281 1516h152l-76 -414l-41 -221q91 117 221 184t272 68q239 0 373 -163t88 -417q-30 -164 -127.5 -297.5t-243 -210t-309.5 -76.5q-153 0 -257.5 69t-143.5 189l-43 -227h-146zM1266 551v2q35 188 -67.5 314t-287.5 126q-188 0 -336 -127.5t-182 -312.5
q-22 -120 12.5 -220.5t122.5 -161t213 -60.5q106 0 199.5 38.5t159 102t108.5 140.5t58 159z" />
    <glyph glyph-name="c" unicode="c" horiz-adv-x="1290" 
d="M1133 373h157q-88 -178 -259.5 -291t-366.5 -113q-91 0 -169 22.5t-134.5 62.5t-99 95t-63 120t-27.5 136.5t9 145.5q29 161 128.5 294.5t247.5 210.5t312 77q193 0 329.5 -110t156.5 -302h-156q-25 132 -123.5 202t-224.5 70q-96 0 -175 -30t-159 -95
q-68 -55 -117.5 -139.5t-66.5 -177.5q-36 -192 67 -316t285 -124q149 1 269.5 77.5t179.5 184.5z" />
    <glyph glyph-name="d" unicode="d" horiz-adv-x="1400" 
d="M1530 1516l-281 -1516h-145l43 227q-86 -117 -213.5 -187.5t-290.5 -70.5q-86 0 -160 22t-128.5 61t-95.5 93t-61 119t-26 138.5t10 150.5q30 162 127 294.5t241 209t306 76.5q167 0 274 -77.5t132 -176.5l43 233l73 404h152zM332 553v-2q-9 -67 -5 -130.5t32 -120
t71 -98.5t110.5 -66.5t151.5 -24.5q186 0 338 129q153 134 180 317q37 184 -69 309q-46 60 -120.5 93.5t-166.5 33.5q-190 0 -339 -126.5t-183 -313.5z" />
    <glyph glyph-name="e" unicode="e" horiz-adv-x="1286" 
d="M1313 508h-1004q-12 -80 3 -148.5t50 -115.5t84.5 -80.5t105 -49t112.5 -14.5q127 0 237 60t184 168h158q-111 -178 -274 -269q-156 -90 -330 -90q-93 0 -171.5 24t-132.5 65.5t-95 97.5t-59 120.5t-24 134t9 138.5q29 160 129 294t247.5 212t309.5 78q117 0 213.5 -40.5
t161.5 -115.5q78 -92 100.5 -214.5t-14.5 -254.5zM334 629h852q19 149 -85 264t-270 111q-175 0 -316.5 -110.5t-180.5 -264.5z" />
    <glyph glyph-name="f" unicode="f" horiz-adv-x="573" 
d="M174 0l182 981h-161l22 121h162l16 90q13 70 39.5 126t56.5 92t71.5 62t76.5 39.5t79 20.5t70 8.5t60 1.5l-23 -121q-89 -5 -133 -23q-118 -49 -149 -220l-15 -76h238l-23 -121h-237l-182 -981h-150z" />
    <glyph glyph-name="g" unicode="g" horiz-adv-x="1394" 
d="M1454 1102l-182 -975q-49 -278 -244 -434q-95 -79 -215 -124.5t-233 -45.5q-199 0 -326.5 100.5t-153.5 255.5h174q34 -89 105 -145q98 -80 229 -80q80 0 161.5 30.5t152 85t122.5 139t70 183.5l27 141q-82 -121 -210.5 -192.5t-283.5 -71.5q-168 0 -286 79t-164 211
t-17 290q30 164 127.5 297t243.5 210t311 77q155 0 262.5 -75.5t137.5 -183.5l43 228h149zM332 553v-2q-10 -68 -5.5 -131.5t32.5 -119.5t71 -98t111 -66.5t151 -24.5q186 0 332 127q144 125 182 311q28 164 -47 289q-89 153 -307 153q-185 0 -335 -123.5t-185 -314.5z" />
    <glyph glyph-name="h" unicode="h" horiz-adv-x="1304" 
d="M147 0l281 1516h152l-74 -404l-37 -190q69 104 189.5 159t242.5 52q245 0 338 -152q79 -134 33 -387l-111 -594h-149l108 588q36 186 -24 291q-73 112 -256 112q-174 0 -289 -108q-106 -98 -135 -256l-117 -627h-152z" />
    <glyph glyph-name="i" unicode="i" horiz-adv-x="446" 
d="M389 1305l39 211h152l-39 -211h-152zM147 0l205 1102h152l-205 -1102h-152z" />
    <glyph glyph-name="j" unicode="j" horiz-adv-x="518" 
d="M430 1305l39 211h152l-39 -211h-152zM545 1102l-203 -1086q-10 -58 -20.5 -100t-29.5 -94.5t-46.5 -90t-67 -73t-96.5 -57t-129 -29.5q-31 0 -47 -2l24 127q21 0 29 2q48 8 84 28t59 45.5t40.5 67t27 78.5t20.5 94l203 1090h152z" />
    <glyph glyph-name="k" unicode="k" horiz-adv-x="1040" 
d="M152 0l280 1516h152l-160 -867l580 453h186l-621 -484l441 -618h-179l-419 586l-109 -586h-151z" />
    <glyph glyph-name="l" unicode="l" horiz-adv-x="444" 
d="M147 0l281 1516h152l-281 -1516h-152z" />
    <glyph glyph-name="m" unicode="m" horiz-adv-x="1957" 
d="M147 0l205 1102h144l-33 -174q68 99 176 152t209 53q191 0 278 -125q22 -26 52 -115q62 84 100 117q66 58 150.5 90.5t175.5 32.5q192 0 276 -111q58 -70 68.5 -168t-19.5 -242l-112 -612h-152l113 606q35 203 -29 293q-53 92 -201 92q-75 0 -145.5 -29.5t-118.5 -84.5
q-50 -56 -72.5 -110.5t-42.5 -154.5l-112 -612h-152l113 612q21 94 18.5 151.5t-26.5 110.5q-59 114 -219 117q-74 3 -142.5 -28.5t-111.5 -83.5q-95 -101 -123 -265l-115 -614h-152z" />
    <glyph glyph-name="n" unicode="n" horiz-adv-x="1306" 
d="M147 0l205 1102h144q-36 -184 -39 -197q68 109 187 170t263 58q84 -1 149.5 -20t109.5 -53.5t73 -80.5t41 -103t11.5 -118.5t-13.5 -130.5l-117 -627h-149l110 596q34 187 -33.5 292.5t-246.5 102.5q-170 -1 -283 -98.5t-145 -269.5l-115 -623h-152z" />
    <glyph glyph-name="o" unicode="o" horiz-adv-x="1329" 
d="M182 551v2q21 115 82.5 220t150.5 185t208.5 127.5t248.5 47.5q130 0 232.5 -47.5t163 -127.5t83 -185.5t1.5 -221.5t-83 -221t-152 -185t-210 -127t-250 -47q-172 0 -291.5 81t-166 212.5t-17.5 286.5zM332 551v-2q-35 -187 66.5 -312.5t285.5 -125.5q121 0 231.5 57
t186 158t98.5 225q35 189 -66 314.5t-286 125.5q-184 0 -332.5 -126t-183.5 -314z" />
    <glyph glyph-name="p" unicode="p" horiz-adv-x="1400" 
d="M70 -418l282 1520h144l-43 -230q91 123 222 192t286 69q90 0 166 -23.5t129 -65t92 -97.5t56.5 -121.5t23 -136.5t-10.5 -142q-21 -115 -81 -220t-147 -184.5t-203 -126.5t-241 -47q-87 0 -161 23.5t-122.5 62t-79 81.5t-42.5 89l-41 -225l-78 -418h-151zM1268 551v2
q9 63 6 125t-30.5 119t-69.5 100.5t-111.5 69.5t-155.5 26q-184 0 -336 -129q-146 -130 -180 -315q-34 -183 68 -313q48 -59 123 -92t166 -33q186 0 335.5 125.5t184.5 314.5z" />
    <glyph glyph-name="q" unicode="q" horiz-adv-x="1396" 
d="M1454 1102l-283 -1520h-151l78 418l41 223q-63 -99 -197.5 -176.5t-304.5 -77.5q-100 0 -183.5 30t-140.5 83.5t-94.5 126t-45.5 157.5t7 179q23 121 84.5 229t149.5 187.5t204 125.5t242 46q159 0 263 -70.5t145 -181.5l41 221h145zM332 549l-2 -2q-21 -120 17 -219.5
t128.5 -158t214.5 -58.5q185 0 334 127q149 124 184 311q41 185 -65 313q-48 62 -122.5 96.5t-164.5 34.5q-106 0 -199.5 -39t-158.5 -103.5t-107.5 -142t-58.5 -159.5z" />
    <glyph glyph-name="r" unicode="r" horiz-adv-x="659" 
d="M147 0l205 1102h144l-35 -180q137 203 391 211l-27 -150h-14q-160 0 -264 -98t-139 -285l-111 -600h-150z" />
    <glyph glyph-name="s" unicode="s" horiz-adv-x="921" 
d="M946 825h-149q15 86 -28 134.5t-128 48.5q-88 0 -150 -52t-73 -127q-10 -73 34.5 -113.5t147.5 -72.5q129 -37 180 -68q125 -76 105 -245q-1 -5 -2 -11q-21 -150 -146 -250t-284 -100q-69 0 -130.5 22t-108.5 63t-68.5 108.5t-6.5 150.5h150q-14 -107 42.5 -163
t147.5 -56q94 0 165 60.5t85 146.5q14 90 -38.5 139t-194.5 92q-62 20 -104.5 41t-78 53.5t-48 80t-1.5 110.5q27 144 142 230t260 86q61 0 113.5 -17.5t95.5 -52.5t62.5 -96.5t8.5 -141.5z" />
    <glyph glyph-name="t" unicode="t" horiz-adv-x="643" 
d="M233 0l183 981h-217l22 121h217l76 414h150l-76 -414h241l-22 -121h-242l-182 -981h-150z" />
    <glyph glyph-name="u" unicode="u" horiz-adv-x="1308" 
d="M1366 1102l-205 -1102h-143l37 197q-67 -108 -185.5 -168.5t-265.5 -59.5q-84 1 -149.5 20.5t-109.5 54.5t-73 80.5t-41 103t-11.5 119t13.5 130.5l117 625h150l-111 -596q-35 -186 33 -291t248 -104q172 1 284.5 98.5t143.5 269.5l116 623h152z" />
    <glyph glyph-name="v" unicode="v" horiz-adv-x="1060" 
d="M1247 1102l-639 -1102h-157l-230 1102h160l184 -916l522 916h160z" />
    <glyph glyph-name="w" unicode="w" horiz-adv-x="1613" 
d="M401 0l-178 1102h160l135 -907l414 809h125l117 -809l468 907h158l-586 -1102h-149l-111 803l-405 -803h-148z" />
    <glyph glyph-name="x" unicode="x" horiz-adv-x="985" 
d="M14 0l490 565l-268 537h184l196 -424l359 424h180l-467 -537l283 -565h-185l-213 444l-374 -444h-185z" />
    <glyph glyph-name="y" unicode="y" horiz-adv-x="1048" 
d="M176 -418l270 438l-225 1082h162l180 -891l522 891h166l-911 -1520h-164z" />
    <glyph glyph-name="z" unicode="z" horiz-adv-x="858" 
d="M27 0l20 111l772 870h-586l23 121h756l-23 -123l-758 -858h621l-23 -121h-802z" />
    <glyph glyph-name="braceleft" unicode="{" horiz-adv-x="958" 
d="M1083 1534l-22 -121h-111q-79 0 -109.5 -43t-52.5 -160l-73 -395q-20 -107 -95.5 -201.5t-150.5 -132.5q70 -25 108.5 -110t16.5 -203l-72 -393q-25 -119 -8.5 -162t94.5 -43h111l-23 -121h-176q-216 0 -168 266l74 394q42 222 -121 297l29 155q70 13 139 96t94 211
l74 404q48 262 266 262h176z" />
    <glyph glyph-name="bar" unicode="|" horiz-adv-x="843" 
d="M498 1784h135v-2378h-135v2378z" />
    <glyph glyph-name="braceright" unicode="}" horiz-adv-x="958" 
d="M422 1413l22 121h177q215 0 167 -262l-73 -404q-25 -128 14 -211t105 -96l-29 -155q-190 -74 -232 -297l-73 -394q-48 -266 -267 -266h-176l23 121h110q77 0 108.5 41.5t55.5 163.5l72 393q21 113 97.5 199.5t146.5 115.5q-74 36 -109 127.5t-14 204.5l74 395
q24 109 6.5 156t-95.5 47h-110z" />
    <glyph glyph-name="asciitilde" unicode="~" horiz-adv-x="1228" 
d="M1149 653l25 -133q-123 -158 -250 -158q-36 0 -76.5 12t-65 23.5t-71.5 36.5q-136 74 -217 74q-118 6 -224 -131l-26 131q55 75 128.5 119t153.5 41q11 0 23.5 -1.5t22 -2.5t24 -5.5t22 -6.5t23.5 -8.5t21 -8t23 -10t21 -10t23 -11t21 -10.5q9 -4 51 -25t56.5 -27
t42.5 -14t50 -8q29 0 56 11t54 33t45 40.5t44 48.5z" />
    <glyph glyph-name="uni00A0" unicode="&#xa0;" horiz-adv-x="589" 
 />
    <glyph glyph-name="exclamdown" unicode="&#xa1;" horiz-adv-x="581" 
d="M375 877l43 227h155l-43 -227h-155zM137 -412l207 1123h156l-207 -1123h-156z" />
    <glyph glyph-name="cent" unicode="&#xa2;" 
d="M692 74h-135l41 219q-69 11 -125.5 38.5t-93 64t-62.5 81.5t-36 92.5t-13 96t8 92.5q13 72 49.5 145t96 141t150 118t198.5 67l37 201h131l-37 -201q121 -24 205 -100t111 -201h-162q-56 155 -244 155q-142 0 -248.5 -93t-132.5 -226q-16 -85 6.5 -158t89 -120.5
t166.5 -47.5q104 0 178.5 45t116.5 101h168q-55 -88 -134.5 -153.5t-150 -96t-137.5 -41.5z" />
    <glyph glyph-name="sterling" unicode="&#xa3;" 
d="M985 821l-22 -127h-388q141 -141 107 -313q-21 -118 -133 -244h153q94 0 148 15.5t108 52.5q110 96 132 215q9 43 2 92h153q4 -62 -6 -111q-16 -83 -62.5 -156.5t-101.5 -123.5q-82 -66 -164 -93.5t-221 -27.5h-610l24 137h236q32 15 61.5 38t64.5 75.5t48 120.5
q17 94 -16.5 170t-110.5 153h-240l23 127h149q-54 98 -32 232q25 130 108 242t213.5 180.5t278.5 68.5q183 0 302 -112.5t116 -307.5h-162q-8 116 -82 193.5t-201 77.5q-149 -3 -259.5 -99t-143.5 -245q-20 -130 49 -230h479z" />
    <glyph glyph-name="currency" unicode="&#xa4;" 
d="M1069 170l-129 160q-154 -101 -307 -101q-158 0 -271 101l-192 -160l-68 84l195 162q-78 126 -51 284q30 165 155 287l-135 164l101 84l135 -166q145 102 305 102q158 0 266 -100l195 164l67 -84l-192 -164q78 -127 49 -287q-26 -154 -156 -284l133 -162zM391 700v-2
q-16 -86 15.5 -160.5t99 -117.5t153.5 -43q131 0 245.5 95t139.5 228q26 135 -52.5 230.5t-211.5 95.5q-132 0 -247.5 -95.5t-141.5 -230.5z" />
    <glyph glyph-name="yen" unicode="&#xa5;" 
d="M1272 915l-25 -129h-395l-47 -69l-25 -133h430l-24 -129h-432l-84 -455h-166l84 455h-426l24 129h426l25 131l-25 71h-389l25 129h321l-243 601h178l246 -642l489 642h178l-469 -601h324z" />
    <glyph glyph-name="brokenbar" unicode="&#xa6;" horiz-adv-x="843" 
d="M498 1606h133v-832h-133v832zM498 416h133v-830h-133v830z" />
    <glyph glyph-name="section" unicode="&#xa7;" horiz-adv-x="1239" 
d="M1266 1174h-150q3 55 -7.5 96.5t-31 66t-51.5 39.5t-63.5 20t-73.5 5q-108 0 -191 -59t-104 -162q-6 -20 -3.5 -40.5t3.5 -35.5t10 -30.5t15 -26t18.5 -22t21.5 -18.5t24 -16t24.5 -14t23.5 -12l303 -152q16 -9 21.5 -12t25 -14.5t28.5 -19.5t28 -22.5t28.5 -28.5
t23.5 -33t20.5 -39.5t12.5 -44.5t5.5 -52t-6.5 -58q-18 -100 -84.5 -181t-163.5 -138q110 -108 80 -270q-30 -164 -171.5 -276.5t-340.5 -112.5q-96 0 -175 26t-140 82.5t-81.5 144.5t0.5 213h150q-30 -163 41 -243t227 -80q136 0 227 67.5t115 176.5q10 76 -28 128.5
t-134 100.5l-350 176q-72 39 -105 73q-92 96 -61 261q8 48 33 99t84.5 112t142.5 106q-64 99 -41 224q21 115 95 199.5t172.5 124.5t208.5 40q187 0 279.5 -101.5t64.5 -266.5zM1077 467v2q4 21 4 40.5t-3 35t-10.5 30t-15 26t-20 23t-23 19.5t-26 17.5t-26.5 15.5t-27 14
l-363 187q-81 -36 -131.5 -95.5t-64.5 -130.5q-22 -141 102 -207l410 -204q61 25 120.5 88.5t73.5 138.5z" />
    <glyph glyph-name="dieresis" unicode="&#xa8;" horiz-adv-x="1136" 
d="M733 1532l-49 -262h-147l49 262h147zM1118 1532l-49 -262h-147l49 262h147z" />
    <glyph glyph-name="copyright" unicode="&#xa9;" horiz-adv-x="1638" 
d="M1106 1540h2q162 0 295.5 -62t217 -167.5t117.5 -249.5t5 -303q-30 -162 -119 -307.5t-213.5 -249.5t-280.5 -165t-315 -61q-129 0 -241.5 39t-194.5 109.5t-137.5 168t-70.5 215t7 251.5q29 158 115 301.5t208.5 249.5t280.5 168.5t324 62.5zM1090 1452h-3
q-146 0 -284.5 -55.5t-246 -149.5t-183 -221.5t-101.5 -267.5q-36 -191 25.5 -351t202.5 -252t331 -92q188 0 362.5 91.5t296 251.5t157.5 352q26 140 -3 268t-101.5 221.5t-190.5 149t-262 55.5zM1395 913h-109q-2 59 -24.5 103t-59 67.5t-77 34t-85.5 10.5
q-148 0 -258 -103t-139 -265q-16 -95 -3 -164.5t52 -115t92 -67.5t117 -22q18 0 39 3t56.5 11t70 28t70 48.5t67 78t51.5 112.5h111q-46 -175 -182 -277t-303 -102q-87 0 -159 30t-122.5 89t-69 145.5t1.5 200.5q38 204 182.5 336.5t344.5 132.5q160 0 252.5 -90.5
t83.5 -223.5z" />
    <glyph glyph-name="ordfeminine" unicode="&#xaa;" horiz-adv-x="862" 
d="M1044 1526l-120 -652h-105l25 134q-52 -75 -127 -112.5t-160 -37.5q-150 0 -229 101t-52 241q27 147 146 244.5t262 97.5q176 0 231 -153l25 137h104zM381 1196v-2q-7 -39 2 -80t32.5 -77t68.5 -58.5t104 -22.5q76 0 141 37t107 97q33 50 45 110q9 57 -2 103
q-19 63 -73 102t-130 39q-102 0 -188 -69.5t-107 -178.5z" />
    <glyph glyph-name="guillemotleft" unicode="&#xab;" horiz-adv-x="768" 
d="M186 571l293 390h127l-293 -390l150 -385h-127zM461 571l295 390h127l-295 -390l151 -385h-127z" />
    <glyph glyph-name="logicalnot" unicode="&#xac;" horiz-adv-x="1228" 
d="M248 797h1028l-98 -533h-146l72 385h-883z" />
    <glyph glyph-name="uni00AD" unicode="&#xad;" horiz-adv-x="555" 
d="M121 649h555l-29 -149h-555z" />
    <glyph glyph-name="registered" unicode="&#xae;" horiz-adv-x="1638" 
d="M1106 1540h2q162 0 295.5 -62t217 -167.5t117.5 -249.5t5 -303q-30 -162 -119 -307.5t-213.5 -249.5t-280.5 -165t-315 -61q-129 0 -241.5 39t-194.5 109.5t-137.5 168t-70.5 215t7 251.5q29 158 115 301.5t208.5 249.5t280.5 168.5t324 62.5zM1090 1452h-3
q-145 0 -283.5 -55.5t-246 -149t-183.5 -221.5t-102 -268q-27 -143 3 -271.5t104.5 -221.5t192 -147.5t259.5 -54.5q188 0 362.5 91.5t296 251.5t157.5 352q26 140 -2.5 267.5t-101 221.5t-190.5 149.5t-263 55.5zM707 1204h374q20 0 39.5 -1.5t47 -5.5t50.5 -11.5t48.5 -20
t42 -30.5t31.5 -43t16 -57.5t-4 -73.5q-28 -156 -205 -220q71 -22 94 -70t14 -134q-2 -17 -5 -46q-16 -135 -12 -161q1 -9 5 -21h-110q-9 23 8 176q3 20 4 31q8 38 4 70.5t-19.5 57t-62 38.5t-123.5 14h-221l-72 -387h-110zM1047 1120h-246l-64 -342h226q3 0 27.5 2
t37.5 3.5t40 7t44.5 12.5t41 20.5t38.5 30.5t28 43t19 57q9 46 -3.5 79.5t-33 50t-55 25t-54 10t-46.5 1.5z" />
    <glyph glyph-name="macron" unicode="&#xaf;" horiz-adv-x="1136" 
d="M1204 1456l-24 -127h-731l24 127h731z" />
    <glyph glyph-name="degree" unicode="&#xb0;" horiz-adv-x="819" 
d="M918 1161v-2q-23 -122 -123.5 -206.5t-223.5 -84.5t-192.5 85t-46.5 208t124 208t224 85t192 -85t46 -208zM428 1161v-2q-15 -82 31 -139t129 -57t150.5 57.5t82.5 140.5q15 82 -30.5 140.5t-128.5 58.5t-151 -58.5t-83 -140.5z" />
    <glyph glyph-name="plusminus" unicode="&#xb1;" horiz-adv-x="1228" 
d="M672 709l67 362h148l-68 -362h443l-27 -148h-442l-68 -358h-147l67 358h-442l26 148h443zM88 -55l27 147h1032l-27 -147h-1032z" />
    <glyph glyph-name="twosuperior" unicode="&#xb2;" horiz-adv-x="757" 
d="M807 713l-19 -107h-602l19 99q68 56 203 168t202 169q76 65 112.5 112.5t45.5 96.5q14 74 -16 124t-115 50q-81 0 -137 -60t-74 -155h-121q22 128 96 207q105 115 263 115q136 0 200 -71.5t39 -198.5q-13 -73 -55.5 -132.5t-122.5 -128.5q-65 -53 -183 -153.5
t-159 -134.5h424z" />
    <glyph glyph-name="threesuperior" unicode="&#xb3;" horiz-adv-x="757" 
d="M223 883h127q-14 -92 32.5 -139.5t119.5 -47.5q86 0 145 51.5t74 131.5q2 23 1 47.5t-13 48.5t-30 42.5t-49.5 30t-72.5 11.5h-74l17 94h53q83 0 131.5 45t58.5 94q10 55 -16 93.5t-86 39.5q-64 1 -106.5 -37.5t-55.5 -97.5h-125q15 67 51.5 116.5t83 75.5t90.5 38t85 12
q105 0 164 -65.5t40 -161.5q-11 -63 -53.5 -112.5t-97.5 -76.5q72 -30 108 -95.5t21 -146.5q-23 -123 -128 -203.5t-239 -80.5q-77 0 -140.5 30.5t-94.5 88.5q-37 76 -21 174z" />
    <glyph glyph-name="acute" unicode="&#xb4;" horiz-adv-x="1136" 
d="M567 1327l539 277l35 -111l-543 -264z" />
    <glyph glyph-name="mu" unicode="&#xb5;" horiz-adv-x="1198" 
d="M72 -377l274 1479h152l-111 -596q-11 -62 -16 -103t1 -95t29 -91q63 -106 215 -106q150 0 256 118q103 115 148 342l98 531h150l-205 -1102h-145l38 209q-136 -234 -364 -234q-54 0 -99 11.5t-72.5 27.5t-50 40t-33 41.5t-20.5 39.5l-28 -158l-66 -354h-151z" />
    <glyph glyph-name="paragraph" unicode="&#xb6;" horiz-adv-x="1243" 
d="M422 -242l176 953q-201 0 -308.5 101t-72.5 296q17 92 60.5 164.5t100 117.5t128 74t139.5 40.5t139 11.5h582l-23 -119h-120l-303 -1639h-127l303 1637h-244l-303 -1637h-127z" />
    <glyph glyph-name="periodcentered" unicode="&#xb7;" horiz-adv-x="591" 
d="M494 635l-41 -227h-160l41 227h160z" />
    <glyph glyph-name="cedilla" unicode="&#xb8;" horiz-adv-x="1136" 
d="M608 0l-73 -115q12 6 32 6q67 0 103 -44.5t24 -112.5q-13 -70 -69.5 -123t-139.5 -53q-18 0 -37 4t-47.5 17t-46 46t-16.5 82h88q4 -38 26 -52.5t48 -14.5q37 0 66.5 25t39.5 69q6 37 -14 60.5t-55 23.5q-48 0 -84 -45l-70 30l129 197h96z" />
    <glyph glyph-name="onesuperior" unicode="&#xb9;" horiz-adv-x="757" 
d="M733 1516l-168 -910h-121l150 803h-184l18 107h305z" />
    <glyph glyph-name="ordmasculine" unicode="&#xba;" horiz-adv-x="862" 
d="M307 1196v2q27 142 142 243t266 101q155 0 232.5 -102t51.5 -240q-28 -145 -146.5 -243.5t-264.5 -98.5t-226 100.5t-55 237.5zM412 1196v-2q-17 -96 40 -167t154 -71t182.5 70t106.5 174q17 101 -38.5 172.5t-156.5 71.5q-99 0 -183 -69.5t-105 -178.5z" />
    <glyph glyph-name="guillemotright" unicode="&#xbb;" horiz-adv-x="768" 
d="M643 958l152 -389l-295 -385h-127l295 385l-152 389h127zM369 958l149 -389l-293 -385h-127l293 385l-149 389h127z" />
    <glyph glyph-name="onequarter" unicode="&#xbc;" horiz-adv-x="1568" 
d="M1399 1516l-944 -1516h-131l942 1516h133zM1403 754l-410 -488h320zM678 1516l-168 -910h-121l150 803h-185l19 107h305zM1552 909l-118 -643h92l-19 -98h-92l-31 -168h-122l30 168h-452l16 88l571 653h125z" />
    <glyph glyph-name="onehalf" unicode="&#xbd;" horiz-adv-x="1650" 
d="M678 1516l-168 -910h-121l150 803h-185l19 107h305zM1399 1516l-944 -1516h-131l942 1516h133zM1581 106l-20 -106h-605l19 98q219 180 407 338q76 65 112.5 112.5t45.5 96.5q6 45 0.5 83.5t-40 64.5t-93.5 26q-80 0 -135.5 -60t-73.5 -155h-123q22 116 86 197
q107 125 275 125q136 0 200 -72t39 -199q-13 -73 -55 -132.5t-123 -127.5q-51 -42 -108 -90t-125.5 -107.5t-106.5 -91.5h424z" />
    <glyph glyph-name="threequarters" unicode="&#xbe;" horiz-adv-x="1783" 
d="M1624 756l-412 -490h322zM1624 1516l-944 -1516h-131l940 1516h135zM1774 909l-119 -643h92l-18 -98h-93l-30 -168h-123l30 168h-452l16 88l572 653h125zM246 883h127q-14 -92 32 -139.5t119 -47.5q86 0 145 51.5t74 131.5q7 42 -4.5 81t-52 69t-106.5 30h-74l16 94h53
q83 0 132 45.5t59 93.5q10 55 -16 93.5t-86 39.5q-64 1 -106.5 -37.5t-55.5 -97.5h-125q15 67 51 116.5t82.5 75.5t90.5 38t85 12q105 0 164.5 -65.5t40.5 -161.5q-11 -63 -54 -112t-98 -77q72 -30 108 -95.5t21 -146.5q-23 -123 -127.5 -203.5t-238.5 -80.5
q-78 0 -143 32.5t-93 92.5q-34 62 -20 168z" />
    <glyph glyph-name="questiondown" unicode="&#xbf;" horiz-adv-x="1136" 
d="M680 877l43 225h158l-43 -225h-158zM649 715h160q-27 -119 -82 -210.5t-188 -199.5l-18 -15q-56 -47 -83 -71t-62.5 -62t-54 -74t-28.5 -79q-22 -121 44 -203t193 -82q69 0 135 26.5t123 85.5t84 140q14 41 17 58h166q-1 -6 -6.5 -24.5t-6.5 -27.5q-30 -103 -91 -185.5
t-137.5 -131.5t-158.5 -74.5t-161 -25.5q-126 0 -219.5 58t-134 157t-19.5 217q12 61 41.5 116.5t79.5 108t88 85.5t104 85q62 51 103.5 98t63.5 91.5t30.5 70.5t17.5 68z" />
    <glyph glyph-name="Agrave" unicode="&#xc0;" horiz-adv-x="1456" 
d="M453 426l-254 -426h-183l914 1516h164l346 -1516h-185l-96 426h-706zM1133 565l-162 760l-443 -760h605zM842 1956l438 -275l-68 -98l-444 262z" />
    <glyph glyph-name="Aacute" unicode="&#xc1;" horiz-adv-x="1456" 
d="M453 426l-254 -426h-183l914 1516h164l346 -1516h-185l-96 426h-706zM1133 565l-162 760l-443 -760h605zM801 1686l538 276l35 -111l-540 -264z" />
    <glyph glyph-name="Acircumflex" unicode="&#xc2;" horiz-adv-x="1456" 
d="M453 426l-254 -426h-183l914 1516h164l346 -1516h-185l-96 426h-706zM1133 565l-162 760l-443 -760h605zM1137 1898l307 -272h-170l-215 168l-275 -168h-170l412 272h111z" />
    <glyph glyph-name="Atilde" unicode="&#xc3;" horiz-adv-x="1456" 
d="M453 426l-254 -426h-183l914 1516h164l346 -1516h-185l-96 426h-706zM1133 565l-162 760l-443 -760h605zM1395 1851l45 -102q-106 -80 -221 -80q-68 0 -181 37q-97 33 -155 33q-91 0 -166 -62l-47 105q46 37 105 58.5t114 21.5q79 0 180 -37q94 -33 158 -33q96 0 168 59z
" />
    <glyph glyph-name="Adieresis" unicode="&#xc4;" horiz-adv-x="1456" 
d="M453 426l-254 -426h-183l914 1516h164l346 -1516h-185l-96 426h-706zM1133 565l-162 760l-443 -760h605zM958 1890l-49 -262h-147l49 262h147zM1343 1890l-49 -262h-147l49 262h147z" />
    <glyph glyph-name="Aring" unicode="&#xc5;" horiz-adv-x="1456" 
d="M453 426l-254 -426h-183l914 1516h164l346 -1516h-185l-96 426h-706zM1133 565l-162 760l-443 -760h605zM1094 1980h2q87 0 137 -62t33 -149q-15 -86 -88.5 -147t-161.5 -61q-87 0 -137 60.5t-35 147.5q17 88 90.5 149.5t159.5 61.5zM1077 1890h-2q-47 0 -87.5 -35
t-49.5 -83q-8 -47 20.5 -81t75.5 -34q49 0 89 34t48 81q9 50 -18 84t-76 34z" />
    <glyph glyph-name="AE" unicode="&#xc6;" horiz-adv-x="1953" 
d="M-18 0l1331 1516h786l-26 -150h-588l-99 -526h584l-28 -150h-584l-98 -540h587l-28 -150h-752l82 446h-578l-387 -446h-202zM680 582h496l133 727z" />
    <glyph glyph-name="Ccedilla" unicode="&#xc7;" horiz-adv-x="1640" 
d="M872 -27l-59 -88q15 6 35 6q66 0 103.5 -45t25.5 -112q-13 -70 -69.5 -123t-139.5 -53q-14 0 -28.5 1.5t-38 10.5t-41 23.5t-30.5 44t-12 69.5h89q7 -67 75 -67q36 0 66 25t39 69q7 37 -13.5 60.5t-56.5 23.5q-45 0 -84 -45l-67 30l114 177q-195 19 -336 125.5t-200 278
t-21 374.5q40 214 174.5 393.5t335.5 285t424 105.5q108 0 202.5 -27.5t161.5 -72t120.5 -103.5t84.5 -118.5t48 -120.5h-183q-12 31 -33 65.5t-61 76.5t-89 74.5t-123 54.5t-157 22q-174 0 -332 -84.5t-265 -229.5t-140 -319q-25 -132 0.5 -250t92.5 -203t173 -134.5
t236 -49.5q90 0 177 25t147 58t116 78t82 71.5t47 52.5h183q-112 -182 -322 -307t-451 -128z" />
    <glyph glyph-name="Egrave" unicode="&#xc8;" horiz-adv-x="1107" 
d="M152 0l280 1516h840l-27 -150h-672l-98 -526h668l-29 -150h-668l-98 -540h672l-29 -150h-839zM678 1976l438 -274l-67 -98l-445 262z" />
    <glyph glyph-name="Eacute" unicode="&#xc9;" horiz-adv-x="1107" 
d="M152 0l280 1516h840l-27 -150h-672l-98 -526h668l-29 -150h-668l-98 -540h672l-29 -150h-839zM623 1706l538 276l35 -110l-543 -264z" />
    <glyph glyph-name="Ecircumflex" unicode="&#xca;" horiz-adv-x="1107" 
d="M152 0l280 1516h840l-27 -150h-672l-98 -526h668l-29 -150h-668l-98 -540h672l-29 -150h-839zM967 1919l307 -272h-170l-215 168l-275 -168h-170l412 272h111z" />
    <glyph glyph-name="Edieresis" unicode="&#xcb;" horiz-adv-x="1107" 
d="M152 0l280 1516h840l-27 -150h-672l-98 -526h668l-29 -150h-668l-98 -540h672l-29 -150h-839zM788 1911l-49 -262h-147l49 262h147zM1174 1911l-50 -262h-147l49 262h148z" />
    <glyph glyph-name="Igrave" unicode="&#xcc;" horiz-adv-x="473" 
d="M152 0l280 1516h168l-281 -1516h-167zM315 1970l437 -276l-66 -97l-446 263z" />
    <glyph glyph-name="Iacute" unicode="&#xcd;" horiz-adv-x="473" 
d="M152 0l280 1516h168l-281 -1516h-167zM350 1700l539 276l33 -112l-541 -262z" />
    <glyph glyph-name="Icircumflex" unicode="&#xce;" horiz-adv-x="473" 
d="M152 0l280 1516h168l-281 -1516h-167zM645 1905l309 -273h-170l-215 168l-274 -168h-170l410 273h110z" />
    <glyph glyph-name="Idieresis" unicode="&#xcf;" horiz-adv-x="473" 
d="M152 0l280 1516h168l-281 -1516h-167zM469 1903l-47 -261h-148l48 261h147zM854 1903l-47 -261h-148l48 261h147z" />
    <glyph glyph-name="Eth" unicode="&#xd0;" horiz-adv-x="1464" 
d="M307 842l125 674h455q400 0 553 -228q143 -201 84 -528q-66 -349 -302.5 -554.5t-594.5 -205.5h-475l129 692h-152l27 150h151zM573 1366l-98 -524h418l-27 -150h-417l-101 -542h301q286 0 468.5 162t234.5 442q52 278 -66 442q-127 170 -412 170h-301z" />
    <glyph glyph-name="Ntilde" unicode="&#xd1;" horiz-adv-x="1525" 
d="M604 1516l656 -1266l231 1266h164l-281 -1516h-164l-663 1276l-232 -1276h-163l280 1516h172zM1427 1845l48 -102q-99 -80 -224 -80q-69 0 -178 37q-95 31 -155 31q-92 0 -168 -60l-43 105q44 36 102.5 56.5t116.5 20.5q80 0 180 -34q90 -33 156 -33q97 0 165 59z" />
    <glyph glyph-name="Ograve" unicode="&#xd2;" horiz-adv-x="1742" 
d="M219 752v2q31 171 122.5 319.5t218 250.5t282.5 160t315 58q164 0 299 -60.5t221 -164.5t120.5 -249.5t4.5 -309.5q-41 -219 -178.5 -399t-337.5 -283t-420 -103q-165 0 -301 61.5t-221.5 166t-120 248t-4.5 303.5zM391 760v-2q-34 -176 20.5 -321.5t182 -229.5
t301.5 -84q175 0 334 86.5t265.5 231.5t139.5 317q31 172 -22 317t-180.5 231.5t-303.5 86.5q-175 0 -333.5 -85t-265.5 -230t-138 -318zM995 1976l439 -274l-68 -98l-444 262z" />
    <glyph glyph-name="Oacute" unicode="&#xd3;" horiz-adv-x="1742" 
d="M219 752v2q31 171 122.5 319.5t218 250.5t282.5 160t315 58q164 0 299 -60.5t221 -164.5t120.5 -249.5t4.5 -309.5q-41 -219 -178.5 -399t-337.5 -283t-420 -103q-165 0 -301 61.5t-221.5 166t-120 248t-4.5 303.5zM391 760v-2q-34 -176 20.5 -321.5t182 -229.5
t301.5 -84q175 0 334 86.5t265.5 231.5t139.5 317q31 172 -22 317t-180.5 231.5t-303.5 86.5q-175 0 -333.5 -85t-265.5 -230t-138 -318zM940 1706l539 276l34 -110l-542 -264z" />
    <glyph glyph-name="Ocircumflex" unicode="&#xd4;" horiz-adv-x="1742" 
d="M219 752v2q31 171 122.5 319.5t218 250.5t282.5 160t315 58q164 0 299 -60.5t221 -164.5t120.5 -249.5t4.5 -309.5q-41 -219 -178.5 -399t-337.5 -283t-420 -103q-165 0 -301 61.5t-221.5 166t-120 248t-4.5 303.5zM391 760v-2q-34 -176 20.5 -321.5t182 -229.5
t301.5 -84q175 0 334 86.5t265.5 231.5t139.5 317q31 172 -22 317t-180.5 231.5t-303.5 86.5q-175 0 -333.5 -85t-265.5 -230t-138 -318zM1282 1913l307 -275h-170l-213 170l-276 -170h-170l411 275h111z" />
    <glyph glyph-name="Otilde" unicode="&#xd5;" horiz-adv-x="1742" 
d="M219 752v2q31 171 122.5 319.5t218 250.5t282.5 160t315 58q164 0 299 -60.5t221 -164.5t120.5 -249.5t4.5 -309.5q-41 -219 -178.5 -399t-337.5 -283t-420 -103q-165 0 -301 61.5t-221.5 166t-120 248t-4.5 303.5zM391 760v-2q-34 -176 20.5 -321.5t182 -229.5
t301.5 -84q175 0 334 86.5t265.5 231.5t139.5 317q31 172 -22 317t-180.5 231.5t-303.5 86.5q-175 0 -333.5 -85t-265.5 -230t-138 -318zM1536 1845l47 -102q-102 -80 -223 -80q-69 0 -178 37q-95 31 -156 31q-92 0 -168 -60l-45 105q43 36 102.5 56.5t116.5 20.5
q84 0 180 -34q94 -33 158 -33q98 0 166 59z" />
    <glyph glyph-name="Odieresis" unicode="&#xd6;" horiz-adv-x="1742" 
d="M219 752v2q31 171 122.5 319.5t218 250.5t282.5 160t315 58q164 0 299 -60.5t221 -164.5t120.5 -249.5t4.5 -309.5q-41 -219 -178.5 -399t-337.5 -283t-420 -103q-165 0 -301 61.5t-221.5 166t-120 248t-4.5 303.5zM391 760v-2q-34 -176 20.5 -321.5t182 -229.5
t301.5 -84q175 0 334 86.5t265.5 231.5t139.5 317q31 172 -22 317t-180.5 231.5t-303.5 86.5q-175 0 -333.5 -85t-265.5 -230t-138 -318zM1106 1911l-49 -262h-148l49 262h148zM1491 1911l-49 -262h-148l49 262h148z" />
    <glyph glyph-name="multiply" unicode="&#xd7;" horiz-adv-x="1228" 
d="M211 0l-86 104l477 404l-328 399l125 107l328 -402l479 402l84 -107l-477 -399l326 -404l-121 -104l-328 403z" />
    <glyph glyph-name="Oslash" unicode="&#xd8;" horiz-adv-x="1742" 
d="M1548 1430l156 167h174l-231 -249q99 -99 144.5 -250.5t10.5 -339.5q-40 -218 -177.5 -398t-338 -283.5t-420.5 -103.5q-225 0 -383 107l-149 -162h-174l223 242q-102 101 -150 254.5t-12 343.5q40 221 179 401.5t339 281.5t418 101q227 0 391 -112zM510 295l920 1008
q-117 90 -302 90q-176 0 -335 -86t-265 -230.5t-137 -316.5q-27 -142 5.5 -263.5t113.5 -201.5zM1524 1217l-922 -1010q117 -84 293 -84t335 87t265 232t139 316q24 133 -5 251.5t-105 207.5z" />
    <glyph glyph-name="Ugrave" unicode="&#xd9;" horiz-adv-x="1302" 
d="M428 1516h170l-178 -961q-13 -76 -17.5 -111.5t2 -90.5t31.5 -103q30 -58 94 -92.5t146 -34.5t158.5 34t123.5 91q27 29 47 61t31 54t22.5 63.5t15 58.5t13.5 70l179 961h168l-179 -961q-13 -75 -29.5 -132.5t-45 -121t-74.5 -117.5t-109 -96q-157 -115 -348 -115
q-88 0 -173 28t-140 87q-48 46 -74.5 101.5t-30.5 120t0.5 118t18.5 127.5zM707 1956l438 -277l-68 -96l-444 262z" />
    <glyph glyph-name="Uacute" unicode="&#xda;" horiz-adv-x="1302" 
d="M428 1516h170l-178 -961q-13 -76 -17.5 -111.5t2 -90.5t31.5 -103q30 -58 94 -92.5t146 -34.5t158.5 34t123.5 91q27 29 47 61t31 54t22.5 63.5t15 58.5t13.5 70l179 961h168l-179 -961q-13 -75 -29.5 -132.5t-45 -121t-74.5 -117.5t-109 -96q-157 -115 -348 -115
q-88 0 -173 28t-140 87q-48 46 -74.5 101.5t-30.5 120t0.5 118t18.5 127.5zM741 1686l539 276l35 -111l-543 -264z" />
    <glyph glyph-name="Ucircumflex" unicode="&#xdb;" horiz-adv-x="1302" 
d="M428 1516h170l-178 -961q-13 -76 -17.5 -111.5t2 -90.5t31.5 -103q30 -58 94 -92.5t146 -34.5t158.5 34t123.5 91q27 29 47 61t31 54t22.5 63.5t15 58.5t13.5 70l179 961h168l-179 -961q-13 -75 -29.5 -132.5t-45 -121t-74.5 -117.5t-109 -96q-157 -115 -348 -115
q-88 0 -173 28t-140 87q-48 46 -74.5 101.5t-30.5 120t0.5 118t18.5 127.5zM1061 1898l307 -272h-172l-213 168l-274 -168h-172l411 272h113z" />
    <glyph glyph-name="Udieresis" unicode="&#xdc;" horiz-adv-x="1302" 
d="M428 1516h170l-178 -961q-13 -76 -17.5 -111.5t2 -90.5t31.5 -103q30 -58 94 -92.5t146 -34.5t158.5 34t123.5 91q27 29 47 61t31 54t22.5 63.5t15 58.5t13.5 70l179 961h168l-179 -961q-13 -75 -29.5 -132.5t-45 -121t-74.5 -117.5t-109 -96q-157 -115 -348 -115
q-88 0 -173 28t-140 87q-48 46 -74.5 101.5t-30.5 120t0.5 118t18.5 127.5zM883 1890l-49 -262h-148l49 262h148zM1268 1890l-49 -262h-148l49 262h148z" />
    <glyph glyph-name="Yacute" unicode="&#xdd;" horiz-adv-x="1198" 
d="M514 0l98 532l-305 984h185l237 -820l539 820h184l-670 -984l-98 -532h-170zM731 1686l539 276l35 -111l-543 -264z" />
    <glyph glyph-name="Thorn" unicode="&#xde;" horiz-adv-x="1130" 
d="M137 0l281 1516h170l-51 -279h229q166 0 247 -20.5t142 -75.5q64 -58 89.5 -156t6.5 -205q-20 -106 -82 -206t-141 -154q-87 -59 -175 -81t-243 -22h-243l-60 -317h-170zM508 1087l-115 -620h242q102 0 166.5 13t126.5 50q56 35 100 102t57 144q15 80 -4 146.5t-63 101.5
q-50 36 -110.5 49.5t-162.5 13.5h-237z" />
    <glyph glyph-name="germandbls" unicode="&#xdf;" horiz-adv-x="1236" 
d="M143 0l174 938q33 178 70 270.5t107 163.5q79 84 184 129t207 45q191 0 287 -117t63 -294q-23 -115 -92.5 -201t-169.5 -133q98 -17 163.5 -76.5t88.5 -142t6 -174.5q-34 -185 -192 -312t-361 -127q-146 2 -238 80.5t-92 235.5l-53 -285h-152zM475 969l-104 -566h98
q-10 -76 6.5 -134.5t54 -91.5t83 -49t98.5 -17q137 0 241 82.5t127 207.5q30 141 -57 230q-41 37 -98 56t-174 20h-82l22 120h60q113 0 210.5 82t120.5 205q26 137 -39.5 214t-195.5 77q-75 0 -143.5 -34t-112.5 -89q-48 -61 -70.5 -128t-44.5 -185z" />
    <glyph glyph-name="agrave" unicode="&#xe0;" horiz-adv-x="1400" 
d="M1458 1102l-205 -1102h-151l43 227q-87 -123 -219 -190.5t-281 -67.5q-88 0 -163 22t-129 61.5t-95 94t-61 119t-25.5 137t10.5 148.5q22 120 84 227.5t150.5 185.5t204 123.5t239.5 45.5q85 0 157.5 -23t122 -61.5t81 -84t43.5 -94.5l43 232h151zM332 551v-2
q-11 -50 -6.5 -101.5t17 -100.5t43 -92t71 -75t101.5 -50.5t134 -18.5q142 0 260.5 73.5t186.5 194.5q53 80 69 174q21 90 -2 176q-26 118 -119 191t-235 73q-189 0 -337.5 -128t-182.5 -314zM745 1597l439 -276l-68 -96l-444 262z" />
    <glyph glyph-name="aacute" unicode="&#xe1;" horiz-adv-x="1400" 
d="M1458 1102l-205 -1102h-151l43 227q-87 -123 -219 -190.5t-281 -67.5q-88 0 -163 22t-129 61.5t-95 94t-61 119t-25.5 137t10.5 148.5q22 120 84 227.5t150.5 185.5t204 123.5t239.5 45.5q85 0 157.5 -23t122 -61.5t81 -84t43.5 -94.5l43 232h151zM332 551v-2
q-11 -50 -6.5 -101.5t17 -100.5t43 -92t71 -75t101.5 -50.5t134 -18.5q142 0 260.5 73.5t186.5 194.5q53 80 69 174q21 90 -2 176q-26 118 -119 191t-235 73q-189 0 -337.5 -128t-182.5 -314zM694 1327l539 277l35 -111l-543 -264z" />
    <glyph glyph-name="acircumflex" unicode="&#xe2;" horiz-adv-x="1400" 
d="M1458 1102l-205 -1102h-151l43 227q-87 -123 -219 -190.5t-281 -67.5q-88 0 -163 22t-129 61.5t-95 94t-61 119t-25.5 137t10.5 148.5q22 120 84 227.5t150.5 185.5t204 123.5t239.5 45.5q85 0 157.5 -23t122 -61.5t81 -84t43.5 -94.5l43 232h151zM332 551v-2
q-11 -50 -6.5 -101.5t17 -100.5t43 -92t71 -75t101.5 -50.5t134 -18.5q142 0 260.5 73.5t186.5 194.5q53 80 69 174q21 90 -2 176q-26 118 -119 191t-235 73q-189 0 -337.5 -128t-182.5 -314zM1032 1540l309 -272h-170l-215 168l-274 -168h-170l410 272h110z" />
    <glyph glyph-name="atilde" unicode="&#xe3;" horiz-adv-x="1400" 
d="M1458 1102l-205 -1102h-151l43 227q-87 -123 -219 -190.5t-281 -67.5q-88 0 -163 22t-129 61.5t-95 94t-61 119t-25.5 137t10.5 148.5q22 120 84 227.5t150.5 185.5t204 123.5t239.5 45.5q85 0 157.5 -23t122 -61.5t81 -84t43.5 -94.5l43 232h151zM332 551v-2
q-11 -50 -6.5 -101.5t17 -100.5t43 -92t71 -75t101.5 -50.5t134 -18.5q142 0 260.5 73.5t186.5 194.5q53 80 69 174q21 90 -2 176q-26 118 -119 191t-235 73q-189 0 -337.5 -128t-182.5 -314zM1290 1473l45 -103q-103 -80 -221 -80q-71 0 -180 37q-97 33 -156 33
q-89 0 -164 -62l-47 105q44 36 103.5 57t115.5 21q86 0 181 -35q90 -33 157 -33q96 0 166 60z" />
    <glyph glyph-name="adieresis" unicode="&#xe4;" horiz-adv-x="1400" 
d="M1458 1102l-205 -1102h-151l43 227q-87 -123 -219 -190.5t-281 -67.5q-88 0 -163 22t-129 61.5t-95 94t-61 119t-25.5 137t10.5 148.5q22 120 84 227.5t150.5 185.5t204 123.5t239.5 45.5q85 0 157.5 -23t122 -61.5t81 -84t43.5 -94.5l43 232h151zM332 551v-2
q-11 -50 -6.5 -101.5t17 -100.5t43 -92t71 -75t101.5 -50.5t134 -18.5q142 0 260.5 73.5t186.5 194.5q53 80 69 174q21 90 -2 176q-26 118 -119 191t-235 73q-189 0 -337.5 -128t-182.5 -314zM844 1532l-49 -262h-148l49 262h148zM1229 1532l-49 -262h-148l49 262h148z" />
    <glyph glyph-name="aring" unicode="&#xe5;" horiz-adv-x="1400" 
d="M1458 1102l-205 -1102h-151l43 227q-87 -123 -219 -190.5t-281 -67.5q-88 0 -163 22t-129 61.5t-95 94t-61 119t-25.5 137t10.5 148.5q22 120 84 227.5t150.5 185.5t204 123.5t239.5 45.5q85 0 157.5 -23t122 -61.5t81 -84t43.5 -94.5l43 232h151zM332 551v-2
q-11 -50 -6.5 -101.5t17 -100.5t43 -92t71 -75t101.5 -50.5t134 -18.5q142 0 260.5 73.5t186.5 194.5q53 80 69 174q21 90 -2 176q-26 118 -119 191t-235 73q-189 0 -337.5 -128t-182.5 -314zM975 1622h2q86 0 135.5 -61.5t34.5 -149.5q-17 -87 -90 -148t-160 -61
q-88 0 -138.5 61.5t-33.5 147.5q15 87 89 149t161 62zM958 1532h-2q-47 0 -87.5 -35.5t-49.5 -83.5q-9 -47 19 -81t77 -34t89 33.5t49 81.5q9 50 -18.5 84.5t-76.5 34.5z" />
    <glyph glyph-name="ae" unicode="&#xe6;" horiz-adv-x="2320" 
d="M2335 512h-994q-7 -81 6.5 -147t42.5 -109.5t65.5 -75t80 -48.5t82 -24.5t74.5 -7.5q226 0 419 228h158q-97 -155 -254 -257t-336 -102q-154 0 -255 76.5t-134 214.5l-49 -260h-141l49 260q-67 -125 -208 -208t-294 -83q-83 0 -153.5 19.5t-121 53t-90.5 79t-61.5 98
t-35.5 109t-12 112.5t9 109q30 164 128.5 297.5t244 210t307.5 76.5q158 0 258.5 -73.5t136.5 -205.5l48 248h141l-47 -246q186 277 483 277q122 0 219 -45.5t158 -126.5q63 -83 84 -195t-8 -254zM332 553v-2q-35 -190 68 -315t292 -125q117 0 227.5 60.5t187 162
t97.5 217.5q17 88 -1 168t-66 141q-102 133 -285 133q-128 0 -241.5 -63t-185 -162.5t-93.5 -214.5zM1366 623h838q1 186 -93 282t-256 96q-186 0 -333 -135q-62 -58 -95 -114.5t-61 -128.5z" />
    <glyph glyph-name="ccedilla" unicode="&#xe7;" horiz-adv-x="1290" 
d="M666 -29l-56 -86q15 6 35 6q66 0 103.5 -45t25.5 -112q-13 -70 -69.5 -123t-139.5 -53q-18 0 -37.5 4t-48 17t-46.5 46t-17 82h88q7 -67 76 -67q36 0 65.5 25t38.5 69q7 37 -13.5 60.5t-56.5 23.5q-45 0 -84 -45l-67 30l112 174q-213 28 -325 187t-70 389q31 161 131 294
t247 209.5t310 76.5q193 0 329.5 -110t156.5 -302h-156q-25 131 -124 200.5t-224 67.5q-95 0 -174 -29.5t-162 -93.5q-66 -54 -115.5 -138.5t-66.5 -176.5q-36 -192 67 -316t285 -124q149 1 269.5 77.5t179.5 184.5h157q-88 -176 -255.5 -286t-368.5 -116z" />
    <glyph glyph-name="egrave" unicode="&#xe8;" horiz-adv-x="1286" 
d="M1313 508h-1004q-12 -80 3 -148.5t50 -115.5t84.5 -80.5t105 -49t112.5 -14.5q127 0 237 60t184 168h158q-111 -178 -274 -269q-156 -90 -330 -90q-93 0 -171.5 24t-132.5 65.5t-95 97.5t-59 120.5t-24 134t9 138.5q29 160 129 294t247.5 212t309.5 78q117 0 213.5 -40.5
t161.5 -115.5q78 -92 100.5 -214.5t-14.5 -254.5zM334 629h852q19 149 -85 264t-270 111q-175 0 -316.5 -110.5t-180.5 -264.5zM698 1597l439 -276l-68 -96l-444 262z" />
    <glyph glyph-name="eacute" unicode="&#xe9;" horiz-adv-x="1286" 
d="M1313 508h-1004q-12 -80 3 -148.5t50 -115.5t84.5 -80.5t105 -49t112.5 -14.5q127 0 237 60t184 168h158q-111 -178 -274 -269q-156 -90 -330 -90q-93 0 -171.5 24t-132.5 65.5t-95 97.5t-59 120.5t-24 134t9 138.5q29 160 129 294t247.5 212t309.5 78q117 0 213.5 -40.5
t161.5 -115.5q78 -92 100.5 -214.5t-14.5 -254.5zM334 629h852q19 149 -85 264t-270 111q-175 0 -316.5 -110.5t-180.5 -264.5zM635 1327l539 277l34 -111l-540 -264z" />
    <glyph glyph-name="ecircumflex" unicode="&#xea;" horiz-adv-x="1286" 
d="M1313 508h-1004q-12 -80 3 -148.5t50 -115.5t84.5 -80.5t105 -49t112.5 -14.5q127 0 237 60t184 168h158q-111 -178 -274 -269q-156 -90 -330 -90q-93 0 -171.5 24t-132.5 65.5t-95 97.5t-59 120.5t-24 134t9 138.5q29 160 129 294t247.5 212t309.5 78q117 0 213.5 -40.5
t161.5 -115.5q78 -92 100.5 -214.5t-14.5 -254.5zM334 629h852q19 149 -85 264t-270 111q-175 0 -316.5 -110.5t-180.5 -264.5zM985 1540l309 -272h-172l-213 168l-274 -168h-172l409 272h113z" />
    <glyph glyph-name="edieresis" unicode="&#xeb;" horiz-adv-x="1286" 
d="M1313 508h-1004q-12 -80 3 -148.5t50 -115.5t84.5 -80.5t105 -49t112.5 -14.5q127 0 237 60t184 168h158q-111 -178 -274 -269q-156 -90 -330 -90q-93 0 -171.5 24t-132.5 65.5t-95 97.5t-59 120.5t-24 134t9 138.5q29 160 129 294t247.5 212t309.5 78q117 0 213.5 -40.5
t161.5 -115.5q78 -92 100.5 -214.5t-14.5 -254.5zM334 629h852q19 149 -85 264t-270 111q-175 0 -316.5 -110.5t-180.5 -264.5zM803 1532l-49 -262h-150l49 262h150zM1188 1532l-49 -262h-148l49 262h148z" />
    <glyph glyph-name="igrave" unicode="&#xec;" horiz-adv-x="446" 
d="M147 0l205 1102h152l-205 -1102h-152zM236 1597l438 -276l-68 -96l-444 262z" />
    <glyph glyph-name="iacute" unicode="&#xed;" horiz-adv-x="446" 
d="M147 0l205 1102h152l-205 -1102h-152zM262 1327l539 277l35 -111l-543 -264z" />
    <glyph glyph-name="icircumflex" unicode="&#xee;" horiz-adv-x="446" 
d="M147 0l205 1102h152l-205 -1102h-152zM565 1540l309 -272h-169l-216 168l-274 -168h-170l410 272h110z" />
    <glyph glyph-name="idieresis" unicode="&#xef;" horiz-adv-x="446" 
d="M147 0l205 1102h152l-205 -1102h-152zM389 1532l-49 -262h-147l49 262h147zM774 1532l-49 -262h-147l49 262h147z" />
    <glyph glyph-name="eth" unicode="&#xf0;" horiz-adv-x="1329" 
d="M895 1280l-496 -147l23 112l362 111q-101 54 -274 119l172 51q146 -53 272 -129l441 129l-21 -113l-313 -94q202 -136 276 -340q64 -180 21 -401q-34 -181 -142.5 -321t-254.5 -212t-304 -74q-115 0 -212.5 39t-165 111t-95 183t-2.5 245q26 131 90.5 240t154 181.5
t197.5 113t222 42.5q98 0 185 -39.5t136 -109.5q-15 60 -63 117q-82 112 -209 186zM332 553v-2q-34 -186 64 -313t290 -127q128 0 240 61.5t183 161.5t93 219q21 115 -16.5 216.5t-125.5 162.5t-206 61q-195 -1 -341 -128.5t-181 -311.5z" />
    <glyph glyph-name="ntilde" unicode="&#xf1;" horiz-adv-x="1306" 
d="M147 0l205 1102h144q-36 -184 -39 -197q68 109 187 170t263 58q84 -1 149.5 -20t109.5 -53.5t73 -80.5t41 -103t11.5 -118.5t-13.5 -130.5l-117 -627h-149l110 596q34 187 -33.5 292.5t-246.5 102.5q-170 -1 -283 -98.5t-145 -269.5l-115 -623h-152zM1249 1473l45 -103
q-103 -80 -221 -80q-71 0 -180 37q-97 33 -156 33q-89 0 -164 -62l-47 105q44 36 103.5 57t115.5 21q86 0 181 -35q90 -33 157 -33q96 0 166 60z" />
    <glyph glyph-name="ograve" unicode="&#xf2;" horiz-adv-x="1329" 
d="M182 551v2q21 115 82.5 220t150.5 185t208.5 127.5t248.5 47.5q130 0 232.5 -47.5t163 -127.5t83 -185.5t1.5 -221.5t-83 -221t-152 -185t-210 -127t-250 -47q-172 0 -291.5 81t-166 212.5t-17.5 286.5zM332 551v-2q-35 -187 66.5 -312.5t285.5 -125.5q121 0 231.5 57
t186 158t98.5 225q35 189 -66 314.5t-286 125.5q-184 0 -332.5 -126t-183.5 -314zM721 1597l436 -276l-67 -96l-445 262z" />
    <glyph glyph-name="oacute" unicode="&#xf3;" horiz-adv-x="1329" 
d="M182 551v2q21 115 82.5 220t150.5 185t208.5 127.5t248.5 47.5q130 0 232.5 -47.5t163 -127.5t83 -185.5t1.5 -221.5t-83 -221t-152 -185t-210 -127t-250 -47q-172 0 -291.5 81t-166 212.5t-17.5 286.5zM332 551v-2q-35 -187 66.5 -312.5t285.5 -125.5q121 0 231.5 57
t186 158t98.5 225q35 189 -66 314.5t-286 125.5q-184 0 -332.5 -126t-183.5 -314zM657 1327l539 277l35 -111l-543 -264z" />
    <glyph glyph-name="ocircumflex" unicode="&#xf4;" horiz-adv-x="1329" 
d="M182 551v2q21 115 82.5 220t150.5 185t208.5 127.5t248.5 47.5q130 0 232.5 -47.5t163 -127.5t83 -185.5t1.5 -221.5t-83 -221t-152 -185t-210 -127t-250 -47q-172 0 -291.5 81t-166 212.5t-17.5 286.5zM332 551v-2q-35 -187 66.5 -312.5t285.5 -125.5q121 0 231.5 57
t186 158t98.5 225q35 189 -66 314.5t-286 125.5q-184 0 -332.5 -126t-183.5 -314zM1008 1540l307 -272h-170l-213 168l-275 -168h-172l410 272h113z" />
    <glyph glyph-name="otilde" unicode="&#xf5;" horiz-adv-x="1329" 
d="M182 551v2q21 115 82.5 220t150.5 185t208.5 127.5t248.5 47.5q130 0 232.5 -47.5t163 -127.5t83 -185.5t1.5 -221.5t-83 -221t-152 -185t-210 -127t-250 -47q-172 0 -291.5 81t-166 212.5t-17.5 286.5zM332 551v-2q-35 -187 66.5 -312.5t285.5 -125.5q121 0 231.5 57
t186 158t98.5 225q35 189 -66 314.5t-286 125.5q-184 0 -332.5 -126t-183.5 -314zM1260 1473l47 -103q-103 -80 -222 -80q-71 0 -180 37q-97 33 -155 33q-91 0 -166 -62l-45 105q44 36 103 57t116 21q81 0 180 -35q90 -33 156 -33q96 0 166 60z" />
    <glyph glyph-name="odieresis" unicode="&#xf6;" horiz-adv-x="1329" 
d="M182 551v2q21 115 82.5 220t150.5 185t208.5 127.5t248.5 47.5q130 0 232.5 -47.5t163 -127.5t83 -185.5t1.5 -221.5t-83 -221t-152 -185t-210 -127t-250 -47q-172 0 -291.5 81t-166 212.5t-17.5 286.5zM332 551v-2q-35 -187 66.5 -312.5t285.5 -125.5q121 0 231.5 57
t186 158t98.5 225q35 189 -66 314.5t-286 125.5q-184 0 -332.5 -126t-183.5 -314zM831 1532l-49 -262h-147l49 262h147zM1217 1532l-50 -262h-147l49 262h148z" />
    <glyph glyph-name="divide" unicode="&#xf7;" horiz-adv-x="1228" 
d="M887 1067l-41 -219h-148l41 219h148zM182 440l27 148h1028l-27 -148h-1028zM721 180l-41 -219h-148l41 219h148z" />
    <glyph glyph-name="oslash" unicode="&#xf8;" horiz-adv-x="1329" 
d="M1255 1174h158l-170 -191q75 -83 103.5 -194t5.5 -238q-29 -156 -125 -288t-246.5 -213t-321.5 -81q-167 0 -278 76l-105 -115h-159l174 189q-74 75 -103.5 188t-5.5 244q29 155 124 287t245 213.5t323 81.5q175 0 279 -76zM410 240l634 694q-79 57 -194 57
q-186 0 -334.5 -125.5t-183.5 -314.5q-18 -96 3 -176.5t75 -134.5zM1124 860l-635 -694q80 -55 195 -55q189 0 335.5 127t180.5 313q37 196 -76 309z" />
    <glyph glyph-name="ugrave" unicode="&#xf9;" horiz-adv-x="1308" 
d="M1366 1102l-205 -1102h-143l37 197q-67 -108 -185.5 -168.5t-265.5 -59.5q-84 1 -149.5 20.5t-109.5 54.5t-73 80.5t-41 103t-11.5 119t13.5 130.5l117 625h150l-111 -596q-35 -186 33 -291t248 -104q172 1 284.5 98.5t143.5 269.5l116 623h152zM645 1597l436 -276
l-67 -96l-445 262z" />
    <glyph glyph-name="uacute" unicode="&#xfa;" horiz-adv-x="1308" 
d="M1366 1102l-205 -1102h-143l37 197q-67 -108 -185.5 -168.5t-265.5 -59.5q-84 1 -149.5 20.5t-109.5 54.5t-73 80.5t-41 103t-11.5 119t13.5 130.5l117 625h150l-111 -596q-35 -186 33 -291t248 -104q172 1 284.5 98.5t143.5 269.5l116 623h152zM678 1327l539 277
l34 -111l-542 -264z" />
    <glyph glyph-name="ucircumflex" unicode="&#xfb;" horiz-adv-x="1308" 
d="M1366 1102l-205 -1102h-143l37 197q-67 -108 -185.5 -168.5t-265.5 -59.5q-84 1 -149.5 20.5t-109.5 54.5t-73 80.5t-41 103t-11.5 119t13.5 130.5l117 625h150l-111 -596q-35 -186 33 -291t248 -104q172 1 284.5 98.5t143.5 269.5l116 623h152zM995 1540l310 -272h-170
l-215 168l-275 -168h-170l410 272h110z" />
    <glyph glyph-name="udieresis" unicode="&#xfc;" horiz-adv-x="1308" 
d="M1366 1102l-205 -1102h-143l37 197q-67 -108 -185.5 -168.5t-265.5 -59.5q-84 1 -149.5 20.5t-109.5 54.5t-73 80.5t-41 103t-11.5 119t13.5 130.5l117 625h150l-111 -596q-35 -186 33 -291t248 -104q172 1 284.5 98.5t143.5 269.5l116 623h152zM819 1532l-49 -262h-147
l49 262h147zM1204 1532l-49 -262h-147l49 262h147z" />
    <glyph glyph-name="yacute" unicode="&#xfd;" horiz-adv-x="1048" 
d="M176 -418l270 438l-225 1082h162l180 -891l522 891h166l-911 -1520h-164zM588 1327l538 277l35 -111l-540 -264z" />
    <glyph glyph-name="thorn" unicode="&#xfe;" horiz-adv-x="1404" 
d="M70 -418l358 1934h150l-91 -492l-28 -152q51 72 118 125t136 81.5t131.5 41.5t120.5 13q86 0 160 -22t128 -62t95 -94.5t61 -120t26 -138.5t-10 -149q-29 -161 -126.5 -293.5t-242 -208.5t-304.5 -76t-266 73t-148 183l-25 -139l-94 -504h-149zM1276 551v2
q22 120 -13.5 219.5t-125.5 159t-217 59.5q-90 0 -177.5 -33.5t-158.5 -93.5q-153 -124 -191 -317q-13 -82 4.5 -160.5t63.5 -140.5q49 -63 125 -99t170 -36q190 0 338 127t182 313z" />
    <glyph glyph-name="ydieresis" unicode="&#xff;" horiz-adv-x="1048" 
d="M176 -418l270 438l-225 1082h162l180 -891l522 891h166l-911 -1520h-164zM690 1532l-49 -262h-147l49 262h147zM1075 1532l-49 -262h-147l49 262h147z" />
    <glyph glyph-name="dotlessi" unicode="&#x131;" horiz-adv-x="446" 
d="M147 0l205 1102h152l-205 -1102h-152z" />
    <glyph glyph-name="Lslash" unicode="&#x141;" horiz-adv-x="909" 
d="M94 492l33 174l178 114l135 736h170l-112 -613l327 209l-32 -174l-330 -215l-105 -573h578l-29 -150h-747l112 604z" />
    <glyph glyph-name="lslash" unicode="&#x142;" horiz-adv-x="532" 
d="M313 676l-168 -105l29 158l168 105l127 682h152l-109 -586l199 125l-29 -156l-199 -129l-143 -770h-152z" />
    <glyph glyph-name="OE" unicode="&#x152;" horiz-adv-x="2349" 
d="M1898 1366l-98 -526h582l-29 -150h-581l-99 -540h588l-29 -150h-751l32 174l31 172q-113 -171 -300 -272t-386 -101q-163 0 -297 59.5t-219.5 163t-119 249t-3.5 311.5q41 219 174.5 398.5t332.5 283.5t421 104q223 0 370.5 -105t180.5 -268l33 174l30 173h752l-27 -150
h-588zM389 756v-2q-31 -171 19 -314.5t175.5 -230t301.5 -86.5q177 0 335.5 87.5t263.5 233.5t136 318q29 175 -22 318.5t-176 228t-302 84.5q-176 0 -332 -84.5t-260.5 -229.5t-138.5 -323z" />
    <glyph glyph-name="oe" unicode="&#x153;" horiz-adv-x="2312" 
d="M2331 514h-992q-13 -99 9 -179t71 -130.5t117 -77.5t147 -27q125 0 237.5 60t178.5 170h158q-100 -163 -242 -254q-173 -107 -354 -107q-97 0 -176 27t-131.5 74t-85 104.5t-45.5 124.5q-99 -161 -249 -245.5t-319 -84.5q-87 0 -160.5 20t-124.5 55t-91 81.5t-61 99.5
t-34.5 109.5t-11 111t9.5 103.5q29 161 127 294t247 211.5t318 78.5q172 0 290 -91t151 -239q23 39 55.5 79t84.5 85.5t111.5 80t140 57.5t165.5 23q120 0 217 -46t160 -128q68 -87 90 -202.5t-8 -237.5zM332 551v-2q-23 -121 15 -221.5t127.5 -158.5t211.5 -58q94 0 183 38
t155 100t112.5 140.5t61.5 159.5q15 80 -2 159t-59.5 142.5t-117.5 103t-169 39.5q-183 0 -333 -125t-185 -317zM1364 625h831q4 48 -6 98t-36.5 99t-66 87t-102 62t-137.5 24q-161 0 -296.5 -103.5t-186.5 -266.5z" />
    <glyph glyph-name="Scaron" unicode="&#x160;" horiz-adv-x="1097" 
d="M156 422h170q-7 -72 8 -128t41.5 -88.5t63.5 -53.5t69.5 -28t64.5 -7q121 0 227 83t130 206q13 72 -1.5 124t-67.5 88.5t-88 51.5t-119 44q-17 6 -25 9q-132 43 -197 89q-152 111 -115 312q22 129 105.5 226t194.5 144.5t229 47.5q59 0 112.5 -13t102.5 -42.5t83 -73.5
t50 -111.5t8 -150.5h-168q0 35 -3.5 64t-16.5 65t-36 60.5t-65 41.5t-100 17q-117 0 -211 -72t-115 -188q-5 -34 -6 -61.5t9 -51t23 -42t35 -35.5t46 -31t56.5 -27.5t66 -26t73.5 -27.5q11 -4 17 -6q121 -50 172 -86q160 -114 121 -327q-36 -190 -189.5 -317.5
t-361.5 -127.5q-198 0 -311 119.5t-82 329.5zM485 1894h170l215 -170l273 170h172l-408 -270h-114z" />
    <glyph glyph-name="scaron" unicode="&#x161;" horiz-adv-x="921" 
d="M946 825h-149q15 86 -28 134.5t-128 48.5q-88 0 -150 -52t-73 -127q-10 -73 34.5 -113.5t147.5 -72.5q129 -37 180 -68q125 -76 105 -245q-1 -5 -2 -11q-21 -150 -146 -250t-284 -100q-69 0 -130.5 22t-108.5 63t-68.5 108.5t-6.5 150.5h150q-14 -107 42.5 -163
t147.5 -56q94 0 165 60.5t85 146.5q14 90 -38.5 139t-194.5 92q-62 20 -104.5 41t-78 53.5t-48 80t-1.5 110.5q27 144 142 230t260 86q61 0 113.5 -17.5t95.5 -52.5t62.5 -96.5t8.5 -141.5zM330 1528h170l215 -168l272 168h172l-407 -271h-115z" />
    <glyph glyph-name="Ydieresis" unicode="&#x178;" horiz-adv-x="1198" 
d="M514 0l98 532l-305 984h185l237 -820l539 820h184l-670 -984l-98 -532h-170zM831 1890l-49 -262h-149l49 262h149zM1217 1890l-50 -262h-147l49 262h148z" />
    <glyph glyph-name="Zcaron" unicode="&#x17d;" horiz-adv-x="1021" 
d="M1231 1386l-959 -1236h760l-28 -150h-965l20 109l977 1257h-764l27 150h956zM436 1886h170l213 -168l275 168h172l-410 -270h-115z" />
    <glyph glyph-name="zcaron" unicode="&#x17e;" horiz-adv-x="858" 
d="M27 0l20 111l772 870h-586l23 121h756l-23 -123l-758 -858h621l-23 -121h-802zM303 1526h170l215 -170l275 170h170l-408 -271h-115z" />
    <glyph glyph-name="florin" unicode="&#x192;" 
d="M948 1044h244l-23 -120h-262l-332 -895q-27 -73 -43.5 -113t-49 -96.5t-70.5 -98.5q-137 -149 -361 -149q-73 0 -114 14l51 140q6 -1 23 -6t30 -7t31 -2q54 0 98.5 11.5t77.5 35t57 48t44 62.5t32 66t27 70l340 920h-246l22 120h267q47 139 98.5 235.5t134.5 164.5
q129 98 283 98q45 0 63 -6l-45 -125q-23 3 -51 0q-103 -9 -170 -70q-17 -15 -32 -33t-28.5 -42t-23 -41.5t-22 -48t-18 -44t-17.5 -47t-15 -41.5z" />
    <glyph glyph-name="circumflex" unicode="&#x2c6;" horiz-adv-x="1136" 
d="M909 1540l310 -272h-170l-215 168l-275 -168h-170l410 272h110z" />
    <glyph glyph-name="caron" unicode="&#x2c7;" horiz-adv-x="1136" 
d="M436 1528h170l215 -168l275 168h170l-408 -271h-115z" />
    <glyph glyph-name="uni02C9" unicode="&#x2c9;" horiz-adv-x="1136" 
d="M1204 1456l-24 -127h-731l24 127h731z" />
    <glyph glyph-name="breve" unicode="&#x2d8;" horiz-adv-x="1136" 
d="M442 1495h136q28 -45 85.5 -70.5t167.5 -25.5q105 0 175 27.5t104 68.5h137q-41 -93 -156.5 -155t-285.5 -62q-89 0 -163 20.5t-130 71t-70 125.5z" />
    <glyph glyph-name="dotaccent" unicode="&#x2d9;" horiz-adv-x="1136" 
d="M928 1532l-49 -262h-150l49 262h150z" />
    <glyph glyph-name="ring" unicode="&#x2da;" horiz-adv-x="1136" 
d="M868 1622h2q86 0 135.5 -61.5t34.5 -149.5q-17 -87 -89.5 -148t-159.5 -61q-88 0 -139 61.5t-34 147.5q15 87 89 149t161 62zM852 1532h-2q-47 0 -87.5 -35.5t-49.5 -83.5q-9 -47 19.5 -81t76.5 -34q49 0 88.5 33.5t48.5 81.5q9 50 -18 84.5t-76 34.5z" />
    <glyph glyph-name="ogonek" unicode="&#x2db;" horiz-adv-x="1136" 
d="M565 0h97q-106 -68 -136 -95q-46 -43 -55 -95q-10 -56 22 -94t87 -38q33 0 112 27l-18 -98q-72 -29 -139 -29q-104 0 -154.5 55.5t-32.5 143.5q7 41 27.5 75t55.5 62.5t62.5 45t71.5 40.5z" />
    <glyph glyph-name="tilde" unicode="&#x2dc;" horiz-adv-x="1136" 
d="M1163 1473l47 -103q-106 -80 -221 -80q-71 0 -180 37q-97 33 -156 33q-91 0 -166 -62l-47 105q44 36 103.5 57t115.5 21q86 0 181 -35q94 -33 157 -33q96 0 166 60z" />
    <glyph glyph-name="hungarumlaut" unicode="&#x2dd;" horiz-adv-x="1136" 
d="M453 1311l415 295l70 -93l-424 -284zM809 1311l416 295l69 -93l-424 -284z" />
    <glyph glyph-name="uni03A9" unicode="&#x3a9;" horiz-adv-x="1527" 
d="M449 129v6q-104 114 -153 289t-9 389q29 158 102.5 293.5t175.5 229t229 147t261 53.5q111 0 203 -38t153 -104.5t100 -157t44.5 -195.5t-13.5 -220q-40 -220 -158.5 -400.5t-261.5 -285.5v-6h322l-25 -129h-506l19 94q97 59 184.5 153t161.5 238t104 308q13 72 13 144.5
t-13 141t-42 127.5t-71 103.5t-104 70t-137 25.5q-142 0 -267.5 -83t-209 -223t-115.5 -311q-42 -230 18.5 -419t176.5 -275l-19 -94h-506l25 129h318z" />
    <glyph glyph-name="uni03BC" unicode="&#x3bc;" horiz-adv-x="1198" 
d="M72 -377l274 1479h152l-111 -596q-11 -62 -16 -103t1 -95t29 -91q63 -106 215 -106q150 0 256 118q103 115 148 342l98 531h150l-205 -1102h-145l38 209q-136 -234 -364 -234q-54 0 -99 11.5t-72.5 27.5t-50 40t-33 41.5t-20.5 39.5l-28 -158l-66 -354h-151z" />
    <glyph glyph-name="pi" unicode="&#x3c0;" horiz-adv-x="1208" 
d="M1335 991h-172l-125 -674q-40 -205 -28 -317h-150q-23 67 21 303l129 688h-389q-56 -238 -157.5 -542.5t-184.5 -448.5h-150q88 167 186.5 461.5t151.5 529.5q-153 0 -244 -26l-4 102q102 57 313 57h844z" />
    <glyph glyph-name="uni2010" unicode="&#x2010;" horiz-adv-x="555" 
d="M121 649h555l-29 -149h-555z" />
    <glyph glyph-name="endash" unicode="&#x2013;" horiz-adv-x="1024" 
d="M193 649h880l-29 -149h-880z" />
    <glyph glyph-name="emdash" unicode="&#x2014;" horiz-adv-x="2048" 
d="M193 649h1904l-29 -149h-1904z" />
    <glyph glyph-name="quoteleft" unicode="&#x2018;" horiz-adv-x="591" 
d="M604 1516l74 -381h-125l-90 381h141z" />
    <glyph glyph-name="quoteright" unicode="&#x2019;" horiz-adv-x="591" 
d="M336 1135l213 381h143l-229 -381h-127z" />
    <glyph glyph-name="quotesinglbase" unicode="&#x201a;" horiz-adv-x="591" 
d="M94 -168l213 381h144l-230 -381h-127z" />
    <glyph glyph-name="quotedblleft" unicode="&#x201c;" horiz-adv-x="882" 
d="M631 1516l76 -381h-127l-91 381h142zM879 1516l75 -381h-127l-90 381h142z" />
    <glyph glyph-name="quotedblright" unicode="&#x201d;" horiz-adv-x="882" 
d="M350 1135l215 381h142l-230 -381h-127zM598 1135l215 381h141l-229 -381h-127z" />
    <glyph glyph-name="quotedblbase" unicode="&#x201e;" horiz-adv-x="882" 
d="M109 -168l215 381h141l-229 -381h-127zM356 -168l215 381h142l-230 -381h-127z" />
    <glyph glyph-name="dagger" unicode="&#x2020;" horiz-adv-x="1239" 
d="M977 1516l-76 -414h365l-27 -135h-365l-233 -1270h-154l234 1270h-363l27 135h363l75 414h154z" />
    <glyph glyph-name="daggerdbl" unicode="&#x2021;" horiz-adv-x="1239" 
d="M979 1516l-66 -353h363l-25 -137h-362l-146 -782h363l-25 -135h-362l-76 -412h-154l76 412h-364l24 135h365l145 782h-364l24 137h365l65 353h154z" />
    <glyph glyph-name="bullet" unicode="&#x2022;" horiz-adv-x="1015" 
d="M694 989h2q91 0 142 -65.5t34 -157.5t-93.5 -156.5t-170.5 -64.5q-93 0 -146 65t-36 156q17 92 94.5 157.5t173.5 65.5z" />
    <glyph glyph-name="ellipsis" unicode="&#x2026;" horiz-adv-x="2048" 
d="M262 0l43 227h160l-43 -227h-160zM944 0l43 227h160l-43 -227h-160zM1626 0l43 227h160l-43 -227h-160z" />
    <glyph glyph-name="perthousand" unicode="&#x2030;" horiz-adv-x="2344" 
d="M272 1198l2 2q26 146 144 245t266 99t228.5 -99t52.5 -247q-26 -148 -144 -247t-266 -99q-146 0 -227.5 99t-55.5 247zM387 1198v-2q-19 -100 34 -166.5t154 -66.5q100 0 178 66.5t97 168.5q20 102 -32.5 169t-153.5 67t-179 -67t-98 -169zM877 317v2q28 147 145 246
t264 99q148 0 229.5 -99.5t53.5 -247.5q-28 -147 -146.5 -246.5t-265.5 -99.5q-146 0 -227 99t-53 247zM991 317v-2q-20 -100 33 -166.5t154 -66.5t179.5 66.5t98.5 168.5q19 103 -35 170.5t-155 67.5t-178.5 -68t-96.5 -170zM1663 317v2q28 147 145.5 246t264.5 99
q146 0 227 -99.5t53 -247.5t-145.5 -247t-263.5 -99q-148 0 -228.5 99t-52.5 247zM1776 317v-2q-20 -100 33 -166.5t155 -66.5q100 0 178.5 67t98.5 168q19 103 -35 170.5t-154 67.5q-102 0 -179.5 -68t-96.5 -170zM1536 1516l-1114 -1516h-123l1114 1516h123z" />
    <glyph glyph-name="guilsinglleft" unicode="&#x2039;" horiz-adv-x="489" 
d="M180 569l295 389h127l-295 -389l152 -385h-127z" />
    <glyph glyph-name="guilsinglright" unicode="&#x203a;" horiz-adv-x="489" 
d="M373 958l149 -389l-293 -385h-127l293 385l-149 389h127z" />
    <glyph glyph-name="fraction" unicode="&#x2044;" horiz-adv-x="260" 
d="M-268 0l942 1516h133l-942 -1516h-133z" />
    <glyph glyph-name="Euro" unicode="&#x20ac;" horiz-adv-x="1134" 
d="M1393 1350l-86 -148q-35 86 -117 144.5t-211 58.5q-94 0 -175 -41t-135.5 -108.5t-89 -143t-49.5 -154.5h637l-75 -129h-588l-27 -143h531l-76 -129h-475q-11 -57 -7.5 -148.5t27.5 -142.5q74 -155 262 -155q94 0 198.5 40.5t154.5 106.5l-33 -178q-24 -21 -61.5 -42.5
t-116 -43t-166.5 -21.5q-91 0 -167.5 25t-141 87.5t-93.5 156.5q-36 111 -8 315h-186l76 129h131l26 143h-182l76 129h133q16 89 50.5 172.5t89.5 158.5t125 131t163.5 89t198.5 33q142 0 244.5 -59t142.5 -133z" />
    <glyph glyph-name="afii61289" unicode="&#x2113;" horiz-adv-x="1028" 
d="M963 315l63 -63q-188 -268 -444 -268q-71 0 -125.5 21.5t-86.5 58.5t-51 88t-20.5 110.5t6.5 124.5l6 29q-106 -77 -141 -101l-31 91q18 14 63 46.5t75.5 56t56.5 46.5l110 594q27 141 74.5 245.5t106 162t118.5 84t123 26.5q128 0 177 -97.5t20 -250.5
q-35 -195 -185.5 -390.5t-402.5 -406.5l-12 -71q-30 -174 20.5 -259.5t151.5 -85.5q92 0 177.5 61.5t150.5 147.5zM594 1161l-90 -483q189 174 305 330t145 307q45 233 -110 233q-32 0 -66 -20.5t-69 -63t-65.5 -121t-49.5 -182.5z" />
    <glyph glyph-name="trademark" unicode="&#x2122;" horiz-adv-x="2027" 
d="M852 606l168 910h158l208 -740l482 740h157l-167 -910h-117l141 760l-487 -760h-80l-209 756l-139 -756h-115zM371 606l149 805h-231l18 105h586l-19 -105h-231l-149 -805h-123z" />
    <glyph glyph-name="Omega" unicode="&#x2126;" horiz-adv-x="1527" 
d="M449 129v6q-104 114 -153 289t-9 389q29 158 102.5 293.5t175.5 229t229 147t261 53.5q111 0 203 -38t153 -104.5t100 -157t44.5 -195.5t-13.5 -220q-40 -220 -158.5 -400.5t-261.5 -285.5v-6h322l-25 -129h-506l19 94q97 59 184.5 153t161.5 238t104 308q13 72 13 144.5
t-13 141t-42 127.5t-71 103.5t-104 70t-137 25.5q-142 0 -267.5 -83t-209 -223t-115.5 -311q-42 -230 18.5 -419t176.5 -275l-19 -94h-506l25 129h318z" />
    <glyph glyph-name="estimated" unicode="&#x212e;" horiz-adv-x="2174" 
d="M2101 735h-1411q-12 0 -12 -8v-428q0 -28 18 -49q106 -109 244 -170.5t291 -61.5q165 0 310 69.5t251 191.5h125q-120 -140 -301 -222t-387 -82q-177 0 -338.5 62t-278 167t-185.5 250t-69 304t69 304t185.5 249.5t278 166.5t338.5 62t338.5 -62t278.5 -166.5t186 -249.5
t69 -304v-23zM1780 791v430q0 30 -21 51q-106 105 -241.5 164t-286.5 59q-152 0 -289.5 -61t-243.5 -168q-20 -20 -20 -54v-421q0 -4 3.5 -8.5t8.5 -4.5h1082q8 0 8 13z" />
    <glyph glyph-name="partialdiff" unicode="&#x2202;" horiz-adv-x="1157" 
d="M487 1462l-30 113q170 121 370 121q105 0 190.5 -49.5t144 -150.5t73.5 -254.5t-21 -362.5q-36 -193 -102 -355t-156 -283t-208 -189t-252 -68q-80 0 -142.5 27.5t-100 75.5t-60 111.5t-23 135t11.5 147.5q30 164 117 292t201.5 194.5t234.5 66.5q69 0 128.5 -22.5
t96 -57t58.5 -67t31 -60.5h2q10 43 18 95q34 196 8 339t-101.5 223.5t-184.5 80.5q-157 0 -304 -103zM530 113h5q98 0 192.5 79.5t164 204t112.5 273.5q-6 38 -26 77.5t-52 76.5t-82 60t-109 23q-132 0 -249.5 -125.5t-149.5 -300.5q-31 -162 21.5 -265t172.5 -103z" />
    <glyph glyph-name="uni2206" unicode="&#x2206;" horiz-adv-x="1374" 
d="M68 0l20 106l801 1446h178l260 -1443l-20 -109h-1239zM246 127h917l-155 840q-6 53 -34 200.5t-32 200.5h-8q-20 -44 -95.5 -180.5t-101.5 -188.5z" />
    <glyph glyph-name="product" unicode="&#x220f;" horiz-adv-x="1761" 
d="M1706 1368h-233v-1577h-154v1577h-598v-1577h-154v1577h-233v143h1372v-143z" />
    <glyph glyph-name="summation" unicode="&#x2211;" horiz-adv-x="1454" 
d="M1407 -209h-1079v107l573 751l-547 752v110h1018v-135h-803v-8l512 -696l-553 -725v-6h879v-150z" />
    <glyph glyph-name="minus" unicode="&#x2212;" horiz-adv-x="1228" 
d="M182 440l27 148h1028l-27 -148h-1028z" />
    <glyph glyph-name="uni2215" unicode="&#x2215;" horiz-adv-x="260" 
d="M-268 0l942 1516h133l-942 -1516h-133z" />
    <glyph glyph-name="uni2219" unicode="&#x2219;" horiz-adv-x="591" 
d="M494 635l-41 -227h-160l41 227h160z" />
    <glyph glyph-name="radical" unicode="&#x221a;" horiz-adv-x="1499" 
d="M1499 1796l-471 -2120h-139l-340 1006l-160 -59l-31 96l287 112l275 -806q4 -18 12 -52t14 -60.5t10 -45.5h2q2 10 29 156l395 1773h117z" />
    <glyph glyph-name="infinity" unicode="&#x221e;" horiz-adv-x="1832" 
d="M1726 629v-2q0 -150 -96 -244t-229 -94q-97 0 -184.5 59.5t-206.5 194.5q-54 -61 -89.5 -96t-89 -77t-109.5 -61.5t-118 -19.5q-132 0 -225.5 95.5t-93.5 233.5q0 146 94 242t239 96q110 0 203 -67t195 -189q39 43 49 54.5t46.5 49.5t53.5 51t52.5 38.5t62 35t63 18.5
t74.5 9q138 0 223.5 -90.5t85.5 -236.5zM618 387h3q28 0 55.5 6.5t55.5 23t48 30t49 41t42 41t43 46.5t38 41q-90 110 -128 146q-106 100 -220 100q-98 0 -156.5 -72t-56.5 -174q0 -97 63 -163t164 -66zM1405 862h-2q-41 0 -81 -16t-78 -46.5t-64 -55.5t-62 -64.5t-49 -52.5
q119 -134 189 -187t151 -53q96 0 154.5 71.5t58.5 162.5q0 112 -60.5 176.5t-156.5 64.5z" />
    <glyph glyph-name="integral" unicode="&#x222b;" horiz-adv-x="1044" 
d="M1010 1817l-27 -111q-35 23 -78 23q-68 0 -106 -52q-41 -49 -57.5 -139t-16.5 -248q0 -167 14.5 -540t14.5 -551q0 -294 -92 -437q-33 -54 -89 -82t-120 -28q-38 0 -78.5 11.5t-61.5 25.5l29 114q47 -26 96 -26q62 0 99 49q73 93 73 375q0 178 -14 556.5t-14 547.5
q0 180 25.5 286t86.5 170q78 84 201 84q69 0 115 -28z" />
    <glyph glyph-name="approxequal" unicode="&#x2248;" horiz-adv-x="1368" 
d="M1206 928l64 -58q-98 -202 -273 -202q-42 0 -84 12.5t-72 27.5t-93 50q-43 25 -68 37.5t-62 24t-71 11.5q-67 0 -115 -41.5t-96 -117.5l-68 53q50 97 126 151t167 54q30 0 58 -5.5t56.5 -17.5t45 -20t45 -24.5t35.5 -20.5q9 -5 30.5 -17t30 -16t26 -13t28.5 -12.5
t26.5 -8t30.5 -6t31 -1.5q62 0 108.5 39t93.5 121zM1206 563l64 -55q-101 -203 -273 -203q-42 0 -84 12.5t-72 27.5t-93 50q-45 26 -68.5 38t-60.5 24t-70 12q-69 0 -116.5 -42t-96.5 -120l-68 55q50 97 126 151t167 54q37 0 76.5 -11t58 -19t60.5 -31.5t45 -24.5
q8 -4 34 -18.5t34.5 -19t30 -14t34.5 -13t32 -7t38 -3.5q63 0 108 37.5t94 119.5z" />
    <glyph glyph-name="notequal" unicode="&#x2260;" horiz-adv-x="1404" 
d="M1057 1083l-96 -209h335v-104h-376l-144 -313h520v-101h-561l-117 -252l-81 37l100 215h-322v101h365l141 313h-506v104h547l113 246z" />
    <glyph glyph-name="lessequal" unicode="&#x2264;" horiz-adv-x="1433" 
d="M1321 211l-963 483v107l963 483v-123l-852 -409v-4l852 -414v-123zM1327 16h-981v107h981v-107z" />
    <glyph glyph-name="greaterequal" unicode="&#x2265;" horiz-adv-x="1433" 
d="M360 1284l963 -483v-107l-963 -483v123l850 411v5l-850 411v123zM1325 16h-977v107h977v-107z" />
    <glyph glyph-name="lozenge" unicode="&#x25ca;" horiz-adv-x="1501" 
d="M1384 756l-430 -852h-127l-426 852l430 852h127zM1241 752l-305 608q-27 59 -41 113h-6q-12 -51 -41 -113l-303 -602l307 -613q32 -77 37 -110h8q11 55 39 108z" />
    <glyph glyph-name="fi" unicode="&#xfb01;" horiz-adv-x="946" 
d="M829 981h-323l-182 -981h-150l182 981h-161l22 121h162l16 90q13 70 39.5 126t56.5 92t71.5 62t76.5 39.5t79 20.5t70 8.5t60 1.5l-23 -121q-89 -5 -133 -23q-118 -49 -149 -220l-15 -76h476l-205 -1102h-152zM1040 1305h-151l39 211h151z" />
    <glyph glyph-name="fl" unicode="&#xfb02;" horiz-adv-x="946" 
d="M829 981h-323l-182 -981h-150l182 981h-161l22 121h162l16 90q13 70 39.5 126t56.5 92t71.5 62t76.5 39.5t79 20.5t70 8.5t60 1.5l-23 -121q-89 -5 -133 -23q-118 -49 -149 -220l-15 -76h324l76 414h151l-280 -1516h-152z" />
    <glyph glyph-name="a.superior" horiz-adv-x="862" 
d="M1044 1526l-120 -652h-105l25 134q-52 -75 -127 -112.5t-160 -37.5q-150 0 -229 101t-52 241q27 147 146 244.5t262 97.5q176 0 231 -153l25 137h104zM381 1196v-2q-7 -39 2 -80t32.5 -77t68.5 -58.5t104 -22.5q76 0 141 37t107 97q33 50 45 110q9 57 -2 103
q-19 63 -73 102t-130 39q-102 0 -188 -69.5t-107 -178.5z" />
    <glyph glyph-name="o.superior" horiz-adv-x="862" 
d="M307 1196v2q27 142 142 243t266 101q155 0 232.5 -102t51.5 -240q-28 -145 -146.5 -243.5t-264.5 -98.5t-226 100.5t-55 237.5zM412 1196v-2q-17 -96 40 -167t154 -71t182.5 70t106.5 174q17 101 -38.5 172.5t-156.5 71.5q-99 0 -183 -69.5t-105 -178.5z" />
    <glyph glyph-name="one.superior" horiz-adv-x="757" 
d="M733 1516l-168 -910h-121l150 803h-184l18 107h305z" />
    <glyph glyph-name="two.superior" horiz-adv-x="757" 
d="M807 713l-19 -107h-602l19 99q68 56 203 168t202 169q76 65 112.5 112.5t45.5 96.5q14 74 -16 124t-115 50q-81 0 -137 -60t-74 -155h-121q22 128 96 207q105 115 263 115q136 0 200 -71.5t39 -198.5q-13 -73 -55.5 -132.5t-122.5 -128.5q-65 -53 -183 -153.5
t-159 -134.5h424z" />
    <glyph glyph-name="three.superior" horiz-adv-x="757" 
d="M223 883h127q-14 -92 32.5 -139.5t119.5 -47.5q86 0 145 51.5t74 131.5q2 23 1 47.5t-13 48.5t-30 42.5t-49.5 30t-72.5 11.5h-74l17 94h53q83 0 131.5 45t58.5 94q10 55 -16 93.5t-86 39.5q-64 1 -106.5 -37.5t-55.5 -97.5h-125q15 67 51.5 116.5t83 75.5t90.5 38t85 12
q105 0 164 -65.5t40 -161.5q-11 -63 -53.5 -112.5t-97.5 -76.5q72 -30 108 -95.5t21 -146.5q-23 -123 -128 -203.5t-239 -80.5q-77 0 -140.5 30.5t-94.5 88.5q-37 76 -21 174z" />
    </font>
</defs>
</svg>
